<svg xmlns="http://www.w3.org/2000/svg" viewBox="0 0 88.25 84.47" width="88.25" height="84.47">
    <defs>
        <style>.cls-1{fill:none;stroke:#00bce7;stroke-miterlimit:10;stroke-width:2px;}</style>
    </defs>
    <g id="레이어_2" data-name="레이어 2">
        <g id="Layer_1" data-name="Layer 1">
            <path class="cls-1" d="M57.57,71.16,35,48.56A17.55,17.55,0,0,0,12.34,25.93L22.81,36.39l-2.16,8-8,2.16L2.14,36.13A17.55,17.55,0,0,0,24.77,58.77l22.6,22.59a7.21,7.21,0,0,0,10.2-10.2Zm-7.29,7.29a3.1,3.1,0,1,1,4.38,0A3.1,3.1,0,0,1,50.28,78.45Z"/>
            <path class="cls-1" d="M53,31.91,74.71,53.58A7.41,7.41,0,0,0,85,54a7.21,7.21,0,0,0,.16-10.36L63.25,21.71a1,1,0,0,0-1.42,0L53,30.5A1,1,0,0,0,53,31.91Zm24.8,19a3.09,3.09,0,1,1,4.38,0A3.08,3.08,0,0,1,77.84,50.88Z"/>
            <polygon class="cls-1" points="42.13 15.18 55.25 28.29 59.63 23.92 46.51 10.8 44.21 5.42 37.02 1.25 32.59 5.68 36.76 12.87 42.13 15.18"/>
            <line class="cls-1" x1="62.64" y1="31.45" x2="73.33" y2="42.14"/>
        </g>
    </g>
</svg>