<svg xmlns="http://www.w3.org/2000/svg" viewBox="0 0 23.99 30.96" width="23.99" height="30.96">
    <defs>
        <style>.cls-1{fill:#00bce7;}</style>
    </defs>
    <g id="레이어_2" data-name="레이어 2">
        <g id="Layer_1" data-name="Layer 1">
            <path class="cls-1" d="M12.09,0h-.18A12.16,12.16,0,0,0,0,12.1c0,3.66,1.73,7.68,5.14,12l.59.73,0,0c.38.46.79.92,1.21,1.38l.49.53.15.16A50.74,50.74,0,0,0,12,31a51.87,51.87,0,0,0,4.42-4.12l.11-.12.54-.58c.4-.44.79-.89,1.17-1.33l0,0,.59-.72C22.27,19.77,24,15.76,24,12.1A12.15,12.15,0,0,0,12.09,0ZM12,17.69a6.35,6.35,0,1,1,6.34-6.35A6.36,6.36,0,0,1,12,17.69Z"/>
        </g>
    </g>
</svg>