<svg xmlns="http://www.w3.org/2000/svg" viewBox="0 0 89.06 89.06" width="89.06" height="89.06">
    <defs>
        <style>.cls-1{fill:none;stroke:#00bce7;stroke-miterlimit:10;stroke-width:2px;}.cls-2{fill:#00bce7;}</style>
    </defs>
    <g id="레이어_2" data-name="레이어 2">
        <g id="Layer_1" data-name="Layer 1">
            <path class="cls-1" d="M76.12,31.08l-29-29a3.65,3.65,0,0,0-5.14,0L37.84,6.18"/>
            <polygon class="cls-2" points="75.7 25.87 75.7 30.66 70.91 30.66 72.94 32.7 77.73 32.7 77.73 27.9 75.7 25.87"/>
            <path class="cls-1" d="M12.94,58,42,87a3.63,3.63,0,0,0,5.14,0l4.11-4.11"/>
            <polygon class="cls-2" points="13.36 63.19 13.35 58.39 18.15 58.39 16.11 56.36 11.32 56.36 11.32 61.15 13.36 63.19"/>
            <path class="cls-1" d="M58,76.12l29-29A3.63,3.63,0,0,0,87,42l-4.11-4.12"/>
            <polygon class="cls-2" points="63.19 75.7 58.39 75.7 58.39 70.91 56.36 72.94 56.36 77.73 61.15 77.73 63.19 75.7"/>
            <path class="cls-1" d="M31.08,12.94l-29,29a3.65,3.65,0,0,0,0,5.14l4.12,4.11"/>
            <polygon class="cls-2" points="25.87 13.36 30.66 13.35 30.66 18.15 32.7 16.11 32.7 11.32 27.9 11.32 25.87 13.36"/>
            <path class="cls-1" d="M62.15,55.47,60.3,52.86a17.39,17.39,0,0,0,1.26-3.07l3.16-.52A2.77,2.77,0,0,0,67,46.52v-4a2.76,2.76,0,0,0-2.31-2.74l-3.16-.53a17.29,17.29,0,0,0-1.33-3.17l1.84-2.58a2.78,2.78,0,0,0-.3-3.58L59,27.16a2.77,2.77,0,0,0-3.58-.3l-2.65,1.87a17.81,17.81,0,0,0-3.07-1.25l-.51-3.14a2.76,2.76,0,0,0-.78-1.51,2.7,2.7,0,0,0-2-.81h-4a2.78,2.78,0,0,0-2.74,2.32l-.54,3.2a17.11,17.11,0,0,0-3.06,1.29L33.53,27a2.78,2.78,0,0,0-3.58.3l-2.8,2.8a2.78,2.78,0,0,0-.3,3.58l1.88,2.65a17.81,17.81,0,0,0-1.25,3.07l-3.13.51A2.77,2.77,0,0,0,22,42.64v4a2.76,2.76,0,0,0,2.31,2.74l3.2.54a17.77,17.77,0,0,0,1.23,3l-1.86,2.61a2.78,2.78,0,0,0,.3,3.58L30,61.84a2.78,2.78,0,0,0,3.58.3l2.61-1.86a17.43,17.43,0,0,0,3.07,1.27l.52,3.16A2.78,2.78,0,0,0,42.55,67h4a2.79,2.79,0,0,0,2.75-2.32l.53-3.17a17.46,17.46,0,0,0,3.06-1.27l2.61,1.87a2.78,2.78,0,0,0,3.58-.3l2.8-2.8A2.74,2.74,0,0,0,62.15,55.47ZM51.4,51.39a9.71,9.71,0,1,1,0-13.73A9.71,9.71,0,0,1,51.4,51.39Z"/>
        </g>
    </g>
</svg>