<svg xmlns="http://www.w3.org/2000/svg" viewBox="0 0 85.87 80.77" width="85.87" height="80.77">
    <defs>
        <style>.cls-1{fill:none;stroke:#00bce7;stroke-miterlimit:10;stroke-width:2px;}</style>
    </defs>
    <g id="레이어_2" data-name="레이어 2">
        <g id="Layer_1" data-name="Layer 1">
            <line class="cls-1" x1="52.47" y1="40.34" x2="82.09" y2="40.34"/>
            <polyline class="cls-1" points="81.74 22.23 70.62 22.23 62.63 30.22 52.47 30.22"/>
            <polyline class="cls-1" points="52.47 21.36 59.67 21.36 59.67 13.02 69.75 13.02"/>
            <path class="cls-1" d="M82.52,42.69a2.35,2.35,0,1,1,2.35-2.35A2.35,2.35,0,0,1,82.52,42.69Z"/>
            <path class="cls-1" d="M82.52,24.44a2.35,2.35,0,1,1,2.35-2.34A2.34,2.34,0,0,1,82.52,24.44Z"/>
            <path class="cls-1" d="M70.44,15.36A2.35,2.35,0,1,1,72.79,13,2.34,2.34,0,0,1,70.44,15.36Z"/>
            <polyline class="cls-1" points="81.74 58.55 70.62 58.55 62.63 50.55 52.47 50.55"/>
            <polyline class="cls-1" points="52.47 59.41 59.67 59.41 59.67 67.76 69.75 67.76"/>
            <path class="cls-1" d="M82.52,56.33a2.35,2.35,0,1,0,2.35,2.35A2.35,2.35,0,0,0,82.52,56.33Z"/>
            <path class="cls-1" d="M70.44,65.41a2.35,2.35,0,1,0,2.35,2.35A2.35,2.35,0,0,0,70.44,65.41Z"/>
            <line class="cls-1" x1="33.4" y1="40.43" x2="3.78" y2="40.43"/>
            <polyline class="cls-1" points="4.13 58.55 15.25 58.55 23.25 50.55 33.4 50.55"/>
            <polyline class="cls-1" points="33.4 59.41 26.2 59.41 26.2 67.76 16.12 67.76"/>
            <path class="cls-1" d="M3.35,38.08A2.35,2.35,0,1,1,1,40.43,2.35,2.35,0,0,1,3.35,38.08Z"/>
            <path class="cls-1" d="M3.35,56.33A2.35,2.35,0,1,1,1,58.68,2.35,2.35,0,0,1,3.35,56.33Z"/>
            <path class="cls-1" d="M15.42,65.41a2.35,2.35,0,1,1-2.34,2.35A2.35,2.35,0,0,1,15.42,65.41Z"/>
            <polyline class="cls-1" points="4.13 22.23 15.25 22.23 23.25 30.22 33.4 30.22"/>
            <polyline class="cls-1" points="33.4 21.36 26.2 21.36 26.2 13.02 16.12 13.02"/>
            <path class="cls-1" d="M3.35,24.44A2.35,2.35,0,1,0,1,22.1,2.34,2.34,0,0,0,3.35,24.44Z"/>
            <path class="cls-1" d="M15.42,15.36A2.35,2.35,0,1,0,13.08,13,2.35,2.35,0,0,0,15.42,15.36Z"/>
            <rect class="cls-1" x="33.4" y="1" width="19.07" height="78.77"/>
            <line class="cls-1" x1="46.04" y1="10.54" x2="39.82" y2="10.54"/>
            <line class="cls-1" x1="46.04" y1="18" x2="39.82" y2="18"/>
            <line class="cls-1" x1="46.04" y1="25.46" x2="39.82" y2="25.46"/>
            <line class="cls-1" x1="46.04" y1="32.92" x2="39.82" y2="32.92"/>
            <line class="cls-1" x1="46.04" y1="40.39" x2="39.82" y2="40.39"/>
            <line class="cls-1" x1="46.04" y1="47.85" x2="39.82" y2="47.85"/>
            <line class="cls-1" x1="46.04" y1="55.31" x2="39.82" y2="55.31"/>
            <line class="cls-1" x1="46.04" y1="62.77" x2="39.82" y2="62.77"/>
            <line class="cls-1" x1="46.04" y1="70.24" x2="39.82" y2="70.24"/>
        </g>
    </g>
</svg>