<svg xmlns="http://www.w3.org/2000/svg" viewBox="0 0 100.27 83.77" width="100.27" height="83.77">
    <defs>
        <style>.cls-1{fill:none;stroke:#00bce7;stroke-miterlimit:10;stroke-width:2px;}.cls-2{fill:#00bce7;fill-rule:evenodd;}</style>
    </defs>
    <g id="레이어_2" data-name="레이어 2">
        <g id="Layer_1" data-name="Layer 1">
            <path class="cls-1" d="M62.12,21.65,41.89,1.41,35.27,8A6.23,6.23,0,1,0,24.7,13.27,6.17,6.17,0,0,0,28.26,15l-6.61,6.61,6.61,6.61A6.17,6.17,0,0,1,30,24.7a6.23,6.23,0,1,1,5.24,10.57l6.62,6.62Z"/>
            <path class="cls-1" d="M35.27,48.5l6.62-6.61-6.62-6.62A6.23,6.23,0,1,0,30,24.7a6.17,6.17,0,0,0-1.77,3.56l-6.61-6.61L1.41,41.89,8,48.5a6.23,6.23,0,1,0,5.24,10.57A6.17,6.17,0,0,0,15,55.51l6.61,6.61,5.82-5.82"/>
            <path class="cls-1" d="M59.07,70.5a6.1,6.1,0,0,0-3.56-1.76l6.61-6.62-6.61-6.61a6.23,6.23,0,1,1-7-7l-6.61-6.61L35.27,48.5a6.23,6.23,0,1,0-7,7l-6.61,6.61L41.89,82.36l6.61-6.62A6.23,6.23,0,1,0,59.07,70.5Z"/>
            <path class="cls-1" d="M98.86,35.48,78.62,55.72,72,49.1a6.23,6.23,0,1,1-7-7l-6.61-6.62L78.62,15.25Z"/>
            <path class="cls-2" d="M78.63,40.29a2,2,0,1,1-2,2,2,2,0,0,1,2-2Z"/>
            <path class="cls-2" d="M78.62,30.69A11.93,11.93,0,0,1,87,34.18a1,1,0,1,0,1.21-1.52,13.8,13.8,0,0,0-19.23,0,1,1,0,1,0,1.21,1.52,11.93,11.93,0,0,1,8.4-3.49Z"/>
            <path class="cls-2" d="M78.62,34.55a8.12,8.12,0,0,1,5.57,2.25c1.13,1.06,2.21-.29,1.48-1.26a10,10,0,0,0-14.09,0c-.73,1,.35,2.32,1.47,1.26a8.12,8.12,0,0,1,5.57-2.25Z"/>
            <path class="cls-2" d="M78.62,38.4a4.28,4.28,0,0,1,2.95,1.23,1,1,0,1,0,1.21-1.51,6.07,6.07,0,0,0-8.32,0,1,1,0,1,0,1.21,1.51,4.3,4.3,0,0,1,3-1.23Z"/>
        </g>
    </g>
</svg>