<svg xmlns="http://www.w3.org/2000/svg" viewBox="0 0 29.55 27.82" widht="29.55" height="27.82">
    <defs>
        <style>.cls-1{fill:#00bce7;}</style>
    </defs>
    <g id="레이어_2" data-name="레이어 2">
        <g id="Layer_1" data-name="Layer 1">
            <path class="cls-1" d="M3.91,21c2.9,4,6.48,6.47,9.84,6.82C16,28,20,26.74,20,24.15c0-1.35-1.28-2.28-2.2-3.2l-.84-.84c-2.32-2.3-3.74.83-6.16.11-1.36-.4-2.12-1.76-2.93-2.75s-1.58-2-1.41-3.12c.3-2.11,4.05-2.47,2.8-5.19-.17-.36-.33-.73-.5-1.09C8.07,6.69,7.29,4.64,5.27,4.76.94,5-.37,9.46.08,12.87a17.58,17.58,0,0,0,3.78,8.05A.1.1,0,0,0,3.91,21Z"/>
            <path class="cls-1" d="M14.76,5.69a1.18,1.18,0,0,0,0,2.36,7.16,7.16,0,0,1,4.83,2c1.28,1.42,1.78,3.53,1.49,6.29a1.14,1.14,0,0,0,.24.85,1.16,1.16,0,0,0,.81.45,1.18,1.18,0,0,0,1.29-1.05c.37-3.46-.33-6.21-2.11-8.15A9.46,9.46,0,0,0,14.76,5.69Z"/>
            <path class="cls-1" d="M26,4.5C21.88,0,15.68,0,15.42,0a1.18,1.18,0,0,0-1.16,1.2,1.21,1.21,0,0,0,.25.7,1.2,1.2,0,0,0,1,.46s5.38,0,8.81,3.73c2.37,2.6,3.31,6.43,2.78,11.39a1.18,1.18,0,0,0,2.34.25C30,12.07,28.86,7.62,26,4.5Z"/>
        </g>
    </g>
</svg>