<svg xmlns="http://www.w3.org/2000/svg" viewBox="0 0 265.86 183.3" width="265.86" height="183.3">
    <defs>
        <style>.cls-1{fill:#f8b716;}.cls-2{fill:#486fa2;}.cls-3{fill:#b7c6f7;}.cls-4{fill:#0d4d84;}.cls-5{fill:#dba11d;}.cls-6{fill:#444;}.cls-7{fill:#fcb47f;}.cls-8{fill:#f49b5f;}.cls-9{fill:#6a9dd8;}.cls-10{fill:#f4be84;}.cls-11{fill:#432e36;}</style>
    </defs>
    <g id="레이어_2" data-name="레이어 2">
        <g id="Layer_1" data-name="Layer 1">
            <path class="cls-1" d="M106.2,103.45l-3.6,2.37h0a.27.27,0,0,1-.35,0l-3-3.19a1.36,1.36,0,0,0-1.45-.36,16.44,16.44,0,0,1-4.55.87,1.37,1.37,0,0,0-1.22.88L90.49,108a.29.29,0,0,1-.31.17L86,107.33a.23.23,0,0,1-.17-.12.17.17,0,0,1,0-.15l.15-4.35a1.4,1.4,0,0,0-.77-1.29,16.19,16.19,0,0,1-3.85-2.6,1.33,1.33,0,0,0-1.47-.23l-4,1.76a.27.27,0,0,1-.33-.1l-2.37-3.59a.27.27,0,0,1,0-.35l3.19-3a1.39,1.39,0,0,0,.37-1.45,17.23,17.23,0,0,1-.88-4.44,1.38,1.38,0,0,0-.23-.69,1.3,1.3,0,0,0-.65-.52l-4.09-1.59a.22.22,0,0,1-.13-.1.27.27,0,0,1,0-.2l.87-4.22a.28.28,0,0,1,.27-.22l4.33.16a1.41,1.41,0,0,0,1.3-.78A16,16,0,0,1,80,75.44,1.37,1.37,0,0,0,80.27,74l-1.76-4a.27.27,0,0,1,.1-.33l3.59-2.37a.27.27,0,0,1,.35,0l2.94,3.16a1.36,1.36,0,0,0,1.47.37,16.34,16.34,0,0,1,4.54-.9A1.37,1.37,0,0,0,92.71,69l1.58-4.1a.28.28,0,0,1,.31-.16l4.22.86a.23.23,0,0,1,.17.12.25.25,0,0,1,.05.16l-.16,4.32a1.39,1.39,0,0,0,.78,1.3,16.12,16.12,0,0,1,3.85,2.58,1.41,1.41,0,0,0,1.48.23l4-1.76a.27.27,0,0,1,.34.1l2.37,3.59a.25.25,0,0,1,0,.34l-3.16,2.95a1.38,1.38,0,0,0-.37,1.46,16.83,16.83,0,0,1,.92,4.65,1.36,1.36,0,0,0,.87,1.22L114,88.45a.45.45,0,0,1,.13.1.3.3,0,0,1,0,.21L113.28,93a.28.28,0,0,1-.27.21L108.66,93a1.4,1.4,0,0,0-1.29.77,16,16,0,0,1-2.6,3.84,1.35,1.35,0,0,0-.23,1.48l1.75,4A.25.25,0,0,1,106.2,103.45Zm-8-8.14a10.56,10.56,0,1,0-14.62-3A10.57,10.57,0,0,0,98.25,95.31Z"/>
            <path class="cls-1" d="M107.7,105.73l-3.6,2.37a3,3,0,0,1-3.87-.47l-2.37-2.55a19.25,19.25,0,0,1-3.54.68L93.06,109a3,3,0,0,1-3.43,1.87L85.41,110A3,3,0,0,1,83,107l.14-3.48a18.24,18.24,0,0,1-3-2L77,102.86a3,3,0,0,1-3.75-1.1l-2.37-3.61a3,3,0,0,1,.46-3.88l2.56-2.37a18.15,18.15,0,0,1-.67-3.42l-3.29-1.27A3,3,0,0,1,68,83.79l.87-4.22A3,3,0,0,1,72,77.15l3.45.14a18.87,18.87,0,0,1,2-3L76,71.07a3,3,0,0,1,1.1-3.75L80.68,65a3,3,0,0,1,3.88.46l2.35,2.52a18.35,18.35,0,0,1,3.54-.71l1.27-3.28a3,3,0,0,1,3.43-1.87l4.22.87a3,3,0,0,1,1.92,1.29,3,3,0,0,1,.5,1.78l-.14,3.46a18.78,18.78,0,0,1,3,2l3.23-1.42a3,3,0,0,1,3.75,1.11L114,74.75a3,3,0,0,1-.46,3.88L111,81a19.19,19.19,0,0,1,.71,3.67L115,85.9a2.94,2.94,0,0,1,1.43,1.15,3,3,0,0,1,.43,2.27L116,93.54A3,3,0,0,1,112.91,96l-3.48-.13a20.1,20.1,0,0,1-2,3l1.4,3.19A3,3,0,0,1,107.7,105.73Zm-5.1.09,3.6-2.37a.25.25,0,0,0,.09-.33l-1.75-4a1.35,1.35,0,0,1,.23-1.48,16,16,0,0,0,2.6-3.84,1.4,1.4,0,0,1,1.29-.77l4.35.15a.28.28,0,0,0,.27-.21l.87-4.22a.3.3,0,0,0,0-.21.45.45,0,0,0-.13-.1l-4.06-1.55a1.36,1.36,0,0,1-.87-1.22,16.83,16.83,0,0,0-.92-4.65,1.38,1.38,0,0,1,.37-1.46l3.16-2.95a.25.25,0,0,0,0-.34l-2.37-3.59a.27.27,0,0,0-.34-.1l-4,1.76a1.41,1.41,0,0,1-1.48-.23,16.12,16.12,0,0,0-3.85-2.58,1.39,1.39,0,0,1-.78-1.3L99,65.92a.25.25,0,0,0-.05-.16.23.23,0,0,0-.17-.12l-4.22-.86a.28.28,0,0,0-.31.16L92.71,69a1.37,1.37,0,0,1-1.21.88,16.34,16.34,0,0,0-4.54.9,1.36,1.36,0,0,1-1.47-.37l-2.94-3.16a.27.27,0,0,0-.35,0l-3.59,2.37a.27.27,0,0,0-.1.33l1.76,4A1.37,1.37,0,0,1,80,75.44a16,16,0,0,0-2.57,3.86,1.41,1.41,0,0,1-1.3.78l-4.33-.16a.28.28,0,0,0-.27.22l-.87,4.22a.27.27,0,0,0,0,.2.22.22,0,0,0,.13.1L75,86.25a1.3,1.3,0,0,1,.65.52,1.38,1.38,0,0,1,.23.69,17.23,17.23,0,0,0,.88,4.44,1.39,1.39,0,0,1-.37,1.45l-3.19,3a.27.27,0,0,0,0,.35l2.37,3.59a.27.27,0,0,0,.33.1l4-1.76a1.33,1.33,0,0,1,1.47.23,16.19,16.19,0,0,0,3.85,2.6,1.4,1.4,0,0,1,.77,1.29l-.15,4.35a.17.17,0,0,0,0,.15.23.23,0,0,0,.17.12l4.22.87a.29.29,0,0,0,.31-.17L92.07,104a1.37,1.37,0,0,1,1.22-.88,16.44,16.44,0,0,0,4.55-.87,1.36,1.36,0,0,1,1.45.36l3,3.19a.27.27,0,0,0,.35,0Z"/>
            <path class="cls-2" d="M101.26,80.68a10.56,10.56,0,1,1-14.63-3A10.57,10.57,0,0,1,101.26,80.68ZM96.73,93a7.79,7.79,0,1,0-10.79-2.21A7.79,7.79,0,0,0,96.73,93Z"/>
            <path class="cls-2" d="M83.37,92.48a10.87,10.87,0,1,1,15.06,3.09A10.88,10.88,0,0,1,83.37,92.48ZM101,80.86a10.24,10.24,0,1,0-2.91,14.19A10.25,10.25,0,0,0,101,80.86ZM85.67,91a8.11,8.11,0,1,1,11.24,2.31A8.12,8.12,0,0,1,85.67,91Zm13-8.58a7.48,7.48,0,1,0-2.13,10.36A7.49,7.49,0,0,0,98.69,82.38Z"/>
            <path class="cls-2" d="M142,121.41,140.91,119a14.56,14.56,0,0,0,1.51-2.23l2.6.1a2.24,2.24,0,0,0,2.29-1.81l.65-3.15a2.27,2.27,0,0,0-1.39-2.56l-2.43-.94a15.1,15.1,0,0,0-.54-2.74l1.88-1.75a2.26,2.26,0,0,0,.35-2.9l-1.77-2.68a2.26,2.26,0,0,0-2.8-.83l-2.41,1.06a15.29,15.29,0,0,0-2.24-1.49l.1-2.59a2.26,2.26,0,0,0-1.8-2.29l-3.16-.66a2.26,2.26,0,0,0-2.56,1.4l-.95,2.46a14.14,14.14,0,0,0-2.65.53l-1.75-1.88a2.24,2.24,0,0,0-2.9-.35l-2.68,1.77a2.24,2.24,0,0,0-.82,2.8l1,2.41A15.29,15.29,0,0,0,117,103l-2.58-.1a2.25,2.25,0,0,0-2.29,1.8l-.65,3.15a2.26,2.26,0,0,0,.33,1.7,2.21,2.21,0,0,0,1.07.86l2.45,1a14.85,14.85,0,0,0,.5,2.56l-1.9,1.77a2.25,2.25,0,0,0-.35,2.9l1.77,2.69a2.25,2.25,0,0,0,2.81.82l2.38-1a14.15,14.15,0,0,0,2.23,1.52l-.1,2.59a2.26,2.26,0,0,0,1.8,2.3l3.16.64a2.24,2.24,0,0,0,2.56-1.39l.94-2.43a14.5,14.5,0,0,0,2.64-.51l1.77,1.9a2.26,2.26,0,0,0,2.9.35l2.69-1.77A2.23,2.23,0,0,0,142,121.41Zm-7.89-5a7.89,7.89,0,1,1,2.24-10.92A7.87,7.87,0,0,1,134.07,116.41Z"/>
            <path class="cls-3" d="M136.31,105.49a7.88,7.88,0,1,1-10.92-2.25A7.88,7.88,0,0,1,136.31,105.49Zm-3.37,9.2a5.82,5.82,0,1,0-8.07-1.65A5.83,5.83,0,0,0,132.94,114.69Z"/>
            <path class="cls-4" d="M123,114.3a8.12,8.12,0,1,1,11.25,2.31A8.12,8.12,0,0,1,123,114.3Zm13.17-8.68a7.65,7.65,0,1,0-2.18,10.6A7.66,7.66,0,0,0,136.12,105.62Zm-11.45,7.55a6.06,6.06,0,1,1,8.39,1.72A6.07,6.07,0,0,1,124.67,113.17Zm9.73-6.42a5.59,5.59,0,1,0-1.59,7.75A5.6,5.6,0,0,0,134.4,106.75Z"/>
            <path class="cls-4" d="M146.57,80.82l-1.13-2.56a16.19,16.19,0,0,0,1.63-2.41l2.8.1A2.43,2.43,0,0,0,152.35,74l.69-3.4a2.37,2.37,0,0,0-.35-1.83,2.34,2.34,0,0,0-1.15-.93l-2.62-1a15.56,15.56,0,0,0-.58-2.95l2-1.89a2.44,2.44,0,0,0,.37-3.13L148.83,56a2.43,2.43,0,0,0-3-.89l-2.6,1.14a15.57,15.57,0,0,0-2.41-1.61l.11-2.79a2.41,2.41,0,0,0-.4-1.43,2.36,2.36,0,0,0-1.55-1l-3.4-.71a2.44,2.44,0,0,0-2.77,1.51l-1,2.65a15.31,15.31,0,0,0-2.85.57l-1.89-2A2.44,2.44,0,0,0,123.9,51L121,52.87a2.43,2.43,0,0,0-.88,3l1.14,2.61a14.67,14.67,0,0,0-1.61,2.41l-2.78-.11a2.45,2.45,0,0,0-2.48,2l-.69,3.4A2.4,2.4,0,0,0,114,68a2.46,2.46,0,0,0,1.16.93l2.65,1a15.31,15.31,0,0,0,.54,2.76l-2.06,1.91a2.45,2.45,0,0,0-.38,3.13l1.92,2.9a2.43,2.43,0,0,0,3,.89l2.57-1.13A15.69,15.69,0,0,0,125.87,82l-.11,2.8a2.41,2.41,0,0,0,.4,1.43,2.43,2.43,0,0,0,1.55,1l3.4.7a2.44,2.44,0,0,0,2.77-1.51l1-2.62a15.12,15.12,0,0,0,2.85-.55l1.91,2.06a2.44,2.44,0,0,0,3.13.37l2.89-1.91A2.4,2.4,0,0,0,146.57,80.82Zm-8.51-5.39a8.51,8.51,0,1,1,2.42-11.78A8.5,8.5,0,0,1,138.06,75.43Z"/>
            <path class="cls-3" d="M140.48,63.65a8.51,8.51,0,1,1-11.79-2.42A8.5,8.5,0,0,1,140.48,63.65Zm-3.64,9.93a6.28,6.28,0,1,0-8.71-1.79A6.31,6.31,0,0,0,136.84,73.58Z"/>
            <path class="cls-4" d="M126.06,73.16a8.76,8.76,0,1,1,12.14,2.49A8.78,8.78,0,0,1,126.06,73.16Zm14.21-9.37a8.25,8.25,0,1,0-2.35,11.43A8.27,8.27,0,0,0,140.27,63.79Zm-12.35,8.14A6.54,6.54,0,1,1,137,73.79,6.55,6.55,0,0,1,127.92,71.93ZM138.41,65a6,6,0,1,0-1.71,8.36A6,6,0,0,0,138.41,65Z"/>
            <path class="cls-5" d="M79.76,97a19.54,19.54,0,0,0,1.76,1.65c.07.07.16.13.23.19L82,99l.24.19.24.17.25.17a2.2,2.2,0,0,0,.25.17l.5.32.13.07.13.08.26.14.26.15.27.13.26.14.27.13.54.24.28.11.28.11.27.11.28.09.29.09a2.29,2.29,0,0,0,.28.09l.57.16a16.37,16.37,0,0,0,7,.29l.57-.12c.1,0,.19,0,.29-.06l.28-.07.28-.07.28-.09.28-.08c.09,0,.19,0,.28-.09l.55-.19.07,0,.07,0,.13-.06.27-.11.27-.11.26-.12.27-.12.26-.13.51-.27.26-.14.25-.15.25-.15.24-.16.24-.16.12-.08.06,0,.06,0,.47-.34.12-.09.11-.09.23-.18c.3-.24.58-.51.87-.76l.42-.41.2-.21.2-.21.19-.21.19-.22.37-.45.18-.23.17-.23.17-.23.16-.24.17-.24.08-.12,0-.06,0-.06.3-.5.08-.12.06-.13.14-.25.14-.26.12-.26.13-.26.12-.26.22-.54a16.56,16.56,0,0,0,.7-2.2,17.6,17.6,0,0,0,.37-2.27,16.2,16.2,0,0,0,0-2.31,17.48,17.48,0,0,0-.29-2.29l-.13-.57a1.64,1.64,0,0,0-.07-.28l-.07-.27c0-.1,0-.19-.08-.28l-.09-.28-.09-.27,0-.14a.78.78,0,0,1,0-.14l-.21-.54,0-.06,0-.07-.06-.13-.12-.27-.11-.26-.13-.26-.13-.26-.13-.26-.29-.5a1.28,1.28,0,0,0-.15-.25l-.15-.25-.15-.24-.17-.24-.33-.47c-.24-.31-.47-.62-.73-.91l-.19-.22-.09-.11-.1-.11-.4-.42-.05,0,0-.05-.11-.1-.21-.2-.21-.2-.22-.19-.22-.19-.22-.19-.46-.35c-.08-.07-.16-.12-.24-.18l-.23-.16-.24-.17-.25-.16-.24-.16-.13-.07-.06,0-.06,0-.51-.29a16.24,16.24,0,0,0-9.06-1.93l-.59,0-.29,0-.3,0-.29,0-.29.06-.29.06a2.47,2.47,0,0,0-.29.06l-.58.14-.29.08-.28.08-.29.09-.28.1-.28.09-.14.05-.14.06-.56.22c-.09,0-.18.08-.27.12l-.27.12-.28.13-.26.14-.27.14-.26.14a20.64,20.64,0,0,0-2,1.31l0-.06.47-.38.12-.1.12-.09.25-.18.25-.17.12-.09.13-.08.51-.33a2.26,2.26,0,0,1,.26-.16l.26-.15.27-.15.27-.14.27-.14.27-.13.56-.25.14-.06.14-.06.28-.11.29-.11.28-.1.29-.09c.1,0,.19-.07.29-.09l.59-.17.29-.07.3-.07.3-.07.3,0,.3,0,.3,0,.6-.08a16.45,16.45,0,0,1,4.85.2,17.29,17.29,0,0,1,2.35.62l.57.21c.1,0,.19.08.29.12l.28.11.28.12.27.14.27.13a2.44,2.44,0,0,1,.28.14l.53.29.07,0,.06,0,.13.08.26.16.26.16.25.17.26.17.24.18.49.37.24.19.23.19.23.2.23.21.22.2.11.11.06,0,0,.05.43.44.1.11.1.11.2.23c.28.3.52.63.78.94l.35.5.18.25.16.25.17.26.16.26.3.53a2.29,2.29,0,0,1,.14.27l.14.27.14.27.12.28.13.28.06.13,0,.07,0,.07.22.57a.88.88,0,0,1,0,.15L108,81l.1.29.09.29c0,.1.06.19.08.29l.09.3c0,.09,0,.19.07.29l.14.59.06.3,0,.3c0,.1,0,.2,0,.3l0,.31,0,.3,0,.15c0,.05,0,.1,0,.15l.05.61a16.48,16.48,0,0,1-.44,4.84l-.15.59a1,1,0,0,0,0,.14l0,.15-.09.29-.09.29-.11.29-.1.28-.11.29-.24.56-.13.27-.13.28-.14.27-.14.27-.15.27-.07.13-.08.13-.32.52,0,.06,0,.07-.09.12-.17.26-.17.25-.18.24-.19.24-.19.24-.39.47a2.09,2.09,0,0,1-.2.22l-.21.23-.21.22-.21.21-.44.43c-.31.26-.61.54-.93.78l-.24.19-.12.1-.12.09-.5.35-.06,0-.07,0-.13.09-.25.16-.26.16-.26.15-.27.16-.26.14-.55.28-.27.13-.28.12-.28.12-.28.11-.29.11L98,102,98,102l-.07,0-.58.19-.29.09-.3.08-.29.08-.3.07-.29.06-.3.07-.6.1a16.49,16.49,0,0,1-4.86,0,17.58,17.58,0,0,1-2.37-.52l-.58-.18-.29-.1-.29-.11-.28-.1-.28-.12-.28-.12-.28-.13-.55-.26-.27-.14-.26-.15-.27-.15-.26-.16-.26-.16-.13-.08-.12-.08-.5-.34-.25-.19-.24-.18-.24-.18-.24-.2-.23-.2c-.07-.06-.15-.12-.23-.2l-.44-.41-.11-.1-.11-.11-.21-.22-.21-.22-.1-.11-.1-.12L79.7,97Z"/>
            <path class="cls-3" d="M133.64,120.44a14.55,14.55,0,0,0,1.47-.76l.17-.11.18-.12.17-.11.17-.12.16-.12.17-.12.32-.26.15-.13.16-.13.15-.14.15-.14.14-.14.15-.15.28-.29a11.47,11.47,0,0,0,1.81-2.69,10.87,10.87,0,0,0,.59-1.5,11.8,11.8,0,0,0,.37-1.56l.06-.39a1.5,1.5,0,0,0,0-.2l0-.2,0-.2v-.4a1.33,1.33,0,0,0,0-.2v-.8c0-.07,0-.13,0-.2l0-.2,0-.2a1.5,1.5,0,0,0,0-.2l-.06-.39,0-.2,0-.19,0-.2-.05-.19c0-.13-.06-.26-.1-.39l-.11-.38,0-.09,0-.1-.07-.19c-.09-.25-.2-.49-.3-.73a4,4,0,0,0-.17-.36l-.08-.18-.1-.18-.09-.17a1,1,0,0,0-.1-.17l-.21-.34a10.8,10.8,0,0,0-.94-1.28l-.13-.15-.13-.15-.13-.14-.14-.14-.14-.14-.15-.14-.29-.27a12,12,0,0,0-1.27-1,12.41,12.41,0,0,0-1.39-.75,11.46,11.46,0,0,0-1.48-.55,10.44,10.44,0,0,0-1.55-.33l-.4,0h-.19l-.2,0h-1.39l-.2,0-.19,0-.2,0-.2,0-.19,0-.4.07-.19,0-.19,0-.2,0-.19,0-.38.11c-.25.08-.51.16-.75.26l-.19.07-.09,0-.09,0-.36.17a11.79,11.79,0,0,0-1.39.78l-.16.12-.17.11-.16.12-.16.12-.15.13-.16.12-.3.26-.15.14-.14.14-.15.14-.13.14-.14.15-.14.15-.26.3-.12.16-.13.16-.12.15-.11.17-.12.16-.06.09,0,.08-.22.34a12.9,12.9,0,0,0-.74,1.43,12,12,0,0,0-.52,1.53,12.55,12.55,0,0,0-.31,1.6l0,.41a1.27,1.27,0,0,0,0,.2v.2c0,.07,0,.14,0,.21v.61l0,.41a1.49,1.49,0,0,0,0,.21v.2l0,.2,0,.21,0,.2a1.18,1.18,0,0,0,0,.2,12.59,12.59,0,0,0,.39,1.61l-.06,0-.14-.39-.06-.2-.06-.2-.06-.2,0-.1s0-.07,0-.1l-.1-.41a1.18,1.18,0,0,1,0-.2l0-.21,0-.2,0-.21,0-.2,0-.21,0-.42a1.34,1.34,0,0,1,0-.2V110a1.48,1.48,0,0,1,0-.21v-.42l0-.41a11.34,11.34,0,0,1,.26-1.65,12.74,12.74,0,0,1,.5-1.59,11.49,11.49,0,0,1,.72-1.5,12.9,12.9,0,0,1,.94-1.38l.26-.32.14-.16.14-.16.14-.15.15-.15.15-.15.15-.14.31-.28.16-.13.16-.14.16-.13.17-.12.17-.13.17-.12.34-.23.18-.11.18-.11.18-.1.18-.1.37-.19.38-.18.1,0,.09,0,.2-.08c.25-.11.52-.2.78-.29l.4-.12.2-.06.21,0,.2-.05.2,0,.41-.07a.76.76,0,0,1,.21,0l.21,0,.2,0,.21,0,.21,0h1.46l.21,0h.21l.41,0a13.26,13.26,0,0,1,1.64.34,12.88,12.88,0,0,1,1.57.58,12.2,12.2,0,0,1,1.46.8,10.83,10.83,0,0,1,1.33,1l.31.28.15.14.15.15.15.15.14.16.14.15s.09.1.13.16l.27.32.12.17.13.17.12.17.12.17.11.17a1.74,1.74,0,0,1,.11.18l.22.36a1.62,1.62,0,0,0,.1.18l.09.19.1.18.09.19c.06.13.12.25.17.38a7.38,7.38,0,0,1,.3.78l.07.2,0,.1,0,.1.12.4c0,.13.07.27.1.4l0,.21,0,.2,0,.21c0,.07,0,.13,0,.2l0,.42a1.36,1.36,0,0,1,0,.2l0,.21v.21a1.48,1.48,0,0,1,0,.21v.21a1.47,1.47,0,0,1,0,.21v.41c0,.07,0,.14,0,.21l0,.21v.21l0,.21,0,.2a1.52,1.52,0,0,1,0,.21l-.07.41a11.34,11.34,0,0,1-.42,1.62,11.26,11.26,0,0,1-1.52,3,13.19,13.19,0,0,1-1.07,1.28l-.3.29-.15.14-.16.14-.15.14-.16.14-.17.13-.16.13-.33.24a1.88,1.88,0,0,1-.18.12l-.17.12-.17.11-.18.11-.18.1-.18.11-.37.19-.1.05-.09,0-.19.09-.19.09-.19.08-.39.15Z"/>
            <path class="cls-2" d="M126.74,77.62a11.93,11.93,0,0,0,1.45.78l.19.08.19.08.19.08.19.07.2.08.19.06.39.12.2.06.2,0,.19,0,.2,0,.2,0,.2,0,.41.07a11,11,0,0,0,1.62.1,10.81,10.81,0,0,0,1.61-.12,12,12,0,0,0,1.58-.35,13.59,13.59,0,0,0,1.5-.57l.36-.17.17-.1.18-.09.18-.1.17-.11.17-.1.17-.11.33-.22.16-.12.16-.12.15-.12.16-.13.15-.13.15-.13.29-.27.15-.14.14-.14.14-.14.13-.15.26-.3.25-.31.07-.08.06-.08.11-.16c.16-.21.3-.44.45-.66l.2-.34.1-.17.09-.18.09-.18.09-.18.16-.36a11.49,11.49,0,0,0,.53-1.49,1.33,1.33,0,0,0,0-.19l.05-.2,0-.19,0-.19,0-.2,0-.19.06-.4a13.82,13.82,0,0,0,.07-1.58,11.76,11.76,0,0,0-.16-1.57,10.91,10.91,0,0,0-1-3l-.18-.35a1,1,0,0,0-.1-.17l-.1-.17-.1-.17-.11-.17-.1-.17-.11-.16-.24-.32a1,1,0,0,0-.12-.16l-.12-.15-.13-.16-.13-.15-.13-.15a.86.86,0,0,0-.13-.14l-.28-.29-.14-.14-.15-.13-.14-.14-.15-.13-.31-.25a7.52,7.52,0,0,0-.64-.47l-.16-.12-.08,0-.09-.06-.34-.2a10,10,0,0,0-1.43-.7l-.18-.08-.19-.07-.19-.07-.19-.06L136.2,58l-.19-.06-.39-.1-.19,0-.2,0-.19,0-.2,0-.2,0-.2,0-.4,0-.2,0h-1.4a12.27,12.27,0,0,0-1.6.2,12,12,0,0,0-1.56.42,11.71,11.71,0,0,0-1.5.65l-.35.19-.18.11-.17.11-.18.1-.17.12-.17.11-.17.12-.32.24-.16.13-.16.13-.16.13-.15.14-.15.14c-.05.05-.11.09-.15.14A13,13,0,0,0,124,61.92l0,0,.25-.34.12-.16.14-.17.13-.16.06-.08.07-.07.29-.31.14-.15.15-.15.15-.14.15-.14.16-.14a1.07,1.07,0,0,1,.16-.14l.32-.26a1.09,1.09,0,0,1,.17-.13l.16-.12.17-.12L127,59l.17-.11.18-.12.36-.21a11.44,11.44,0,0,1,1.5-.71,11.31,11.31,0,0,1,1.6-.48,12.87,12.87,0,0,1,1.65-.25,11.64,11.64,0,0,1,1.67,0l.41,0,.21,0,.2,0,.21,0,.21,0,.2,0,.21,0,.4.1.2.06.2.06.2.06.2.07.2.06.19.08.39.16.19.08.19.09.19.09.18.09.37.2.36.22.09,0,.09.06.17.11c.23.15.45.32.68.49l.32.26.16.14.16.14.15.14.15.14.3.3.14.15.14.16.14.15.13.17.13.16s.09.1.13.16l.25.34a1,1,0,0,1,.11.17l.12.18.11.17.11.18.11.18.1.18.19.37a11.38,11.38,0,0,1,.64,1.54,11,11,0,0,1,.57,3.29,11.76,11.76,0,0,1-.09,1.67l-.06.41a1.2,1.2,0,0,1,0,.2l0,.21,0,.2,0,.21-.05.2c0,.07,0,.14-.05.2l-.12.4c0,.07-.05.13-.07.2l-.07.2-.07.19-.08.2-.08.19c0,.07-.05.13-.08.19l-.18.38-.09.19-.1.18-.1.19a1,1,0,0,1-.11.17l-.21.36c-.16.23-.31.47-.48.69l-.12.17-.07.08-.06.08-.27.32c-.09.11-.19.21-.28.31l-.14.15-.15.15-.15.15-.15.14-.31.28-.16.13-.16.13-.17.14-.16.12-.17.12a1.77,1.77,0,0,1-.17.12l-.35.23-.18.11-.18.11-.18.1-.19.1-.18.09-.19.1-.38.17a12.2,12.2,0,0,1-1.57.56,12.69,12.69,0,0,1-1.63.32,11.68,11.68,0,0,1-1.67.08,11.52,11.52,0,0,1-1.66-.16l-.41-.08-.2,0-.2,0-.21-.05-.19-.06-.2-.06-.2-.06-.4-.14-.19-.08-.19-.08-.2-.08-.19-.08-.18-.09-.19-.09-.37-.2-.09,0-.09,0-.18-.11-.18-.11-.17-.11-.35-.23Z"/>
            <path class="cls-6" d="M12.36,183.28l-4.3,0v-1l1.3.08,2.5.35a.59.59,0,0,1,.51.58Z"/>
            <path class="cls-4" d="M15.25,140c-.89-1.36.9-4.11,4-6.15s6.34-2.58,7.23-1.23-.9,4.11-4,6.15S16.14,141.33,15.25,140Z"/>
            <path class="cls-1" d="M16.52,148.8a2,2,0,0,1,1.14.2,3.41,3.41,0,0,1,1.87,2.52c.49,2.61,1.45,7.7,1.8,9.65a2.5,2.5,0,0,1-.16,1.5l-.53,1.15a1.53,1.53,0,0,1-1.81.9,2.52,2.52,0,0,1-1.56-1.36l-.92-1.85A9.85,9.85,0,0,0,13.47,158a4.08,4.08,0,0,1-1.53-3.59c.29-2.81,1.9-4.92,4.18-5.49Z"/>
            <path class="cls-1" d="M9.2,149.48a2,2,0,0,0-1,.53,3.42,3.42,0,0,0-1,3c.31,2.64.9,7.78,1.15,9.75a2.53,2.53,0,0,0,.6,1.38l.85.94a1.52,1.52,0,0,0,2,.32,2.46,2.46,0,0,0,1.08-1.76l.33-2a10,10,0,0,1,1.7-4.22,4.06,4.06,0,0,0,.4-3.88c-1.12-2.6-3.28-4.13-5.62-4Z"/>
            <path class="cls-6" d="M9.69,133.29l-4.81,2.16A1.5,1.5,0,0,0,4,137.1l.41,2.2A13,13,0,0,0,6.34,144L7,145a5.57,5.57,0,0,1,.47,5.26l-.21.47a.84.84,0,0,0,.25,1l0,0A11.26,11.26,0,0,0,17,153a10.24,10.24,0,0,0,1.49-.66,1.32,1.32,0,0,0,.75-1.46l-.54-2.63a14.1,14.1,0,0,1,.07-6l.23-1a18.15,18.15,0,0,0,.45-4v-1.41a1.31,1.31,0,0,0-.83-1.22l-3.55-1.4A7,7,0,0,0,9.69,133.29Z"/>
            <path class="cls-7" d="M11.62,129.6l-2.42,4,.83.66a4.68,4.68,0,0,0,3.89.91,2.16,2.16,0,0,0,1.7-2.28l-.19-1.8Z"/>
            <path class="cls-8" d="M14.9,133.07a2.23,2.23,0,0,0,1.15-1.26c.85-2-.08-4.3-1-6.28a1.34,1.34,0,0,0-.4-.56,6.29,6.29,0,0,0-2.2-.77c-1.41.55-1.62,1.88-3,2.5a.61.61,0,0,0-.3.22.55.55,0,0,0,0,.4,11,11,0,0,0,.78,1.76,9.7,9.7,0,0,0,.83,1.79,4.6,4.6,0,0,0,2.91,2.26A2.18,2.18,0,0,0,14.9,133.07Z"/>
            <path class="cls-7" d="M14.93,132.69a2.28,2.28,0,0,0,1.15-1.27c.85-2-.09-4.29-1-6.27a1.44,1.44,0,0,0-.4-.57,6.27,6.27,0,0,0-2.2-.76c-1.42.55-1.62,1.88-3,2.5a.68.68,0,0,0-.31.22.55.55,0,0,0,0,.4,12.36,12.36,0,0,0,.77,1.76,10.81,10.81,0,0,0,.84,1.79,4.56,4.56,0,0,0,2.91,2.25A2.27,2.27,0,0,0,14.93,132.69Z"/>
            <path class="cls-6" d="M10.3,131.34s-2.29-2-2.61-3.65,0-2.67.86-2.92a10,10,0,0,1,3.07.19,47.61,47.61,0,0,0-1,4.69A2.41,2.41,0,0,1,10.3,131.34Z"/>
            <path class="cls-6" d="M9.23,125.06c.13,0,2.75-2.59,3-2.66a2.16,2.16,0,0,1,.75,0c.51.09,1.09.46,2.4.74h0a5.76,5.76,0,0,0,1.2.11c.61,0,1.68-.1,1.82-.08.3,0,1.27,1-.56,1.73a18.13,18.13,0,0,1-4.3.49,5.93,5.93,0,0,0-4.13,1.38c-1.67,1.29-1.94.92-1.55.15A15.14,15.14,0,0,1,9.23,125.06Z"/>
            <path class="cls-7" d="M9.86,128.12a1.17,1.17,0,0,0,.26,1.28c.34.34.77.33,1,0a1.17,1.17,0,0,0-.26-1.27C10.49,127.75,10.05,127.76,9.86,128.12Z"/>
            <path class="cls-6" d="M25.53,135.65a2.16,2.16,0,0,1-3.21-.91,3,3,0,0,1,1-3.65,2.16,2.16,0,0,1,3.21.91A2.94,2.94,0,0,1,25.53,135.65Z"/>
            <path class="cls-7" d="M26.27,123.42l.67.1a64.47,64.47,0,0,1,.24,9.3,2,2,0,1,1-4-.64A80.78,80.78,0,0,1,26.27,123.42Z"/>
            <path class="cls-7" d="M26.71,123.89l-.27-.21a1.12,1.12,0,0,1-.46-.78l0-.43a1.38,1.38,0,0,0-.43-.88l-.37-.38c-.12-.12-.05-.27.11-.21l.06,0a3,3,0,0,1,1.21,1.16h0a2.55,2.55,0,0,1,.33.92l.07.49Z"/>
            <path class="cls-8" d="M26.54,123.54a.14.14,0,0,1-.18,0l0,0a.55.55,0,0,1-.15-.42l0-.21a.71.71,0,0,0-.13-.47l-.14-.22c-.05-.08,0-.14.07-.09l0,0a1.49,1.49,0,0,1,.48.68,1.4,1.4,0,0,1,.07.48v.19a.14.14,0,0,1-.05.1Z"/>
            <ellipse class="cls-6" cx="4.01" cy="141.3" rx="6.72" ry="2.94" transform="translate(-127.27 88.88) rotate(-66.61)"/>
            <path class="cls-6" d="M0,145.42a2.17,2.17,0,0,1,2.42-2.31A3,3,0,0,1,5,145.85a2.17,2.17,0,0,1-2.42,2.31A3,3,0,0,1,0,145.42Z"/>
            <path class="cls-7" d="M12,145.47v.68a65.38,65.38,0,0,1-9.15,1.7,2,2,0,1,1,0-4.06A81.4,81.4,0,0,1,12,145.47Z"/>
            <path class="cls-7" d="M11.6,146l.16-.3a1.12,1.12,0,0,1,.7-.58l.42-.08a1.4,1.4,0,0,0,.8-.57L14,144c.1-.14.26-.08.22.08a.64.64,0,0,0,0,.07,3,3,0,0,1-.95,1.38h0a2.57,2.57,0,0,1-.85.47l-.48.15Z"/>
            <path class="cls-8" d="M11.92,145.75a.12.12,0,0,1,0-.17l0,0a.55.55,0,0,1,.39-.21h.22a.76.76,0,0,0,.44-.2l.2-.18c.06-.06.14,0,.1.06l0,0a1.43,1.43,0,0,1-1.06.73l-.19,0a.14.14,0,0,1-.1,0Z"/>
            <path class="cls-1" d="M8.56,161.22a1.87,1.87,0,0,0-.3.62L7,166.32a14.27,14.27,0,0,0-.36,6.2l1.44,9.75,1.37.09,2.45-12.7L13,162.24a1,1,0,0,0-.64-1.12L11,160.54A2,2,0,0,0,8.56,161.22Z"/>
            <path class="cls-1" d="M16.76,161.49a1.89,1.89,0,0,0-.24.65l-.79,4.59a14.27,14.27,0,0,0,.31,6.2l2.57,9.38,1.29.1L21,169.52l.36-7.51a1,1,0,0,0-.76-1l-1.5-.42A2,2,0,0,0,16.76,161.49Z"/>
            <path class="cls-6" d="M22.87,183.27l-4.3,0v-1l1.31.06,2.48.36a.58.58,0,0,1,.51.58Z"/>
            <ellipse class="cls-9" cx="225.78" cy="58.61" rx="2.94" ry="6.72" transform="translate(166.27 284.16) rotate(-89.77)"/>
            <path class="cls-6" d="M229.9,70.08a2,2,0,0,0-1.13.2,3.41,3.41,0,0,0-1.87,2.52c-.49,2.61-1.45,7.69-1.8,9.64a2.54,2.54,0,0,0,.16,1.51l.53,1.14a1.53,1.53,0,0,0,1.81.9,2.49,2.49,0,0,0,1.56-1.36l.92-1.85A9.87,9.87,0,0,1,233,79.26a4.09,4.09,0,0,0,1.54-3.59c-.3-2.8-1.91-4.92-4.18-5.48Z"/>
            <path class="cls-6" d="M237.22,70.76a2,2,0,0,1,1,.53,3.42,3.42,0,0,1,1,3c-.3,2.64-.9,7.78-1.15,9.74a2.52,2.52,0,0,1-.6,1.39l-.84.94a1.55,1.55,0,0,1-2,.32,2.51,2.51,0,0,1-1.08-1.76l-.33-2a9.88,9.88,0,0,0-1.7-4.22,4.12,4.12,0,0,1-.4-3.88c1.12-2.59,3.28-4.13,5.62-4Z"/>
            <path class="cls-9" d="M236.73,54.59l4.81,2.15a1.51,1.51,0,0,1,.86,1.65l-.42,2.2a12.81,12.81,0,0,1-1.9,4.71l-.63,1a5.55,5.55,0,0,0-.47,5.25l.21.47a.83.83,0,0,1-.25,1l0,0a11.24,11.24,0,0,1-9.5,1.29,12.39,12.39,0,0,1-1.5-.65,1.32,1.32,0,0,1-.74-1.46l.54-2.63a14.26,14.26,0,0,0-.07-6l-.23-1a18.15,18.15,0,0,1-.45-4V57.07a1.3,1.3,0,0,1,.82-1.21l3.55-1.4A6.93,6.93,0,0,1,236.73,54.59Z"/>
            <path class="cls-7" d="M234.81,50.89l2.42,4-.84.66a4.64,4.64,0,0,1-3.89.9,2.17,2.17,0,0,1-1.7-2.28l.2-1.8Z"/>
            <path class="cls-8" d="M231.28,54.54A2.26,2.26,0,0,1,230,53.45c-1.13-1.87-.54-4.26.1-6.35a1.23,1.23,0,0,1,.31-.61,6,6,0,0,1,2.07-1.08c1.47.34,1.87,1.62,3.34,2a.59.59,0,0,1,.33.17.54.54,0,0,1,.09.39,12.58,12.58,0,0,1-.52,1.86,10.5,10.5,0,0,1-.56,1.89,4.56,4.56,0,0,1-2.56,2.64A2.16,2.16,0,0,1,231.28,54.54Z"/>
            <path class="cls-7" d="M231.2,54.16a2.19,2.19,0,0,1-1.32-1.09c-1.13-1.87-.54-4.26.09-6.35a1.36,1.36,0,0,1,.31-.61A6.39,6.39,0,0,1,232.35,45c1.48.33,1.87,1.62,3.34,2a.66.66,0,0,1,.34.18.52.52,0,0,1,.08.39,12.41,12.41,0,0,1-.51,1.85,10.3,10.3,0,0,1-.57,1.89A4.56,4.56,0,0,1,232.48,54,2.26,2.26,0,0,1,231.2,54.16Z"/>
            <path class="cls-9" d="M240.73,56.43c1.62,0,2.94,3,2.94,6.72s-1.32,6.72-2.94,6.72-2.94-3-2.94-6.72S239.11,56.43,240.73,56.43Z"/>
            <path class="cls-6" d="M235.58,52.16s2-2.25,2.06-4-.38-2.65-1.28-2.77a10.05,10.05,0,0,0-3,.63A45.27,45.27,0,0,1,235,50.53,2.43,2.43,0,0,0,235.58,52.16Z"/>
            <path class="cls-7" d="M235.55,48.91a1.15,1.15,0,0,1-.07,1.3c-.29.39-.72.45-1,.12a1.15,1.15,0,0,1,.07-1.3C234.88,48.64,235.31,48.59,235.55,48.91Z"/>
            <path class="cls-6" d="M229.5,82.2a2,2,0,0,1,.35.6l1.61,4.37a14.28,14.28,0,0,1,.82,6.15l-.83,9.68-1.25.34-3.37-12.48-1.72-7.31a1,1,0,0,1,.56-1.16l1.4-.69A2,2,0,0,1,229.5,82.2Z"/>
            <path class="cls-6" d="M238,83.4a2.1,2.1,0,0,1,.23.65l.72,4.6a14.23,14.23,0,0,1-.4,6.19l-2.71,9.33-1.29.09-.86-12.9-.26-7.51a1,1,0,0,1,.78-1l1.51-.39A2,2,0,0,1,238,83.4Z"/>
            <path class="cls-4" d="M222.38,60.28a2.16,2.16,0,0,1-3.17-1,2.94,2.94,0,0,1,1.16-3.61,2.16,2.16,0,0,1,3.17,1A2.94,2.94,0,0,1,222.38,60.28Z"/>
            <path class="cls-7" d="M216.15,49.49l.59-.32a64.75,64.75,0,0,1,5.84,7.23A2,2,0,1,1,219,58.33,81.6,81.6,0,0,1,216.15,49.49Z"/>
            <path class="cls-7" d="M216.78,49.6h-.34a1.2,1.2,0,0,1-.84-.34l-.27-.33a1.4,1.4,0,0,0-.89-.44l-.52-.08c-.17,0-.2-.18,0-.22l.07,0a3.07,3.07,0,0,1,1.67.18h0a2.75,2.75,0,0,1,.83.53l.35.35Z"/>
            <path class="cls-8" d="M216.43,49.42a.12.12,0,0,1-.15.09h-.05a.56.56,0,0,1-.37-.25l-.1-.19a.75.75,0,0,0-.39-.3l-.25-.08c-.08,0-.08-.12,0-.12h0a1.48,1.48,0,0,1,.79.25,1.31,1.31,0,0,1,.36.34l.1.15a.14.14,0,0,1,0,.11Z"/>
            <path class="cls-9" d="M231.58,105.2h4.3v-1l-1.29.09-2.51.35a.59.59,0,0,0-.5.59Z"/>
            <path class="cls-9" d="M227.52,105l4.18-1-.24-1-1.26.37-2.33.94a.59.59,0,0,0-.35.69Z"/>
            <path class="cls-7" d="M230.41,69.82l-1.33.6a.33.33,0,0,1-.43-.15l-.46-.84a.35.35,0,0,1,.07-.41l.37-.35a.35.35,0,0,1,.4,0l.59.32a.42.42,0,0,0,.29,0,.4.4,0,0,1,.41.14l.1.13Z"/>
            <ellipse class="cls-4" cx="239.35" cy="68.36" rx="2.36" ry="2.68" transform="translate(125.59 289.77) rotate(-78.74)"/>
            <path class="cls-7" d="M230,69.83l-.07-.71a66,66,0,0,1,8.93-2.56,2,2,0,1,1,.4,4A82.59,82.59,0,0,1,230,69.83Z"/>
            <polygon class="cls-4" points="264.27 181.03 265.86 181.03 230.35 85.42 228.76 85.42 264.27 181.03"/>
            <polygon class="cls-4" points="252.22 181.03 253.81 181.03 218.3 85.42 216.71 85.42 252.22 181.03"/>
            <polygon class="cls-4" points="222.44 96.58 232.9 96.58 232.21 94.71 221.75 94.71 222.44 96.58"/>
            <polygon class="cls-4" points="226.08 106.38 236.54 106.38 235.85 104.51 225.39 104.51 226.08 106.38"/>
            <polygon class="cls-4" points="229.72 116.17 240.18 116.17 239.49 114.31 229.03 114.31 229.72 116.17"/>
            <polygon class="cls-4" points="233.36 125.97 243.82 125.97 243.13 124.1 232.67 124.1 233.36 125.97"/>
            <polygon class="cls-4" points="237 135.76 247.46 135.76 246.76 133.9 236.31 133.9 237 135.76"/>
            <polygon class="cls-4" points="240.64 145.56 251.1 145.56 250.4 143.69 239.94 143.69 240.64 145.56"/>
            <polygon class="cls-4" points="244.28 155.36 254.74 155.36 254.04 153.49 243.58 153.49 244.28 155.36"/>
            <polygon class="cls-4" points="247.91 165.15 258.37 165.15 257.68 163.29 247.22 163.29 247.91 165.15"/>
            <polygon class="cls-4" points="251.55 174.95 262.01 174.95 261.32 173.08 250.86 173.08 251.55 174.95"/>
            <polygon class="cls-1" points="228.75 85.42 230.35 85.42 194.83 181.03 193.24 181.03 228.75 85.42"/>
            <polygon class="cls-1" points="216.7 85.42 218.29 85.42 182.78 181.03 181.19 181.03 216.7 85.42"/>
            <polygon class="cls-1" points="186.93 169.87 197.39 169.87 196.69 171.73 186.23 171.73 186.93 169.87"/>
            <polygon class="cls-1" points="190.56 160.07 201.03 160.07 200.33 161.94 189.87 161.94 190.56 160.07"/>
            <polygon class="cls-1" points="194.2 150.28 204.66 150.28 203.97 152.14 193.51 152.14 194.2 150.28"/>
            <polygon class="cls-1" points="197.84 140.48 208.3 140.48 207.61 142.34 197.15 142.34 197.84 140.48"/>
            <polygon class="cls-1" points="201.48 130.68 211.94 130.68 211.25 132.55 200.79 132.55 201.48 130.68"/>
            <polygon class="cls-1" points="205.12 120.89 215.58 120.89 214.89 122.75 204.43 122.75 205.12 120.89"/>
            <polygon class="cls-1" points="208.76 111.09 219.22 111.09 218.53 112.96 208.07 112.96 208.76 111.09"/>
            <polygon class="cls-1" points="212.4 101.29 222.86 101.29 222.16 103.16 211.71 103.16 212.4 101.29"/>
            <polygon class="cls-1" points="216.04 91.5 226.5 91.5 225.8 93.36 215.34 93.36 216.04 91.5"/>
            <path class="cls-6" d="M236.81,45.75l-.49-.86a1.69,1.69,0,0,0-1.8-.83,1.73,1.73,0,0,1-1-.1c-.41-.16-1-.4-1.59-.6a1.92,1.92,0,0,0-2.19.64,5.07,5.07,0,0,0-.68,1c-.07.33-.05,1.62.24,1.62s.65,0,1.12.07a11.8,11.8,0,0,0,1.88,0,23.63,23.63,0,0,1,3-.14C235.73,46.69,236.81,45.75,236.81,45.75Z"/>
            <path class="cls-2" d="M98.05,13.93a8.63,8.63,0,0,0-3.63,3.52L86.31,1.69A3.11,3.11,0,0,0,82.12.35L37.75,23.18a3.1,3.1,0,0,0-1.34,4.19L59.24,71.73a3.11,3.11,0,0,0,4.19,1.34L79.19,65a8.57,8.57,0,0,1-3.52-3.63,8.69,8.69,0,0,1,15.46-7.95,8.57,8.57,0,0,1,.9,5l18.53-9.53L101,30.29a8.57,8.57,0,0,0,5-.9,8.69,8.69,0,1,0-8-15.46Z"/>
            <path class="cls-9" d="M162.94,124.91H145.21a8.69,8.69,0,1,0-14.44,0H109.93v20.84a8.69,8.69,0,1,0,0,14.44v17.73A3.11,3.11,0,0,0,113,181h49.9a3.11,3.11,0,0,0,3.11-3.11V128A3.11,3.11,0,0,0,162.94,124.91Z"/>
            <path class="cls-4" d="M73.46,142.67a8.65,8.65,0,0,1,3.5,3.65l10.19-18.17L69,118a8.69,8.69,0,1,0-12.6-7.06l-15.46-8.67a3.1,3.1,0,0,0-4.23,1.19L12.28,146.92a3.11,3.11,0,0,0,1.19,4.24L57,175.57a3.11,3.11,0,0,0,4.23-1.19l8.67-15.46a8.69,8.69,0,1,1,3.57-16.25Z"/>
            <path class="cls-1" d="M196.3,28.38,155.5,57.11a3.12,3.12,0,0,0-.75,4.34L165,75.94a8.55,8.55,0,0,1,3.11-4,8.69,8.69,0,1,1,5.2,15.8l12,17,17-12a8.69,8.69,0,1,1,11.81-8.32l14.49-10.21a3.11,3.11,0,0,0,.75-4.33l-28.73-40.8A3.11,3.11,0,0,0,196.3,28.38Z"/>
            <path class="cls-10" d="M56.86,58.53l1.14,0a.26.26,0,0,0,.27-.24l.06-.75a.26.26,0,0,0-.17-.27l-.38-.14a.26.26,0,0,0-.3.08l-.33.42a.26.26,0,0,1-.19.12.34.34,0,0,0-.25.24l0,.12Z"/>
            <ellipse class="cls-3" cx="46.67" cy="61.83" rx="5.8" ry="1.72" transform="translate(-14.43 14.21) rotate(-15.02)"/>
            <path class="cls-7" d="M48.56,61.42a1.32,1.32,0,0,1,.83-1.73c3-1,7.44-2,7.44-2l.34.88a70.88,70.88,0,0,1-6.84,3.55A1.35,1.35,0,0,1,48.56,61.42Z"/>
            <path class="cls-7" d="M40.84,56.54s1.51,2.83.7,4.82l3.34.51,1.47-2.09s-.87.69-2.29-4.34Z"/>
            <path class="cls-7" d="M44.32,57.52c.43-.11,1.66-.57,1.6-1A21.92,21.92,0,0,0,45.1,52a1.53,1.53,0,0,0-.25-.45,2.36,2.36,0,0,0-1.59-.74c-1.11.29-1.39,1.26-2.49,1.61a.46.46,0,0,0-.26.13.45.45,0,0,0,0,.3,10.24,10.24,0,0,0,.42,1.37,8.75,8.75,0,0,0,.47,1.39,3.42,3.42,0,0,0,2,1.9A1.72,1.72,0,0,0,44.32,57.52Z"/>
            <path class="cls-11" d="M44.91,51.06l-1.59.56a1.76,1.76,0,0,0-1.14,2l.34,1.94a7.57,7.57,0,0,1-.42,4,1.9,1.9,0,0,1-.2.43c-.09,0-.67-.36-.66-.51s-1.62-6.14-1.62-6.14a24.37,24.37,0,0,1,.72-2.44c.11-.06,3.18-.84,3.18-.84l1.39,1Z"/>
            <path class="cls-3" d="M44.48,77a14.19,14.19,0,0,0,5.77-1.43l.24-.07a.88.88,0,0,0,.31-1.34A39.9,39.9,0,0,1,49,63.06c0-1.6-2-2.51-2.26-3l-.22-.22a2.4,2.4,0,0,0-1.75-.76c-1.15,0-2.94.18-3.76,1.22a3.68,3.68,0,0,0-.78,1.46S43.37,77.08,44.48,77Z"/>
            <ellipse class="cls-3" cx="46.86" cy="65.95" rx="1.72" ry="5.8" transform="translate(-33.63 57.73) rotate(-48.77)"/>
            <path class="cls-7" d="M57.69,67.92l1.11.27a.27.27,0,0,0,.32-.17l.22-.72a.25.25,0,0,0-.1-.3l-.34-.23a.27.27,0,0,0-.31,0l-.42.34a.31.31,0,0,1-.21.07.31.31,0,0,0-.29.17l-.07.12Z"/>
            <path class="cls-7" d="M49,68.89a1.31,1.31,0,0,1,1.19-1.5c3.12-.28,7.71-.17,7.71-.17L58,68a65.34,65.34,0,0,1-7.44,2A1.34,1.34,0,0,1,49,68.89Z"/>
            <path class="cls-6" d="M45.06,50.53a.57.57,0,0,0-.42-.73l-1-.23a3.94,3.94,0,0,0-3.73,1.16l-.24.26a7.32,7.32,0,0,0-2,4.46l-.27,3.49-.74,3.19a3.28,3.28,0,0,0,4.58,3.72,3.19,3.19,0,0,0,1.78-2.21l1.1-4.91-.51-5.39a2.22,2.22,0,0,1,.83-2A1.84,1.84,0,0,0,45.06,50.53Z"/>
            <path class="cls-6" d="M44.64,49.8l-.72-.16a1.73,1.73,0,0,1-.33.9,2.22,2.22,0,0,0-.28,2.1l.38,1,0-.33a2.22,2.22,0,0,1,.83-2,1.84,1.84,0,0,0,.57-.86A.57.57,0,0,0,44.64,49.8Z"/>
            <path class="cls-6" d="M40.86,65.84a3.29,3.29,0,0,1-2-2.9l-.12-3.27-.66-3.43a7.55,7.55,0,0,1,0-2.64,6.91,6.91,0,0,0-.38,1.86l-.27,3.48-.74,3.19a3.29,3.29,0,0,0,4.4,3.8C41.16,65.45,41.44,64.18,40.86,65.84Z"/>
            <path class="cls-3" d="M38.56,101.24l-.25,1a.09.09,0,0,0,.08.12l2.17.27a.07.07,0,0,0,0-.13l-.89-.54a.72.72,0,0,1-.33-.51v-.12Z"/>
            <path class="cls-7" d="M43.44,84.13l-2.68,4.11a11.6,11.6,0,0,0-1.89,5.87l-.3,7.2.81.32.19-.58q1.09-2.67,2-5.38c1.27-3.6,2.45-6.56,4-10.42l0,0a1.24,1.24,0,0,0-2.21-1.08Z"/>
            <path class="cls-3" d="M48.9,102.84l-.08,1a.09.09,0,0,0,.1.1l2.18-.1a.07.07,0,0,0,0-.13l-1-.38a.7.7,0,0,1-.41-.45l0-.12Z"/>
            <path class="cls-7" d="M47.68,85.21,46.54,90a11.65,11.65,0,0,0,.21,6.17L48.9,103l.87,0,0-.61c.09-1.92.13-3.84.11-5.76,0-3.81.09-7,.25-11.16v0A1.23,1.23,0,0,0,49,84.27,1.22,1.22,0,0,0,47.68,85.21Z"/>
            <path class="cls-3" d="M51.73,88.52c-.12-2.2-.57-13.53-.89-14.32-.17-.43-1.06-.86-1.33-1L49.16,73c-2-1.05-3.28-2.06-5.38.16-1,1.07-.94,4.51-.73,5.91,0,.11,0,.23,0,.34a9.15,9.15,0,0,1-1.71,6.36,3.21,3.21,0,0,0-.52.85c0,.44,1.4,1.13,1.69,1.31a1.39,1.39,0,0,0,.28.12s1.52.59,2.92,1.07a6.64,6.64,0,0,0,4,.1A8.86,8.86,0,0,0,51.73,88.52Z"/>
        </g>
    </g>
</svg>