<svg xmlns="http://www.w3.org/2000/svg"
    xmlns:xlink="http://www.w3.org/1999/xlink" viewBox="0 0 866.78 323.42" width="866.78" height="323.42">
    <defs>
        <style>.cls-1,.cls-17,.cls-18,.cls-22{fill:none;}.cls-2{fill:#9fc6e0;}.cls-3{fill:#6a9dd8;}.cls-4{fill:#0d4d84;}.cls-14,.cls-5{fill:#b7c6f7;}.cls-6{fill:#486fa2;}.cls-13,.cls-7{fill:#f8b716;}.cls-8{fill:#1d384d;}.cls-9{fill:#fcb47f;}.cls-10{fill:#f49b5f;}.cls-11{fill:#444;}.cls-12{fill:#00bce7;}.cls-12,.cls-13,.cls-14{fill-rule:evenodd;}.cls-15{clip-path:url(#clip-path);}.cls-16{fill:#eee;}.cls-17{stroke:#11112d;}.cls-17,.cls-18,.cls-22{stroke-linecap:round;stroke-miterlimit:10;}.cls-17,.cls-18{stroke-width:2px;}.cls-18,.cls-22{stroke:#00bce7;}.cls-18{stroke-dasharray:4 8;}.cls-19{fill:#fff;}.cls-20{fill:#f8ba8d;}.cls-21{clip-path:url(#clip-path-2);}.cls-22{stroke-width:4px;stroke-dasharray:8 15;}</style>
        <clipPath id="clip-path">
            <path class="cls-1" d="M865.83,279.48a41.66,41.66,0,0,0-7.66-5.87c.09-2.73.25-8.59.16-11.2l.58-3c1.86-12.39-5.33-19.44-5.33-19.44l-1.47-.13-.35,0-2.26-.2-.29,0-6.89-.61-.29,0-.66-.06-2.41-1-.27-.11-1.9-.82A15.64,15.64,0,0,0,834,247.81c0,.26,0,.51.08.76.07.65.17,1.23.27,1.73a13,13,0,0,1,.12,4.17l-.87,6.31a32.16,32.16,0,0,0-.28,13.13c.2,1.09.4,2.19.52,3.29a4.37,4.37,0,0,0,.51,1.64,2.53,2.53,0,0,0,.88,1.15,4.48,4.48,0,0,0,.82.61,13.31,13.31,0,0,1,2,1.91,73.38,73.38,0,0,1,4.43,6.31C847.77,297,854.71,309,854.71,309l2.69-1.22c-2.62-11.09-5.8-18.82-8.7-24.13a41.88,41.88,0,0,0-5.45-8c.57-1.57,1.54-4.27,2.37-6.69a30.3,30.3,0,0,0,2.53,6c.53,1,1.06,1.95,1.51,3a4.66,4.66,0,0,0,1,1.39,2.58,2.58,0,0,0,1.19.82,4.19,4.19,0,0,0,1,.33,13.16,13.16,0,0,1,2.49,1.19,75.17,75.17,0,0,1,6.18,4.61c7.6,6.13,17.93,15.37,17.93,15.37l2.17-2C875.66,290,870.24,283.61,865.83,279.48Z"/>
        </clipPath>
        <clipPath id="clip-path-2">
            <circle class="cls-1" cx="640.68" cy="34.16" r="26.33"/>
        </clipPath>
    </defs>
    <g id="레이어_2" data-name="레이어 2">
        <g id="Layer_1" data-name="Layer 1">
            <g id="img_slide_fg">
                <path class="cls-2" d="M572.47,238.3l-7.1-1.21a39.56,39.56,0,0,0-2.86-6.89l4.19-5.86a6.23,6.23,0,0,0-.68-8.05l-6.3-6.31a6.19,6.19,0,0,0-4.42-1.83,6.12,6.12,0,0,0-3.61,1.16l-5.88,4.18a40.39,40.39,0,0,0-7.15-2.93l-1.18-7a6.25,6.25,0,0,0-6.18-5.22h-8.9a6.25,6.25,0,0,0-6.18,5.22L515,210.73a39.78,39.78,0,0,0-6.88,2.89l-5.81-4.18a6.24,6.24,0,0,0-8.06.67l-6.32,6.3a6.28,6.28,0,0,0-.68,8.06l4.24,5.94a38.8,38.8,0,0,0-2.82,6.92l-7,1.18a6.25,6.25,0,0,0-5.22,6.18v8.9a6.25,6.25,0,0,0,5.22,6.17l7.19,1.23a40.52,40.52,0,0,0,2.9,6.87l-4.17,5.8a6.23,6.23,0,0,0,.68,8l6.3,6.3a6.23,6.23,0,0,0,8,.68l5.94-4.23a39.76,39.76,0,0,0,6.68,2.75l1.18,7.1a6.25,6.25,0,0,0,6.18,5.23h8.92a6.25,6.25,0,0,0,6.18-5.23l1.2-7.1a39.66,39.66,0,0,0,6.9-2.86l5.85,4.19a6.22,6.22,0,0,0,8.06-.68l6.3-6.3a6.24,6.24,0,0,0,.68-8.05l-4.19-5.88a38.5,38.5,0,0,0,2.85-6.89l7.11-1.19a6.23,6.23,0,0,0,5.22-6.17v-8.9A6.17,6.17,0,0,0,572.47,238.3Zm-23.58,10.62a21.84,21.84,0,1,1-21.84-21.85A21.86,21.86,0,0,1,548.89,248.92Z"/>
                <path class="cls-2" d="M527.05,227.07a21.85,21.85,0,1,1-21.84,21.85A21.85,21.85,0,0,1,527.05,227.07Zm16.13,21.85a16.13,16.13,0,1,0-16.13,16.13A16.14,16.14,0,0,0,543.18,248.92Z"/>
                <path class="cls-3" d="M527.05,271.41a22.5,22.5,0,1,1,22.5-22.49A22.52,22.52,0,0,1,527.05,271.41Zm0-43.69a21.2,21.2,0,1,0,21.19,21.2A21.22,21.22,0,0,0,527.05,227.72Zm0,38a16.79,16.79,0,1,1,16.78-16.78A16.8,16.8,0,0,1,527.05,265.7Zm0-32.27a15.49,15.49,0,1,0,15.48,15.49A15.51,15.51,0,0,0,527.05,233.43Z"/>
                <path class="cls-4" d="M445.68,100.84l-4.22,3.27a30.16,30.16,0,0,0-5.19-1.9L435.18,97a4.62,4.62,0,0,0-4.73-3.67l-6.6.28a4.59,4.59,0,0,0-3.22,1.48,4.66,4.66,0,0,0-1.18,2.56l-.66,5.3a29.2,29.2,0,0,0-5.19,2.43l-4.42-2.88a4.62,4.62,0,0,0-5.94.75l-4.47,4.85a4.63,4.63,0,0,0-.24,6l3.3,4.27a29.56,29.56,0,0,0-1.87,5.2l-5.2,1.07a4.51,4.51,0,0,0-2.45,1.4,4.57,4.57,0,0,0-1.22,3.33l.27,6.61a4.64,4.64,0,0,0,4.05,4.41l5.36.67a29.29,29.29,0,0,0,2.36,5l-2.87,4.42a4.62,4.62,0,0,0,.74,5.94l4.86,4.47a4.62,4.62,0,0,0,6,.24l4.28-3.3a29.46,29.46,0,0,0,5.19,1.87l1.07,5.18a4.62,4.62,0,0,0,4.73,3.66l6.6-.27a4.6,4.6,0,0,0,3.22-1.49,4.53,4.53,0,0,0,1.18-2.55l.67-5.36a29.31,29.31,0,0,0,4.85-2.27l4.47,2.92a4.62,4.62,0,0,0,5.94-.74l4.48-4.87a4.62,4.62,0,0,0,.24-6l-3.27-4.22a29.1,29.1,0,0,0,1.91-5.19l5.22-1.09a4.55,4.55,0,0,0,2.45-1.39,4.63,4.63,0,0,0,1.22-3.34l-.28-6.59a4.63,4.63,0,0,0-4.05-4.41l-5.31-.67a28.87,28.87,0,0,0-2.32-5l2.91-4.47a4.61,4.61,0,0,0-.74-5.94l-4.86-4.46A4.57,4.57,0,0,0,445.68,100.84Zm-6,18.18a16.18,16.18,0,1,1-22.87,1A16.2,16.2,0,0,1,439.65,119Z"/>
                <path class="cls-5" d="M416.78,120a16.18,16.18,0,1,1,1,22.87A16.2,16.2,0,0,1,416.78,120Zm20,2.16a11.95,11.95,0,1,0,.71,16.89A11.95,11.95,0,0,0,436.78,122.13Z"/>
                <path class="cls-6" d="M441,142.21a16.66,16.66,0,1,1-1-23.54A16.69,16.69,0,0,1,441,142.21ZM417.14,120.3a15.7,15.7,0,1,0,22.18-.92A15.72,15.72,0,0,0,417.14,120.3Zm20.7,19a12.43,12.43,0,1,1-.73-17.56A12.44,12.44,0,0,1,437.84,139.34Zm-17.59-16.18a11.47,11.47,0,1,0,16.21-.67A11.49,11.49,0,0,0,420.25,123.16Z"/>
                <path class="cls-6" d="M362.61,111.79l-4.55,3.52a32.37,32.37,0,0,0-5.6-2l-1.18-5.64a5,5,0,0,0-5.1-3.95l-7.11.29a5,5,0,0,0-4.75,4.36l-.72,5.72a31.28,31.28,0,0,0-5.59,2.62l-4.77-3.11a5,5,0,0,0-6.41.81L312,119.61a5,5,0,0,0-.26,6.45l3.56,4.61a31,31,0,0,0-2,5.61l-5.61,1.16a4.85,4.85,0,0,0-2.65,1.5,4.91,4.91,0,0,0-1.31,3.6l.28,7.12a5,5,0,0,0,4.38,4.76l5.78.73a30.49,30.49,0,0,0,2.54,5.39l-3.1,4.77a5,5,0,0,0,.81,6.41l5.23,4.81a5,5,0,0,0,6.46.27l4.61-3.56a31.22,31.22,0,0,0,5.61,2l1.15,5.59a5,5,0,0,0,5.1,4l7.12-.3a5,5,0,0,0,4.75-4.36l.72-5.78a32.71,32.71,0,0,0,5.23-2.44l4.82,3.14a5,5,0,0,0,6.41-.8l4.83-5.25a5,5,0,0,0,.26-6.46L373.2,158a31,31,0,0,0,2.05-5.6l5.63-1.17a5,5,0,0,0,4-5.11l-.3-7.11a5,5,0,0,0-4.37-4.76l-5.72-.72a31.58,31.58,0,0,0-2.51-5.4l3.15-4.82a5,5,0,0,0-.81-6.41l-5.23-4.82A4.94,4.94,0,0,0,362.61,111.79ZM356.1,131.4a17.45,17.45,0,1,1-24.66,1A17.45,17.45,0,0,1,356.1,131.4Z"/>
                <path class="cls-5" d="M331.44,132.42a17.45,17.45,0,1,1,1,24.67A17.46,17.46,0,0,1,331.44,132.42ZM353,134.75a12.89,12.89,0,1,0,.76,18.21A12.9,12.9,0,0,0,353,134.75Z"/>
                <path class="cls-6" d="M357.52,156.41a18,18,0,1,1-1.06-25.4A18,18,0,0,1,357.52,156.41Zm-25.7-23.64a16.94,16.94,0,1,0,23.93-1A17,17,0,0,0,331.82,132.77Zm22.34,20.55a13.41,13.41,0,1,1-.79-18.95A13.43,13.43,0,0,1,354.16,153.32Zm-19-17.46a12.37,12.37,0,1,0,17.48-.72A12.4,12.4,0,0,0,335.18,135.86Z"/>
                <path class="cls-5" d="M447.87,117.88a27.22,27.22,0,0,0-2.25-2.54,4.11,4.11,0,0,0-.3-.29l-.31-.29-.31-.29-.32-.27-.32-.28c-.11-.08-.21-.18-.33-.26l-.66-.51c-.11-.09-.23-.17-.35-.25l-.34-.24-.35-.23-.35-.23-.36-.22-.35-.22-.73-.41a23,23,0,0,0-3.05-1.35,23.7,23.7,0,0,0-3.19-.92,23.67,23.67,0,0,0-6.57-.4l-.82.08-.41.06-.4.06-.41.06-.4.08-.41.08c-.13,0-.27.05-.4.09l-.79.2-.4.11-.39.12-.39.12-.39.14-.38.14c-.13,0-.26.09-.38.15l-.76.31-.37.17-.37.17-.37.17-.36.19c-.24.13-.49.25-.72.39l-.7.42-.18.1-.17.12-.34.22c-.46.3-.89.63-1.33,1l-.63.51-.31.27-.3.27-.3.28-.3.28-.57.58a22.51,22.51,0,0,0-2.07,2.5c-.09.11-.16.22-.24.33l-.22.34-.23.34-.21.35-.2.35a4.05,4.05,0,0,0-.21.35l-.38.71a23.2,23.2,0,0,0-1.26,3,24.53,24.53,0,0,0-.81,3.14,21.56,21.56,0,0,0-.25,6.48l.1.8c0,.14,0,.27.06.41l.07.4.07.4.09.39.1.4a2.74,2.74,0,0,0,.09.39l.22.79c0,.13.09.25.13.38l.13.39.13.39.14.37.15.39c.05.12.09.25.15.37l.33.75c.05.12.11.24.17.36l.19.37.18.36c.06.12.13.24.2.36l.4.71c.3.45.58.92.9,1.36l.24.33.12.17.13.16.5.64a24,24,0,0,0,2.26,2.36,4,4,0,0,0,.3.28l.31.26.31.27.33.25.32.25a2.6,2.6,0,0,0,.33.25l.67.47.34.23.35.21.35.22.36.21.35.2.37.19.73.37c.12.07.25.11.38.17l.37.17.38.16.39.15.38.15.19.08.2.06.78.27a26.91,26.91,0,0,0,3.22.76,24.35,24.35,0,0,0,3.3.28,24.69,24.69,0,0,0,3.33-.18l.83-.12.41-.08.41-.08.41-.08.41-.1.41-.1.41-.11.8-.24.4-.13.4-.14.4-.14.39-.16.39-.16.39-.17a26.07,26.07,0,0,0,3-1.58l.07.11-.72.46c-.12.08-.23.16-.36.23l-.37.22-.36.22-.19.1-.19.1-.76.4-.38.18-.39.18-.39.17-.4.16-.4.16c-.13.05-.26.11-.4.15l-.81.28c-.13.05-.27.08-.41.12l-.41.12-.41.12-.41.1-.42.09-.42.09-.84.16a23.39,23.39,0,0,1-6.82.1,23.41,23.41,0,0,1-6.56-1.88l-.77-.37-.38-.19-.38-.21-.38-.2-.36-.22-.37-.22-.36-.23-.71-.48a2.8,2.8,0,0,1-.35-.25l-.34-.25-.35-.26-.33-.27-.33-.28-.32-.27-.64-.58-.3-.3-.3-.3-.3-.31-.29-.32c-.19-.21-.39-.42-.57-.64l-.54-.66-.13-.17-.13-.17-.25-.35c-.35-.45-.65-.94-1-1.42l-.44-.73-.21-.38-.2-.38-.19-.38a2.69,2.69,0,0,1-.19-.38l-.36-.78c-.06-.13-.11-.26-.17-.4l-.15-.39L407,139l-.14-.41-.14-.4c0-.14-.09-.27-.13-.41l-.24-.82c0-.14-.07-.28-.1-.42l-.1-.42-.1-.41-.07-.43-.08-.42c0-.14-.05-.28-.07-.42l-.11-.85a23,23,0,0,1,.23-6.83,26.85,26.85,0,0,1,.87-3.31,24.27,24.27,0,0,1,1.35-3.15l.4-.76c.07-.12.15-.24.22-.37l.22-.36.22-.37.24-.35.24-.36c.08-.12.16-.24.25-.35l.51-.69.27-.33L411,116l.27-.33.29-.32.29-.31.29-.31.61-.6a2.89,2.89,0,0,1,.32-.29l.32-.29.32-.28.33-.28c.22-.17.44-.36.67-.53.46-.33.92-.68,1.4-1l.36-.24.18-.11.19-.11.74-.43c.24-.14.5-.26.75-.4l.39-.19.39-.18.39-.18c.13-.05.25-.12.39-.17l.8-.31a2.7,2.7,0,0,1,.4-.14l.4-.14.41-.14.41-.12.41-.11a3.25,3.25,0,0,1,.42-.11l.83-.2.42-.08.42-.08.42-.07.43-.06.42,0,.43-.05.85-.07a26,26,0,0,1,3.42,0,27.34,27.34,0,0,1,3.38.54,26.25,26.25,0,0,1,3.26,1,23.67,23.67,0,0,1,3.08,1.5l.73.44.36.23.35.24.35.24.35.26.34.26.34.26.66.55a2.7,2.7,0,0,1,.31.28l.32.29.32.29.3.3.3.31c.09.1.2.2.29.31l.57.63.14.16.14.17.26.33.27.34.26.34.5.69Z"/>
                <path class="cls-4" d="M366.06,152.86a27.36,27.36,0,0,0,.84-3.29c0-.14.05-.28.07-.42l.07-.41.06-.42,0-.42,0-.42a3,3,0,0,0,0-.42l0-.84c0-.14,0-.28,0-.42V145c0-.14,0-.28,0-.41l0-.42a3,3,0,0,0,0-.42l-.07-.83a24.38,24.38,0,0,0-.59-3.29,25.24,25.24,0,0,0-1-3.15,24.63,24.63,0,0,0-1.48-2.95,25.62,25.62,0,0,0-1.88-2.71l-.53-.63a4.12,4.12,0,0,0-.28-.31l-.27-.3-.28-.3-.3-.29-.29-.29c-.1-.09-.19-.19-.3-.28l-.61-.54a2.6,2.6,0,0,0-.32-.26l-.31-.26-.32-.26-.34-.24-.33-.24-.33-.23-.68-.45-.35-.22-.35-.21-.36-.2-.36-.2-.72-.37-.74-.35-.19-.08-.19-.08-.38-.15c-.5-.22-1-.38-1.53-.56-.26-.09-.52-.16-.78-.24l-.39-.11L350,123l-.4-.1-.39-.08-.81-.15a25,25,0,0,0-3.23-.31c-.14,0-.27,0-.41,0h-.81l-.41,0-.4,0-.41,0-.81.09a23,23,0,0,0-3.18.64,24.29,24.29,0,0,0-3.06,1.1,23.77,23.77,0,0,0-2.87,1.51,22.28,22.28,0,0,0-2.62,1.92l-.61.54a3.85,3.85,0,0,0-.3.27l-.29.29-.29.28-.28.3-.28.3-.27.3-.52.62c-.09.1-.17.22-.25.32l-.25.33-.24.32-.24.33-.23.34a4,4,0,0,0-.23.34l-.43.69c-.07.11-.13.23-.2.35l-.2.36-.2.35-.18.37-.36.73c-.21.5-.44,1-.62,1.51l-.14.38c0,.07,0,.13-.07.19l-.06.2-.25.78a26.64,26.64,0,0,0-.69,3.19c0,.14,0,.27,0,.41l0,.41-.05.4,0,.41,0,.41a2.82,2.82,0,0,0,0,.41V145c0,.14,0,.27,0,.41l0,.41v.41l0,.41,0,.41c0,.14,0,.27,0,.41l.11.81c0,.14.05.27.07.41l.07.41c0,.13.05.27.08.4l.09.4.1.4,0,.2.06.2.22.8a25.17,25.17,0,0,0,1.18,3.09,24.81,24.81,0,0,0,1.62,2.89,23.55,23.55,0,0,0,2,2.65l.56.62.3.3.3.29a4.11,4.11,0,0,0,.3.29l.31.28.31.29.32.27.65.53a4.19,4.19,0,0,0,.33.26l.34.25.34.25.35.23.35.23.36.23a25.19,25.19,0,0,0,3,1.6l0,.11-.79-.32-.39-.17-.39-.19-.39-.18-.19-.09-.19-.1-.75-.41a2.77,2.77,0,0,1-.37-.22l-.36-.22-.37-.22-.35-.24-.36-.24c-.12-.08-.24-.16-.35-.25l-.68-.51c-.12-.08-.23-.18-.34-.27l-.32-.27-.33-.28-.32-.28-.31-.29-.31-.3-.6-.61a24.09,24.09,0,0,1-2.17-2.65,24.64,24.64,0,0,1-1.75-2.93,26.3,26.3,0,0,1-1.31-3.16,25.54,25.54,0,0,1-.82-3.32l-.14-.85c0-.14,0-.28-.05-.42l0-.43-.05-.43,0-.42,0-.43c0-.14,0-.29,0-.43v-.85c0-.15,0-.29,0-.43l0-.43c0-.14,0-.29,0-.43l0-.42,0-.43c0-.14,0-.28,0-.43l.13-.84c0-.15.05-.28.07-.42l.08-.43.09-.42.1-.41c.07-.28.13-.56.21-.83l.25-.82.06-.21c0-.06.05-.13.07-.2l.14-.4c.18-.54.42-1.06.64-1.59.11-.26.24-.52.36-.78s.12-.26.19-.38l.2-.38.21-.38a3.47,3.47,0,0,1,.21-.37l.44-.73c.07-.13.16-.24.24-.36l.24-.36.24-.35.25-.34.26-.34c.09-.12.17-.24.26-.34l.55-.66c.09-.11.19-.22.29-.32l.29-.32.29-.31.3-.3.31-.3c.1-.1.2-.21.31-.3l.64-.57a26.08,26.08,0,0,1,2.75-2,25.79,25.79,0,0,1,3-1.61,26.34,26.34,0,0,1,3.23-1.14,25.26,25.26,0,0,1,3.36-.66l.85-.09.43,0,.43,0,.42,0h.86c.14,0,.29,0,.43,0l.86,0c.14,0,.28,0,.42,0l.43,0,.43,0,.42.06.42.06.43.07.84.17c.14,0,.28.06.41.09l.42.11.41.1.42.12.81.26c.54.19,1.08.37,1.6.61l.4.16.2.08.19.1.77.37.76.4.37.21.37.22.36.22.37.23.7.48.35.26.34.26.34.25.33.28.33.27c.11.1.22.18.32.28l.63.58.31.3.3.31.3.31.28.32.28.32a2.79,2.79,0,0,1,.28.32l.54.67a25.58,25.58,0,0,1,1.89,2.85,23.38,23.38,0,0,1,2.43,6.37,24.31,24.31,0,0,1,.5,3.39l0,.85c0,.14,0,.29,0,.43V145l0,.43,0,.43c0,.14,0,.28,0,.43l-.09.85c0,.14,0,.28-.05.42l-.06.42-.07.43-.08.42-.08.42c0,.14,0,.28-.09.41l-.21.83c0,.07,0,.14-.05.21l-.06.21-.13.4-.12.41c0,.14-.1.27-.14.41l-.29.8Z"/>
                <rect class="cls-7" x="103.75" y="186.53" width="38.56" height="38.56"/>
                <rect class="cls-7" x="165.94" y="186.53" width="38.56" height="38.56"/>
                <rect class="cls-7" x="228.12" y="186.53" width="38.56" height="38.56"/>
                <rect class="cls-7" x="41.57" y="186.53" width="38.56" height="38.56"/>
                <path class="cls-2" d="M16.81,225.09H415.87v22.39H16.81a11.2,11.2,0,1,1,0-22.39Z"/>
                <rect class="cls-2" x="41.57" y="247.48" width="9.43" height="49.51"/>
                <rect class="cls-2" y="288.18" width="415.87" height="8.82"/>
                <circle class="cls-3" cx="17.7" cy="236.43" r="4.9" transform="matrix(1, -0.02, 0.02, 1, -5.03, 0.43)"/>
                <circle class="cls-3" cx="48.94" cy="236.43" r="4.9" transform="translate(-5.02 1.09) rotate(-1.22)"/>
                <circle class="cls-2" cx="80.18" cy="236.43" r="4.9" transform="translate(-5.01 1.76) rotate(-1.22)"/>
                <circle class="cls-3" cx="111.42" cy="236.43" r="4.9" transform="translate(-5 2.42) rotate(-1.22)"/>
                <circle class="cls-2" cx="142.66" cy="236.43" r="4.9" transform="translate(-5 3.09) rotate(-1.22)"/>
                <circle class="cls-2" cx="173.9" cy="236.43" r="4.9" transform="translate(-4.99 3.75) rotate(-1.22)"/>
                <circle class="cls-2" cx="205.14" cy="236.43" r="4.9" transform="translate(-4.98 4.42) rotate(-1.22)"/>
                <circle class="cls-3" cx="236.38" cy="236.43" r="4.9" transform="translate(-4.98 5.08) rotate(-1.22)"/>
                <circle class="cls-3" cx="267.62" cy="236.43" r="4.9" transform="translate(-4.97 5.75) rotate(-1.22)"/>
                <circle class="cls-3" cx="298.86" cy="236.43" r="4.9" transform="translate(-4.96 6.41) rotate(-1.22)"/>
                <circle class="cls-3" cx="330.1" cy="236.43" r="4.9" transform="translate(-4.95 7.08) rotate(-1.22)"/>
                <circle class="cls-3" cx="361.34" cy="236.43" r="4.9" transform="translate(-4.95 7.74) rotate(-1.22)"/>
                <circle class="cls-3" cx="392.58" cy="236.43" r="4.9" transform="translate(-4.94 8.4) rotate(-1.22)"/>
                <rect class="cls-3" x="116.61" y="272.24" width="73.79" height="24.76"/>
                <rect class="cls-6" x="127.92" y="241.33" width="51.17" height="31.17"/>
                <polygon class="cls-6" points="91.67 127.3 128.67 247.49 177.58 232.9 141.42 115.32 91.67 127.3"/>
                <circle class="cls-4" cx="153.51" cy="241.33" r="25.59"/>
                <circle class="cls-3" cx="153.51" cy="241.33" r="17.48" transform="translate(-36.67 27.71) rotate(-9.22)"/>
                <polygon class="cls-6" points="122.68 96.72 234.04 131.71 228.26 162.39 116.61 147.16 122.68 96.72"/>
                <circle class="cls-4" cx="116.61" cy="121.58" r="25.59"/>
                <circle class="cls-3" cx="116.61" cy="121.58" r="17.48" transform="translate(-51.82 118.07) rotate(-45)"/>
                <polygon class="cls-6" points="231.78 162.79 249.34 194.8 266.91 187.47 246.03 140.77 231.78 162.79"/>
                <circle class="cls-4" cx="231.78" cy="147.17" r="15.62"/>
                <circle class="cls-3" cx="231.78" cy="147.17" r="7.52"/>
                <path class="cls-3" d="M258.83,220.44l2-2.88-17.21-13.15a3.45,3.45,0,0,1-1-4.32,3.5,3.5,0,0,1,1.61-1.55l12.38-5.8L268,214.48,271.2,213l-9.43-22.66,12.37-5.8a3.5,3.5,0,0,1,2.23-.24,3.44,3.44,0,0,1,2.69,3.51l-.9,21.64,3.5.3,2.88-22.18a7.44,7.44,0,0,0-.64-4.13l-2.5-5.33a4.36,4.36,0,0,0-5.8-2.1l-38.83,18.2a4.36,4.36,0,0,0-2.1,5.8l2.51,5.34a7.4,7.4,0,0,0,2.76,3.13Z"/>
                <polygon class="cls-4" points="246.51 189.64 244.81 186.55 262.71 178.07 264.17 181.35 246.51 189.64"/>
                <ellipse class="cls-8" cx="91.37" cy="203.16" rx="14.39" ry="6.29" transform="translate(-0.81 0.36) rotate(-0.23)"/>
                <path class="cls-4" d="M82.54,227.72a4.19,4.19,0,0,1,2.44.43,7.32,7.32,0,0,1,4,5.39c1,5.6,3.09,16.47,3.85,20.64a5.52,5.52,0,0,1-.35,3.23l-1.13,2.45a3.29,3.29,0,0,1-3.88,1.93,5.42,5.42,0,0,1-3.33-2.91l-2-4A21.2,21.2,0,0,0,76,247.37a8.73,8.73,0,0,1-3.29-7.68c.64-6,4.08-10.53,9-11.75Z"/>
                <path class="cls-4" d="M66.88,229.18a4.23,4.23,0,0,0-2.2,1.13,7.31,7.31,0,0,0-2.22,6.34c.66,5.65,1.94,16.65,2.46,20.85a5.42,5.42,0,0,0,1.29,3l1.81,2a3.28,3.28,0,0,0,4.27.69,5.36,5.36,0,0,0,2.32-3.77l.7-4.37a21.19,21.19,0,0,1,3.63-9,8.77,8.77,0,0,0,.86-8.32c-2.39-5.55-7-8.84-12-8.56Z"/>
                <path class="cls-8" d="M67.92,194.53l-10.29,4.63a3.22,3.22,0,0,0-1.85,3.53l.9,4.71a27.66,27.66,0,0,0,4.07,10.07l1.36,2.06a11.92,11.92,0,0,1,1,11.25l-.44,1a1.81,1.81,0,0,0,.53,2.12l.08.06a24.07,24.07,0,0,0,20.33,2.76,25.44,25.44,0,0,0,3.21-1.4,2.82,2.82,0,0,0,1.59-3.13l-1.15-5.63a30.38,30.38,0,0,1,.14-12.91l.49-2.18a38.34,38.34,0,0,0,1-8.61v-3a2.8,2.8,0,0,0-1.77-2.6l-7.6-3A14.91,14.91,0,0,0,67.92,194.53Z"/>
                <path class="cls-9" d="M72,186.62l-5.18,8.52,1.78,1.41A10,10,0,0,0,77,198.48a4.64,4.64,0,0,0,3.64-4.87l-.41-3.86Z"/>
                <path class="cls-10" d="M79.59,194.43a4.78,4.78,0,0,0,2.84-2.33c2.41-4,1.14-9.12-.21-13.6a2.78,2.78,0,0,0-.67-1.31c-.56-.52-3.67-2.38-4.43-2.3-3.16.72-4,3.47-7.15,4.36a1.31,1.31,0,0,0-.72.37,1.23,1.23,0,0,0-.19.84c.08,1.36.82,2.63,1.11,4a21.62,21.62,0,0,0,1.21,4,9.84,9.84,0,0,0,5.47,5.68A4.77,4.77,0,0,0,79.59,194.43Z"/>
                <path class="cls-9" d="M79.77,193.63a4.8,4.8,0,0,0,2.83-2.33c2.42-4,1.15-9.13-.2-13.61a2.88,2.88,0,0,0-.67-1.31c-.56-.51-3.67-2.38-4.43-2.29-3.16.72-4,3.47-7.15,4.35a1.33,1.33,0,0,0-.72.38,1.2,1.2,0,0,0-.19.84c.08,1.36.82,2.63,1.11,4a22.08,22.08,0,0,0,1.21,4A9.79,9.79,0,0,0,77,193.34,4.78,4.78,0,0,0,79.77,193.63Z"/>
                <path class="cls-8" d="M59.36,198.49c-3.48,0-6.29,6.44-6.29,14.38s2.81,14.39,6.29,14.39,6.29-6.44,6.29-14.39S62.83,198.49,59.36,198.49Z"/>
                <path class="cls-11" d="M70.39,189.33s-4.24-4.81-4.4-8.51.8-5.67,2.73-5.93,6.44,1.34,6.44,1.34-3.52,8.41-3.6,9.62C71.38,188.47,70.39,189.33,70.39,189.33Z"/>
                <path class="cls-11" d="M69.56,178.87s-1-3.8.36-5.32a23.64,23.64,0,0,1,2.6-2.28,14,14,0,0,1,6.57-2.83h0a10.85,10.85,0,0,0,2-.5,11.85,11.85,0,0,1,2.52-.72c.2.14.94,3.57-.73,5s-9.46,2.78-9.32,6.95S69.56,178.87,69.56,178.87Z"/>
                <path class="cls-11" d="M68.76,177.36s.42-3.91,2.21-4.85a22.94,22.94,0,0,1,3.25-1.22,14.06,14.06,0,0,1,7.14-.33h0a11.94,11.94,0,0,0,2.06.24,11.49,11.49,0,0,1,2.62.21c.14.21-.38,3.67-2.46,4.46s-9.83-.73-11.17,3.22S68.76,177.36,68.76,177.36Z"/>
                <path class="cls-11" d="M66.6,180.37s-1.86-3.45-.92-5.24a22.37,22.37,0,0,1,2-2.84A13.93,13.93,0,0,1,73.36,168l0,0a11.39,11.39,0,0,0,1.83-1,11.2,11.2,0,0,1,2.28-1.31c.23.09,1.76,3.24.5,5.07s-8.52,5-7.39,9S66.6,180.37,66.6,180.37Z"/>
                <path class="cls-9" d="M70.45,182.39a2.49,2.49,0,0,0,.15,2.78c.61.83,1.54,1,2.07.25a2.51,2.51,0,0,0-.16-2.78C71.9,181.8,71,181.69,70.45,182.39Z"/>
                <path class="cls-4" d="M83.41,253.68a4.23,4.23,0,0,0-.75,1.28l-3.44,9.35a30.57,30.57,0,0,0-1.77,13.17l1.78,20.73,2.67.72,7.23-26.71,3.68-15.66a2.21,2.21,0,0,0-1.19-2.49l-3-1.46A4.33,4.33,0,0,0,83.41,253.68Z"/>
                <path class="cls-4" d="M65.12,256.23a4.08,4.08,0,0,0-.48,1.4l-1.55,9.84a30.69,30.69,0,0,0,.85,13.27l5.82,20,2.76.18,1.84-27.61.55-16.08A2.23,2.23,0,0,0,73.25,255L70,254.16A4.33,4.33,0,0,0,65.12,256.23Z"/>
                <path class="cls-6" d="M98.66,206.73a4.63,4.63,0,0,0,6.79-2.2A6.3,6.3,0,0,0,103,196.8a4.63,4.63,0,0,0-6.79,2.2A6.3,6.3,0,0,0,98.66,206.73Z"/>
                <path class="cls-9" d="M112,183.62l-1.26-.69s-9,9.76-12.52,15.49a4.38,4.38,0,1,0,7.65,4.13C108.32,197.34,112,183.62,112,183.62Z"/>
                <path class="cls-9" d="M110.66,183.85h.71a2.37,2.37,0,0,0,1.8-.73l.59-.7a3.05,3.05,0,0,1,1.89-.94l1.12-.16c.37-.06.43-.4.09-.49l-.15,0a6.39,6.39,0,0,0-3.57.38h0a5.38,5.38,0,0,0-1.77,1.13l-.76.75Z"/>
                <path class="cls-10" d="M111.4,183.47a.27.27,0,0,0,.32.2l.1,0a1.19,1.19,0,0,0,.8-.52l.22-.4a1.49,1.49,0,0,1,.83-.64l.53-.19c.18-.06.17-.24,0-.25h-.08a3.28,3.28,0,0,0-1.7.53,3,3,0,0,0-.76.73l-.22.33a.27.27,0,0,0,0,.23Z"/>
                <path class="cls-3" d="M79,302.91h-9.2v-2.19l2.76.18,5.35.76A1.26,1.26,0,0,1,79,302.91Z"/>
                <path class="cls-3" d="M87.65,302.42l-9-2.14.51-2.14,2.69.79,5,2a1.27,1.27,0,0,1,.76,1.48Z"/>
                <path class="cls-9" d="M81.46,227.16l2.84,1.28a.73.73,0,0,0,.94-.31l1-1.82a.72.72,0,0,0-.13-.86l-.8-.76a.73.73,0,0,0-.85-.11l-1.27.7a.93.93,0,0,1-.61.09.89.89,0,0,0-.88.31l-.22.28Z"/>
                <ellipse class="cls-6" cx="62.31" cy="224.03" rx="5.74" ry="5.05" transform="translate(-42.53 16.47) rotate(-11.26)"/>
                <path class="cls-9" d="M82.34,227.17l.15-1.5s-12.5-4.5-19.13-5.5a4.38,4.38,0,1,0-.85,8.65C68.26,229.07,82.34,227.17,82.34,227.17Z"/>
                <path class="cls-12" d="M116.33,53.75A7.27,7.27,0,1,1,109.06,61a7.26,7.26,0,0,1,7.27-7.27Z"/>
                <path class="cls-12" d="M116.32,18.08a44.44,44.44,0,0,1,31.2,13c4.59,3.28,8.1-2.93,4.51-5.62a51.22,51.22,0,0,0-71.42,0c-3.6,2.69-.09,8.9,4.5,5.62a44.45,44.45,0,0,1,31.21-13Z"/>
                <path class="cls-12" d="M116.32,32.4A30.22,30.22,0,0,1,137,40.78c4.16,3.92,8.19-1.06,5.46-4.68a36.9,36.9,0,0,0-52.29,0c-2.73,3.62,1.3,8.6,5.47,4.68a30.18,30.18,0,0,1,20.68-8.38Z"/>
                <path class="cls-12" d="M116.32,46.73a15.8,15.8,0,0,1,11,4.57c4.69,3.3,8.24-2.74,4.49-5.61a22.55,22.55,0,0,0-30.89,0c-3.74,2.87-.19,8.91,4.49,5.61a15.81,15.81,0,0,1,11-4.57Z"/>
                <path class="cls-12" d="M759.54,53.75A7.27,7.27,0,1,1,752.27,61a7.27,7.27,0,0,1,7.27-7.27Z"/>
                <path class="cls-12" d="M759.52,18.08a44.45,44.45,0,0,1,31.21,13c4.59,3.28,8.1-2.93,4.5-5.62a51.21,51.21,0,0,0-71.41,0c-3.6,2.69-.09,8.9,4.5,5.62a44.44,44.44,0,0,1,31.2-13Z"/>
                <path class="cls-12" d="M759.52,32.4a30.18,30.18,0,0,1,20.68,8.38c4.17,3.92,8.2-1.06,5.47-4.68a36.9,36.9,0,0,0-52.29,0c-2.73,3.62,1.3,8.6,5.47,4.68a30.17,30.17,0,0,1,20.67-8.38Z"/>
                <path class="cls-12" d="M759.52,46.73a15.81,15.81,0,0,1,11,4.57c4.68,3.3,8.24-2.74,4.49-5.61a22.55,22.55,0,0,0-30.89,0c-3.75,2.87-.2,8.91,4.49,5.61a15.8,15.8,0,0,1,10.95-4.57Z"/>
                <path class="cls-4" d="M722.21,302.35l77.19.13A13.55,13.55,0,0,0,812.94,289l.2-173.32a16.06,16.06,0,0,0-16-16L725,99.5a16.05,16.05,0,0,0-16,16l-.2,173.32A13.57,13.57,0,0,0,722.21,302.35Z"/>
                <path class="cls-3" d="M799.39,303.73l-77.18-.14a14.78,14.78,0,0,1-14.74-14.78l.2-173.32a17.36,17.36,0,0,1,10-15.62,17.05,17.05,0,0,1,7.3-1.62l72.2.13a17.29,17.29,0,0,1,17.23,17.28L814.19,289a14.88,14.88,0,0,1-8.55,13.37A14.65,14.65,0,0,1,799.39,303.73ZM710.17,115.49,710,288.81a12.28,12.28,0,0,0,12.25,12.29l77.19.14a12.16,12.16,0,0,0,5.18-1.15A12.36,12.36,0,0,0,811.7,289l.2-173.32a14.79,14.79,0,0,0-14.74-14.78l-72.2-.13a14.57,14.57,0,0,0-6.24,1.38A14.85,14.85,0,0,0,710.17,115.49Z"/>
                <path class="cls-8" d="M724.47,104.46h10.86a2,2,0,0,1,1.86,1.29l1.67,4.51a2.34,2.34,0,0,0,2.19,1.52h40.69a2.33,2.33,0,0,0,2.18-1.52l1.68-4.51a2,2,0,0,1,1.85-1.29h9.95a11.08,11.08,0,0,1,11.07,11.08V286.26a11.07,11.07,0,0,1-11.07,11.07H724.47a11.07,11.07,0,0,1-11.07-11.07V115.54A11.08,11.08,0,0,1,724.47,104.46Z"/>
                <path class="cls-3" d="M752.58,108.39l16.92,0a.61.61,0,0,0,0-1.22l-16.92,0a.61.61,0,0,0,0,1.22Z"/>
                <rect class="cls-3" x="790.38" y="199.7" width="8.84" height="7.99"/>
                <rect class="cls-7" x="780.17" y="196.26" width="8.83" height="11.44" transform="translate(-0.21 0.8) rotate(-0.06)"/>
                <rect class="cls-3" x="769.95" y="188.25" width="8.84" height="19.46"/>
                <rect class="cls-7" x="759.73" y="190.96" width="8.83" height="16.76"/>
                <rect class="cls-3" x="749.52" y="199.35" width="8.84" height="8.39" transform="translate(-0.2 0.75) rotate(-0.06)"/>
                <rect class="cls-7" x="739.56" y="196.18" width="8.83" height="11.55"/>
                <rect class="cls-3" x="729.34" y="190.98" width="8.84" height="16.77" transform="translate(-0.2 0.74) rotate(-0.06)"/>
                <polygon class="cls-13" points="727.97 179.91 719.13 179.91 719.13 207.76 727.97 207.75 727.97 179.91"/>
                <rect class="cls-6" x="789.56" y="143.88" width="8.84" height="29.36"/>
                <rect class="cls-5" x="779.35" y="161.81" width="8.83" height="19.46" transform="translate(-0.17 0.8) rotate(-0.06)"/>
                <rect class="cls-6" x="769.13" y="152.46" width="8.84" height="23.47"/>
                <rect class="cls-5" x="758.92" y="156.51" width="8.83" height="22.11"/>
                <rect class="cls-6" x="748.7" y="144.86" width="8.84" height="40.44" transform="translate(-0.16 0.75) rotate(-0.06)"/>
                <rect class="cls-5" x="738.74" y="161.72" width="8.83" height="11.55"/>
                <rect class="cls-6" x="728.53" y="155.19" width="8.84" height="12.76" transform="translate(-0.16 0.74) rotate(-0.06)"/>
                <polygon class="cls-14" points="727.15 140.11 718.32 140.12 718.31 173.31 727.15 173.29 727.15 140.11"/>
                <rect class="cls-7" x="764.38" y="219.55" width="38.33" height="2.53" transform="translate(-0.24 0.85) rotate(-0.06)"/>
                <rect class="cls-7" x="764.38" y="223.99" width="38.33" height="2.53" transform="translate(-0.23 0.82) rotate(-0.06)"/>
                <rect class="cls-7" x="764.38" y="228.42" width="38.33" height="2.53" transform="translate(-0.24 0.81) rotate(-0.06)"/>
                <rect class="cls-7" x="764.38" y="232.85" width="38.33" height="2.53"/>
                <rect class="cls-7" x="764.38" y="237.29" width="38.33" height="2.53" transform="translate(-0.25 0.83) rotate(-0.06)"/>
                <polygon class="cls-13" points="802.71 241.7 764.38 241.74 764.38 244.27 802.71 244.23 802.71 241.7"/>
                <rect class="cls-7" x="764.38" y="246.15" width="38.33" height="2.54" transform="translate(-0.28 0.88) rotate(-0.06)"/>
                <rect class="cls-7" x="783.55" y="250.58" width="19.17" height="2.53" transform="translate(-0.26 0.83) rotate(-0.06)"/>
                <rect class="cls-5" x="719.18" y="219.6" width="38.33" height="2.53" transform="translate(-0.23 0.77) rotate(-0.06)"/>
                <rect class="cls-5" x="719.18" y="224.03" width="38.33" height="2.53" transform="translate(-0.24 0.77) rotate(-0.06)"/>
                <rect class="cls-5" x="719.18" y="228.47" width="38.33" height="2.53" transform="translate(-0.25 0.79) rotate(-0.06)"/>
                <rect class="cls-5" x="719.18" y="232.9" width="38.33" height="2.54" transform="translate(-0.24 0.76) rotate(-0.06)"/>
                <rect class="cls-5" x="719.19" y="237.33" width="38.33" height="2.53" transform="translate(-0.26 0.8) rotate(-0.06)"/>
                <rect class="cls-5" x="719.19" y="241.77" width="38.33" height="2.53" transform="translate(-0.25 0.75) rotate(-0.06)"/>
                <rect class="cls-5" x="719.19" y="246.2" width="38.33" height="2.53"/>
                <rect class="cls-5" x="730.54" y="250.63" width="26.98" height="2.53" transform="translate(-0.27 0.79) rotate(-0.06)"/>
                <rect class="cls-3" x="789.5" y="257.74" width="12.92" height="3.74" transform="translate(-1.17 3.62) rotate(-0.26)"/>
                <rect class="cls-3" x="789.54" y="266.27" width="12.92" height="3.74" transform="translate(-1.16 3.48) rotate(-0.25)"/>
                <rect class="cls-3" x="789.59" y="274.79" width="12.92" height="3.74" transform="translate(-1.22 3.53) rotate(-0.25)"/>
                <polygon class="cls-3" points="789.64 287.09 802.56 287.03 802.54 283.29 789.62 283.35 789.64 287.09"/>
                <polygon class="cls-3" points="780.76 262.2 720.6 262.47 720.58 258.26 780.74 258 780.76 262.2"/>
                <polygon class="cls-3" points="780.83 274.78 720.67 275.04 720.64 270.84 780.8 270.57 780.83 274.78"/>
                <rect class="cls-3" x="720.72" y="283.29" width="60.16" height="4.2" transform="translate(-1.24 3.27) rotate(-0.25)"/>
                <rect class="cls-3" x="720.69" y="277" width="60.16" height="4.2" transform="translate(-1.22 3.31) rotate(-0.25)"/>
                <rect class="cls-3" x="720.62" y="264.42" width="60.16" height="4.2" transform="matrix(1, 0, 0, 1, -1.16, 3.29)"/>
                <polygon class="cls-11" points="809.43 216.31 816.63 216.31 812.67 203.35 805.47 203.35 809.43 216.31"/>
                <path class="cls-3" d="M809.56,204.94a1.12,1.12,0,0,1,1,.77.56.56,0,0,1-.54.78,1.13,1.13,0,0,1-1-.78A.55.55,0,0,1,809.56,204.94Z"/>
                <path class="cls-9" d="M837.6,206.37c2.24.67,2.21,7.35-.05,14.91s-5.93,13.14-8.17,12.47-2.21-7.34.06-14.9S835.36,205.7,837.6,206.37Z"/>
                <path class="cls-9" d="M831.93,232.75a3.25,3.25,0,0,0-.42-4.7c-6.06-4.8-15.47-11-15.47-11l-1.56,1.74s8.29,10.15,12.73,14.09A3.31,3.31,0,0,0,831.93,232.75Z"/>
                <path class="cls-9" d="M816,217.05l-2.5-2.61a6.08,6.08,0,0,0-3.17-2.05l-.14,0a.25.25,0,0,0-.32.22c0,.09-.32,1-.39,1.25s0,1.18,0,1.37a7.9,7.9,0,0,0,.72,1.51.23.23,0,0,0,.15.12l1.37.34a4.82,4.82,0,0,1,1.85.82c.51.36.28.73.89.81l1-.11Z"/>
                <path class="cls-11" d="M834.13,190.65l7.58-2.22,4.9,12,8,4.07.34-2.44A25.9,25.9,0,0,0,850,182.9a7.23,7.23,0,0,0-8.84-2.24l-3.55,1.47a9.07,9.07,0,0,0-5.43,10.1,3,3,0,0,0,.17.6l2.27,5.94a10,10,0,0,1,.2,6.6,5.47,5.47,0,0,0,4.15,7l5.56,1.12.8-8.87-7-9.19Z"/>
                <path class="cls-11" d="M847.46,187.58a7.22,7.22,0,0,0-8.84-2.24l-3.55,1.47a9.09,9.09,0,0,0-2.78,1.81,9.08,9.08,0,0,1,5.38-6.42l3.55-1.47a7.22,7.22,0,0,1,8.84,2.24A25.91,25.91,0,0,1,855,202.1l-.35,2.44-2-1A25.88,25.88,0,0,0,847.46,187.58Z"/>
                <path class="cls-9" d="M850.4,195.25s.81,8.44,5.51,11.63l-6.59,6L843,210.46s2.93.25-1.33-12.91Z"/>
                <path class="cls-9" d="M844.17,202.51c-1.11.38-4.5,1.18-5,.13-2.15-4.38-3.76-7.09-4.87-11.25a3.38,3.38,0,0,1-.11-1.34,6.2,6.2,0,0,1,2.41-4c2.88-1,4.89.74,7.84-.12a1.3,1.3,0,0,1,.75-.06,1.13,1.13,0,0,1,.56.56c.61,1.1.64,2.45,1.06,3.64a20.06,20.06,0,0,1,1,3.74,8.92,8.92,0,0,1-1.59,7.1A4.59,4.59,0,0,1,844.17,202.51Z"/>
                <path class="cls-11" d="M833.78,189.05l3.93-1a4.68,4.68,0,0,1,5.4,2.65l2.1,4.76a19.87,19.87,0,0,0,6.86,8.3,4.54,4.54,0,0,0,1.08.66c.23-.07.93-1.78.7-2.09s-5.45-15.87-5.45-15.87-4.82-4.36-5.15-4.33-4.3,1.44-6.63,2.26a5.55,5.55,0,0,0-2.61,1.92l-1.72,2.29c-.22.36.5,1.12.81.82A1.55,1.55,0,0,1,833.78,189.05Z"/>
                <path class="cls-9" d="M849.34,242.35l-1.35-.58-.33-.14-2.09-.89-.27-.12L839,237.89l-.27-.11-1.89-.82A15.6,15.6,0,0,0,834,247.81c0,.26,0,.51.08.76.07.65.17,1.23.27,1.73a12.69,12.69,0,0,1,.12,4.17l-.87,6.31a32.16,32.16,0,0,0-.28,13.13c.2,1.09.4,2.19.52,3.29a4.5,4.5,0,0,0,9-.14s3.15-8.63,4.12-11.95l1.47-2.63C854,251.29,849.34,242.35,849.34,242.35Z"/>
                <path class="cls-9" d="M853.57,240l-1.46-.13-.36,0-2.26-.2-.29,0-6.89-.61-.29,0-2.06-.18a15.55,15.55,0,0,0,.7,11.18c.1.24.2.47.31.7.27.59.54,1.12.79,1.56a12.59,12.59,0,0,1,1.41,3.93l1.15,6.26A32.08,32.08,0,0,0,848.14,275c.53,1,1.06,1.95,1.52,3a4.5,4.5,0,0,0,8.46-2.93s.31-9.19.2-12.64l.58-3C860.76,247.07,853.57,240,853.57,240Z"/>
                <g class="cls-15">
                    <rect class="cls-5" x="818.29" y="229.65" width="47.26" height="33.27" transform="matrix(1, -0.08, 0.08, 1, -16.67, 66.53)"/>
                </g>
                <path class="cls-4" d="M836.5,208.25a5.85,5.85,0,0,1,6.49-2,23.61,23.61,0,0,0,5.35,1.1c5.37.46,7.84-2.38,11,.59,4.7,4.46-.47,14.65-3.2,19.93A29.43,29.43,0,0,0,853.57,240s-10.92,3.93-19.17,1.64L835,227S828.66,218.48,836.5,208.25Z"/>
                <ellipse class="cls-9" cx="858.91" cy="221.65" rx="4.23" ry="14.29" transform="translate(-14.69 67.78) rotate(-4.48)"/>
                <path class="cls-9" d="M862.3,233a3.23,3.23,0,0,0-3.18-3.48c-7.73-.15-19,.62-19,.62l-.18,2.33s12.74,3.05,18.67,3.49A3.3,3.3,0,0,0,862.3,233Z"/>
                <path class="cls-9" d="M842.47,275.76a3.13,3.13,0,0,0-2.71-1.77,7.92,7.92,0,0,0-4.78,1.42h0a2.57,2.57,0,0,0-.64,3.5,14.23,14.23,0,0,1,1.67,3.33,73.68,73.68,0,0,1,1.8,7.51c1.93,9.57,4,23.28,4,23.28l3-.15c1.65-11.27,1.54-19.63.8-25.63A36.62,36.62,0,0,0,842.47,275.76Z"/>
                <path class="cls-4" d="M834.42,314.92l10.36,0v-2.47l-2.21.11-6,.87c-1.64.15-2.16.75-2.17,1.46Z"/>
                <path class="cls-9" d="M857.69,275.6a3.15,3.15,0,0,0-2.81-1.61,8,8,0,0,0-4.69,1.67l0,0a2.57,2.57,0,0,0-.45,3.53,13.77,13.77,0,0,1,1.85,3.24,71.43,71.43,0,0,1,2.21,7.39c2.45,9.45,5.23,23,5.23,23l2.93-.31c1-11.35.47-19.68-.6-25.63A36.84,36.84,0,0,0,857.69,275.6Z"/>
                <path class="cls-4" d="M852,314.84l10.35,0-.37-2.45-2.79.15-6,.91a1.42,1.42,0,0,0-1.21,1.42Z"/>
                <path class="cls-9" d="M840.14,230.14l-2.86-1.73a6.14,6.14,0,0,0-3.52-1.38h-.15a.27.27,0,0,0-.27.28.27.27,0,0,0,.15.21l2,.77c.07,0,0,.27-.07.26l-1.75-.27a.37.37,0,0,0-.44.33.38.38,0,0,0,.36.43l1.24.07c.33,0,1,.27,1,.38,0,.27-2,.12-2,.12a.36.36,0,0,0-.37.35.37.37,0,0,0,.33.37l1.69.18a.13.13,0,0,1,0,.25s-1.24,0-1.25.25c0,.07.21.29.21.29a.26.26,0,0,0,.16.09l1.41.06a4.87,4.87,0,0,1,2,.42c.56.26.41.67,1,.62H840Z"/>
                <ellipse class="cls-5" cx="185.22" cy="266.34" rx="18.23" ry="7.97" transform="translate(-130.53 340.82) rotate(-68.46)"/>
                <path class="cls-5" d="M213.41,249.28c4.21-1.28,10,5.49,12.93,15.13s1.89,18.48-2.32,19.76-10-5.49-12.93-15.13S209.2,250.56,213.41,249.28Z"/>
                <path class="cls-5" d="M202.4,301.17a32,32,0,0,1-10.11-1.39,30.55,30.55,0,0,1-4.06-1.77,3.55,3.55,0,0,1-2-4l1.46-7.13a38.61,38.61,0,0,0-.18-16.37l-.63-2.76a49.44,49.44,0,0,1-1.22-10.91v-3.83a3.54,3.54,0,0,1,2.24-3.29l9.63-3.79a18.54,18.54,0,0,1,4.89-1.21,18.56,18.56,0,0,1,4.88,1.21l9.63,3.79a3.54,3.54,0,0,1,2.24,3.29v3.83a49.44,49.44,0,0,1-1.22,10.91l-.63,2.76a38.61,38.61,0,0,0-.18,16.37l1.46,7.13a3.55,3.55,0,0,1-2,4,30.55,30.55,0,0,1-4.06,1.77A32,32,0,0,1,202.4,301.17Z"/>
                <path class="cls-9" d="M202.4,251.57a12.16,12.16,0,0,1-1.71-.26,5.87,5.87,0,0,1-4.62-6.17l.24-3.21,6.09-1.79,6.08,1.79.24,3.21a5.87,5.87,0,0,1-4.61,6.17A12.62,12.62,0,0,1,202.4,251.57Z"/>
                <path class="cls-9" d="M202.4,245.44a6.7,6.7,0,0,1-3.18-1.71c-4.41-4-4.74-10.64-4.75-16.57a3.6,3.6,0,0,1,.33-1.84c.49-.83,3.58-4.23,4.53-4.41a7.89,7.89,0,0,1,3.07.4,7.87,7.87,0,0,1,3.06-.4c.95.18,4,3.58,4.53,4.41a3.6,3.6,0,0,1,.33,1.84c0,5.93-.34,12.6-4.75,16.57A6.71,6.71,0,0,1,202.4,245.44Z"/>
                <path class="cls-11" d="M200.4,226.28a70.2,70.2,0,0,1-6.46-6.39,54.78,54.78,0,0,1,8.56-1,53.77,53.77,0,0,1,8.5.53,86.77,86.77,0,0,1-7,6.74A3.13,3.13,0,0,1,200.4,226.28Z"/>
                <path class="cls-11" d="M202.4,212.91a11.74,11.74,0,0,0-1.78,0,8.87,8.87,0,0,0-7.53,4.49c-1.76,3.39-1.18,8.26,1.6,13.94,0-1.42,0-2.76-.07-3.42-.11-3,2.18-4.17,3.85-5s2.22-1.19,2.26-2.1a1.42,1.42,0,0,1,1.32-1.35,1.37,1.37,0,0,1,.35,0,1.27,1.27,0,0,1,.34,0,1.42,1.42,0,0,1,1.32,1.35c0,.91.72,1.34,2.26,2.1s4,2,3.85,5c0,.66,0,2-.07,3.42,2.78-5.68,3.36-10.55,1.6-13.94a8.87,8.87,0,0,0-7.53-4.49A11.61,11.61,0,0,0,202.4,212.91Z"/>
                <path class="cls-11" d="M202.4,238.93c-8,0-7.58-6.09-7.58-6.09-.66-2.29-.55-.6-.62,1.87,0,.51,0,1,0,1.48a14,14,0,0,0,2,6.56c2.05,3.36,4.41,4.14,6.18,4.28,1.76-.14,4.12-.92,6.17-4.28a14,14,0,0,0,2-6.56c0-.47,0-1,0-1.48-.07-2.47,0-4.16-.62-1.87C210,232.84,210.36,239,202.4,238.93Z"/>
                <path class="cls-11" d="M198.9,219.43c-1.33-.06-2.45.47-2.68,1.16-.71,1.85-1.77,5.66-2.94,7.73-.84,1.42,3.88,2.43,6.05-.65.23-.33.46-.65.7-1a6.77,6.77,0,0,0,1.74-4.65c0-.36-.05-.71-.08-1.06,0-.73-1.27-1.5-2.79-1.57Z"/>
                <path class="cls-11" d="M205.89,219.43c1.33-.06,2.45.47,2.68,1.16.71,1.85,1.77,5.66,2.94,7.73.84,1.42-3.87,2.43-6-.65-.23-.33-.46-.65-.7-1a6.77,6.77,0,0,1-1.74-4.65c0-.36,0-.71.08-1.06,0-.73,1.27-1.5,2.79-1.57Z"/>
                <path class="cls-3" d="M184.88,282.38a5.87,5.87,0,0,0-.72-9,8,8,0,0,0-10.26.8,5.87,5.87,0,0,0,.72,9A8,8,0,0,0,184.88,282.38Z"/>
                <path class="cls-9" d="M198.88,295.5,200,294s-10.76-12.95-17.35-18.3a5.55,5.55,0,1,0-6.5,8.89C182.28,288.51,198.88,295.5,198.88,295.5Z"/>
                <path class="cls-3" d="M215.66,282.23a5.87,5.87,0,0,1,1-9,8,8,0,0,1,10.23,1.07,5.88,5.88,0,0,1-1,9A8,8,0,0,1,215.66,282.23Z"/>
                <path class="cls-9" d="M201.86,295l-1.14-1.54s10.65-13,17.21-18.43a5.55,5.55,0,1,1,6.56,8.84C218.4,287.93,201.86,295,201.86,295Z"/>
                <rect class="cls-16" x="185.22" y="281.91" width="35.41" height="20.93"/>
                <path class="cls-6" d="M220.72,314.36l9,3.14A5.94,5.94,0,1,0,231.43,306l-9.24.29Z"/>
                <path class="cls-11" d="M222.79,314.74l-48.38-3.82a8.47,8.47,0,1,1,2.82-16.7l46.06,12.34C226.94,307.31,226.49,315.24,222.79,314.74Z"/>
                <rect class="cls-5" x="224.95" y="310.22" width="6.04" height="1.24" rx="0.49" transform="translate(-126.01 463.43) rotate(-77.06)"/>
                <rect class="cls-5" x="228.31" y="310.99" width="6.04" height="1.24" rx="0.49" transform="translate(-124.18 467.27) rotate(-77.06)"/>
                <path class="cls-6" d="M182.57,304.87l-9.5,0a6,6,0,1,0,1.42,11.74l9.61-2.32Z"/>
                <path class="cls-11" d="M184.1,314.32l47.19-4.14a8.47,8.47,0,1,0-2.75-16.71l-46,11.4C178.92,305.6,180.4,314.81,184.1,314.32Z"/>
                <rect class="cls-5" x="177.16" y="306.87" width="1.24" height="6.04" rx="0.49" transform="translate(-37.78 24.98) rotate(-7.27)"/>
                <rect class="cls-5" x="173.66" y="307.32" width="1.24" height="6.04" rx="0.49" transform="translate(-37.86 24.54) rotate(-7.27)"/>
                <path class="cls-3" d="M202.79,287.19a1.69,1.69,0,1,0,1.82,1.56A1.69,1.69,0,0,0,202.79,287.19Z"/>
                <path class="cls-17" d="M184.1,296.06a14.15,14.15,0,0,0-15.1-3.47c-9.41,3.17-7.21,22.17-14.57,22.17-7,0-27.51-.17-27.51-7.89,0-5.71,10.53-5.82,18.34-5.82,4.92,0,4.13-16.73,4.13-16.73"/>
                <rect class="cls-4" x="377.17" y="141.89" width="125.46" height="75.14" transform="translate(879.79 358.92) rotate(-180)"/>
                <rect class="cls-3" x="377.17" y="141.89" width="125.46" height="14.28" transform="translate(879.79 298.05) rotate(-180)"/>
                <circle class="cls-5" cx="404.54" cy="149.32" r="3.39" transform="translate(146.07 494.49) rotate(-73.43)"/>
                <circle class="cls-5" cx="396.12" cy="149.32" r="3.39" transform="translate(146.79 491.43) rotate(-74.57)"/>
                <circle class="cls-4" cx="387.65" cy="149.32" r="3.39" transform="translate(-25.72 108.12) rotate(-15.37)"/>
                <rect class="cls-4" x="425.6" y="145.93" width="58.96" height="6.78" transform="translate(910.16 298.64) rotate(-180)"/>
                <rect class="cls-5" x="435.68" y="162.78" width="57.01" height="2.26" transform="translate(928.36 327.82) rotate(-180)"/>
                <rect class="cls-5" x="474.78" y="167.45" width="17.9" height="2.26" transform="translate(967.47 337.15) rotate(-180)"/>
                <rect class="cls-5" x="435.68" y="172.11" width="30.84" height="2.26" transform="translate(902.19 346.47) rotate(-180)"/>
                <rect class="cls-5" x="458.31" y="176.77" width="34.37" height="2.26" transform="translate(951 355.8) rotate(-180)"/>
                <rect class="cls-5" x="435.68" y="181.43" width="57.01" height="2.26" transform="translate(928.36 365.13) rotate(-180)"/>
                <rect class="cls-5" x="445.68" y="186.1" width="47" height="2.26" transform="translate(938.36 374.45) rotate(-180)"/>
                <rect class="cls-5" x="435.68" y="190.76" width="29.56" height="2.26" transform="translate(900.91 383.78) rotate(-180)"/>
                <rect class="cls-5" x="435.68" y="195.42" width="23.77" height="2.26" transform="translate(895.12 393.1) rotate(-180)"/>
                <rect class="cls-5" x="435.68" y="200.09" width="57.01" height="2.26" transform="translate(928.36 402.43) rotate(-180)"/>
                <rect class="cls-5" x="462.15" y="204.75" width="30.53" height="2.26" transform="translate(954.83 411.75) rotate(-180)"/>
                <rect class="cls-5" x="451.47" y="209.41" width="41.21" height="2.26" transform="translate(944.15 421.08) rotate(-180)"/>
                <circle class="cls-3" cx="497.23" cy="164.82" r="1.78" transform="translate(22.34 385.92) rotate(-43.3)"/>
                <circle class="cls-3" cx="497.23" cy="172.59" r="1.78"/>
                <circle class="cls-3" cx="497.23" cy="180.35" r="1.78"/>
                <circle class="cls-3" cx="497.23" cy="188.12" r="1.78"/>
                <circle class="cls-3" cx="497.23" cy="195.88" r="1.78"/>
                <path class="cls-3" d="M497.29,201.87a1.78,1.78,0,1,1-1.83,1.72A1.78,1.78,0,0,1,497.29,201.87Z"/>
                <circle class="cls-3" cx="497.23" cy="211.41" r="1.78"/>
                <rect class="cls-7" x="409.58" y="162.78" width="18.73" height="2.26" transform="translate(837.88 327.82) rotate(-180)"/>
                <rect class="cls-7" x="410.59" y="181.43" width="18.73" height="2.26" transform="translate(839.91 365.13) rotate(-180)"/>
                <rect class="cls-7" x="394.35" y="190.76" width="18.73" height="2.26" transform="translate(807.42 383.78) rotate(-180)"/>
                <rect class="cls-7" x="410.59" y="209.41" width="18.73" height="2.26" transform="translate(839.91 421.08) rotate(-180)"/>
                <rect class="cls-3" x="384.26" y="160.83" width="16.89" height="18.63" transform="translate(785.41 340.29) rotate(-180)"/>
                <path class="cls-9" d="M420.72,208a5,5,0,0,0,2.9-2.39c2.47-4.1,1.17-9.34-.22-13.92a2.81,2.81,0,0,0-.68-1.34c-.57-.53-3.76-2.44-4.53-2.36-3.24.75-4.1,3.56-7.33,4.46a1.37,1.37,0,0,0-.73.39,1.22,1.22,0,0,0-.19.86c.08,1.39.83,2.69,1.13,4.06a22.94,22.94,0,0,0,1.24,4.14,10,10,0,0,0,5.59,5.8A4.89,4.89,0,0,0,420.72,208Z"/>
                <path class="cls-9" d="M455.24,203.13l1.18.89s-5.25,12.56-9.1,18.23a4.48,4.48,0,1,1-7.1-5.37C444,212.39,455.24,203.13,455.24,203.13Z"/>
                <path class="cls-9" d="M455.6,204.48l-.3-.67a2.42,2.42,0,0,1-.09-2l.4-.85a3.1,3.1,0,0,0,.07-2.16l-.32-1.11c-.11-.36.19-.57.41-.29a1.47,1.47,0,0,1,.1.13A6.61,6.61,0,0,1,457,201v0a5.76,5.76,0,0,1-.3,2.12l-.38,1Z"/>
                <path class="cls-10" d="M455.63,203.63a.29.29,0,0,1-.32-.22l0-.09a1.2,1.2,0,0,1,.15-1l.27-.37a1.49,1.49,0,0,0,.25-1.05l0-.57c0-.19.15-.26.23-.1l0,.07a3.23,3.23,0,0,1,.23,1.81,2.74,2.74,0,0,1-.35,1l-.22.36a.26.26,0,0,1-.2.13Z"/>
                <path class="cls-8" d="M439.37,223.77a6.54,6.54,0,0,1-1-8.74,5.57,5.57,0,0,1,8.18-.94,6.52,6.52,0,0,1,1,8.74A5.57,5.57,0,0,1,439.37,223.77Z"/>
                <path class="cls-9" d="M384.42,201.11l-1.44.32s-.47,13.6.67,20.37a4.48,4.48,0,1,0,8.68-1.92C390.74,214.21,384.42,201.11,384.42,201.11Z"/>
                <path class="cls-9" d="M383.53,202.19l.55-.48A2.43,2.43,0,0,0,385,200V199a3.1,3.1,0,0,1,.83-2l.76-.88c.25-.29.07-.6-.26-.43l-.13.07a6.54,6.54,0,0,0-2.51,2.68v0a5.91,5.91,0,0,0-.61,2.05l-.09,1.1Z"/>
                <path class="cls-10" d="M383.85,201.41a.29.29,0,0,0,.39-.07l.06-.07a1.22,1.22,0,0,0,.27-1l-.1-.46a1.6,1.6,0,0,1,.22-1.05l.28-.5c.1-.16,0-.3-.17-.19a.1.1,0,0,1-.06,0,3.36,3.36,0,0,0-1,1.55,3.1,3.1,0,0,0-.1,1.07l.05.41a.3.3,0,0,0,.12.21Z"/>
                <path class="cls-8" d="M390.23,226.5A6.52,6.52,0,0,0,394.8,219a5.55,5.55,0,0,0-7-4.27,6.51,6.51,0,0,0-4.57,7.52A5.56,5.56,0,0,0,390.23,226.5Z"/>
                <path class="cls-11" d="M414.31,317.6l-9.43,0v-2.24l2.83.18,5.48.76a1.29,1.29,0,0,1,1.12,1.28Z"/>
                <ellipse class="cls-8" cx="432.93" cy="218.02" rx="6.44" ry="14.73" transform="translate(92 562.59) rotate(-72.03)"/>
                <path class="cls-7" d="M423.43,242.06a4.29,4.29,0,0,1,2.49.44A7.46,7.46,0,0,1,430,248c1.08,5.73,3.17,16.86,3.94,21.13a5.52,5.52,0,0,1-.35,3.3L432.44,275a3.36,3.36,0,0,1-4,2,5.43,5.43,0,0,1-3.4-3l-2-4.05a21.75,21.75,0,0,0-6.3-7.72,9,9,0,0,1-3.37-7.86c.65-6.16,4.18-10.79,9.16-12Z"/>
                <path class="cls-7" d="M407.39,243.55a4.25,4.25,0,0,0-2.25,1.16,7.51,7.51,0,0,0-2.27,6.49c.67,5.79,2,17,2.52,21.34a5.59,5.59,0,0,0,1.31,3l1.86,2.05a3.35,3.35,0,0,0,4.37.71,5.49,5.49,0,0,0,2.37-3.86L416,270a21.91,21.91,0,0,1,3.72-9.24,9,9,0,0,0,.88-8.51c-2.45-5.69-7.19-9.06-12.32-8.77Z"/>
                <path class="cls-8" d="M408.46,208.09l-10.54,4.73a3.31,3.31,0,0,0-1.89,3.62l.92,4.82a28.2,28.2,0,0,0,4.17,10.31l1.39,2.11a12.13,12.13,0,0,1,1,11.51l-.44,1a1.84,1.84,0,0,0,.54,2.17l.07.06a24.65,24.65,0,0,0,20.82,2.82,25.92,25.92,0,0,0,3.28-1.43,2.88,2.88,0,0,0,1.63-3.2l-1.18-5.76a31.18,31.18,0,0,1,.14-13.22l.51-2.23a39.62,39.62,0,0,0,1-8.82v-3.08a2.87,2.87,0,0,0-1.81-2.67l-7.78-3.06A15.27,15.27,0,0,0,408.46,208.09Z"/>
                <ellipse class="cls-8" cx="397.99" cy="219.39" rx="14.73" ry="6.44" transform="translate(-55.22 185.84) rotate(-24.63)"/>
                <path class="cls-7" d="M406,269.27a4.11,4.11,0,0,0-.67,1.36l-2.81,9.8a31.16,31.16,0,0,0-.8,13.58l3.17,21.37,3,.2,5.35-27.82,2.58-16.26a2.26,2.26,0,0,0-1.41-2.45l-3.18-1.27A4.43,4.43,0,0,0,406,269.27Z"/>
                <path class="cls-7" d="M423.94,269.85a4.4,4.4,0,0,0-.52,1.43l-1.73,10.05a31.51,31.51,0,0,0,.67,13.59L428,315.46l2.82.23,2.31-28.24.8-16.44a2.28,2.28,0,0,0-1.67-2.29l-3.29-.91A4.45,4.45,0,0,0,423.94,269.85Z"/>
                <path class="cls-11" d="M437.34,317.58l-9.42,0v-2.24l2.87.13,5.44.78a1.31,1.31,0,0,1,1.12,1.29Z"/>
                <path class="cls-11" d="M423.19,204.21a2.84,2.84,0,0,1-3.47,3.38c-5.55-1.41-13.19,3.24-13.12-12.75,0-3.8.83-5.81,2.8-6.08s6.59,1.38,6.59,1.38,7.7.22,6.75,1C420.94,192.63,422.14,199.58,423.19,204.21Z"/>
                <path class="cls-11" d="M422.74,191.15a1.93,1.93,0,0,0,1.89-1.56,3.75,3.75,0,0,0-3.68-4.47h-3.18a13.28,13.28,0,0,0-10,4.56Z"/>
                <path class="cls-11" d="M421.28,195.36c.88-.09,1.78.83,2,2.06s-.31,2.29-1.19,2.37-1.79-.83-2-2S420.4,195.45,421.28,195.36Z"/>
                <line class="cls-18" x1="702.21" y1="38.51" x2="174.62" y2="38.51"/>
                <circle class="cls-19" cx="640.77" cy="34.08" r="32.43"/>
                <path class="cls-7" d="M562.33,98.49c0-3.29,6.07-6,13.59-6s13.62,2.62,13.64,5.9-6.08,6-13.59,6S562.34,101.78,562.33,98.49Z"/>
                <path class="cls-4" d="M567.59,121.68a3.94,3.94,0,0,1,2.3.4,6.91,6.91,0,0,1,3.79,5.11c1,5.29,2.93,15.58,3.64,19.53a5.07,5.07,0,0,1-.33,3l-1.07,2.33a3.11,3.11,0,0,1-3.67,1.82,5.09,5.09,0,0,1-3.15-2.75l-1.86-3.75a20.14,20.14,0,0,0-5.82-7.14A8.27,8.27,0,0,1,558.3,133c.61-5.69,3.86-10,8.47-11.12Z"/>
                <path class="cls-4" d="M552.76,123.06a3.85,3.85,0,0,0-2.07,1.06,6.93,6.93,0,0,0-2.1,6c.62,5.34,1.83,15.75,2.32,19.72a5.16,5.16,0,0,0,1.22,2.82l1.72,1.9a3.1,3.1,0,0,0,4,.65,5.08,5.08,0,0,0,2.19-3.56l.66-4.14a20.24,20.24,0,0,1,3.44-8.54,8.31,8.31,0,0,0,.82-7.87c-2.27-5.25-6.65-8.37-11.39-8.1Z"/>
                <path class="cls-7" d="M553.75,90.27,544,94.65A3,3,0,0,0,542.27,98l.84,4.46A26.36,26.36,0,0,0,547,112l1.28,2a11.23,11.23,0,0,1,.94,10.64l-.41,1a1.69,1.69,0,0,0,.5,2l.07.06a22.77,22.77,0,0,0,19.24,2.61,22.44,22.44,0,0,0,3-1.33,2.64,2.64,0,0,0,1.51-3L572,120.59a28.94,28.94,0,0,1,.13-12.22l.47-2.06a36.63,36.63,0,0,0,.92-8.15V95.31a2.65,2.65,0,0,0-1.68-2.46L564.69,90A14.13,14.13,0,0,0,553.75,90.27Z"/>
                <path class="cls-9" d="M557.65,82.79l-4.9,8.06,1.69,1.33A9.46,9.46,0,0,0,562.32,94a4.37,4.37,0,0,0,3.44-4.61l-.38-3.65Z"/>
                <path class="cls-10" d="M564.8,90.18A4.6,4.6,0,0,0,567.48,88c2.28-3.79,1.08-8.63-.2-12.87a2.76,2.76,0,0,0-.63-1.24c-.53-.49-3.47-2.25-4.19-2.17-3,.68-3.79,3.28-6.77,4.12a1.27,1.27,0,0,0-.68.35,1.17,1.17,0,0,0-.18.8c.08,1.28.78,2.49,1,3.76A21.27,21.27,0,0,0,557,84.54a9.27,9.27,0,0,0,5.17,5.37A4.65,4.65,0,0,0,564.8,90.18Z"/>
                <path class="cls-9" d="M565,89.42a4.6,4.6,0,0,0,2.68-2.21c2.28-3.79,1.08-8.63-.2-12.87a2.76,2.76,0,0,0-.63-1.24c-.53-.49-3.47-2.25-4.19-2.17-3,.68-3.79,3.28-6.77,4.12a1.27,1.27,0,0,0-.68.35,1.17,1.17,0,0,0-.18.8,26,26,0,0,0,1,3.76,21.27,21.27,0,0,0,1.15,3.82,9.27,9.27,0,0,0,5.17,5.37A4.65,4.65,0,0,0,565,89.42Z"/>
                <ellipse class="cls-7" cx="545.65" cy="107.63" rx="5.95" ry="13.61"/>
                <path class="cls-11" d="M556.09,85.36s-4-4.56-4.17-8.06.76-5.37,2.59-5.62S560.6,73,560.6,73s-3.33,8-3.41,9.1C557,84.54,556.09,85.36,556.09,85.36Z"/>
                <path class="cls-9" d="M556.14,78.78a2.36,2.36,0,0,0,.15,2.63c.58.79,1.45.9,2,.24A2.35,2.35,0,0,0,558.1,79C557.52,78.23,556.64,78.12,556.14,78.78Z"/>
                <path class="cls-4" d="M568.41,146.24a3.68,3.68,0,0,0-.71,1.21l-3.26,8.84a29.07,29.07,0,0,0-1.67,12.47l1.68,19.61,2.53.69,6.84-25.28L577.31,149a2.09,2.09,0,0,0-1.14-2.35l-2.84-1.39A4.1,4.1,0,0,0,568.41,146.24Z"/>
                <path class="cls-4" d="M551.1,148.65a4.12,4.12,0,0,0-.46,1.33l-1.46,9.31a29,29,0,0,0,.81,12.55l5.5,18.9,2.61.18,1.75-26.13.51-15.21a2.09,2.09,0,0,0-1.57-2.09l-3.06-.8A4.11,4.11,0,0,0,551.1,148.65Z"/>
                <path class="cls-5" d="M582.83,101.82a4.4,4.4,0,0,0,6.44-2.09,6,6,0,0,0-2.36-7.31,4.38,4.38,0,0,0-6.43,2.09A6,6,0,0,0,582.83,101.82Z"/>
                <path class="cls-9" d="M595.46,80l-1.2-.65S585.71,88.53,582.42,94a4.14,4.14,0,1,0,7.24,3.91C592,92.93,595.46,80,595.46,80Z"/>
                <path class="cls-9" d="M594.19,80.16h.68a2.27,2.27,0,0,0,1.7-.68l.56-.67a2.91,2.91,0,0,1,1.78-.89l1.06-.15c.35,0,.41-.38.08-.46l-.14,0a6,6,0,0,0-3.37.36h0a5.26,5.26,0,0,0-1.66,1.06l-.73.71Z"/>
                <path class="cls-10" d="M594.89,79.81a.27.27,0,0,0,.31.19l.09,0a1.14,1.14,0,0,0,.76-.5l.21-.38a1.39,1.39,0,0,1,.78-.6l.5-.18c.17-.06.16-.23,0-.23h-.07a2.94,2.94,0,0,0-1.61.5,2.64,2.64,0,0,0-.72.69l-.21.31a.24.24,0,0,0,0,.22Z"/>
                <path class="cls-6" d="M564.2,192.82h-8.71v-2.08l2.61.18,5.07.72a1.19,1.19,0,0,1,1,1.18Z"/>
                <path class="cls-6" d="M572.42,192.36l-8.47-2,.49-2,2.54.75,4.72,1.9a1.19,1.19,0,0,1,.72,1.4Z"/>
                <path class="cls-20" d="M566.56,121.15l2.69,1.21a.69.69,0,0,0,.89-.3l.91-1.72a.67.67,0,0,0-.13-.81l-.75-.72a.68.68,0,0,0-.8-.11l-1.21.67a.89.89,0,0,1-.58.08.85.85,0,0,0-.83.3l-.21.26Z"/>
                <ellipse class="cls-5" cx="548.44" cy="118.19" rx="5.43" ry="4.78" transform="translate(-12.52 109.32) rotate(-11.26)"/>
                <path class="cls-9" d="M567.4,121.15l.14-1.42s-11.83-4.25-18.1-5.19a4.14,4.14,0,1,0-.81,8.18C554.07,123,567.4,121.15,567.4,121.15Z"/>
                <path class="cls-4" d="M565.93,125.39c3.85,1.5,8.13,0,13.19-5.52a9.13,9.13,0,0,0,1.07-1.48,11.18,11.18,0,0,0,1-2.2,7.18,7.18,0,0,1,2.55-3.57,15.52,15.52,0,0,0,2-1.74,15,15,0,0,0,1.54-1.93l5.66-8.38a49,49,0,0,1,10.36-12.25,4.43,4.43,0,0,0,.62-.68,4,4,0,0,0,.48-.79,1.55,1.55,0,0,1,1-.82,1.11,1.11,0,0,0,.31-.15,1.21,1.21,0,0,0,.47-.53,1.06,1.06,0,0,0,.09-.25l.12-.55a1.35,1.35,0,0,1,.48-.74l.7-.51a1,1,0,0,0,.24-.25.71.71,0,0,0,.12-.18l4.35-8.32-5.49-4.5-7.31,5.89a1.06,1.06,0,0,0-.15.15,1.21,1.21,0,0,0-.2.3l-.37.78a1.31,1.31,0,0,1-.63.62l-.5.22a1,1,0,0,0-.24.14,1.32,1.32,0,0,0-.43.56,2,2,0,0,0-.08.33,1.51,1.51,0,0,1-.62,1.09,4.53,4.53,0,0,0-.68.63,4.83,4.83,0,0,0-.54.74,48.83,48.83,0,0,1-10,12.57l-7.11,7.18a15.82,15.82,0,0,0-1.58,1.89A15,15,0,0,0,575,105.4a7.1,7.1,0,0,1-3,3.2,10.92,10.92,0,0,0-2,1.43,8.86,8.86,0,0,0-1.24,1.34C564.3,117.42,563.69,121.91,565.93,125.39Z"/>
                <rect class="cls-4" x="606.91" y="62.43" width="15.66" height="6.84" transform="translate(174.05 499.47) rotate(-50.65)"/>
                <rect class="cls-6" x="608.75" y="66.88" width="3.43" height="8.38" rx="0.97" transform="translate(168.45 498.09) rotate(-50.65)"/>
                <path class="cls-6" d="M606.1,85.35a1.06,1.06,0,0,0,.09-.25l.12-.55a1.35,1.35,0,0,1,.48-.74l.7-.51a1,1,0,0,0,.24-.25l-8.48-7a1.21,1.21,0,0,0-.2.3l-.37.78a1.31,1.31,0,0,1-.63.62l-.5.22a1,1,0,0,0-.24.14Z"/>
                <path class="cls-6" d="M603.89,87.64a4,4,0,0,0,.48-.79,1.55,1.55,0,0,1,1-.82,1.11,1.11,0,0,0,.31-.15l-8.75-7.17a2,2,0,0,0-.08.33,1.51,1.51,0,0,1-.62,1.09,4.53,4.53,0,0,0-.68.63Z"/>
                <path class="cls-6" d="M580.19,118.39a11.18,11.18,0,0,0,1-2.2,7.18,7.18,0,0,1,2.55-3.57,15.52,15.52,0,0,0,2-1.74l-9.43-7.74A15,15,0,0,0,575,105.4a7.1,7.1,0,0,1-3,3.2,10.92,10.92,0,0,0-2,1.43Z"/>
                <path class="cls-7" d="M619.16,60.42a34.07,34.07,0,1,0-4.74-47.95A34.06,34.06,0,0,0,619.16,60.42Zm-.82-44.73a29,29,0,1,1,4,40.81A29,29,0,0,1,618.34,15.69Z"/>
                <path class="cls-7" d="M666,43.56l-5.54-2.89c-.81,3.95-5.3,8.47-5.3,8.47L658,55.06C663.23,52,666,43.56,666,43.56Z"/>
                <path class="cls-7" d="M656.08,56.2l-2.33-5.88c-5.74,7.82-15.26,9.89-15.26,9.89A25.47,25.47,0,0,0,656.08,56.2Z"/>
                <path class="cls-11" d="M553,72.22l1-1.76a3.51,3.51,0,0,1,3.71-1.7,3.51,3.51,0,0,0,2-.2c.84-.34,2.12-.82,3.27-1.24a3.94,3.94,0,0,1,4.49,1.32,10.66,10.66,0,0,1,1.4,2.12c.14.68.1,3.32-.51,3.32-.3,0-1.32.08-2.29.15a22.62,22.62,0,0,1-3.86,0,50.06,50.06,0,0,0-6.14-.29C555.23,74.15,553,72.22,553,72.22Z"/>
                <g class="cls-21">
                    <line class="cls-22" x1="613.42" y1="34.11" x2="687.06" y2="34.11"/>
                </g>
                <polygon class="cls-6" points="505.26 321.36 501.66 321.36 582.07 104.88 585.68 104.88 505.26 321.36"/>
                <polygon class="cls-6" points="532.55 321.36 528.95 321.36 609.36 104.88 612.96 104.88 532.55 321.36"/>
                <polygon class="cls-6" points="599.97 130.15 576.29 130.15 577.86 125.92 601.54 125.92 599.97 130.15"/>
                <polygon class="cls-6" points="591.73 152.33 568.05 152.33 569.62 148.1 593.3 148.1 591.73 152.33"/>
                <polygon class="cls-6" points="583.49 174.51 559.81 174.51 561.38 170.29 585.06 170.29 583.49 174.51"/>
                <polygon class="cls-6" points="575.25 196.69 551.57 196.69 553.14 192.47 576.82 192.47 575.25 196.69"/>
                <polygon class="cls-6" points="567.02 218.87 543.33 218.87 544.9 214.65 568.59 214.65 567.02 218.87"/>
                <polygon class="cls-6" points="558.78 241.05 535.09 241.05 536.66 236.83 560.35 236.83 558.78 241.05"/>
                <polygon class="cls-6" points="550.54 263.23 526.86 263.23 528.42 259.01 552.11 259.01 550.54 263.23"/>
                <polygon class="cls-6" points="542.3 285.41 518.62 285.41 520.19 281.19 543.87 281.19 542.3 285.41"/>
                <polygon class="cls-6" points="534.06 307.59 510.38 307.59 511.95 303.37 535.63 303.37 534.06 307.59"/>
                <polygon class="cls-7" points="585.68 106.94 582.08 106.94 662.49 323.42 666.09 323.42 585.68 106.94"/>
                <polygon class="cls-7" points="612.97 106.94 609.36 106.94 689.77 323.42 693.38 323.42 612.97 106.94"/>
                <polygon class="cls-7" points="680.39 298.15 656.7 298.15 658.27 302.37 681.96 302.37 680.39 298.15"/>
                <polygon class="cls-7" points="672.15 275.97 648.46 275.97 650.03 280.19 673.72 280.19 672.15 275.97"/>
                <polygon class="cls-7" points="663.91 253.79 640.23 253.79 641.79 258.01 665.48 258.01 663.91 253.79"/>
                <polygon class="cls-7" points="655.67 231.61 631.99 231.61 633.56 235.83 657.24 235.83 655.67 231.61"/>
                <polygon class="cls-7" points="647.43 209.43 623.75 209.43 625.32 213.65 649 213.65 647.43 209.43"/>
                <polygon class="cls-7" points="639.19 187.25 615.51 187.25 617.08 191.47 640.76 191.47 639.19 187.25"/>
                <polygon class="cls-7" points="630.95 165.07 607.27 165.07 608.84 169.29 632.52 169.29 630.95 165.07"/>
                <polygon class="cls-7" points="622.71 142.89 599.03 142.89 600.6 147.11 624.28 147.11 622.71 142.89"/>
                <polygon class="cls-7" points="614.47 120.71 590.79 120.71 592.36 124.93 616.04 124.93 614.47 120.71"/>
            </g>
        </g>
    </g>
</svg>