<svg xmlns="http://www.w3.org/2000/svg" viewBox="0 0 122.84 118.06">
    <defs>
        <style>
        @import url("/css/font.css");
        .cls-1{fill:#d2d2d2;}
        .cls-2,.cls-21{fill:#fff;}
        .cls-3{font-size:5.34px;font-family:NanumSquare;}
        .cls-19,.cls-3{fill:#444;}
        .cls-4{fill:#0e473e;}
        .cls-5{fill:#d4cec2;}
        .cls-6{fill:#d89122;}
        .cls-7{fill:#166d5b;}
        .cls-8{fill:#efe5d6;}
        .cls-9{fill:#d5cfd5;}
        .cls-10{fill:#bfbabf;}
        .cls-11{fill:#9c979c;}
        .cls-12{fill:#3f3f3f;}
        .cls-13{fill:#312f30;}
        .cls-14{fill:#a20;}
        .cls-15{fill:#006caa;}
        .cls-16{fill:#00598c;}
        .cls-17{fill:#8c1c00;}
        .cls-18{fill:#a09e9f;}
        .cls-19{fill-rule:evenodd;}
        .cls-20{fill:none;stroke:#d2d2d2;stroke-width:2.29px;}
        .cls-20,.cls-21{stroke-miterlimit:10;}
        .cls-21{stroke:#444;stroke-width:0.76px;}
        .cls-22{fill:#75a928;}
        .cls-23{fill:#bc1142;}
        .cls-24{fill:#646464;}
        .cls-25{fill:#3771a2;}
        .cls-26{fill:#ffd13f;}</style>
    </defs>
    <g id="레이어_2" data-name="레이어 2">
        <g id="Layer_1" data-name="Layer 1">
            <path class="cls-1" d="M17.59,64.31A7.66,7.66,0,0,1,9.83,72a7.82,7.82,0,0,1-7.76-7.78,7.65,7.65,0,0,1,7.76-7.64A7.82,7.82,0,0,1,17.59,64.31Z"/>
            <path class="cls-2" d="M11.18,62.9a.21.21,0,0,0-.19,0l-.32.17-1.86,0a.2.2,0,0,0-.19.19V64a1.66,1.66,0,0,1-.83-.19,1.32,1.32,0,0,0-.62-.15,1.18,1.18,0,0,0-.78.28.86.86,0,0,1-.56.2A.81.81,0,0,1,5.28,64a1.18,1.18,0,0,0-.78-.29.2.2,0,1,0,0,.39.79.79,0,0,1,.55.21,1.22,1.22,0,0,0,1.57,0,.83.83,0,0,1,.55-.2.78.78,0,0,1,.44.11,2,2,0,0,0,1,.22v.79a.2.2,0,0,0,.19.2l1.86,0,.32.17a.15.15,0,0,0,.09,0,.16.16,0,0,0,.1,0,.21.21,0,0,0,.1-.17V63.07A.21.21,0,0,0,11.18,62.9Zm-.29,2.19-.08,0-.09,0L9,65V63.44l1.71,0a.16.16,0,0,0,.09,0l.08,0Z"/>
            <path class="cls-2" d="M14.41,61.71a.18.18,0,0,0-.27,0,.2.2,0,0,0,0,.27A3.62,3.62,0,0,1,15,64.3a3.57,3.57,0,0,1-.83,2.3.19.19,0,0,0,0,.27.21.21,0,0,0,.13,0,.19.19,0,0,0,.15-.07,4,4,0,0,0,.92-2.55A4,4,0,0,0,14.41,61.71Z"/>
            <path class="cls-2" d="M13.85,62.17a.21.21,0,0,0-.28,0,.2.2,0,0,0,0,.28,2.9,2.9,0,0,1,0,3.71.19.19,0,0,0,0,.27.21.21,0,0,0,.13,0,.23.23,0,0,0,.15-.07,3.27,3.27,0,0,0,.75-2.09A3.31,3.31,0,0,0,13.85,62.17Z"/>
            <path class="cls-2" d="M13.28,62.64a.2.2,0,0,0-.28,0,.19.19,0,0,0,0,.27,2.19,2.19,0,0,1,.51,1.4A2.13,2.13,0,0,1,13,65.65a.19.19,0,0,0,.15.32.19.19,0,0,0,.15-.07,2.49,2.49,0,0,0,.58-1.61A2.56,2.56,0,0,0,13.28,62.64Z"/>
            <path class="cls-2" d="M12.14,63.56a.2.2,0,0,0-.28,0,.19.19,0,0,0,0,.27.71.71,0,0,1,0,.9.18.18,0,0,0,0,.27A.26.26,0,0,0,12,65a.19.19,0,0,0,.15-.08,1,1,0,0,0,.24-.68A1.09,1.09,0,0,0,12.14,63.56Z"/>
            <path class="cls-2" d="M12.71,63.1a.21.21,0,0,0-.28,0,.2.2,0,0,0,0,.28,1.44,1.44,0,0,1,.34.93,1.4,1.4,0,0,1-.32.9.19.19,0,0,0,0,.27.24.24,0,0,0,.13,0,.18.18,0,0,0,.15-.07,1.78,1.78,0,0,0,.41-1.15A1.82,1.82,0,0,0,12.71,63.1Z"/>
            <path class="cls-1" d="M9.9,10a7.65,7.65,0,0,1,7.64,7.76,7.82,7.82,0,0,1-7.78,7.76,7.64,7.64,0,0,1-7.63-7.76A7.8,7.8,0,0,1,9.9,10Z"/>
            <path class="cls-2" d="M9.83,23.59A3.26,3.26,0,0,1,6.6,20.35,3.16,3.16,0,0,1,8,17.75V13.66a1.84,1.84,0,0,1,1.86-1.83,1.88,1.88,0,0,1,1.86,1.87v4.06a3.2,3.2,0,0,1-1.85,5.83Zm0-11.37a1.46,1.46,0,0,0-1.47,1.45v4.18a.2.2,0,0,1-.09.17A2.78,2.78,0,0,0,7,20.35,2.87,2.87,0,0,0,9.83,23.2,2.81,2.81,0,0,0,11.38,18a.2.2,0,0,1-.09-.17V13.69A1.49,1.49,0,0,0,9.82,12.22Z"/>
            <path class="cls-2" d="M9.83,22.36a2,2,0,0,1-1.95-2A1.92,1.92,0,0,1,9,18.66V14.27a.86.86,0,0,1,.87-.86.88.88,0,0,1,.87.87v4.4a1.94,1.94,0,0,1-.87,3.68Zm0-8.56a.48.48,0,0,0-.48.47v4.52a.18.18,0,0,1-.12.18,1.55,1.55,0,0,0-1,1.43A1.58,1.58,0,0,0,9.83,22a1.55,1.55,0,0,0,.6-3,.2.2,0,0,1-.12-.18V14.28A.48.48,0,0,0,9.83,13.8Z"/>
            <path class="cls-2" d="M9.94,14.75H9.71a.2.2,0,1,1,0-.39h.23a.2.2,0,0,1,.2.2A.19.19,0,0,1,9.94,14.75Z"/>
            <path class="cls-2" d="M9.94,15.47H9.71a.2.2,0,0,1-.2-.2.19.19,0,0,1,.2-.19h.23a.2.2,0,1,1,0,.39Z"/>
            <path class="cls-2" d="M9.94,16.19H9.71a.2.2,0,0,1-.2-.2.19.19,0,0,1,.2-.19h.23a.2.2,0,1,1,0,.39Z"/>
            <path class="cls-2" d="M9.94,16.91H9.71a.19.19,0,0,1-.2-.19.19.19,0,0,1,.2-.19h.23a.2.2,0,1,1,0,.39Z"/>
            <path class="cls-2" d="M9.94,17.62H9.71a.2.2,0,1,1,0-.39h.23a.19.19,0,0,1,.2.19A.19.19,0,0,1,9.94,17.62Z"/>
            <path class="cls-2" d="M9.94,18.34H9.71a.2.2,0,1,1,0-.39h.23a.21.21,0,0,1,.2.2A.19.19,0,0,1,9.94,18.34Z"/>
            <path class="cls-2" d="M9.94,19.06H9.71a.2.2,0,1,1,0-.39h.23a.2.2,0,0,1,.2.2A.19.19,0,0,1,9.94,19.06Z"/>
            <path class="cls-2" d="M9.83,21.52A1.12,1.12,0,0,1,8.72,20.4a.18.18,0,0,1,.19-.19.2.2,0,0,1,.2.19.73.73,0,0,0,.72.73.2.2,0,0,1,.2.2A.19.19,0,0,1,9.83,21.52Z"/>
            <path class="cls-1" d="M17.59,41a7.65,7.65,0,0,1-7.76,7.64,7.82,7.82,0,0,1-7.76-7.77,7.65,7.65,0,0,1,7.76-7.64A7.81,7.81,0,0,1,17.59,41Z"/>
            <path class="cls-2" d="M10.61,45.62h0a.22.22,0,0,1-.19-.17l-1.36-8L7.6,43.22a.2.2,0,0,1-.19.14h0a.2.2,0,0,1-.19-.14l-.94-3.51L5.5,40.84a.18.18,0,0,1-.16.08H4.19a.2.2,0,1,1,0-.39h1l1-1.39a.18.18,0,0,1,.2-.08.19.19,0,0,1,.15.14l.85,3.19,1.49-5.91a.21.21,0,0,1,.2-.15.22.22,0,0,1,.19.17l1.36,8,1.47-5.77a.18.18,0,0,1,.19-.14h0a.18.18,0,0,1,.18.15l.92,4.22.73-2.2a.2.2,0,0,1,.19-.13h1.15a.19.19,0,0,1,.19.2.18.18,0,0,1-.19.19h-1l-.92,2.74a.19.19,0,0,1-.19.13.2.2,0,0,1-.18-.16l-.89-4.1L10.8,45.47A.21.21,0,0,1,10.61,45.62Z"/>
            <path class="cls-1" d="M17.59,87.57a7.65,7.65,0,0,1-7.76,7.64,7.82,7.82,0,0,1-7.76-7.78,7.67,7.67,0,0,1,7.76-7.64A7.82,7.82,0,0,1,17.59,87.57Z"/>
            <path class="cls-2" d="M15,87.38H13.43a3.71,3.71,0,0,0-3.67-3.48A3.62,3.62,0,0,0,6.09,87.3H4.67a.2.2,0,1,0,0,.39H6.09a3.72,3.72,0,0,0,3.67,3.49,3.64,3.64,0,0,0,3.67-3.42H15a.18.18,0,0,0,.19-.19A.19.19,0,0,0,15,87.38ZM9.76,84.27A3.32,3.32,0,0,1,13,87.37l-1.22,0V85.59a.2.2,0,1,0-.39,0v1.64l-3.36-2a.21.21,0,0,0-.19,0,.19.19,0,0,0-.1.17v1.88H6.49A3.24,3.24,0,0,1,9.76,84.27Zm0,6.52A3.31,3.31,0,0,1,6.49,87.7H7.77v1.85a.21.21,0,0,0,.1.17.15.15,0,0,0,.09,0,.12.12,0,0,0,.1,0l3.36-1.9v1.68a.2.2,0,0,0,.19.19.19.19,0,0,0,.2-.19V87.74H13A3.24,3.24,0,0,1,9.76,90.79Z"/>
            <path class="cls-2" d="M5.75,84.34l-.21.2.94.27-.24-.94-.21.2L5,83a.19.19,0,0,0-.28.27Z"/>
            <path class="cls-2" d="M6.57,83.59l-.21.2.94.27-.24-.94-.21.2-1-1.08a.2.2,0,0,0-.28,0,.19.19,0,0,0,0,.28Z"/>
            <text class="cls-3" transform="translate(0 105.86)">Sensors</text>
            <path class="cls-4" d="M94.23,56.41V12a.51.51,0,0,0-.51-.51H70.88a1.47,1.47,0,0,1-1.47,1.47V56.41h0a1.47,1.47,0,0,1,1.47,1.47H92.76A1.47,1.47,0,0,1,94.23,56.41ZM80.78,39.91a1.47,1.47,0,1,1,2.08,0A1.48,1.48,0,0,1,80.78,39.91Z"/>
            <path class="cls-5" d="M79.22,33.76a2,2,0,0,1,4.09,0H83a1.71,1.71,0,1,0-3.41,0Z"/>
            <path class="cls-5" d="M79.22,36.33a2,2,0,0,1,4.09,0H83a1.71,1.71,0,1,0-3.41,0Z"/>
            <rect class="cls-5" x="81.1" y="34.45" width="0.34" height="1.18"/>
            <path class="cls-6" d="M70.43,11.47a1,1,0,0,1-1,1v.44a1.47,1.47,0,0,0,1.47-1.47Z"/>
            <path class="cls-6" d="M69.41,56.86a1,1,0,0,1,1,1h.45a1.47,1.47,0,0,0-1.47-1.47Z"/>
            <path class="cls-6" d="M93.21,57.88a1,1,0,0,1,1-1v-.45a1.47,1.47,0,0,0-1.47,1.47Z"/>
            <path class="cls-6" d="M82.86,37.83a1.47,1.47,0,1,0,0,2.08A1.48,1.48,0,0,0,82.86,37.83ZM81.1,39.59a1,1,0,1,1,1.44,0A1,1,0,0,1,81.1,39.59Z"/>
            <polygon class="cls-7" points="89.49 57.88 89.49 56.36 93 52.85 93 31.71 93.25 31.71 93.25 52.96 89.75 56.47 89.75 57.88 89.49 57.88"/>
            <rect class="cls-7" x="93" y="11.47" width="0.25" height="1.35"/>
            <rect class="cls-7" x="73.15" y="46.67" width="19.97" height="0.25"/>
            <rect class="cls-7" x="74.81" y="48.01" width="18.32" height="0.25"/>
            <rect class="cls-7" x="79.29" y="49.36" width="13.83" height="0.25"/>
            <rect class="cls-7" x="76.95" y="50.7" width="16.17" height="0.25"/>
            <path class="cls-4" d="M78.89,49.48a.4.4,0,1,1,.4.4A.4.4,0,0,1,78.89,49.48Z"/>
            <path class="cls-7" d="M78.77,49.48a.52.52,0,0,1,.52-.52.52.52,0,0,1,.53.52.53.53,0,0,1-.53.53A.52.52,0,0,1,78.77,49.48Zm.8,0a.28.28,0,0,0-.28-.27.27.27,0,0,0-.27.27.28.28,0,0,0,.27.28A.29.29,0,0,0,79.57,49.48Z"/>
            <path class="cls-4" d="M76.55,50.82a.4.4,0,1,1,.8,0,.4.4,0,1,1-.8,0Z"/>
            <path class="cls-7" d="M76.43,50.82A.52.52,0,0,1,77,50.3a.52.52,0,0,1,.53.52.53.53,0,0,1-.53.53A.52.52,0,0,1,76.43,50.82Zm.8,0a.28.28,0,0,0-.28-.27.28.28,0,0,0,0,.55A.28.28,0,0,0,77.23,50.82Z"/>
            <path class="cls-4" d="M74.37,48.14a.4.4,0,1,1,.4.4A.4.4,0,0,1,74.37,48.14Z"/>
            <path class="cls-7" d="M74.25,48.14a.52.52,0,0,1,.52-.53.53.53,0,0,1,0,1.06A.52.52,0,0,1,74.25,48.14Zm.8,0a.28.28,0,0,0-.28-.27.27.27,0,0,0-.27.27.28.28,0,0,0,.27.28A.29.29,0,0,0,75.05,48.14Z"/>
            <path class="cls-4" d="M72.75,46.8a.4.4,0,1,1,.4.4A.4.4,0,0,1,72.75,46.8Z"/>
            <path class="cls-7" d="M72.63,46.8a.52.52,0,0,1,.52-.53.53.53,0,0,1,.53.53.52.52,0,0,1-.53.52A.52.52,0,0,1,72.63,46.8Zm.8,0a.29.29,0,0,0-.28-.28.28.28,0,0,0-.27.28.27.27,0,0,0,.27.27A.28.28,0,0,0,73.43,46.8Z"/>
            <polygon class="cls-7" points="74.36 30.33 74.36 24.73 74.61 24.73 74.61 30.08 86.89 30.08 86.89 43.41 90.11 46.64 89.94 46.81 86.63 43.51 86.63 30.33 74.36 30.33"/>
            <path class="cls-4" d="M74.08,24.73a.4.4,0,1,1,.4.4A.4.4,0,0,1,74.08,24.73Z"/>
            <path class="cls-7" d="M74,24.73a.52.52,0,0,1,.52-.53.53.53,0,0,1,0,1.06A.52.52,0,0,1,74,24.73Zm.8,0a.29.29,0,0,0-.28-.28.28.28,0,0,0-.27.28.27.27,0,0,0,.27.27A.28.28,0,0,0,74.76,24.73Z"/>
            <rect class="cls-7" x="84.77" y="11.81" width="0.25" height="18.4"/>
            <polygon class="cls-7" points="72.18 32.78 72.18 32.52 76.22 32.52 78.63 30.12 78.8 30.3 76.32 32.78 72.18 32.78"/>
            <path class="cls-4" d="M71.78,32.65a.4.4,0,1,1,.4.4A.4.4,0,0,1,71.78,32.65Z"/>
            <path class="cls-7" d="M71.65,32.65a.53.53,0,1,1,.53.53A.53.53,0,0,1,71.65,32.65Zm.8,0a.27.27,0,1,0-.54,0,.27.27,0,1,0,.54,0Z"/>
            <polygon class="cls-7" points="69.41 52.24 69.41 51.99 73 51.99 75.8 54.79 85.37 54.79 85.37 55.04 75.7 55.04 72.9 52.24 69.41 52.24"/>
            <path class="cls-4" d="M85,54.91a.4.4,0,1,1,.4.4A.4.4,0,0,1,85,54.91Z"/>
            <path class="cls-7" d="M84.84,54.91a.52.52,0,0,1,.53-.52.52.52,0,0,1,.52.52.52.52,0,0,1-.52.53A.53.53,0,0,1,84.84,54.91Zm.8,0a.28.28,0,0,0-.55,0,.28.28,0,1,0,.55,0Z"/>
            <polygon class="cls-8" points="78.25 20.37 78.25 14.77 75.2 14.77 75.2 15.27 74.86 15.48 74.86 19.65 75.2 19.87 75.2 20.37 78.25 20.37"/>
            <path class="cls-6" d="M76.51,15.61a.22.22,0,0,1-.21-.21.21.21,0,0,1,.21-.21.21.21,0,0,1,.21.21A.21.21,0,0,1,76.51,15.61Z"/>
            <path class="cls-6" d="M76.51,16.69a.21.21,0,1,1,0-.41.2.2,0,0,1,.21.2A.21.21,0,0,1,76.51,16.69Z"/>
            <path class="cls-6" d="M76.51,17.78a.22.22,0,0,1-.21-.21.21.21,0,0,1,.21-.21.21.21,0,0,1,.21.21A.21.21,0,0,1,76.51,17.78Z"/>
            <path class="cls-6" d="M76.51,18.86a.21.21,0,1,1,0-.41.2.2,0,0,1,.21.2A.21.21,0,0,1,76.51,18.86Z"/>
            <path class="cls-6" d="M76.51,20a.22.22,0,0,1-.21-.21.21.21,0,0,1,.21-.21.21.21,0,0,1,.21.21A.21.21,0,0,1,76.51,20Z"/>
            <rect class="cls-5" x="75.15" y="26.38" width="3.82" height="1.65" transform="translate(49.86 104.27) rotate(-90)"/>
            <rect class="cls-6" x="75.98" y="26.38" width="2.16" height="1.65" transform="translate(49.86 104.27) rotate(-90)"/>
            <rect class="cls-5" x="77.98" y="26.38" width="3.82" height="1.65" transform="translate(52.69 107.09) rotate(-90)"/>
            <rect class="cls-6" x="78.81" y="26.38" width="2.16" height="1.65" transform="translate(52.69 107.09) rotate(-90)"/>
            <rect class="cls-5" x="80.81" y="26.38" width="3.82" height="1.65" transform="translate(55.52 109.92) rotate(-90)"/>
            <rect class="cls-6" x="81.64" y="26.38" width="2.16" height="1.65" transform="translate(55.52 109.92) rotate(-90)"/>
            <path class="cls-9" d="M88.49,55.56a2,2,0,1,1,2-2.05A2.05,2.05,0,0,1,88.49,55.56Z"/>
            <path class="cls-10" d="M88.49,55.05A1.54,1.54,0,1,1,90,53.51,1.54,1.54,0,0,1,88.49,55.05Z"/>
            <path class="cls-11" d="M87.15,53.71a1.53,1.53,0,0,1,1.53-1.53,1.55,1.55,0,0,1,1,.36A1.52,1.52,0,0,0,88.49,52,1.54,1.54,0,0,0,87,53.51a1.52,1.52,0,0,0,.56,1.18A1.55,1.55,0,0,1,87.15,53.71Z"/>
            <circle class="cls-9" cx="90.55" cy="42.05" r="1.28"/>
            <circle class="cls-10" cx="90.55" cy="42.05" r="0.96"/>
            <path class="cls-11" d="M89.71,42.17a1,1,0,0,1,1-1,1,1,0,0,1,.62.22,1,1,0,0,0-1.7.62,1,1,0,0,0,.35.73A.94.94,0,0,1,89.71,42.17Z"/>
            <path class="cls-9" d="M90.9,45.83a.94.94,0,1,1,.93-.94A.93.93,0,0,1,90.9,45.83Z"/>
            <path class="cls-10" d="M90.9,45.59a.7.7,0,1,1,.7-.7A.7.7,0,0,1,90.9,45.59Z"/>
            <path class="cls-11" d="M90.29,45a.7.7,0,0,1,.7-.7.68.68,0,0,1,.45.17.69.69,0,0,0-.54-.26.7.7,0,0,0-.7.7.71.71,0,0,0,.25.54A.71.71,0,0,1,90.29,45Z"/>
            <circle class="cls-5" cx="87.02" cy="27.14" r="0.24"/>
            <circle class="cls-5" cx="86.01" cy="27.14" r="0.24"/>
            <circle class="cls-5" cx="87.02" cy="26.47" r="0.24"/>
            <circle class="cls-5" cx="86.01" cy="26.47" r="0.24"/>
            <circle class="cls-5" cx="87.02" cy="25.8" r="0.24"/>
            <circle class="cls-5" cx="86.01" cy="25.8" r="0.24"/>
            <circle class="cls-5" cx="87.02" cy="25.13" r="0.24"/>
            <circle class="cls-5" cx="86.01" cy="25.13" r="0.24"/>
            <circle class="cls-5" cx="87.02" cy="24.46" r="0.24"/>
            <circle class="cls-5" cx="86.01" cy="24.46" r="0.24"/>
            <circle class="cls-5" cx="87.02" cy="23.79" r="0.24"/>
            <circle class="cls-5" cx="86.01" cy="23.79" r="0.24"/>
            <circle class="cls-5" cx="87.02" cy="23.12" r="0.24"/>
            <circle class="cls-5" cx="86.01" cy="23.12" r="0.24"/>
            <circle class="cls-5" cx="79.53" cy="53.42" r="0.24"/>
            <circle class="cls-5" cx="79.53" cy="52.41" r="0.24"/>
            <circle class="cls-5" cx="80.2" cy="53.42" r="0.24"/>
            <circle class="cls-5" cx="80.2" cy="52.41" r="0.24"/>
            <circle class="cls-5" cx="80.87" cy="53.42" r="0.24"/>
            <circle class="cls-5" cx="80.87" cy="52.41" r="0.24"/>
            <circle class="cls-5" cx="81.54" cy="53.42" r="0.24"/>
            <circle class="cls-5" cx="81.54" cy="52.41" r="0.24"/>
            <circle class="cls-5" cx="82.21" cy="53.42" r="0.24"/>
            <circle class="cls-5" cx="82.21" cy="52.41" r="0.24"/>
            <circle class="cls-5" cx="82.88" cy="53.42" r="0.24"/>
            <circle class="cls-5" cx="82.88" cy="52.41" r="0.24"/>
            <circle class="cls-5" cx="83.55" cy="53.42" r="0.24"/>
            <circle class="cls-5" cx="83.55" cy="52.41" r="0.24"/>
            <path class="cls-5" d="M70.48,42V36.13a.68.68,0,0,1,.68-.68H73.5a.67.67,0,0,1,.68.68V42a.68.68,0,0,1-.68.69H71.16A.69.69,0,0,1,70.48,42Zm3.62-5.85a.6.6,0,0,0-.6-.6H71.16a.6.6,0,0,0-.6.6V42a.6.6,0,0,0,.6.6H73.5a.6.6,0,0,0,.6-.6Z"/>
            <path class="cls-5" d="M72.86,36.92v-.14h-.21v-.1h.21v-.45H73l.63.44v.11H73v.14Zm.09-.24h.52l-.1-.06L73,36.34Z"/>
            <path class="cls-5" d="M73.49,37.47a.3.3,0,0,0-.1-.24.41.41,0,0,0-.28-.09.44.44,0,0,0-.28.08.3.3,0,0,0-.1.25,1,1,0,0,0,0,.22h-.09a.86.86,0,0,1,0-.24.43.43,0,0,1,.13-.32.52.52,0,0,1,.35-.11.49.49,0,0,1,.25.06.35.35,0,0,1,.17.15.6.6,0,0,1,0,.24.51.51,0,0,1,0,.25l-.09,0A.54.54,0,0,0,73.49,37.47Z"/>
            <path class="cls-5" d="M73.57,38.22v.27a.54.54,0,0,1,0,.26.19.19,0,0,1-.18.08.18.18,0,0,1-.13,0,.21.21,0,0,1-.07-.14h0a.23.23,0,0,1-.41.13.33.33,0,0,1-.07-.23v-.33Zm-.4.11v.18a.31.31,0,0,0,0,.16s.06,0,.12,0a.13.13,0,0,0,.11,0,.3.3,0,0,0,0-.18v-.16Zm-.09,0h-.34v.19a.27.27,0,0,0,0,.17.17.17,0,0,0,.14.06.13.13,0,0,0,.12-.06.29.29,0,0,0,0-.17Z"/>
            <path class="cls-5" d="M73.58,39.36a.39.39,0,0,1,0,.2.21.21,0,0,1-.17.07.19.19,0,0,1-.12,0,.39.39,0,0,1-.1-.14.44.44,0,0,1-.12.16.21.21,0,0,1-.13,0,.26.26,0,0,1-.19-.08.36.36,0,0,1-.07-.22.39.39,0,0,1,.07-.23.22.22,0,0,1,.18-.08c.11,0,.19.07.25.2a.36.36,0,0,1,.11-.13.25.25,0,0,1,.12,0,.19.19,0,0,1,.16.08A.3.3,0,0,1,73.58,39.36Zm-.7-.2a.13.13,0,0,0-.12.05.21.21,0,0,0,0,.15.2.2,0,0,0,0,.14.15.15,0,0,0,.23,0,.45.45,0,0,0,.1-.17A.42.42,0,0,0,73,39.2.17.17,0,0,0,72.88,39.16Zm.62.19a.16.16,0,0,0,0-.12.12.12,0,0,0-.1,0,.17.17,0,0,0-.1,0,.3.3,0,0,0-.08.14.32.32,0,0,0,.08.13.18.18,0,0,0,.1,0,.12.12,0,0,0,.1-.05A.17.17,0,0,0,73.5,39.35Z"/>
            <path class="cls-5" d="M72.86,40.44V40.3h-.21v-.1h.21v-.45H73l.63.44v.11H73v.14ZM73,40.2h.52a.46.46,0,0,1-.1-.05L73,39.86Z"/>
            <path class="cls-5" d="M73.21,40.82a.33.33,0,0,1-.07.23.28.28,0,0,1-.2.08.27.27,0,0,1-.22-.09.33.33,0,0,1-.09-.25.54.54,0,0,1,.05-.24h.1s0,.07,0,.11a.69.69,0,0,0,0,.13.22.22,0,0,0,.06.17.18.18,0,0,0,.15.07c.13,0,.19-.08.19-.24a.5.5,0,0,0,0-.16l0-.06.43,0v.46h-.1V40.7l-.27,0A.76.76,0,0,1,73.21,40.82Z"/>
            <path class="cls-5" d="M72.65,41.39l.82.38v-.5h.1v.61h-.08l-.84-.38Z"/>
            <path class="cls-5" d="M71.31,36.92v-.14h-.22v-.1h.22v-.45h.09l.62.44v.11H71.4v.14Zm.09-.24h.51l-.1-.06-.41-.28Z"/>
            <path class="cls-5" d="M71.66,37.3a.42.42,0,0,1-.07.23.28.28,0,0,1-.2.08.3.3,0,0,1-.23-.09.39.39,0,0,1-.08-.25.48.48,0,0,1,0-.24h.1a.28.28,0,0,0,0,.11.51.51,0,0,0,0,.13.29.29,0,0,0,0,.17.21.21,0,0,0,.16.06c.12,0,.19-.08.19-.24a1.37,1.37,0,0,0,0-.16l0-.05.44,0v.46h-.1v-.37l-.28,0A.77.77,0,0,1,71.66,37.3Z"/>
            <path class="cls-5" d="M72,38.05a.3.3,0,0,1-.06.2.19.19,0,0,1-.16.08.28.28,0,0,1-.13,0,.56.56,0,0,1-.1-.14.34.34,0,0,1-.11.16.24.24,0,0,1-.14,0,.23.23,0,0,1-.18-.08.32.32,0,0,1-.07-.22.32.32,0,0,1,.07-.23.22.22,0,0,1,.18-.08.28.28,0,0,1,.25.19.25.25,0,0,1,.1-.12.2.2,0,0,1,.13,0,.22.22,0,0,1,.16.07A.32.32,0,0,1,72,38.05Zm-.7-.2a.14.14,0,0,0-.12.06.2.2,0,0,0,0,.14.21.21,0,0,0,0,.15.13.13,0,0,0,.12,0,.13.13,0,0,0,.11,0,.52.52,0,0,0,.09-.17.22.22,0,0,0-.09-.13A.16.16,0,0,0,71.33,37.85Zm.62.2a.21.21,0,0,0,0-.12.14.14,0,0,0-.1,0,.15.15,0,0,0-.1,0,.42.42,0,0,0-.09.14,1.05,1.05,0,0,0,.08.13.2.2,0,0,0,.11,0,.13.13,0,0,0,.1,0A.22.22,0,0,0,72,38.05Z"/>
            <path class="cls-5" d="M71.09,38.6l.83.39v-.51H72v.62h-.09l-.84-.38Z"/>
            <path class="cls-5" d="M71.66,39.88a.37.37,0,0,1-.07.23.25.25,0,0,1-.2.09.3.3,0,0,1-.23-.09.42.42,0,0,1-.08-.26.46.46,0,0,1,0-.23h.1a.28.28,0,0,0,0,.11.51.51,0,0,0,0,.13.29.29,0,0,0,0,.17.21.21,0,0,0,.16.06c.12,0,.19-.08.19-.24a1.37,1.37,0,0,0,0-.16l0,0,.44,0v.46h-.1v-.37l-.28,0A.78.78,0,0,1,71.66,39.88Z"/>
            <path class="cls-5" d="M71.93,40.79a.3.3,0,0,0-.1-.24.38.38,0,0,0-.27-.08.42.42,0,0,0-.29.08.32.32,0,0,0-.09.24.89.89,0,0,0,0,.22h-.09a.53.53,0,0,1,0-.23.42.42,0,0,1,.12-.32.55.55,0,0,1,.36-.11.66.66,0,0,1,.25,0,.41.41,0,0,1,.16.16.45.45,0,0,1,.06.24.66.66,0,0,1,0,.25l-.09,0A.52.52,0,0,0,71.93,40.79Z"/>
            <path class="cls-5" d="M71.49,41.16a.67.67,0,0,1,.41.11.36.36,0,0,1,.13.31.31.31,0,0,1,0,.11h-.09a.37.37,0,0,0,0-.11.27.27,0,0,0-.09-.22.4.4,0,0,0-.29-.09h0a.27.27,0,0,1,0,.41.26.26,0,0,1-.2.08.34.34,0,0,1-.23-.08.33.33,0,0,1-.08-.22.27.27,0,0,1,.11-.22A.45.45,0,0,1,71.49,41.16Zm-.32.31a.17.17,0,0,0,.06.14.27.27,0,0,0,.3,0,.18.18,0,0,0,.06-.14.2.2,0,0,0,0-.11.13.13,0,0,0-.06-.07l-.09,0-.12,0a.24.24,0,0,0-.09.08A.17.17,0,0,0,71.17,41.47Z"/>
            <rect class="cls-7" x="85.44" y="31.89" width="2.68" height="1.53"/>
            <rect class="cls-7" x="85.44" y="40.7" width="2.68" height="1.53"/>
            <rect class="cls-5" x="70.25" y="22.44" width="2.8" height="1.54"/>
            <rect class="cls-12" x="70.65" y="22.44" width="2.02" height="1.54"/>
            <rect class="cls-5" x="70.25" y="24.79" width="2.8" height="1.54"/>
            <rect class="cls-12" x="70.65" y="24.79" width="2.02" height="1.54"/>
            <rect class="cls-5" x="70.25" y="27.14" width="2.8" height="1.54"/>
            <rect class="cls-12" x="70.65" y="27.14" width="2.02" height="1.54"/>
            <rect class="cls-5" x="70.25" y="15.05" width="2.8" height="1.54"/>
            <rect class="cls-12" x="70.65" y="15.05" width="2.02" height="1.54"/>
            <rect class="cls-5" x="70.25" y="17.4" width="2.8" height="1.54"/>
            <rect class="cls-12" x="70.65" y="17.4" width="2.02" height="1.54"/>
            <rect class="cls-5" x="70.25" y="19.75" width="2.8" height="1.54"/>
            <rect class="cls-12" x="70.65" y="19.75" width="2.02" height="1.54"/>
            <rect class="cls-5" x="70.25" y="29.49" width="2.8" height="1.54"/>
            <rect class="cls-12" x="70.65" y="29.49" width="2.02" height="1.54"/>
            <rect class="cls-9" x="82.74" y="22.21" width="0.64" height="0.97" transform="translate(105.75 -60.37) rotate(90)"/>
            <rect class="cls-9" x="80.29" y="21.17" width="0.64" height="0.97" transform="translate(102.26 -58.96) rotate(90)"/>
            <rect class="cls-9" x="80.29" y="23.25" width="0.64" height="0.97" transform="translate(104.34 -56.87) rotate(90)"/>
            <rect class="cls-13" x="80.47" y="21.95" width="2.73" height="1.48" transform="translate(104.53 -59.14) rotate(90)"/>
            <rect class="cls-9" x="82.74" y="19.05" width="0.64" height="0.97" transform="translate(102.59 -63.53) rotate(90)"/>
            <rect class="cls-9" x="80.29" y="18" width="0.64" height="0.97" transform="translate(99.1 -62.12) rotate(90)"/>
            <rect class="cls-9" x="80.29" y="20.09" width="0.64" height="0.97" transform="translate(101.18 -60.04) rotate(90)"/>
            <rect class="cls-13" x="80.47" y="18.79" width="2.73" height="1.48" transform="translate(101.36 -62.3) rotate(90)"/>
            <rect class="cls-9" x="82.74" y="15.88" width="0.64" height="0.97" transform="translate(99.43 -66.69) rotate(90)"/>
            <rect class="cls-9" x="80.29" y="14.84" width="0.64" height="0.97" transform="translate(95.93 -65.29) rotate(90)"/>
            <rect class="cls-9" x="80.29" y="16.93" width="0.64" height="0.97" transform="translate(98.02 -63.2) rotate(90)"/>
            <rect class="cls-13" x="80.47" y="15.63" width="2.73" height="1.48" transform="translate(98.2 -65.47) rotate(90)"/>
            <rect class="cls-9" x="72.82" y="49.17" width="0.64" height="0.97" transform="translate(122.79 -23.48) rotate(90)"/>
            <rect class="cls-9" x="70.37" y="48.13" width="0.64" height="0.97" transform="translate(119.3 -22.07) rotate(90)"/>
            <rect class="cls-9" x="70.37" y="50.22" width="0.64" height="0.97" transform="translate(121.39 -19.99) rotate(90)"/>
            <rect class="cls-13" x="70.55" y="48.92" width="2.73" height="1.48" transform="translate(121.57 -22.26) rotate(90)"/>
            <path class="cls-7" d="M75.07,41.7v-.26h.2A.43.43,0,0,0,75.7,41V37.1a.43.43,0,0,0-.43-.43h-.2v-.25h.2a.68.68,0,0,1,.68.68V41a.69.69,0,0,1-.68.69Z"/>
            <rect class="cls-9" x="75.34" y="37.09" width="0.97" height="3.97" rx="0.33" transform="translate(151.65 78.16) rotate(180)"/>
            <rect class="cls-14" x="75.34" y="37.66" width="0.97" height="2.83" transform="translate(151.65 78.16) rotate(180)"/>
            <path class="cls-9" d="M82.73,45.27a1.53,1.53,0,1,1,1.53-1.53A1.53,1.53,0,0,1,82.73,45.27Z"/>
            <path class="cls-15" d="M82.73,44.89a1.15,1.15,0,0,1,0-2.3,1.15,1.15,0,0,1,0,2.3Z"/>
            <path class="cls-9" d="M78.7,45.27a1.53,1.53,0,1,1,1.54-1.53A1.53,1.53,0,0,1,78.7,45.27Z"/>
            <path class="cls-14" d="M78.7,44.89a1.15,1.15,0,1,1,1.15-1.15A1.15,1.15,0,0,1,78.7,44.89Z"/>
            <path class="cls-16" d="M81.79,44a1.15,1.15,0,0,1,1.15-1.15,1.23,1.23,0,0,1,.7.24A1.15,1.15,0,1,0,82,44.65,1.12,1.12,0,0,1,81.79,44Z"/>
            <path class="cls-17" d="M77.77,44a1.15,1.15,0,0,1,1.15-1.15,1.17,1.17,0,0,1,.69.24,1.14,1.14,0,0,0-.91-.45,1.16,1.16,0,0,0-1.15,1.15,1.14,1.14,0,0,0,.46.91A1.12,1.12,0,0,1,77.77,44Z"/>
            <rect class="cls-5" x="89.16" y="13.92" width="8.67" height="9.45" transform="translate(74.85 112.14) rotate(-90)"/>
            <rect class="cls-18" x="93" y="19.51" width="0.91" height="7.87" transform="translate(70.02 116.9) rotate(-90)"/>
            <rect class="cls-18" x="93" y="9.92" width="0.91" height="7.87" transform="translate(79.6 107.31) rotate(-90)"/>
            <rect class="cls-9" x="90.6" y="23.65" width="0.57" height="1.06" transform="translate(66.7 115.07) rotate(-90)"/>
            <rect class="cls-9" x="90.6" y="12.58" width="0.57" height="1.06" transform="translate(77.78 104) rotate(-90)"/>
            <polygon class="cls-18" points="90.42 19.8 90.42 17.49 94.73 16.93 94.77 17.26 90.76 17.79 90.76 19.51 94.77 20.04 94.73 20.37 90.42 19.8"/>
            <rect class="cls-5" x="89.16" y="26.72" width="8.67" height="9.45" transform="translate(62.05 124.94) rotate(-90)"/>
            <rect class="cls-18" x="93" y="32.31" width="0.91" height="7.87" transform="translate(57.22 129.7) rotate(-90)"/>
            <rect class="cls-18" x="93" y="22.72" width="0.91" height="7.87" transform="translate(66.81 120.11) rotate(-90)"/>
            <rect class="cls-9" x="90.6" y="36.45" width="0.57" height="1.06" transform="translate(53.9 127.87) rotate(-90)"/>
            <rect class="cls-9" x="90.6" y="25.38" width="0.57" height="1.06" transform="translate(64.98 116.8) rotate(-90)"/>
            <polygon class="cls-18" points="90.42 32.6 90.42 30.29 94.73 29.73 94.77 30.06 90.76 30.59 90.76 32.31 94.77 32.84 94.73 33.17 90.42 32.6"/>
            <path class="cls-19" d="M82.79,5.61a1,1,0,1,1-1,1,1,1,0,0,1,1-1Z"/>
            <path class="cls-19" d="M82.79.94a5.8,5.8,0,0,1,4.09,1.7.47.47,0,1,0,.59-.74,6.71,6.71,0,0,0-9.36,0,.47.47,0,1,0,.59.74A5.8,5.8,0,0,1,82.79.94Z"/>
            <path class="cls-19" d="M82.79,2.82A3.94,3.94,0,0,1,85.5,3.91c.55.52,1.07-.14.72-.61a4.85,4.85,0,0,0-6.86,0c-.35.47.17,1.13.72.61a3.94,3.94,0,0,1,2.71-1.09Z"/>
            <path class="cls-19" d="M82.79,4.69a2.13,2.13,0,0,1,1.44.6.47.47,0,1,0,.58-.73,2.92,2.92,0,0,0-4,0,.47.47,0,1,0,.58.73,2.13,2.13,0,0,1,1.44-.6Z"/>
            <path class="cls-20" d="M17.54,87.67H39.76a2.29,2.29,0,0,0,2.29-2.29V55.72a2.29,2.29,0,0,1,2.28-2.29H64.58"/>
            <rect class="cls-1" x="61.4" y="50.41" width="6.05" height="6.05"/>
            <path class="cls-20" d="M17.54,64.23H30.22a2.29,2.29,0,0,0,2.28-2.29V44.6a2.29,2.29,0,0,1,2.29-2.29H64.58"/>
            <rect class="cls-1" x="61.4" y="39.28" width="6.05" height="6.05"/>
            <path class="cls-20" d="M17.54,41h4.32a2.29,2.29,0,0,0,2.29-2.29V32.53a2.29,2.29,0,0,1,2.29-2.28H64.58"/>
            <rect class="cls-1" x="61.4" y="27.22" width="6.05" height="6.05"/>
            <line class="cls-20" x1="13.78" y1="17.56" x2="64.58" y2="17.56"/>
            <rect class="cls-1" x="61.4" y="14.54" width="6.05" height="6.05"/>
            <path class="cls-21" d="M118.64,117.68H54.73a3.82,3.82,0,0,1-3.81-3.82V69.12a3.82,3.82,0,0,1,3.81-3.82h26.7V49.85L92.76,65.3h25.88a3.82,3.82,0,0,1,3.82,3.82v44.74A3.82,3.82,0,0,1,118.64,117.68Z"/>
            <path d="M61.56,73.84a.39.39,0,0,0-.25.1.59.59,0,0,0-.66.06.47.47,0,0,0-.5.14.79.79,0,0,0-.71.22c-.52-.06-.67.3-.49.64a.43.43,0,0,0,0,.62h0a.53.53,0,0,0,.17.58.49.49,0,0,0,.24.52.68.68,0,0,0,.41.59,7.6,7.6,0,0,0,1,.88,2.43,2.43,0,0,0-1.39,2.44l-.1.18a2.36,2.36,0,0,0-.63,3.28,2.65,2.65,0,0,0,.21.26,7.49,7.49,0,0,0,.32,1,2.6,2.6,0,0,0,1.62,2.09,5.28,5.28,0,0,0,1.57.88,2.62,2.62,0,0,0,1.9.86h0a2.62,2.62,0,0,0,1.9-.86,5.28,5.28,0,0,0,1.57-.88,2.6,2.6,0,0,0,1.62-2.09,7.49,7.49,0,0,0,.32-1A2.35,2.35,0,0,0,69.63,81a1.71,1.71,0,0,0-.26-.21l-.16-.18a2.45,2.45,0,0,0-1.38-2.41.55.55,0,0,0,.53-.39.57.57,0,0,0,.52-.48.69.69,0,0,0,.4-.59.48.48,0,0,0,.24-.53.52.52,0,0,0,.18-.58.44.44,0,0,0,0-.62h0c.18-.33,0-.69-.49-.63a.78.78,0,0,0-.74-.26A.47.47,0,0,0,68,74a.59.59,0,0,0-.66-.06.56.56,0,0,0-.67,0,.58.58,0,0,0-.58.1.58.58,0,0,0-.64.29h-.21a2.33,2.33,0,0,0-.92,1.32,2.29,2.29,0,0,0-.92-1.35H63.2a.58.58,0,0,0-.65-.26A.56.56,0,0,0,62,74a1.23,1.23,0,0,0-.41-.13Z"/>
            <path class="cls-22" d="M60.47,75.26a10,10,0,0,1,2.77,1.88c-.23,1-1.48,1-1.93,1A.35.35,0,0,0,61.5,78a5.71,5.71,0,0,1-.8-.17.26.26,0,0,0,.22-.13,2.06,2.06,0,0,1-.72-.29.4.4,0,0,0,.28-.07,2.75,2.75,0,0,1-.69-.43.52.52,0,0,0,.3,0,2.76,2.76,0,0,1-.56-.45.48.48,0,0,0,.29,0,2.36,2.36,0,0,1-.48-.52.38.38,0,0,0,.33,0,3.12,3.12,0,0,1-.43-.53.54.54,0,0,0,.31,0,1.46,1.46,0,0,0-.28-.52,4.21,4.21,0,0,0,.71,0l-.18-.21a1.37,1.37,0,0,1,.78.08c.1-.08,0-.17-.12-.26a2.45,2.45,0,0,1,.66.16c.1-.1-.08-.18-.16-.28a1.57,1.57,0,0,1,.69.26c.12-.11,0-.2-.07-.29a1.69,1.69,0,0,1,.58.37.19.19,0,0,0,0-.28h0a1.46,1.46,0,0,1,.46.4.26.26,0,0,0,.07-.29,4.42,4.42,0,0,1,.53.53.63.63,0,0,0,.08-.23c.49.47,1.19,1.68.18,2.15a9.48,9.48,0,0,0-3-1.6Zm7.75,0a10,10,0,0,0-2.78,1.88c.24,1,1.49,1,1.94,1a.35.35,0,0,1-.18-.18,4.38,4.38,0,0,0,.8-.17.27.27,0,0,1-.21-.12,2.45,2.45,0,0,0,.73-.3.46.46,0,0,1-.3-.06,3.14,3.14,0,0,0,.7-.43.61.61,0,0,1-.3,0,2.41,2.41,0,0,0,.56-.45.37.37,0,0,1-.29,0,2.17,2.17,0,0,0,.48-.52.32.32,0,0,1-.33,0,3,3,0,0,0,.43-.52.81.81,0,0,1-.31,0,1.59,1.59,0,0,1,.28-.53,4.21,4.21,0,0,1-.71,0l.18-.18a1.39,1.39,0,0,0-.78.08c-.09-.07,0-.17.12-.26a2.47,2.47,0,0,0-.65.16c-.13-.12,0-.2.13-.3a1.62,1.62,0,0,0-.69.26c-.12-.11,0-.2.07-.29a1.65,1.65,0,0,0-.57.37.21.21,0,0,1-.05-.28h0a1.36,1.36,0,0,0-.46.4.26.26,0,0,1-.07-.29,4.42,4.42,0,0,0-.53.53.4.4,0,0,1-.08-.23c-.49.47-1.19,1.68-.18,2.15a9.44,9.44,0,0,1,3-1.6Z"/>
            <path class="cls-23" d="M66.11,85a1.76,1.76,0,0,1-3.5,0,1.76,1.76,0,0,1,3.5,0Zm-2.76-4.61a1.88,1.88,0,1,1-2.34.69A1.75,1.75,0,0,1,63.35,80.38Zm2-.09a1.87,1.87,0,0,0,2,3.09,1.71,1.71,0,0,0,.29-2.4A1.74,1.74,0,0,0,65.31,80.29Zm-5.59.88c.79-.21.27,3.24-.37,3a1.87,1.87,0,0,1,0-2.64A1.57,1.57,0,0,1,59.72,81.17Zm9-.06c-.78-.2-.26,3.25.38,3a1.85,1.85,0,0,0,0-2.63A1.7,1.7,0,0,0,68.77,81.11Zm-2.66-2.56a1.94,1.94,0,0,1,2.43,2C68.5,81.17,65.63,78.63,66.11,78.55Zm-3.74,0a1.94,1.94,0,0,0-2.43,2C60,81.11,62.87,78.59,62.37,78.51Zm1.95-.34c-.81,0-1.57.59-1.57,1s.64.88,1.57.89,1.56-.36,1.56-.81-.88-1-1.6-1Zm.05,9c.7,0,1.64.22,1.65.56s-.86,1.08-1.7,1-1.72-.71-1.71-1,1-.68,1.76-.65Zm-2.6-2c.52.61.72,1.67.31,2s-1.36.14-2-.84c-.45-.83-.39-1.66-.07-1.92.48-.29,1.23.1,1.81.77Zm5.1-.19c-.53.64-.85,1.79-.45,2.16s1.39.26,2.14-.79a2,2,0,0,0,0-2.17c-.46-.36-1.12.1-1.74.8Z"/>
            <path d="M74.5,79.51l.36.09A1.64,1.64,0,0,1,76,81a1.59,1.59,0,0,1-.53,1.49l0,0a1.43,1.43,0,0,1,.38.47,1.58,1.58,0,0,1,.15.64c0,.15,0,.29,0,.44a.12.12,0,0,0,.06.08.43.43,0,0,1-.2.81.66.66,0,0,1-.62-.42,1.91,1.91,0,0,1-.13-.62,2.55,2.55,0,0,0,0-.39.72.72,0,0,0-.44-.53,1,1,0,0,0-.49-.12h-.75v1.69A.45.45,0,0,1,73,85a.45.45,0,0,1-.44-.34V79.86a.52.52,0,0,1,.34-.35H74.5ZM73.37,81.2v.73c0,.07,0,.09.09.09h.85l.21,0a.81.81,0,0,0-.18-1.6h-.88c-.07,0-.08,0-.08.08v.72Zm17-1.69a.45.45,0,0,1,.33.31.65.65,0,0,1,0,.2v1.4a1.87,1.87,0,0,1,2.57.44,2,2,0,0,1,0,2.4,2,2,0,0,1-.73.61,1.82,1.82,0,0,1-1,.15,1.92,1.92,0,0,1-.88-.32.43.43,0,0,1-.34.33.44.44,0,0,1-.5-.38v-4.6a.48.48,0,0,1,.35-.53h.13ZM92.82,83a.87.87,0,0,0,0-.28A1.06,1.06,0,0,0,91.5,82a1.18,1.18,0,0,0-.72.66,1.13,1.13,0,0,0,.07,1,1.06,1.06,0,0,0,1.09.54A1.13,1.13,0,0,0,92.83,83Zm-7.47,3.47a1.7,1.7,0,0,1-.22-.15.42.42,0,0,1-.1-.28V81.53a.44.44,0,0,1,.85-.16v0a1.9,1.9,0,0,1,1.76-.19,1.85,1.85,0,0,1,.91.77,2,2,0,0,1-.16,2.37,1.91,1.91,0,0,1-2.5.34v1.36a.44.44,0,0,1-.31.44h-.23ZM88,83.07a1.18,1.18,0,0,0-.18-.63,1,1,0,0,0-1.4-.34.71.71,0,0,0-.14.1,1.2,1.2,0,0,0-.08,1.66,1,1,0,0,0,1,.29A1.1,1.1,0,0,0,88,83.07Zm23.38-3.56.36.09A1.65,1.65,0,0,1,112.9,81a1.67,1.67,0,0,1-1.39,1.83,1.53,1.53,0,0,1-.3,0h-1v1.72a.43.43,0,0,1-.46.41.42.42,0,0,1-.37-.24.47.47,0,0,1,0-.17V80a.45.45,0,0,1,.32-.41h1.68Zm-1.13,1.68V82s0,.07.06.07h1a.79.79,0,0,0,.7-.81.82.82,0,0,0-.82-.81h-.88c-.07,0-.08,0-.08.08Zm4.11,3.44a.22.22,0,0,1,0,.11.45.45,0,0,1-.59.21.47.47,0,0,1-.25-.33V81.53a.45.45,0,0,1,.54-.32.44.44,0,0,1,.3.28v3.14Zm0-4.5a1,1,0,0,1,0,.16.44.44,0,0,1-.47.25.44.44,0,0,1-.33-.41,1.31,1.31,0,0,1,0-.28.43.43,0,0,1,.34-.33H114a.43.43,0,0,1,.3.26.53.53,0,0,0,0,.15v.2Zm-7.25,4.75-.52.13a1.56,1.56,0,0,1-1.32-.44,1.65,1.65,0,0,1-.53-1.25V81.5a.45.45,0,0,1,.31-.41.39.39,0,0,1,.46.2.62.62,0,0,1,.06.26v1.81a.78.78,0,0,0,.55.78.79.79,0,0,0,1-.76V81.52a.42.42,0,0,1,.29-.42.45.45,0,0,1,.49.2.5.5,0,0,1,0,.21v3a1.87,1.87,0,0,1-1.89,1.85,2,2,0,0,1-.8-.19.42.42,0,0,1-.22-.53.4.4,0,0,1,.37-.25.36.36,0,0,1,.21,0A1.05,1.05,0,0,0,107,85ZM79.56,81.43a.71.71,0,0,1,.12-.18.38.38,0,0,1,.44-.13.44.44,0,0,1,.28.39v3.08a.42.42,0,0,1-.78.23s0-.07-.05-.12A1.82,1.82,0,0,1,77,84.26a1.69,1.69,0,0,1-.25-.48,2,2,0,0,1,.26-2,1.79,1.79,0,0,1,1.69-.73,1.67,1.67,0,0,1,.75.28Zm-2.09,1.72a1.59,1.59,0,0,0,.06.3,1,1,0,0,0,.74.71,1,1,0,0,0,1-.29,1.22,1.22,0,0,0,0-1.6,1,1,0,0,0-1.3-.17,1.22,1.22,0,0,0-.47,1.05Zm17.81.2a1,1,0,0,0,.51.71,1.28,1.28,0,0,0,1.2,0,.54.54,0,0,0,.16-.1.41.41,0,0,1,.57,0,.54.54,0,0,1,.1.2.31.31,0,0,1-.11.3,2,2,0,1,1-2.06-3.32,1.88,1.88,0,0,1,2.53,1.47l0,.22a.4.4,0,0,1-.11.33.37.37,0,0,1-.33.11H95.28Zm2.2-.67a1.26,1.26,0,0,0-1.23-.85,1.08,1.08,0,0,0-1,.83h2.2ZM82.8,81.09a1.8,1.8,0,0,1,.93.27l.26.16a.45.45,0,0,1,.09.6.43.43,0,0,1-.58.09A1.5,1.5,0,0,0,83,82a.77.77,0,0,0-.66.12l-.06.06a.14.14,0,0,0-.06.13.16.16,0,0,0,.09.12,1.45,1.45,0,0,0,.49.18,3.19,3.19,0,0,1,1,.32,1.07,1.07,0,0,1,.56.79,1,1,0,0,1-.31.88,1.46,1.46,0,0,1-.88.44,2.13,2.13,0,0,1-1.76-.52.45.45,0,0,1-.06-.55.42.42,0,0,1,.57-.13h0l.1.07a1.46,1.46,0,0,0,.78.32.94.94,0,0,0,.57-.13.22.22,0,0,0,.09-.07.21.21,0,0,0,0-.28.16.16,0,0,0-.09-.07,2.18,2.18,0,0,0-.69-.24,2.07,2.07,0,0,1-.85-.31,1,1,0,0,1-.46-.77,1,1,0,0,1,.34-.83,1.5,1.5,0,0,1,.88-.38Zm17,.45a1.45,1.45,0,0,1,.73-.39,2.12,2.12,0,0,1,.44,0,.39.39,0,0,1,.37.4.41.41,0,0,1-.37.41,1,1,0,0,0-.82.44,2.59,2.59,0,0,0-.33.61.8.8,0,0,0-.06.3v1.34a.44.44,0,0,1-.51.36.42.42,0,0,1-.32-.24.28.28,0,0,1,0-.13V81.51a.39.39,0,0,1,.3-.42.43.43,0,0,1,.48.19,1.06,1.06,0,0,1,.09.25Zm3,0a1.5,1.5,0,0,1,.83-.44,1.09,1.09,0,0,1,.44,0,.39.39,0,0,1,.3.41.43.43,0,0,1-.41.39,1,1,0,0,0-.78.44,2.12,2.12,0,0,0-.36.66.58.58,0,0,0,0,.19v1.36a.45.45,0,0,1-.38.47.41.41,0,0,1-.46-.35V81.46a.35.35,0,0,1,.24-.33.44.44,0,0,1,.58.23.64.64,0,0,1,0,.2Z"/>
            <path class="cls-24" d="M79.58,101.85c0-1.68-.48-2.55-1.44-2.6a2.87,2.87,0,0,0-1.12.19,1.57,1.57,0,0,0-.59.31v4a3,3,0,0,0,1.64.54C79.08,104.24,79.58,103.42,79.58,101.85Zm1.19.07a3.51,3.51,0,0,1-.61,2.13,2.23,2.23,0,0,1-1.87,1,3.3,3.3,0,0,1-1.86-.57v3.66l-1-.37V99.65a2.31,2.31,0,0,1,.65-.54,4.58,4.58,0,0,1,2.24-.55v0a2.07,2.07,0,0,1,1.86,1,4.26,4.26,0,0,1,.61,2.36Zm6.29,2.4a5.68,5.68,0,0,1-.34,2.38,2.38,2.38,0,0,1-1.32,1.06,5.05,5.05,0,0,1-1.71.34l-.17-.65a8.2,8.2,0,0,0,1.31-.25,1.7,1.7,0,0,0,1-.78,3.87,3.87,0,0,0,.23-1.62v-.27a5.31,5.31,0,0,1-2.22.48,2.06,2.06,0,0,1-1.34-.48,1.64,1.64,0,0,1-.65-1.32V98.92l1-.36v4.32a1.32,1.32,0,0,0,.45,1.07,1.79,1.79,0,0,0,1.16.36,2.92,2.92,0,0,0,1.51-.55v-5h1v5.6Zm4,.66-.34,0a2,2,0,0,1-1.37-.42,1.44,1.44,0,0,1-.48-1.15V99.37h-.71v-.65h.71V97l1-.37v2.09h1.16v.65H89.93v4a1,1,0,0,0,.31.82,1.6,1.6,0,0,0,.85.23V105Zm6.23-.08h-1v-4a1.86,1.86,0,0,0-.28-1,1,1,0,0,0-.91-.5,3.34,3.34,0,0,0-1.77.75v4.77h-1V95.39l1-.32V99.4a3.59,3.59,0,0,1,2.16-.72,1.71,1.71,0,0,1,1.33.55,1.91,1.91,0,0,1,.5,1.37v4.3Zm5.48-3.21a3.14,3.14,0,0,0-.37-1.61,1.54,1.54,0,0,0-1.35-.81c-1.13.06-1.69.87-1.69,2.43a4,4,0,0,0,.35,1.78,1.42,1.42,0,0,0,1.36.9c1.13,0,1.7-.91,1.7-2.69Zm1.13,0a3.69,3.69,0,0,1-.71,2.3A2.73,2.73,0,0,1,99,104a3.74,3.74,0,0,1-.69-2.3A3.27,3.27,0,0,1,99,99.51a2.75,2.75,0,0,1,4.16,0,3.27,3.27,0,0,1,.75,2.19Zm5.91,3.2h-1v-4.21a1.4,1.4,0,0,0-.42-1.08,1.56,1.56,0,0,0-1.11-.37,2.46,2.46,0,0,0-1.39.48v5.18h-1V99.59a5,5,0,0,1,1.63-.84,4.74,4.74,0,0,1,1.24-.19,3.86,3.86,0,0,1,.7.07,2,2,0,0,1,1,.53,1.35,1.35,0,0,1,.43,1v4.73Z"/>
            <path class="cls-25" d="M65.23,95.43a9.78,9.78,0,0,0-1.49.12c-1.31.24-1.55.72-1.55,1.62v1.18H65.3v.39H61a1.94,1.94,0,0,0-1.94,1.58,5.91,5.91,0,0,0,0,3.15c.22.91.75,1.57,1.65,1.57h1.07v-1.42a2,2,0,0,1,1.93-1.92h3.1a1.56,1.56,0,0,0,1.55-1.58v-3a1.74,1.74,0,0,0-1.55-1.62,10.91,10.91,0,0,0-1.61-.12Zm-1.68.95A.59.59,0,1,1,63,97a.58.58,0,0,1,.58-.59Z"/>
            <path class="cls-26" d="M68.78,98.74v1.38a2,2,0,0,1-1.94,2h-3.1a1.58,1.58,0,0,0-1.55,1.57v3c0,.85.74,1.34,1.55,1.58a5.19,5.19,0,0,0,3.1,0c.78-.23,1.55-.68,1.55-1.58v-1.18H65.3V105h4.64c.9,0,1.24-.63,1.55-1.57a5.3,5.3,0,0,0,0-3.16c-.22-.89-.64-1.57-1.55-1.57ZM67,106.22a.59.59,0,1,1-.58.59A.58.58,0,0,1,67,106.22Z"/>
            <path class="cls-24" d="M111.84,97.8H112V96.67h.43v-.14h-1v.14h.42V97.8m.77,0h.16v-1l.33,1h.17l.35-1v1h.17V96.53h-.22l-.38,1.09-.33-1.09h-.25V97.8"/>
        </g>
    </g>
</svg>