<svg xmlns="http://www.w3.org/2000/svg" viewBox="0 0 122.27 122.38">
    <defs>
        <style>
        @import url("/css/font.css");
        .cls-1,.cls-4,.cls-6,.cls-7,.cls-8{fill:none;}
        .cls-1,.cls-3,.cls-4,.cls-5,.cls-6,.cls-7{stroke:#444;}
        .cls-1,.cls-5,.cls-6,.cls-7,.cls-8{stroke-miterlimit:10;}
        .cls-1,.cls-7{stroke-width:0.7px;}
        .cls-1{stroke-dasharray:0.7 1.39;}
        .cls-2{fill:#444;}
        .cls-3,.cls-5{fill:#fff;}
        .cls-3,.cls-4,.cls-5,.cls-6,.cls-8{stroke-width:0.48px;}
        .cls-8{stroke:#00bce7;}</style>
    </defs>
    <g id="레이어_2" data-name="레이어 2">
        <g id="Layer_1" data-name="Layer 1">
            <line class="cls-1" x1="61.13" y1="48.86" x2="61.13" y2="57.85"/>
            <polygon class="cls-2" points="58.7 57.14 61.13 61.35 63.56 57.14 58.7 57.14"/>
            <line class="cls-1" x1="61.13" y1="84.44" x2="61.13" y2="92.69"/>
            <path class="cls-1" d="M7.65,100.61V95.9a2.63,2.63,0,0,1,2.63-2.63H112a2.63,2.63,0,0,1,2.63,2.63v4.71"/>
            <polygon class="cls-2" points="10.08 99.9 7.65 104.11 5.22 99.9 10.08 99.9"/>
            <polygon class="cls-2" points="112.19 99.9 114.62 104.11 117.05 99.9 112.19 99.9"/>
            <line class="cls-1" x1="43.27" y1="93.27" x2="43.27" y2="100.61"/>
            <polygon class="cls-2" points="40.84 99.9 43.27 104.11 45.7 99.9 40.84 99.9"/>
            <line class="cls-1" x1="78.95" y1="93.27" x2="78.95" y2="100.61"/>
            <polygon class="cls-2" points="76.52 99.9 78.95 104.11 81.38 99.9 76.52 99.9"/>
            <line class="cls-3" x1="43.8" y1="112.62" x2="49.14" y2="112.62"/>
            <path class="cls-3" d="M50.45,112.62a.61.61,0,1,1-.6-.61A.6.6,0,0,1,50.45,112.62Z"/>
            <line class="cls-3" x1="43.8" y1="114.7" x2="49.14" y2="114.7"/>
            <path class="cls-3" d="M50.45,114.7a.61.61,0,1,1-.6-.61A.61.61,0,0,1,50.45,114.7Z"/>
            <polygon class="cls-3" points="45.06 121.09 40.1 121.09 41.46 113.48 43.7 113.48 45.06 121.09"/>
            <path class="cls-3" d="M49.07,121a1.19,1.19,0,0,1-1.19,1.19H37.28A1.19,1.19,0,0,1,36.09,121h0a1.19,1.19,0,0,1,1.19-1.19h10.6A1.19,1.19,0,0,1,49.07,121Z"/>
            <circle class="cls-3" cx="37.89" cy="120.95" r="0.44"/>
            <circle class="cls-3" cx="40.24" cy="120.95" r="0.44"/>
            <circle class="cls-3" cx="42.58" cy="120.95" r="0.44"/>
            <circle class="cls-3" cx="44.93" cy="120.95" r="0.44"/>
            <circle class="cls-3" cx="47.27" cy="120.95" r="0.44"/>
            <circle class="cls-3" cx="42.44" cy="112.53" r="2.17"/>
            <path class="cls-3" d="M45.4,113.32l1-.14v-1l-1-.14a2.72,2.72,0,0,0-.38-.93l.63-.83-.69-.69-.82.64a2.88,2.88,0,0,0-.94-.39l-.13-1h-1l-.14,1a2.74,2.74,0,0,0-.93.39l-.83-.64-.69.69.63.83a2.72,2.72,0,0,0-.38.93l-1,.14v1l1,.14a2.81,2.81,0,0,0,.38.93l-.63.83.69.68.83-.63a3,3,0,0,0,.93.39l.14,1h1l.13-1a3.12,3.12,0,0,0,.94-.39l.82.63.69-.68-.63-.83A2.81,2.81,0,0,0,45.4,113.32Zm-2.82.66a1.29,1.29,0,1,1,1.29-1.29A1.28,1.28,0,0,1,42.58,114Z"/>
            <line class="cls-4" x1="45.8" y1="116.87" x2="45.8" y2="117.51"/>
            <line class="cls-4" x1="46.89" y1="116.87" x2="46.89" y2="117.51"/>
            <line class="cls-4" x1="47.97" y1="116.87" x2="47.97" y2="117.51"/>
            <line class="cls-4" x1="49.06" y1="116.87" x2="49.06" y2="117.51"/>
            <line class="cls-4" x1="50.15" y1="116.87" x2="50.15" y2="117.51"/>
            <line class="cls-4" x1="45.8" y1="118.23" x2="45.8" y2="118.87"/>
            <line class="cls-4" x1="46.89" y1="118.23" x2="46.89" y2="118.87"/>
            <line class="cls-4" x1="47.97" y1="118.23" x2="47.97" y2="118.87"/>
            <line class="cls-4" x1="49.06" y1="118.23" x2="49.06" y2="118.87"/>
            <line class="cls-4" x1="50.15" y1="118.23" x2="50.15" y2="118.87"/>
            <polygon class="cls-3" points="7.97 115.42 8.83 114.56 8.83 111.68 7.15 111.68 5.47 111.68 5.47 114.56 6.34 115.42 7.97 115.42"/>
            <path class="cls-3" d="M1.82,110.93a1.27,1.27,0,0,1,1.27-1.27h8.13a1.27,1.27,0,0,1,1.27,1.27h0a1.27,1.27,0,0,1-1.27,1.27H3.09a1.27,1.27,0,0,1-1.27-1.27Z"/>
            <path class="cls-3" d="M10.38,111a.45.45,0,0,1,.44-.45h0a.45.45,0,0,1,.45.45h0a.45.45,0,0,1-.45.45h0a.45.45,0,0,1-.44-.45Z"/>
            <path class="cls-3" d="M8.54,111a.45.45,0,0,1,.45-.45H9a.45.45,0,0,1,.45.45h0a.45.45,0,0,1-.45.45H9a.45.45,0,0,1-.45-.45Z"/>
            <path class="cls-3" d="M6.71,111a.45.45,0,0,1,.44-.45h0a.45.45,0,0,1,.45.45h0a.45.45,0,0,1-.45.45h0a.45.45,0,0,1-.44-.45Z"/>
            <path class="cls-3" d="M4.87,111a.45.45,0,0,1,.45-.45h0a.45.45,0,0,1,.44.45h0a.45.45,0,0,1-.44.45h0a.45.45,0,0,1-.45-.45Z"/>
            <path class="cls-3" d="M3,111a.45.45,0,0,1,.44-.45h0a.45.45,0,0,1,.45.45h0a.45.45,0,0,1-.45.45h0A.45.45,0,0,1,3,111Z"/>
            <line class="cls-4" x1="7.7" y1="114.15" x2="6.6" y2="114.15"/>
            <line class="cls-4" x1="7.7" y1="113.36" x2="6.6" y2="113.36"/>
            <line class="cls-4" x1="7.15" y1="119.19" x2="7.15" y2="121.32"/>
            <polygon class="cls-3" points="8.1 117.65 8.1 116.66 8.1 115.66 7.63 115.66 7.15 115.66 6.68 115.66 6.21 115.66 6.21 116.66 6.21 117.65 6.21 118.61 8.1 118.61 8.1 117.65"/>
            <polygon class="cls-3" points="6.21 118.61 6.21 118.65 6.68 119.64 7.15 119.64 7.63 119.64 8.1 118.65 8.1 118.61 6.21 118.61"/>
            <rect class="cls-3" x="5.88" y="115.22" width="2.54" height="1.23"/>
            <line class="cls-4" y1="121.32" x2="14.31" y2="121.32"/>
            <line class="cls-4" x1="8.44" y1="120.42" x2="8.79" y2="120.11"/>
            <line class="cls-4" x1="9.32" y1="119.63" x2="9.67" y2="119.32"/>
            <line class="cls-4" x1="10.2" y1="118.85" x2="10.55" y2="118.53"/>
            <line class="cls-4" x1="11.08" y1="118.06" x2="11.43" y2="117.74"/>
            <line class="cls-4" x1="5.87" y1="120.42" x2="5.52" y2="120.11"/>
            <line class="cls-4" x1="4.99" y1="119.63" x2="4.64" y2="119.32"/>
            <line class="cls-4" x1="4.11" y1="118.85" x2="3.76" y2="118.53"/>
            <line class="cls-4" x1="3.23" y1="118.06" x2="2.88" y2="117.74"/>
            <polygon class="cls-3" points="73.14 115.99 73 116.1 72.92 115.93 70.7 116.91 70.69 118.61 71.61 119.44 71.77 119.19 71.19 118.32 71.27 117.26 72.81 116.78 73.89 117.97 73.42 118.93 72.47 119.38 72.49 119.68 73.69 119.43 74.55 117.96 73.14 115.99"/>
            <path class="cls-3" d="M73.86,115.82a.77.77,0,0,1-.94.54h0a.75.75,0,0,1-.53-.94l.68-2.51a.77.77,0,0,1,.94-.54h0a.77.77,0,0,1,.54.94Z"/>
            <path class="cls-3" d="M75,113.62a1.28,1.28,0,0,1-1.74-.47h0a1.27,1.27,0,0,1,.48-1.74l3.54-2a1.29,1.29,0,0,1,1.74.48h0a1.27,1.27,0,0,1-.48,1.74Z"/>
            <path class="cls-3" d="M82.06,111.17a1.28,1.28,0,0,1,.47,1.74h0a1.29,1.29,0,0,1-1.75.47l-3.53-2a1.3,1.3,0,0,1-.46-1.75h0a1.29,1.29,0,0,1,1.75-.46Z"/>
            <path class="cls-3" d="M78.28,109.82a.55.55,0,0,1,.19.74.54.54,0,0,1-.93-.54A.55.55,0,0,1,78.28,109.82Z"/>
            <rect class="cls-3" x="78.26" y="114.23" width="6.58" height="6.48"/>
            <rect class="cls-3" x="76.58" y="119.94" width="9.95" height="2.09"/>
            <path class="cls-3" d="M82.83,116.31a1.27,1.27,0,0,1-1.28,1.27h0a1.27,1.27,0,0,1-1.27-1.27v-4.08A1.27,1.27,0,0,1,81.55,111h0a1.28,1.28,0,0,1,1.28,1.28Z"/>
            <path class="cls-3" d="M82.09,112.35a.54.54,0,1,1-.54-.53A.54.54,0,0,1,82.09,112.35Z"/>
            <path class="cls-3" d="M82.09,116.18a.54.54,0,1,1-.54-.54A.54.54,0,0,1,82.09,116.18Z"/>
            <line class="cls-4" x1="77.47" y1="120.76" x2="77.47" y2="121.16"/>
            <line class="cls-4" x1="78.29" y1="120.76" x2="78.29" y2="121.16"/>
            <line class="cls-4" x1="79.1" y1="120.76" x2="79.1" y2="121.16"/>
            <line class="cls-4" x1="79.92" y1="120.76" x2="79.92" y2="121.16"/>
            <line class="cls-4" x1="80.74" y1="120.76" x2="80.74" y2="121.16"/>
            <line class="cls-4" x1="81.55" y1="120.76" x2="81.55" y2="121.16"/>
            <line class="cls-4" x1="82.37" y1="120.76" x2="82.37" y2="121.16"/>
            <line class="cls-4" x1="83.18" y1="120.76" x2="83.18" y2="121.16"/>
            <line class="cls-4" x1="84" y1="120.76" x2="84" y2="121.16"/>
            <line class="cls-4" x1="84.82" y1="120.76" x2="84.82" y2="121.16"/>
            <line class="cls-4" x1="85.63" y1="120.76" x2="85.63" y2="121.16"/>
            <rect class="cls-3" x="112.41" y="115.15" width="3.53" height="3.44"/>
            <line class="cls-4" x1="113.48" y1="115.91" x2="113.48" y2="116.4"/>
            <line class="cls-4" x1="114.18" y1="115.91" x2="114.18" y2="116.4"/>
            <line class="cls-4" x1="114.87" y1="115.91" x2="114.87" y2="116.4"/>
            <rect class="cls-3" x="107.77" y="116.98" width="3.53" height="3.44"/>
            <line class="cls-4" x1="108.84" y1="117.74" x2="108.84" y2="118.23"/>
            <line class="cls-4" x1="109.54" y1="117.74" x2="109.54" y2="118.23"/>
            <line class="cls-4" x1="110.23" y1="117.74" x2="110.23" y2="118.23"/>
            <rect class="cls-3" x="117.05" y="116.98" width="3.53" height="3.44"/>
            <line class="cls-4" x1="118.12" y1="117.74" x2="118.12" y2="118.23"/>
            <line class="cls-4" x1="118.82" y1="117.74" x2="118.82" y2="118.23"/>
            <line class="cls-4" x1="119.51" y1="117.74" x2="119.51" y2="118.23"/>
            <line class="cls-4" x1="110.92" y1="112.9" x2="110.92" y2="115.14"/>
            <rect class="cls-3" x="110.42" y="111.17" width="0.99" height="2.25"/>
            <rect class="cls-3" x="110.13" y="113.23" width="1.59" height="0.58"/>
            <line class="cls-4" x1="114.18" y1="112.9" x2="114.18" y2="115.14"/>
            <rect class="cls-3" x="113.68" y="111.17" width="0.99" height="2.25"/>
            <rect class="cls-3" x="113.38" y="113.23" width="1.59" height="0.58"/>
            <line class="cls-4" x1="117.43" y1="112.9" x2="117.43" y2="115.14"/>
            <rect class="cls-3" x="116.94" y="111.17" width="0.99" height="2.25"/>
            <rect class="cls-3" x="116.64" y="113.23" width="1.59" height="0.58"/>
            <rect class="cls-3" x="109.04" y="110.56" width="10.27" height="1.34"/>
            <line class="cls-4" x1="105.72" y1="120.42" x2="122.27" y2="120.42"/>
            <rect class="cls-5" x="52.76" y="75.45" width="16.75" height="5.78" rx="0.72"/>
            <line class="cls-6" x1="67.75" y1="78.34" x2="65.8" y2="78.34"/>
            <line class="cls-6" x1="64.58" y1="78.34" x2="62.63" y2="78.34"/>
            <path class="cls-5" d="M55.8,66.69h0a.64.64,0,0,1,.64.64v8.12a0,0,0,0,1,0,0H55.16a0,0,0,0,1,0,0V67.33A.64.64,0,0,1,55.8,66.69Z"/>
            <path class="cls-5" d="M66.47,66.69h0a.64.64,0,0,1,.64.64v8.12a0,0,0,0,1,0,0H65.83a0,0,0,0,1,0,0V67.33A.64.64,0,0,1,66.47,66.69Z"/>
            <circle class="cls-5" cx="55.66" cy="78.34" r="1.28"/>
            <rect class="cls-7" x="36.98" y="-31.78" width="48.31" height="112.58" rx="3.56" transform="translate(36.63 85.64) rotate(-90)"/>
            <rect class="cls-5" x="8.23" y="12.39" width="31.93" height="24.24" rx="1.2"/>
            <line class="cls-5" x1="8.23" y1="15.59" x2="40.16" y2="15.59"/>
            <circle class="cls-2" cx="10.29" cy="13.91" r="0.5"/>
            <circle class="cls-2" cx="12.31" cy="13.91" r="0.5"/>
            <circle class="cls-2" cx="14.34" cy="13.91" r="0.5"/>
            <rect class="cls-5" x="10.79" y="17.24" width="20.82" height="4.38"/>
            <circle class="cls-8" cx="35.2" cy="18.9" r="1.68"/>
            <line class="cls-8" x1="36.38" y1="20.1" x2="37.76" y2="21.49"/>
            <line class="cls-6" x1="10.79" y1="25.1" x2="12.53" y2="25.1"/>
            <line class="cls-6" x1="14.56" y1="25.1" x2="37.27" y2="25.1"/>
            <line class="cls-8" x1="10.79" y1="27.63" x2="12.53" y2="27.63"/>
            <line class="cls-8" x1="14.56" y1="27.63" x2="37.27" y2="27.63"/>
            <line class="cls-6" x1="10.79" y1="30.15" x2="12.53" y2="30.15"/>
            <line class="cls-6" x1="14.56" y1="30.15" x2="37.27" y2="30.15"/>
            <line class="cls-6" x1="10.79" y1="32.68" x2="12.53" y2="32.68"/>
            <line class="cls-6" x1="14.56" y1="32.68" x2="37.27" y2="32.68"/>
            <rect class="cls-5" x="45.17" y="12.39" width="31.93" height="24.24" rx="1.2"/>
            <line class="cls-5" x1="45.17" y1="15.59" x2="77.1" y2="15.59"/>
            <circle class="cls-2" cx="47.23" cy="13.91" r="0.5"/>
            <circle class="cls-2" cx="49.25" cy="13.91" r="0.5"/>
            <circle class="cls-2" cx="51.28" cy="13.91" r="0.5"/>
            <polyline class="cls-3" points="47.86 31.83 47.47 31.48 47.48 30.38 48.91 29.74 48.96 29.85 49.06 29.78 49.97 31.06 49.41 32.01 48.95 32.11"/>
            <path class="cls-3" d="M49.52,29.67a.49.49,0,0,1-.61.35h0a.49.49,0,0,1-.34-.61L49,27.79a.49.49,0,0,1,.61-.35h0a.5.5,0,0,1,.35.61Z"/>
            <path class="cls-3" d="M50.23,28.25a.82.82,0,0,1-1.13-.31h0a.81.81,0,0,1,.31-1.12l2.29-1.31a.83.83,0,0,1,1.13.3h0a.82.82,0,0,1-.31,1.13Z"/>
            <path class="cls-3" d="M54.83,26.66a.82.82,0,0,1,.3,1.13h0a.82.82,0,0,1-1.13.3l-2.28-1.33a.82.82,0,0,1-.3-1.13h0a.83.83,0,0,1,1.13-.3Z"/>
            <path class="cls-2" d="M52.38,25.79a.35.35,0,1,1-.47.13A.33.33,0,0,1,52.38,25.79Z"/>
            <rect class="cls-3" x="52.37" y="28.64" width="4.26" height="4.19"/>
            <rect class="cls-3" x="51.28" y="32.34" width="6.44" height="1.35"/>
            <path class="cls-3" d="M55.33,30a.83.83,0,0,1-.83.82h0a.82.82,0,0,1-.82-.82V27.34a.82.82,0,0,1,.82-.82h0a.83.83,0,0,1,.83.82Z"/>
            <path class="cls-2" d="M54.85,27.43a.35.35,0,0,1-.7,0,.35.35,0,1,1,.7,0Z"/>
            <path class="cls-2" d="M54.85,29.9a.35.35,0,1,1-.7,0,.35.35,0,0,1,.7,0Z"/>
            <line class="cls-6" x1="47.89" y1="18.9" x2="49.27" y2="18.9"/>
            <line class="cls-6" x1="50.87" y1="18.9" x2="56.63" y2="18.9"/>
            <line class="cls-6" x1="47.89" y1="21.39" x2="49.27" y2="21.39"/>
            <line class="cls-6" x1="50.87" y1="21.39" x2="56.63" y2="21.39"/>
            <line class="cls-6" x1="58.68" y1="18.9" x2="60.06" y2="18.9"/>
            <line class="cls-6" x1="61.66" y1="18.9" x2="67.42" y2="18.9"/>
            <line class="cls-6" x1="58.68" y1="21.39" x2="60.06" y2="21.39"/>
            <line class="cls-6" x1="61.66" y1="21.39" x2="67.42" y2="21.39"/>
            <path class="cls-8" d="M72.44,22.3h-.58a.14.14,0,0,1-.13-.11h0l-.08-.46-.33-.14-.38.28a.12.12,0,0,1-.17,0l-.41-.41a.12.12,0,0,1,0-.17l.28-.38-.14-.33L70,20.47h0a.14.14,0,0,1-.11-.13v-.58a.15.15,0,0,1,.11-.14h0l.46-.07.14-.33-.28-.39a.13.13,0,0,1,0-.17l.41-.41a.12.12,0,0,1,.17,0l.38.27.33-.14.08-.46h0a.13.13,0,0,1,.13-.1h.58a.14.14,0,0,1,.14.1h0l.07.46.33.14.39-.28a.14.14,0,0,1,.17,0l.41.41a.14.14,0,0,1,0,.18l-.27.38.14.33.46.07h0a.14.14,0,0,1,.1.14v.58a.13.13,0,0,1-.1.13h0l-.46.08-.14.33.27.38a.12.12,0,0,1,0,.17l-.41.41a.13.13,0,0,1-.1,0h0l-.08,0L73,21.58l-.33.14-.07.46h0A.15.15,0,0,1,72.44,22.3Z"/>
            <circle class="cls-8" cx="72.15" cy="20.05" r="0.69"/>
            <line class="cls-6" x1="60.51" y1="33.93" x2="60.51" y2="31.72"/>
            <line class="cls-6" x1="62.22" y1="33.93" x2="62.22" y2="30.65"/>
            <line class="cls-6" x1="63.93" y1="33.93" x2="63.93" y2="28.2"/>
            <line class="cls-6" x1="65.64" y1="33.93" x2="65.64" y2="29.75"/>
            <circle class="cls-6" cx="71.66" cy="30.56" r="3.13"/>
            <polyline class="cls-6" points="71.66 27.43 71.66 30.56 73.61 33.02"/>
            <line class="cls-5" x1="71.66" y1="30.56" x2="69.19" y2="28.64"/>
            <rect class="cls-5" x="82.11" y="12.39" width="31.93" height="24.24" rx="1.2"/>
            <line class="cls-5" x1="82.11" y1="15.59" x2="114.04" y2="15.59"/>
            <circle class="cls-2" cx="84.17" cy="13.91" r="0.5"/>
            <circle class="cls-2" cx="86.2" cy="13.91" r="0.5"/>
            <circle class="cls-2" cx="88.22" cy="13.91" r="0.5"/>
            <polyline class="cls-3" points="102.44 28.28 102.06 27.93 102.06 26.82 103.5 26.19 103.55 26.3 103.64 26.23 104.56 27.5 104 28.46 103.53 28.55"/>
            <path class="cls-3" d="M104.11,26.12a.51.51,0,0,1-.61.35h0a.5.5,0,0,1-.35-.61l.44-1.63a.49.49,0,0,1,.61-.34h0a.49.49,0,0,1,.35.6Z"/>
            <path class="cls-3" d="M104.81,24.69a.82.82,0,0,1-1.12-.3h0a.83.83,0,0,1,.3-1.13l2.3-1.31a.81.81,0,0,1,1.12.31h0a.82.82,0,0,1-.3,1.12Z"/>
            <path class="cls-3" d="M109.42,23.11a.83.83,0,0,1,.3,1.13h0a.83.83,0,0,1-1.13.29l-2.29-1.32a.84.84,0,0,1-.3-1.13h0a.82.82,0,0,1,1.13-.3Z"/>
            <path class="cls-2" d="M107,22.23a.35.35,0,0,1,.12.48.34.34,0,0,1-.47.12.33.33,0,0,1-.13-.47A.36.36,0,0,1,107,22.23Z"/>
            <rect class="cls-3" x="106.96" y="25.08" width="4.26" height="4.19"/>
            <rect class="cls-3" x="105.87" y="28.78" width="6.44" height="1.35"/>
            <path class="cls-3" d="M109.91,26.43a.83.83,0,0,1-.82.83h0a.83.83,0,0,1-.83-.83V23.79a.83.83,0,0,1,.83-.83h0a.83.83,0,0,1,.82.83Z"/>
            <path class="cls-2" d="M109.43,23.87a.35.35,0,1,1-.69,0,.35.35,0,0,1,.69,0Z"/>
            <path class="cls-2" d="M109.43,26.35a.35.35,0,0,1-.69,0,.35.35,0,1,1,.69,0Z"/>
            <polyline class="cls-8" points="91.47 26.17 91.47 23.66 90.6 22.8 86.57 22.8 85.7 23.66 85.7 27.7 86.57 28.56 89.11 28.56"/>
            <polyline class="cls-8" points="87.47 24.63 86.5 25.68 87.47 26.72"/>
            <polyline class="cls-8" points="89.7 26.72 90.67 25.68 89.7 24.63"/>
            <line class="cls-8" x1="88.95" y1="24.63" x2="88.22" y2="26.72"/>
            <line class="cls-8" x1="91.96" y1="23.7" x2="92.77" y2="23.7"/>
            <line class="cls-8" x1="84.31" y1="23.7" x2="85.12" y2="23.7"/>
            <line class="cls-8" x1="84.31" y1="24.69" x2="85.12" y2="24.69"/>
            <line class="cls-8" x1="84.31" y1="25.68" x2="85.12" y2="25.68"/>
            <line class="cls-8" x1="84.31" y1="26.66" x2="85.12" y2="26.66"/>
            <line class="cls-8" x1="84.31" y1="27.65" x2="85.12" y2="27.65"/>
            <line class="cls-8" x1="86.57" y1="22.26" x2="86.57" y2="21.45"/>
            <line class="cls-8" x1="87.55" y1="22.26" x2="87.55" y2="21.45"/>
            <line class="cls-8" x1="88.54" y1="22.26" x2="88.54" y2="21.45"/>
            <line class="cls-8" x1="89.53" y1="22.26" x2="89.53" y2="21.45"/>
            <line class="cls-8" x1="90.51" y1="22.26" x2="90.51" y2="21.45"/>
            <line class="cls-8" x1="86.57" y1="29.91" x2="86.57" y2="29.1"/>
            <line class="cls-8" x1="87.55" y1="29.91" x2="87.55" y2="29.1"/>
            <polygon class="cls-8" points="92.83 24.79 94.19 26.15 90.22 30.12 88.86 30.12 88.86 28.76 92.83 24.79"/>
            <line class="cls-8" x1="93.54" y1="26.79" x2="92.18" y2="25.43"/>
            <polygon class="cls-3" points="100.14 25.72 97.43 23.01 97.43 24.09 96.11 24.09 96.11 27.34 97.43 27.34 97.43 28.42 100.14 25.72"/>
        </g>
    </g>
</svg>