<svg xmlns="http://www.w3.org/2000/svg" viewBox="0 0 716.77 142.5" width="716.77" height="142.5">
    <defs>
        <style>.cls-1{fill:#fff;}.cls-2{fill:#0099c8;}</style>
    </defs>
    <g id="레이어_2" data-name="레이어 2">
        <g id="Layer_1" data-name="Layer 1">
            <g id="img_logo_struct">
                <polygon class="cls-1" points="205.77 92.63 179.46 92.63 179.46 92.57 179.46 50.78 163.67 50.78 163.67 92.63 137.35 92.63 137.35 92.57 137.35 50.78 125.67 50.78 125.67 108.48 216.3 108.48 216.3 50.78 205.77 50.78 205.77 92.63"/>
                <polygon class="cls-1" points="142.62 87.37 158.41 87.37 158.41 45.4 184.72 45.4 184.72 87.37 200.51 87.37 200.51 45.4 216.3 45.4 216.3 29.73 125.67 29.73 125.67 45.52 142.62 45.52 142.62 87.37"/>
                <polygon class="cls-1" points="320.65 52.38 311.32 85.89 301.34 52.38 300.01 52.38 296.29 52.38 294.13 52.38 284.15 85.89 274.82 52.38 263.36 52.38 277 101.34 279.54 101.34 288.45 101.34 297.73 70.18 307.01 101.34 315.92 101.34 315.92 101.34 318.47 101.34 332.1 52.38 320.65 52.38"/>
                <path class="cls-1" d="M351.82,52.38H338.46l-3.19,11.45h16.55a5.23,5.23,0,0,1,5,4h-10a16.76,16.76,0,0,0,0,33.52h21.64V85.17h0v-16A16.74,16.74,0,0,0,351.82,52.38ZM357,89.89H346.82a5.31,5.31,0,0,1,0-10.62H357Z"/>
                <path class="cls-1" d="M444.62,101.34H428c-12.3,0-22.3-11-22.3-24.44s10-24.45,22.3-24.45,22.31,11,22.31,24.45h0a5.73,5.73,0,0,1-5.73,5.72H418.3c1.77,4.3,5.47,7.27,9.74,7.27h16.58ZM418.3,71.17h19.48c-1.77-4.3-5.47-7.26-9.74-7.26S420.07,66.87,418.3,71.17Z"/>
                <path class="cls-1" d="M401.29,63.83h-.05a16.36,16.36,0,0,1,.86-1.76,31.18,31.18,0,0,1,7.47-9.69H391.83a17,17,0,0,0-17,17v32h11.45v-32a5.53,5.53,0,0,1,5.52-5.51Z"/>
                <path class="cls-1" d="M270.62,101.34l-3.19-11.45H254a10.49,10.49,0,0,1-10.47-10.48h0V63.91h16.65l-.83-3h0L257,52.38H243.54V37.24l-11.45,2.57v39.6A22,22,0,0,0,254,101.34Z"/>
                <polygon class="cls-1" points="467.49 37.03 461.76 37.03 461.76 101.34 467.49 101.34 467.49 101.34 493.92 101.34 493.92 95.61 467.49 95.61 467.49 37.03"/>
                <path class="cls-1" d="M517.42,37l-19,64.31h6L510,82.14H531l5.69,19.2h6L523.57,37Zm-5.69,39.38,8.77-29.6,8.77,29.6Z"/>
                <path class="cls-1" d="M580.66,65.35A15.85,15.85,0,0,0,586.6,53a16.07,16.07,0,0,0-16.15-16h-23.6v64.31H571.8a19,19,0,0,0,8.86-36ZM552.58,42.76h17.87a10.23,10.23,0,1,1,0,20.46H552.58ZM571.8,95.61H552.58V69H571.8a13.33,13.33,0,1,1,0,26.66Z"/>
                <polygon class="cls-2" points="0 29.75 358.38 29.5 716.77 29.75 358.38 30 0 29.75"/>
                <polygon class="cls-2" points="205.6 36.87 461.19 36.62 716.77 36.87 461.19 37.12 205.6 36.87"/>
                <polygon class="cls-2" points="205.47 101.34 461.05 101.09 716.63 101.34 461.05 101.59 205.47 101.34"/>
                <polygon class="cls-2" points="0 108.48 358.38 108.23 716.77 108.48 358.38 108.73 0 108.48"/>
                <polygon class="cls-2" points="125.67 0 125.79 17.81 125.84 35.63 125.92 71.25 125.84 106.88 125.79 124.69 125.67 142.5 125.55 124.69 125.5 106.88 125.42 71.25 125.51 35.63 125.55 17.81 125.67 0"/>
                <polygon class="cls-2" points="216.3 0 216.42 17.81 216.46 35.63 216.55 71.25 216.46 106.88 216.42 124.69 216.3 142.5 216.18 124.69 216.13 106.88 216.05 71.25 216.13 35.63 216.18 17.81 216.3 0"/>
                <polygon class="cls-2" points="232.09 0 232.21 17.81 232.25 35.63 232.34 71.25 232.25 106.88 232.21 124.69 232.09 142.5 231.96 124.69 231.92 106.88 231.84 71.25 231.92 35.63 231.97 17.81 232.09 0"/>
                <polygon class="cls-2" points="461.75 0 461.87 17.81 461.91 35.63 462 71.25 461.91 106.88 461.87 124.69 461.75 142.5 461.62 124.69 461.58 106.88 461.5 71.25 461.58 35.63 461.62 17.81 461.75 0"/>
                <polygon class="cls-2" points="450.35 0 450.47 17.81 450.51 35.63 450.6 71.25 450.51 106.88 450.47 124.69 450.35 142.5 450.23 124.69 450.18 106.88 450.1 71.25 450.18 35.63 450.23 17.81 450.35 0"/>
                <polygon class="cls-2" points="368.5 0 368.62 17.81 368.67 35.63 368.75 71.25 368.67 106.88 368.62 124.69 368.5 142.5 368.38 124.69 368.33 106.88 368.25 71.25 368.33 35.63 368.38 17.81 368.5 0"/>
                <polygon class="cls-2" points="374.83 0 374.95 17.81 374.99 35.63 375.08 71.25 374.99 106.88 374.95 124.69 374.83 142.5 374.7 124.69 374.66 106.88 374.58 71.25 374.66 35.63 374.7 17.81 374.83 0"/>
                <polygon class="cls-2" points="493.93 0 494.05 17.81 494.1 35.63 494.18 71.25 494.1 106.88 494.05 124.69 493.93 142.5 493.81 124.69 493.76 106.88 493.68 71.25 493.77 35.63 493.81 17.81 493.93 0"/>
                <polygon class="cls-2" points="498.29 0 498.41 17.81 498.46 35.63 498.54 71.25 498.46 106.88 498.41 124.69 498.29 142.5 498.17 124.69 498.13 106.88 498.04 71.25 498.13 35.63 498.17 17.81 498.29 0"/>
                <polygon class="cls-2" points="542.61 0 542.73 17.81 542.78 35.63 542.86 71.25 542.78 106.88 542.73 124.69 542.61 142.5 542.49 124.69 542.45 106.88 542.36 71.25 542.45 35.63 542.49 17.81 542.61 0"/>
                <polygon class="cls-2" points="546.85 0 546.98 17.81 547.02 35.63 547.1 71.25 547.02 106.88 546.98 124.69 546.85 142.5 546.73 124.69 546.69 106.88 546.6 71.25 546.69 35.63 546.73 17.81 546.85 0"/>
                <polygon class="cls-2" points="591.1 0 591.22 17.81 591.26 35.63 591.35 71.25 591.26 106.88 591.22 124.69 591.1 142.5 590.98 124.69 590.93 106.88 590.85 71.25 590.93 35.63 590.98 17.81 591.1 0"/>
                <polygon class="cls-2" points="246.72 15.56 250.91 30.14 255.02 44.74 263.24 73.93 271.3 103.17 275.33 117.8 279.28 132.44 275.09 117.86 270.98 103.26 262.76 74.07 254.7 44.83 250.67 30.21 246.72 15.56"/>
                <polygon class="cls-2" points="253.11 15.56 257.3 30.14 261.41 44.74 269.63 73.93 277.69 103.17 281.72 117.8 285.67 132.44 281.49 117.86 277.37 103.26 269.15 74.07 261.09 44.83 257.07 30.21 253.11 15.56"/>
                <polygon class="cls-2" points="342.43 15.56 338.47 30.21 334.44 44.83 326.38 74.07 318.17 103.26 314.05 117.86 309.86 132.44 313.82 117.8 317.84 103.17 325.9 73.93 334.13 44.74 338.24 30.14 342.43 15.56"/>
                <polygon class="cls-2" points="348.72 15.56 344.77 30.21 340.74 44.83 332.68 74.07 324.46 103.26 320.35 117.86 316.16 132.44 320.11 117.8 324.14 103.17 332.2 73.93 340.42 44.74 344.53 30.14 348.72 15.56"/>
                <path class="cls-2" d="M437.79,47.11a27.08,27.08,0,0,0-9.49-1.71,29,29,0,0,0-9.47,1.66,27.76,27.76,0,0,0-8.31,4.82,29.68,29.68,0,0,0-6.37,7.18,35.94,35.94,0,0,0-4.65,27.81,34.6,34.6,0,0,0,3.5,9,35.77,35.77,0,0,1,.73-37.09,30.43,30.43,0,0,1,6.53-7.24,28.32,28.32,0,0,1,8.45-4.8,29,29,0,0,1,9.59-1.59A27.08,27.08,0,0,1,437.79,47.11Z"/>
                <path class="cls-2" d="M274.92,79.76a21.58,21.58,0,0,1-3.51,12,23.64,23.64,0,0,1-4.23,4.7,23.92,23.92,0,0,1-5.42,3.27,23.68,23.68,0,0,1-6.14,1.56,24,24,0,0,1-6.34-.29,23.17,23.17,0,0,1-6-2.12,23.91,23.91,0,0,1-5.12-3.77A24.19,24.19,0,0,1,234.41,90,21.74,21.74,0,0,1,232,77.65a21.41,21.41,0,0,1,4.83-11.56,21.17,21.17,0,0,1,10.43-6.88,23.88,23.88,0,0,1,6.23-.86,23.67,23.67,0,0,0-6.2,1,23.08,23.08,0,0,0-5.63,2.73,24,24,0,0,0-4.61,4.21,23.44,23.44,0,0,0-3.19,5.36,23,23,0,0,0-1.49,6.05,23.58,23.58,0,0,0,.32,6.22,21.24,21.24,0,0,0,5.84,10.83,23.61,23.61,0,0,0,5,3.72,22.8,22.8,0,0,0,5.84,2.11,23.58,23.58,0,0,0,6.22.33A21.3,21.3,0,0,0,267,96.2a23.35,23.35,0,0,0,4.21-4.61A22.56,22.56,0,0,0,273.93,86,23.62,23.62,0,0,0,274.92,79.76Z"/>
                <path class="cls-2" d="M572.19,63.36a21.41,21.41,0,0,1,5.51.76,20.55,20.55,0,0,1,5.06,2.33,19,19,0,0,1,7,8.52,19.16,19.16,0,0,1,1.13,11,20.7,20.7,0,0,1-1.87,5.29,21.77,21.77,0,0,1-3.33,4.53,21.42,21.42,0,0,1-4.53,3.33,20.57,20.57,0,0,1-5.29,1.87,21,21,0,0,1-5.6.25,20.45,20.45,0,0,1-5.43-1.38,19,19,0,0,1-8.52-7A20.55,20.55,0,0,1,554,87.78a21,21,0,0,1-.75-5.51A19,19,0,0,0,565,99.58a20.09,20.09,0,0,0,5.34,1.32,21,21,0,0,0,5.48-.29A20,20,0,0,0,581,98.74a19.19,19.19,0,0,0,7.67-7.66,20.18,20.18,0,0,0,1.87-5.16,20.54,20.54,0,0,0,.29-5.48,20.09,20.09,0,0,0-1.32-5.34A19,19,0,0,0,572.19,63.36Z"/>
                <path class="cls-2" d="M363.6,84.45a16.74,16.74,0,0,1-2.72,9.36,16.81,16.81,0,0,1-12.35,7.47,18.72,18.72,0,0,1-5-.22,18.07,18.07,0,0,1-4.69-1.66,18.69,18.69,0,0,1-4-3,18.44,18.44,0,0,1-2.95-4,18.07,18.07,0,0,1-1.66-4.69,17,17,0,0,1,1-9.77,17,17,0,0,1,6.25-7.54A18.45,18.45,0,0,1,342,68.38a18.68,18.68,0,0,1,4.87-.66,16.87,16.87,0,0,0-15.3,10.39,17.92,17.92,0,0,0-1.16,4.72,18.25,18.25,0,0,0,.26,4.84,17.9,17.9,0,0,0,1.65,4.56,18.55,18.55,0,0,0,2.9,3.87,18.21,18.21,0,0,0,3.87,2.9,17.9,17.9,0,0,0,4.56,1.65,18.25,18.25,0,0,0,4.84.26,17.83,17.83,0,0,0,4.72-1.16A16.87,16.87,0,0,0,363.6,84.45Z"/>
                <path class="cls-2" d="M335,69.11a16.74,16.74,0,0,1,2.72-9.36,16.81,16.81,0,0,1,12.35-7.47,18.72,18.72,0,0,1,5,.22,18.07,18.07,0,0,1,4.69,1.66,19,19,0,0,1,4,2.94,18.75,18.75,0,0,1,2.95,4,17.71,17.71,0,0,1,1.66,4.69,18.72,18.72,0,0,1,.22,5,16.8,16.8,0,0,1-3.79,9,18.39,18.39,0,0,1-3.68,3.31,17,17,0,0,1-9.36,2.72,16.87,16.87,0,0,0,15.3-10.39,17.92,17.92,0,0,0,1.16-4.72,18.25,18.25,0,0,0-.26-4.84,17.9,17.9,0,0,0-1.65-4.56,18.55,18.55,0,0,0-2.9-3.87,18,18,0,0,0-3.87-2.9A17.53,17.53,0,0,0,355,52.91a18.25,18.25,0,0,0-4.84-.26,17.92,17.92,0,0,0-4.72,1.16A16.87,16.87,0,0,0,335,69.11Z"/>
                <path class="cls-2" d="M408,69.11a16.86,16.86,0,0,0-10.39-15.3,17.85,17.85,0,0,0-4.71-1.16,18.35,18.35,0,0,0-4.85.26,17.59,17.59,0,0,0-4.55,1.65,16.88,16.88,0,0,0-6.77,6.77,17.55,17.55,0,0,0-1.66,4.56,18.25,18.25,0,0,0-.25,4.84A17.9,17.9,0,0,0,376,75.45a16.87,16.87,0,0,0,15.3,10.39,17,17,0,0,1-9.36-2.72,19,19,0,0,1-3.68-3.31,18.28,18.28,0,0,1-2.56-4.24,18,18,0,0,1-1.23-4.8,18.31,18.31,0,0,1,.23-5,18,18,0,0,1,1.65-4.69,18.75,18.75,0,0,1,2.95-4,19,19,0,0,1,4-2.94A18.34,18.34,0,0,1,388,52.5a18.76,18.76,0,0,1,5-.22,16.83,16.83,0,0,1,12.35,7.47,17.73,17.73,0,0,1,2.06,4.49A18.62,18.62,0,0,1,408,69.11Z"/>
                <path class="cls-2" d="M554.71,53a17.79,17.79,0,0,1,.63-4.65,17.45,17.45,0,0,1,2-4.28,16,16,0,0,1,7.2-6,17.6,17.6,0,0,1,4.59-1.17,17.85,17.85,0,0,1,4.73.22,17.29,17.29,0,0,1,4.48,1.57,18.2,18.2,0,0,1,3.83,2.82A17.7,17.7,0,0,1,585,45.36a17.29,17.29,0,0,1,1.57,4.48,17.85,17.85,0,0,1,.22,4.73,17.6,17.6,0,0,1-1.17,4.59,18.15,18.15,0,0,1-2.45,4.05,17.88,17.88,0,0,1-3.52,3.15,17.45,17.45,0,0,1-4.28,2,17.85,17.85,0,0,1-4.65.63A16.1,16.1,0,0,0,585.26,59a17.05,17.05,0,0,0,1.1-4.49,17.43,17.43,0,0,0-.24-4.62,15.88,15.88,0,0,0-4.34-8,15.88,15.88,0,0,0-8-4.34,17.87,17.87,0,0,0-4.62-.25,17.37,17.37,0,0,0-4.49,1.11A16.07,16.07,0,0,0,554.71,53Z"/>
            </g>
        </g>
    </g>
</svg>