<svg xmlns="http://www.w3.org/2000/svg" viewBox="0 0 133.64 89.07">
    <defs>
        <style>
        @import url("/css/font.css");
        .cls-1,.cls-5{fill:none;}
        .cls-1,.cls-3,.cls-5{stroke:#444;stroke-miterlimit:10;}
        .cls-1{stroke-width:0.3px;stroke-dasharray:0.6 1.21;}
        .cls-2{font-size:4.23px;font-family:NanumSquare;}
        .cls-2,.cls-4{fill:#444;}
        .cls-3{fill:#fff;}
        .cls-3,.cls-5{stroke-width:0.6px;}
        .cls-6{letter-spacing:-0.01em;}</style>
    </defs>
    <g id="레이어_2" data-name="레이어 2">
        <g id="Layer_1" data-name="Layer 1">
            <line class="cls-1" x1="55.51" y1="28.6" x2="63.05" y2="58.81"/>
            <line class="cls-1" x1="79.34" y1="28.6" x2="71.79" y2="58.81"/>
            <line class="cls-1" x1="26.35" y1="81.27" x2="49.64" y2="81.27"/>
            <line class="cls-1" x1="26.35" y1="58.28" x2="49.64" y2="73.38"/>
            <line class="cls-1" x1="26.35" y1="35.29" x2="52.66" y2="62.46"/>
            <line class="cls-1" x1="108.81" y1="81.27" x2="85.52" y2="81.27"/>
            <line class="cls-1" x1="108.81" y1="58.28" x2="85.52" y2="73.38"/>
            <line class="cls-1" x1="108.81" y1="35.29" x2="82.5" y2="62.46"/>
            <text class="cls-2" transform="translate(0.78 17.6)">수질측정기</text>
            <text class="cls-2" transform="translate(113.36 17.6)">웹 브라우저</text>
            <text class="cls-2" transform="translate(46.68 3.29)">웹서버</text>
            <rect class="cls-3" x="115.85" y="25.64" width="15.3" height="11.62"/>
            <line class="cls-3" x1="115.85" y1="28.33" x2="131.15" y2="28.33"/>
            <circle class="cls-4" cx="117.69" cy="26.98" r="0.48"/>
            <circle class="cls-4" cx="119.62" cy="26.98" r="0.48"/>
            <line class="cls-3" x1="117.99" y1="35.67" x2="117.99" y2="33.7"/>
            <line class="cls-3" x1="119.44" y1="35.67" x2="119.44" y2="32.82"/>
            <line class="cls-3" x1="120.89" y1="35.67" x2="120.89" y2="30.73"/>
            <line class="cls-3" x1="122.35" y1="35.67" x2="122.35" y2="33.5"/>
            <circle class="cls-3" cx="126.7" cy="32.84" r="2.62"/>
            <polyline class="cls-3" points="126.7 30.22 126.7 32.84 128.02 35.1"/>
            <rect class="cls-3" x="115.85" y="51.12" width="15.3" height="11.62"/>
            <line class="cls-3" x1="115.85" y1="53.81" x2="131.15" y2="53.81"/>
            <circle class="cls-4" cx="117.69" cy="52.46" r="0.48"/>
            <circle class="cls-4" cx="119.62" cy="52.46" r="0.48"/>
            <line class="cls-3" x1="117.99" y1="61.15" x2="117.99" y2="56.92"/>
            <line class="cls-3" x1="119.44" y1="61.15" x2="119.44" y2="58.3"/>
            <line class="cls-3" x1="120.89" y1="61.15" x2="120.89" y2="59.04"/>
            <line class="cls-3" x1="122.35" y1="61.15" x2="122.35" y2="57.55"/>
            <circle class="cls-3" cx="126.7" cy="58.32" r="2.62"/>
            <polyline class="cls-3" points="126.7 55.7 126.7 58.32 125.38 60.58"/>
            <rect class="cls-3" x="115.85" y="76.59" width="15.3" height="11.62"/>
            <line class="cls-3" x1="115.85" y1="79.28" x2="131.15" y2="79.28"/>
            <circle class="cls-4" cx="117.69" cy="77.94" r="0.48"/>
            <circle class="cls-4" cx="119.62" cy="77.94" r="0.48"/>
            <line class="cls-3" x1="117.99" y1="86.63" x2="117.99" y2="84.65"/>
            <line class="cls-3" x1="119.44" y1="86.63" x2="119.44" y2="80.87"/>
            <line class="cls-3" x1="120.89" y1="86.63" x2="120.89" y2="84.94"/>
            <line class="cls-3" x1="122.35" y1="86.63" x2="122.35" y2="84.46"/>
            <circle class="cls-3" cx="126.7" cy="83.8" r="2.62"/>
            <polyline class="cls-3" points="128.02 81.53 126.7 83.8 128.02 86.06"/>
            <path class="cls-3" d="M10.93,29v3.6a1.38,1.38,0,0,0,.31.87l1.19,1.43V39a1.37,1.37,0,0,0,1.37,1.37h3A1.36,1.36,0,0,0,18.2,39v-4.1l1.19-1.43a1.34,1.34,0,0,0,.32-.87V29a1.36,1.36,0,0,0-1.37-1.36H12.29A1.36,1.36,0,0,0,10.93,29Z"/>
            <rect class="cls-3" x="12.43" y="29.28" width="5.77" height="3.58" rx="0.71"/>
            <line class="cls-5" x1="13.97" y1="34.94" x2="13.97" y2="35.68"/>
            <line class="cls-5" x1="15.32" y1="34.94" x2="15.32" y2="35.68"/>
            <line class="cls-5" x1="16.67" y1="34.94" x2="16.67" y2="35.68"/>
            <line class="cls-5" x1="13.97" y1="36.46" x2="13.97" y2="37.19"/>
            <line class="cls-5" x1="15.32" y1="36.46" x2="15.32" y2="37.19"/>
            <line class="cls-5" x1="16.67" y1="36.46" x2="16.67" y2="37.19"/>
            <line class="cls-5" x1="13.97" y1="37.97" x2="13.97" y2="38.71"/>
            <line class="cls-5" x1="15.32" y1="37.97" x2="15.32" y2="38.71"/>
            <line class="cls-5" x1="16.67" y1="37.97" x2="16.67" y2="38.71"/>
            <path class="cls-5" d="M0,36.94c1.09,0,1.09.71,2.18.71s1.1-.71,2.19-.71,1.09.71,2.18.71,1.1-.71,2.19-.71,1.09.71,2.19.71"/>
            <path class="cls-5" d="M0,34.6c1.09,0,1.09.71,2.18.71s1.1-.71,2.19-.71,1.09.71,2.18.71,1.1-.71,2.19-.71,1.09.71,2.19.71"/>
            <path class="cls-5" d="M0,39.28c1.09,0,1.09.71,2.18.71s1.1-.71,2.19-.71S5.46,40,6.55,40s1.1-.71,2.19-.71,1.09.71,2.19.71"/>
            <path class="cls-5" d="M5.46,31.45V26.68a2.85,2.85,0,0,1,2.86-2.85h4.14a2.85,2.85,0,0,1,2.86,2.85v.94"/>
            <rect class="cls-3" x="4.24" y="31.45" width="2.45" height="6.99" rx="1.07"/>
            <path class="cls-3" d="M10.93,53.19v3.6a1.38,1.38,0,0,0,.31.87l1.19,1.43v4.1a1.37,1.37,0,0,0,1.37,1.37h3a1.36,1.36,0,0,0,1.36-1.37v-4.1l1.19-1.43a1.34,1.34,0,0,0,.32-.87v-3.6a1.36,1.36,0,0,0-1.37-1.36H12.29A1.36,1.36,0,0,0,10.93,53.19Z"/>
            <rect class="cls-3" x="12.43" y="53.49" width="5.77" height="3.58" rx="0.71"/>
            <line class="cls-5" x1="13.97" y1="59.15" x2="13.97" y2="59.89"/>
            <line class="cls-5" x1="15.32" y1="59.15" x2="15.32" y2="59.89"/>
            <line class="cls-5" x1="16.67" y1="59.15" x2="16.67" y2="59.89"/>
            <line class="cls-5" x1="13.97" y1="60.67" x2="13.97" y2="61.4"/>
            <line class="cls-5" x1="15.32" y1="60.67" x2="15.32" y2="61.4"/>
            <line class="cls-5" x1="16.67" y1="60.67" x2="16.67" y2="61.4"/>
            <line class="cls-5" x1="13.97" y1="62.18" x2="13.97" y2="62.92"/>
            <line class="cls-5" x1="15.32" y1="62.18" x2="15.32" y2="62.92"/>
            <line class="cls-5" x1="16.67" y1="62.18" x2="16.67" y2="62.92"/>
            <path class="cls-5" d="M0,61.15c1.09,0,1.09.71,2.18.71s1.1-.71,2.19-.71,1.09.71,2.18.71,1.1-.71,2.19-.71,1.09.71,2.19.71"/>
            <path class="cls-5" d="M0,58.81c1.09,0,1.09.71,2.18.71s1.1-.71,2.19-.71,1.09.71,2.18.71,1.1-.71,2.19-.71,1.09.71,2.19.71"/>
            <path class="cls-5" d="M0,63.49c1.09,0,1.09.71,2.18.71s1.1-.71,2.19-.71,1.09.71,2.18.71,1.1-.71,2.19-.71,1.09.71,2.19.71"/>
            <path class="cls-5" d="M5.46,55.66V50.89A2.85,2.85,0,0,1,8.32,48h4.14a2.85,2.85,0,0,1,2.86,2.85v.94"/>
            <rect class="cls-3" x="4.24" y="55.66" width="2.45" height="6.99" rx="1.07"/>
            <path class="cls-3" d="M10.93,77.4V81a1.38,1.38,0,0,0,.31.87l1.19,1.43v4.1a1.37,1.37,0,0,0,1.37,1.37h3A1.36,1.36,0,0,0,18.2,87.4V83.3l1.19-1.43a1.34,1.34,0,0,0,.32-.87V77.4A1.36,1.36,0,0,0,18.34,76H12.29A1.36,1.36,0,0,0,10.93,77.4Z"/>
            <rect class="cls-3" x="12.43" y="77.7" width="5.77" height="3.58" rx="0.71"/>
            <line class="cls-5" x1="13.97" y1="83.36" x2="13.97" y2="84.1"/>
            <line class="cls-5" x1="15.32" y1="83.36" x2="15.32" y2="84.1"/>
            <line class="cls-5" x1="16.67" y1="83.36" x2="16.67" y2="84.1"/>
            <line class="cls-5" x1="13.97" y1="84.88" x2="13.97" y2="85.61"/>
            <line class="cls-5" x1="15.32" y1="84.88" x2="15.32" y2="85.61"/>
            <line class="cls-5" x1="16.67" y1="84.88" x2="16.67" y2="85.61"/>
            <line class="cls-5" x1="13.97" y1="86.39" x2="13.97" y2="87.13"/>
            <line class="cls-5" x1="15.32" y1="86.39" x2="15.32" y2="87.13"/>
            <line class="cls-5" x1="16.67" y1="86.39" x2="16.67" y2="87.13"/>
            <path class="cls-5" d="M0,85.36c1.09,0,1.09.71,2.18.71s1.1-.71,2.19-.71,1.09.71,2.18.71,1.1-.71,2.19-.71,1.09.71,2.19.71"/>
            <path class="cls-5" d="M0,83c1.09,0,1.09.71,2.18.71S3.28,83,4.37,83s1.09.71,2.18.71S7.65,83,8.74,83s1.09.71,2.19.71"/>
            <path class="cls-5" d="M0,87.7c1.09,0,1.09.71,2.18.71s1.1-.71,2.19-.71,1.09.71,2.18.71,1.1-.71,2.19-.71,1.09.71,2.19.71"/>
            <path class="cls-5" d="M5.46,79.87V75.1a2.85,2.85,0,0,1,2.86-2.85h4.14a2.85,2.85,0,0,1,2.86,2.85V76"/>
            <rect class="cls-3" x="4.24" y="79.87" width="2.45" height="6.99" rx="1.07"/>
            <rect class="cls-3" x="50.61" y="9.53" width="7.47" height="12.32"/>
            <line class="cls-3" x1="52.5" y1="11.66" x2="56.17" y2="11.66"/>
            <line class="cls-3" x1="52.5" y1="13.54" x2="56.17" y2="13.54"/>
            <rect class="cls-3" x="46.89" y="11.68" width="7.47" height="12.32"/>
            <circle class="cls-3" cx="50.63" cy="18.63" r="0.79"/>
            <line class="cls-3" x1="48.78" y1="13.81" x2="52.45" y2="13.81"/>
            <line class="cls-3" x1="48.78" y1="15.69" x2="52.45" y2="15.69"/>
            <path class="cls-3" d="M76.08,71.39h-.15a4.41,4.41,0,0,0-4.27-3.33,4.26,4.26,0,0,0-.8.08,6.17,6.17,0,0,0-11.78,2.58s0,0,0,.08h0v.58a2.76,2.76,0,0,0,0,5.51h17a2.76,2.76,0,0,0,0-5.51Z"/>
            <circle class="cls-3" cx="67.58" cy="81.19" r="1.49"/>
            <line class="cls-3" x1="60.36" y1="81.19" x2="66.09" y2="81.19"/>
            <line class="cls-3" x1="69.07" y1="81.19" x2="74.8" y2="81.19"/>
            <line class="cls-3" x1="67.57" y1="76.9" x2="67.57" y2="79.69"/>
            <line class="cls-3" x1="124.33" y1="82.68" x2="126.7" y2="83.8"/>
            <text class="cls-2" transform="translate(72.84 3.29)">DB Server</text>
            <line class="cls-3" x1="76.36" y1="23.59" x2="81.37" y2="23.59"/>
            <line class="cls-3" x1="83.98" y1="23.59" x2="88.99" y2="23.59"/>
            <line class="cls-3" x1="82.66" y1="19.83" x2="82.66" y2="22.27"/>
            <circle class="cls-3" cx="82.67" cy="23.59" r="1.3"/>
            <rect class="cls-3" x="79.11" y="9.19" width="7.14" height="10.64"/>
            <circle class="cls-3" cx="82.67" cy="15.83" r="0.76"/>
            <line class="cls-3" x1="80.91" y1="11.23" x2="84.42" y2="11.23"/>
            <line class="cls-3" x1="80.91" y1="13.02" x2="84.42" y2="13.02"/>
        </g>
    </g>
</svg>