<svg xmlns="http://www.w3.org/2000/svg" viewBox="0 0 135.39 103.24"><defs><style>.cls-1{fill:#fff;}.cls-1,.cls-4{stroke:#444;}.cls-1,.cls-3,.cls-4{stroke-miterlimit:10;stroke-width:2px;}.cls-2{fill:#444;}.cls-3,.cls-4{fill:none;}.cls-3{stroke:#00bce7;}</style></defs><g id="레이어_2" data-name="레이어 2"><g id="Layer_1" data-name="Layer 1"><rect class="cls-1" x="1" y="1" width="133.39" height="101.24" rx="5"/><line class="cls-1" x1="1" y1="14.4" x2="134.39" y2="14.4"/><circle class="cls-2" cx="9.61" cy="7.38" r="2.08"/><circle class="cls-2" cx="18.07" cy="7.38" r="2.08"/><circle class="cls-2" cx="26.52" cy="7.38" r="2.08"/><rect class="cls-1" x="11.69" y="21.29" width="86.97" height="18.31"/><circle class="cls-3" cx="113.66" cy="28.22" r="7.04"/><line class="cls-3" x1="118.59" y1="33.24" x2="124.38" y2="39.03"/><line class="cls-4" x1="11.69" y1="54.1" x2="18.98" y2="54.1"/><line class="cls-4" x1="27.46" y1="54.1" x2="122.33" y2="54.1"/><line class="cls-3" x1="11.69" y1="64.66" x2="18.98" y2="64.66"/><line class="cls-3" x1="27.46" y1="64.66" x2="122.33" y2="64.66"/><line class="cls-4" x1="11.69" y1="75.22" x2="18.98" y2="75.22"/><line class="cls-4" x1="27.46" y1="75.22" x2="122.33" y2="75.22"/><line class="cls-4" x1="11.69" y1="85.78" x2="18.98" y2="85.78"/><line class="cls-4" x1="27.46" y1="85.78" x2="122.33" y2="85.78"/></g></g></svg>