<svg xmlns="http://www.w3.org/2000/svg" viewBox="0 0 1091.51 342.88">
    <defs>
        <style>
        @import url("/css/font.css");
        .cls-1,.cls-26,.cls-7{fill:none;}
        .cls-1,.cls-6,.cls-7{stroke:#444;}
        .cls-1,.cls-26,.cls-6,.cls-7{stroke-miterlimit:10;}
        .cls-1{stroke-dasharray:2 4;}
        .cls-2,.cls-25,.cls-3{fill:#444;}
        .cls-3{font-size:14px;text-shadow: 0 0 1px #cccccc;font-family:NanumSquare;}
        .cls-4{letter-spacing:-0.02em;}
        .cls-5{font-size:24px;fill:#00bce7;font-family:NanumSquare;font-weight: 700;}
        .cls-6,.cls-9{fill:#fff;}
        .cls-6,.cls-7{stroke-width:2px;}
        .cls-8{fill:#d2d2d2;}
        .cls-10{fill:#0e473e;}
        .cls-11{fill:#d4cec2;}
        .cls-12{fill:#d89122;}
        .cls-13{fill:#166d5b;}
        .cls-14{fill:#efe5d6;}
        .cls-15{fill:#d5cfd5;}
        .cls-16{fill:#bfbabf;}
        .cls-17{fill:#9c979c;}
        .cls-18{fill:#3f3f3f;}
        .cls-19{fill:#312f30;}
        .cls-20{fill:#a20;}
        .cls-21{fill:#006caa;}
        .cls-22{fill:#00598c;}
        .cls-23{fill:#8c1c00;}
        .cls-24{fill:#a09e9f;}
        .cls-25{fill-rule:evenodd;}
        .cls-26{stroke:#d2d2d2;stroke-width:6px;}
        .cls-27{fill:#75a928;}
        .cls-28{fill:#bc1142;}
        .cls-29{fill:#646464;}
        .cls-30{fill:#3771a2;}
        .cls-31{fill:#ffd13f;}</style>
    </defs>
    <g id="레이어_2" data-name="레이어 2">
        <g id="Layer_1" data-name="Layer 1">
            <g id="img_sensor_data_manage">
                <line class="cls-1" x1="346.71" y1="163.04" x2="407.83" y2="163.04"/>
                <polygon class="cls-2" points="406.81 166.53 412.86 163.04 406.81 159.54 406.81 166.53"/>
                <text class="cls-3" transform="translate(621.2 279.39)">
                    - 고객 맞춤형 데이터 기능
                    <tspan x="0" y="30">- 센서 데이터를 TCP/IP 통신 네트워크를 이용한 서버 전송</tspan>
                    <tspan x="0" y="60">- 로컬 DB 백업 기능 (데이터 이중화)</tspan>
                </text>
                <text class="cls-3" transform="translate(621.2 63.43)">
                - 실시간으로 시리얼을 통한 센서 데이터 및 이벤트 수신
                <tspan x="0" y="30" xml:space="preserve" >   예) 20ms 마다 센서 데이터 수집, 특정 조건을 만족하는 경우 센서 데이터 수집 등</tspan>
                    <tspan x="0" y="60">- 이벤트 트리거 설정 기능</tspan>
                    <tspan x="0" y="90">- 센서 데이터 보정 기능</tspan>
                </text>
                <text class="cls-5" transform="translate(621.2 237.53)">센서 데이터 관리</text>
                <text class="cls-5" transform="translate(621.2 21.57)">센서 이벤트 수신</text>
                <text class="cls-3" transform="translate(467.79 220.66)">Cloud / Internet</text>
                <path class="cls-6" d="M588,151.76c-.37,0-.74,0-1.11.06A34.47,34.47,0,0,0,547,126.31a48.49,48.49,0,0,0-92.56,20.25c0,.21,0,.42,0,.63h0v4.56a21.65,21.65,0,1,0,0,43.29H588a21.65,21.65,0,1,0,0-43.29Z"/>
                <rect class="cls-6" x="490.18" y="142.6" width="19.09" height="31.46"/>
                <line class="cls-6" x1="495" y1="148.06" x2="504.38" y2="148.06"/>
                <line class="cls-6" x1="495" y1="152.84" x2="504.38" y2="152.84"/>
                <rect class="cls-6" x="480.69" y="148.09" width="19.09" height="31.46"/>
                <circle class="cls-6" cx="490.24" cy="165.84" r="2.02"/>
                <line class="cls-6" x1="485.52" y1="153.55" x2="494.89" y2="153.55"/>
                <line class="cls-6" x1="485.52" y1="158.33" x2="494.89" y2="158.33"/>
                <path class="cls-6" d="M553.41,168v5.37c0,1.95-5.64,3.54-12.6,3.54s-12.6-1.59-12.6-3.54V168"/>
                <ellipse class="cls-6" cx="540.81" cy="167.97" rx="12.6" ry="3.54"/>
                <path class="cls-6" d="M553.41,158.39v5.37c0,2-5.64,3.53-12.6,3.53s-12.6-1.58-12.6-3.53v-5.37"/>
                <ellipse class="cls-6" cx="540.81" cy="158.39" rx="12.6" ry="3.54"/>
                <path class="cls-6" d="M553.41,148.8v5.37c0,2-5.64,3.54-12.6,3.54s-12.6-1.59-12.6-3.54V148.8"/>
                <ellipse class="cls-6" cx="540.81" cy="148.8" rx="12.6" ry="3.54"/>
                <rect class="cls-7" x="1" y="1" width="346.21" height="340.77" rx="21.22"/>
                <path class="cls-8" d="M62.93,192a20,20,0,0,1-20.34,20,20.48,20.48,0,0,1-20.33-20.38,20.05,20.05,0,0,1,20.33-20A20.48,20.48,0,0,1,62.93,192Z"/>
                <path class="cls-9" d="M46.13,188.31a.5.5,0,0,0-.5,0l-.85.44-4.86,0a.5.5,0,0,0-.51.5v2.05a4.32,4.32,0,0,1-2.18-.47,3.36,3.36,0,0,0-3.67.32,2.07,2.07,0,0,1-1.44.53,2.18,2.18,0,0,1-1.45-.55,3.12,3.12,0,0,0-2.05-.76.51.51,0,1,0,0,1,2.17,2.17,0,0,1,1.44.55,3.22,3.22,0,0,0,4.11,0,2.33,2.33,0,0,1,2.59-.25,5.32,5.32,0,0,0,2.65.59v2.07a.53.53,0,0,0,.51.52l4.86,0,.85.45a.4.4,0,0,0,.24.07.59.59,0,0,0,.26-.07.5.5,0,0,0,.25-.44v-6.16A.52.52,0,0,0,46.13,188.31Zm-.78,5.74-.2-.11a.53.53,0,0,0-.24-.06l-4.47,0v-4.12l4.47,0a.53.53,0,0,0,.24-.06l.2-.11Z"/>
                <path class="cls-9" d="M54.6,185.18a.51.51,0,0,0-.72-.07.5.5,0,0,0-.07.71A9.58,9.58,0,0,1,56.06,192a9.44,9.44,0,0,1-2.19,6,.51.51,0,0,0,.07.72.52.52,0,0,0,.33.12.48.48,0,0,0,.39-.19A10.4,10.4,0,0,0,57.09,192,10.6,10.6,0,0,0,54.6,185.18Z"/>
                <path class="cls-9" d="M53.11,186.39a.53.53,0,0,0-.72-.07.51.51,0,0,0-.07.72,7.64,7.64,0,0,1,1.8,4.91,7.56,7.56,0,0,1-1.74,4.81.51.51,0,0,0,.07.72.55.55,0,0,0,.33.12.52.52,0,0,0,.39-.19,8.48,8.48,0,0,0,2-5.45A8.71,8.71,0,0,0,53.11,186.39Z"/>
                <path class="cls-9" d="M51.62,187.61a.51.51,0,1,0-.79.65,5.65,5.65,0,0,1,.06,7.26.51.51,0,0,0,.07.72.48.48,0,0,0,.32.11.49.49,0,0,0,.4-.18,6.66,6.66,0,0,0,1.53-4.23A6.76,6.76,0,0,0,51.62,187.61Z"/>
                <path class="cls-9" d="M48.64,190a.53.53,0,0,0-.73-.06.51.51,0,0,0,0,.72,1.87,1.87,0,0,1,.44,1.2,1.82,1.82,0,0,1-.4,1.14.51.51,0,0,0,.07.72.57.57,0,0,0,.33.11.53.53,0,0,0,.4-.18,2.88,2.88,0,0,0,.63-1.78A2.92,2.92,0,0,0,48.64,190Z"/>
                <path class="cls-9" d="M50.13,188.83a.51.51,0,1,0-.79.65,3.76,3.76,0,0,1,.9,2.43,3.72,3.72,0,0,1-.85,2.37.51.51,0,0,0,.07.72.57.57,0,0,0,.33.11.5.5,0,0,0,.4-.18,4.76,4.76,0,0,0,1.08-3A4.81,4.81,0,0,0,50.13,188.83Z"/>
                <path class="cls-8" d="M42.77,49.54a20,20,0,0,1,20,20.34A20.48,20.48,0,0,1,42.42,90.22a20.07,20.07,0,0,1-20-20.34A20.49,20.49,0,0,1,42.77,49.54Z"/>
                <path class="cls-9" d="M42.59,85.28a8.54,8.54,0,0,1-8.46-8.48A8.3,8.3,0,0,1,37.68,70V59.27a4.81,4.81,0,0,1,4.88-4.79,4.9,4.9,0,0,1,4.87,4.88V70a8.36,8.36,0,0,1-4.84,15.26Zm0-29.78a3.8,3.8,0,0,0-3.85,3.78v11a.52.52,0,0,1-.23.43,7.29,7.29,0,0,0-3.33,6.12,7.51,7.51,0,0,0,7.44,7.46A7.34,7.34,0,0,0,50,76.94a7.42,7.42,0,0,0-3.39-6.23.51.51,0,0,1-.23-.43V59.35A3.87,3.87,0,0,0,42.56,55.5Z"/>
                <path class="cls-9" d="M42.59,82.05a5.17,5.17,0,0,1-5.13-5.14,5,5,0,0,1,2.85-4.54V60.85a2.26,2.26,0,0,1,2.28-2.24,2.3,2.3,0,0,1,2.28,2.29V72.41A5.12,5.12,0,0,1,47.72,77,5.06,5.06,0,0,1,42.59,82.05Zm0-22.42a1.23,1.23,0,0,0-1.25,1.23V72.71a.5.5,0,0,1-.32.46,4,4,0,0,0-2.53,3.75A4.13,4.13,0,0,0,42.59,81a4.05,4.05,0,0,0,4.11-4,4.12,4.12,0,0,0-2.54-3.79.51.51,0,0,1-.31-.47V60.89A1.26,1.26,0,0,0,42.59,59.63Z"/>
                <path class="cls-9" d="M42.88,62.12h-.62a.53.53,0,0,1-.51-.52.5.5,0,0,1,.51-.5h.62a.53.53,0,0,1,.51.52A.5.5,0,0,1,42.88,62.12Z"/>
                <path class="cls-9" d="M42.88,64h-.62a.51.51,0,0,1-.51-.51.51.51,0,0,1,.51-.51h.62a.51.51,0,1,1,0,1Z"/>
                <path class="cls-9" d="M42.88,65.89h-.62a.51.51,0,0,1,0-1h.62a.51.51,0,1,1,0,1Z"/>
                <path class="cls-9" d="M42.88,67.77h-.62a.51.51,0,0,1-.51-.51.5.5,0,0,1,.51-.5h.62a.51.51,0,0,1,.51.52A.5.5,0,0,1,42.88,67.77Z"/>
                <path class="cls-9" d="M42.88,69.65h-.62a.51.51,0,0,1-.51-.52.5.5,0,0,1,.51-.5h.62a.53.53,0,0,1,.51.52A.5.5,0,0,1,42.88,69.65Z"/>
                <path class="cls-9" d="M42.88,71.54h-.62a.51.51,0,0,1,0-1h.62a.51.51,0,1,1,0,1Z"/>
                <path class="cls-9" d="M42.88,73.42h-.62a.51.51,0,0,1,0-1h.62a.51.51,0,1,1,0,1Z"/>
                <path class="cls-9" d="M42.59,79.86a2.94,2.94,0,0,1-2.92-2.93.51.51,0,0,1,.51-.51.53.53,0,0,1,.51.52,1.92,1.92,0,0,0,1.9,1.91.51.51,0,0,1,.52.51A.5.5,0,0,1,42.59,79.86Z"/>
                <path class="cls-8" d="M62.93,131a20,20,0,0,1-20.34,20,20.47,20.47,0,0,1-20.33-20.37,20.06,20.06,0,0,1,20.33-20A20.49,20.49,0,0,1,62.93,131Z"/>
                <path class="cls-9" d="M44.62,143h0a.52.52,0,0,1-.49-.43l-3.58-20.91-3.79,15a.5.5,0,0,1-.5.38h0a.52.52,0,0,1-.5-.38l-2.45-9.19-2,3a.53.53,0,0,1-.43.22l-3,0a.51.51,0,0,1,0-1l2.75,0L33.08,126a.49.49,0,0,1,.51-.21.5.5,0,0,1,.41.37l2.22,8.36,3.91-15.49a.51.51,0,0,1,1,0L44.72,140l3.85-15.12a.52.52,0,0,1,.5-.38h0a.53.53,0,0,1,.5.41L52,136l1.92-5.74a.5.5,0,0,1,.49-.34l3,0a.52.52,0,0,1,.51.52.5.5,0,0,1-.51.5l-2.65,0-2.4,7.16a.51.51,0,0,1-.51.35.52.52,0,0,1-.47-.41L49,127.28l-3.91,15.35A.52.52,0,0,1,44.62,143Z"/>
                <path class="cls-8" d="M62.93,253a20.05,20.05,0,0,1-20.34,20A20.48,20.48,0,0,1,22.26,252.6a20,20,0,0,1,20.33-20A20.48,20.48,0,0,1,62.93,253Z"/>
                <path class="cls-9" d="M56.13,252.46l-4.12,0a9.71,9.71,0,0,0-9.61-9.13,9.49,9.49,0,0,0-9.6,9l-3.74,0a.5.5,0,0,0-.51.5.53.53,0,0,0,.51.52l3.74,0a9.71,9.71,0,0,0,9.6,9.13,9.51,9.51,0,0,0,9.61-9l4.12,0a.5.5,0,0,0,.51-.5A.53.53,0,0,0,56.13,252.46ZM42.4,244.32a8.68,8.68,0,0,1,8.58,8.1l-3.21,0v-4.63a.51.51,0,0,0-.51-.51.5.5,0,0,0-.51.5v4.31L38,246.93a.52.52,0,0,0-.51,0,.51.51,0,0,0-.26.44v4.93l-3.36,0A8.49,8.49,0,0,1,42.4,244.32Zm0,17.07a8.68,8.68,0,0,1-8.58-8.1l3.36,0v4.85a.51.51,0,0,0,.26.44.47.47,0,0,0,.25.07.58.58,0,0,0,.26-.06l8.8-5V258a.53.53,0,0,0,.51.52.51.51,0,0,0,.51-.51v-4.63l3.21,0A8.49,8.49,0,0,1,42.4,261.39Z"/>
                <path class="cls-9" d="M31.89,244.5l-.55.52,2.47.71-.64-2.47-.55.53L29.86,241a.52.52,0,0,0-.73,0,.51.51,0,0,0,0,.72Z"/>
                <path class="cls-9" d="M34.05,242.52l-.55.53,2.47.7-.64-2.46-.55.52L32,239a.51.51,0,1,0-.73.7Z"/>
                <text class="cls-3" transform="translate(16.82 300.89)">Sensors</text>
                <path class="cls-10" d="M263.76,171.3V54.86a1.33,1.33,0,0,0-1.32-1.33H202.57a3.85,3.85,0,0,1-3.85,3.85V171.3h0a3.84,3.84,0,0,1,3.84,3.84h57.35A3.84,3.84,0,0,1,263.76,171.3Zm-35.24-43.25a3.85,3.85,0,1,1,5.44,0A3.85,3.85,0,0,1,228.52,128.05Z"/>
                <path class="cls-11" d="M224.44,111.94a5.35,5.35,0,1,1,10.7,0h-.87a4.48,4.48,0,0,0-9,0Z"/>
                <path class="cls-11" d="M224.44,118.67a5.35,5.35,0,1,1,10.7,0h-.87a4.48,4.48,0,0,0-9,0Z"/>
                <rect class="cls-11" x="229.35" y="113.76" width="0.88" height="3.1"/>
                <path class="cls-12" d="M201.4,53.53a2.68,2.68,0,0,1-2.68,2.68v1.17a3.85,3.85,0,0,0,3.85-3.85Z"/>
                <path class="cls-12" d="M198.72,172.47a2.67,2.67,0,0,1,2.68,2.67h1.17a3.84,3.84,0,0,0-3.85-3.84Z"/>
                <path class="cls-12" d="M261.09,175.14a2.67,2.67,0,0,1,2.67-2.67V171.3a3.84,3.84,0,0,0-3.84,3.84Z"/>
                <path class="cls-12" d="M234,122.61a3.85,3.85,0,1,0,0,5.44A3.85,3.85,0,0,0,234,122.61Zm-4.61,4.61a2.68,2.68,0,1,1,3.79,0A2.67,2.67,0,0,1,229.35,127.22Z"/>
                <polygon class="cls-13" points="251.36 175.14 251.36 171.17 260.55 161.98 260.55 106.58 261.21 106.58 261.21 162.25 252.02 171.44 252.02 175.14 251.36 175.14"/>
                <rect class="cls-13" x="260.55" y="53.53" width="0.66" height="3.54"/>
                <rect class="cls-13" x="208.53" y="145.78" width="52.34" height="0.66"/>
                <rect class="cls-13" x="212.87" y="149.29" width="48.01" height="0.66"/>
                <rect class="cls-13" x="224.62" y="152.81" width="36.25" height="0.66"/>
                <rect class="cls-13" x="218.49" y="156.33" width="42.38" height="0.66"/>
                <path class="cls-10" d="M223.57,153.14a1.05,1.05,0,1,1,1.05,1.05A1,1,0,0,1,223.57,153.14Z"/>
                <path class="cls-13" d="M223.24,153.14a1.38,1.38,0,1,1,1.38,1.38A1.38,1.38,0,0,1,223.24,153.14Zm2.1,0a.72.72,0,1,0-.72.72A.72.72,0,0,0,225.34,153.14Z"/>
                <path class="cls-10" d="M217.44,156.66a1.05,1.05,0,1,1,1.05,1.05A1,1,0,0,1,217.44,156.66Z"/>
                <path class="cls-13" d="M217.11,156.66a1.38,1.38,0,1,1,1.38,1.38A1.38,1.38,0,0,1,217.11,156.66Zm2.1,0a.72.72,0,0,0-1.44,0,.72.72,0,0,0,1.44,0Z"/>
                <path class="cls-10" d="M211.73,149.62a1.05,1.05,0,1,1,1.05,1A1,1,0,0,1,211.73,149.62Z"/>
                <path class="cls-13" d="M211.4,149.62a1.38,1.38,0,1,1,1.38,1.38A1.37,1.37,0,0,1,211.4,149.62Zm2.1,0a.72.72,0,1,0-.72.72A.72.72,0,0,0,213.5,149.62Z"/>
                <path class="cls-10" d="M207.48,146.11a1.05,1.05,0,1,1,1.05,1A1,1,0,0,1,207.48,146.11Z"/>
                <path class="cls-13" d="M207.15,146.11a1.38,1.38,0,1,1,1.38,1.38A1.38,1.38,0,0,1,207.15,146.11Zm2.1,0a.72.72,0,0,0-1.44,0,.72.72,0,1,0,1.44,0Z"/>
                <polygon class="cls-13" points="211.69 102.96 211.69 88.27 212.35 88.27 212.35 102.3 244.52 102.3 244.52 137.22 252.98 145.68 252.52 146.15 243.86 137.49 243.86 102.96 211.69 102.96"/>
                <path class="cls-10" d="M211,88.27a1,1,0,1,1,1.05,1A1,1,0,0,1,211,88.27Z"/>
                <path class="cls-13" d="M210.64,88.27A1.38,1.38,0,1,1,212,89.65,1.38,1.38,0,0,1,210.64,88.27Zm2.1,0A.72.72,0,1,0,212,89,.72.72,0,0,0,212.74,88.27Z"/>
                <rect class="cls-13" x="238.98" y="54.41" width="0.66" height="48.22"/>
                <polygon class="cls-13" points="205.99 109.36 205.99 108.7 216.57 108.7 222.88 102.4 223.34 102.86 216.84 109.36 205.99 109.36"/>
                <path class="cls-10" d="M204.94,109a1,1,0,1,1,1.05,1A1,1,0,0,1,204.94,109Z"/>
                <path class="cls-13" d="M204.61,109a1.38,1.38,0,1,1,1.38,1.38A1.38,1.38,0,0,1,204.61,109Zm2.09,0a.72.72,0,1,0-.71.72A.71.71,0,0,0,206.7,109Z"/>
                <polygon class="cls-13" points="198.73 160.37 198.73 159.71 208.15 159.71 215.48 167.04 240.54 167.04 240.54 167.7 215.21 167.7 207.87 160.37 198.73 160.37"/>
                <path class="cls-10" d="M239.49,167.37a1.05,1.05,0,1,1,1,1A1,1,0,0,1,239.49,167.37Z"/>
                <path class="cls-13" d="M239.16,167.37a1.38,1.38,0,1,1,1.38,1.38A1.37,1.37,0,0,1,239.16,167.37Zm2.1,0a.72.72,0,1,0-.72.72A.72.72,0,0,0,241.26,167.37Z"/>
                <polygon class="cls-14" points="221.89 76.85 221.89 62.16 213.91 62.16 213.91 63.47 213 64.04 213 74.97 213.91 75.53 213.91 76.85 221.89 76.85"/>
                <path class="cls-12" d="M217.34,64.36a.55.55,0,0,1-.55-.54.55.55,0,0,1,.55-.55.55.55,0,0,1,.54.55A.54.54,0,0,1,217.34,64.36Z"/>
                <path class="cls-12" d="M217.34,67.21a.55.55,0,0,1-.55-.55.55.55,0,0,1,.55-.54.54.54,0,0,1,.54.54A.55.55,0,0,1,217.34,67.21Z"/>
                <path class="cls-12" d="M217.34,70.05a.55.55,0,0,1-.55-.55.55.55,0,0,1,.55-.54.54.54,0,0,1,.54.54A.55.55,0,0,1,217.34,70.05Z"/>
                <path class="cls-12" d="M217.34,72.89a.55.55,0,0,1-.55-.54.55.55,0,0,1,.55-.55.55.55,0,0,1,.54.55A.54.54,0,0,1,217.34,72.89Z"/>
                <path class="cls-12" d="M217.34,75.73a.54.54,0,1,1,0-1.08.54.54,0,1,1,0,1.08Z"/>
                <rect class="cls-11" x="213.78" y="92.59" width="10.01" height="4.32" transform="translate(124.03 313.53) rotate(-90)"/>
                <rect class="cls-12" x="215.95" y="92.59" width="5.67" height="4.32" transform="translate(124.03 313.53) rotate(-90)"/>
                <rect class="cls-11" x="221.19" y="92.59" width="10.01" height="4.32" transform="translate(131.44 320.94) rotate(-90)"/>
                <rect class="cls-12" x="223.36" y="92.59" width="5.67" height="4.32" transform="translate(131.44 320.94) rotate(-90)"/>
                <rect class="cls-11" x="228.59" y="92.59" width="10.01" height="4.32" transform="translate(138.85 328.35) rotate(-90)"/>
                <rect class="cls-12" x="230.77" y="92.59" width="5.67" height="4.32" transform="translate(138.85 328.35) rotate(-90)"/>
                <path class="cls-15" d="M248.71,169.06a5.36,5.36,0,1,1,5.36-5.35A5.36,5.36,0,0,1,248.71,169.06Z"/>
                <path class="cls-16" d="M248.71,167.72a4,4,0,1,1,4-4A4,4,0,0,1,248.71,167.72Z"/>
                <path class="cls-17" d="M245.21,164.22a4,4,0,0,1,6.58-3.07,4,4,0,0,0-3.08-1.46,4,4,0,0,0-4,4,4,4,0,0,0,1.46,3.07A4,4,0,0,1,245.21,164.22Z"/>
                <circle class="cls-15" cx="254.13" cy="133.66" r="3.36"/>
                <circle class="cls-16" cx="254.13" cy="133.66" r="2.52"/>
                <path class="cls-17" d="M251.93,134a2.51,2.51,0,0,1,4.13-1.93,2.51,2.51,0,1,0-3.54,3.53A2.5,2.5,0,0,1,251.93,134Z"/>
                <path class="cls-15" d="M255,143.56a2.45,2.45,0,1,1,2.45-2.45A2.45,2.45,0,0,1,255,143.56Z"/>
                <path class="cls-16" d="M255,143a1.84,1.84,0,1,1,1.84-1.84A1.84,1.84,0,0,1,255,143Z"/>
                <path class="cls-17" d="M253.44,141.34a1.83,1.83,0,0,1,1.84-1.83,1.81,1.81,0,0,1,1.17.43,1.83,1.83,0,0,0-3.24,1.17,1.81,1.81,0,0,0,.66,1.4A1.83,1.83,0,0,1,253.44,141.34Z"/>
                <circle class="cls-11" cx="244.86" cy="94.59" r="0.62"/>
                <circle class="cls-11" cx="242.22" cy="94.59" r="0.62"/>
                <circle class="cls-11" cx="244.86" cy="92.84" r="0.62"/>
                <circle class="cls-11" cx="242.22" cy="92.84" r="0.62"/>
                <circle class="cls-11" cx="244.86" cy="91.08" r="0.62"/>
                <circle class="cls-11" cx="242.22" cy="91.08" r="0.62"/>
                <circle class="cls-11" cx="244.86" cy="89.32" r="0.62"/>
                <circle class="cls-11" cx="242.22" cy="89.32" r="0.62"/>
                <circle class="cls-11" cx="244.86" cy="87.56" r="0.62"/>
                <circle class="cls-11" cx="242.22" cy="87.56" r="0.62"/>
                <circle class="cls-11" cx="244.86" cy="85.8" r="0.62"/>
                <circle class="cls-11" cx="242.22" cy="85.8" r="0.62"/>
                <circle class="cls-11" cx="244.86" cy="84.05" r="0.62"/>
                <circle class="cls-11" cx="242.22" cy="84.05" r="0.62"/>
                <circle class="cls-11" cx="225.24" cy="163.45" r="0.62"/>
                <circle class="cls-11" cx="225.24" cy="160.82" r="0.62"/>
                <circle class="cls-11" cx="227" cy="163.45" r="0.62"/>
                <circle class="cls-11" cx="227" cy="160.82" r="0.62"/>
                <circle class="cls-11" cx="228.75" cy="163.45" r="0.62"/>
                <circle class="cls-11" cx="228.75" cy="160.82" r="0.62"/>
                <circle class="cls-11" cx="230.51" cy="163.45" r="0.62"/>
                <circle class="cls-11" cx="230.51" cy="160.82" r="0.62"/>
                <circle class="cls-11" cx="232.27" cy="163.45" r="0.62"/>
                <circle class="cls-11" cx="232.27" cy="160.82" r="0.62"/>
                <circle class="cls-11" cx="234.03" cy="163.45" r="0.62"/>
                <circle class="cls-11" cx="234.03" cy="160.82" r="0.62"/>
                <circle class="cls-11" cx="235.79" cy="163.45" r="0.62"/>
                <circle class="cls-11" cx="235.79" cy="160.82" r="0.62"/>
                <path class="cls-11" d="M201.53,133.48V118.15a1.79,1.79,0,0,1,1.79-1.79h6.12a1.8,1.8,0,0,1,1.8,1.79v15.33a1.81,1.81,0,0,1-1.8,1.8h-6.12A1.8,1.8,0,0,1,201.53,133.48ZM211,118.15a1.57,1.57,0,0,0-1.58-1.57h-6.12a1.57,1.57,0,0,0-1.57,1.57v15.33a1.58,1.58,0,0,0,1.57,1.58h6.12a1.58,1.58,0,0,0,1.58-1.58Z"/>
                <path class="cls-11" d="M207.76,120.21v-.36h-.55v-.26h.55v-1.18H208l1.64,1.15v.29H208v.36Zm.25-.62h.81l.53,0v0l-.26-.15-1.08-.75Z"/>
                <path class="cls-11" d="M209.41,121.65a.8.8,0,0,0-.26-.63,1.31,1.31,0,0,0-1.47,0,.81.81,0,0,0-.26.64,1.91,1.91,0,0,0,.1.58h-.25a1.89,1.89,0,0,1-.1-.63,1,1,0,0,1,.33-.82,1.29,1.29,0,0,1,.92-.29,1.39,1.39,0,0,1,.66.14,1,1,0,0,1,.43.4,1.26,1.26,0,0,1,.15.62,1.41,1.41,0,0,1-.14.67l-.24-.12A1.23,1.23,0,0,0,209.41,121.65Z"/>
                <path class="cls-11" d="M209.63,123.64v.68a1.28,1.28,0,0,1-.15.7.49.49,0,0,1-.45.21.56.56,0,0,1-.36-.12.59.59,0,0,1-.18-.35h0c-.07.37-.26.55-.58.55a.61.61,0,0,1-.51-.22.92.92,0,0,1-.18-.61v-.84Zm-1,.28v.46a.7.7,0,0,0,.1.43.34.34,0,0,0,.31.13.31.31,0,0,0,.29-.15.87.87,0,0,0,.1-.46v-.41Zm-.24,0h-.9v.5a.73.73,0,0,0,.11.44.42.42,0,0,0,.36.15.37.37,0,0,0,.33-.15.81.81,0,0,0,.1-.46Z"/>
                <path class="cls-11" d="M209.66,126.6a.86.86,0,0,1-.15.53.51.51,0,0,1-.43.19.54.54,0,0,1-.32-.11.92.92,0,0,1-.27-.35,1.06,1.06,0,0,1-.3.41.51.51,0,0,1-.35.13.61.61,0,0,1-.49-.21.86.86,0,0,1-.18-.58.92.92,0,0,1,.17-.59.6.6,0,0,1,.48-.21.72.72,0,0,1,.65.5.9.9,0,0,1,.28-.32.57.57,0,0,1,.34-.1.52.52,0,0,1,.42.19A.84.84,0,0,1,209.66,126.6Zm-1.84-.52a.38.38,0,0,0-.31.14.57.57,0,0,0-.11.39.61.61,0,0,0,.11.38.42.42,0,0,0,.32.14.43.43,0,0,0,.29-.13,1.51,1.51,0,0,0,.24-.45,1,1,0,0,0-.23-.36A.49.49,0,0,0,207.82,126.08Zm1.62.52a.44.44,0,0,0-.1-.32.32.32,0,0,0-.26-.12.42.42,0,0,0-.27.09,1.09,1.09,0,0,0-.21.37.85.85,0,0,0,.21.33.38.38,0,0,0,.27.1.31.31,0,0,0,.26-.12A.48.48,0,0,0,209.44,126.6Z"/>
                <path class="cls-11" d="M207.76,129.45v-.36h-.55v-.27h.55v-1.17H208l1.64,1.15v.29H208v.36Zm.25-.63h.81l.53,0h0l-.26-.15-1.08-.76Z"/>
                <path class="cls-11" d="M208.69,130.44a.94.94,0,0,1-.19.6.65.65,0,0,1-.52.22.75.75,0,0,1-.59-.24,1,1,0,0,1-.22-.66,1.35,1.35,0,0,1,.13-.63h.27a1.1,1.1,0,0,0-.12.29,1.37,1.37,0,0,0,0,.34.7.7,0,0,0,.14.46.51.51,0,0,0,.4.16c.33,0,.5-.21.5-.62a1.81,1.81,0,0,0,0-.42l.1-.15,1.13.09v1.21h-.25v-1l-.73-.06A2.33,2.33,0,0,1,208.69,130.44Z"/>
                <path class="cls-11" d="M207.21,131.93l2.17,1v-1.32h.25v1.61h-.22l-2.2-1Z"/>
                <path class="cls-11" d="M203.69,120.21v-.36h-.55v-.26h.55v-1.18h.24l1.64,1.15v.29h-1.63v.36Zm.25-.62h.81l.53,0v0l-.26-.15-1.08-.75Z"/>
                <path class="cls-11" d="M204.62,121.2a1,1,0,0,1-.19.61.67.67,0,0,1-.52.21.74.74,0,0,1-.59-.23.92.92,0,0,1-.22-.66,1.29,1.29,0,0,1,.13-.63h.27a1.1,1.1,0,0,0-.12.29,1.32,1.32,0,0,0,0,.34.69.69,0,0,0,.14.45.47.47,0,0,0,.39.16c.34,0,.51-.2.51-.62a1.93,1.93,0,0,0,0-.42l.09-.14,1.14.09v1.2h-.26v-1l-.72-.06A2.58,2.58,0,0,1,204.62,121.2Z"/>
                <path class="cls-11" d="M205.59,123.19a.82.82,0,0,1-.15.52.52.52,0,0,1-.43.2.52.52,0,0,1-.32-.11,1.06,1.06,0,0,1-.27-.36,1.13,1.13,0,0,1-.3.42.57.57,0,0,1-.36.13.58.58,0,0,1-.48-.22.85.85,0,0,1-.18-.57,1,1,0,0,1,.17-.6.6.6,0,0,1,.48-.21.71.71,0,0,1,.65.51,1.05,1.05,0,0,1,.28-.33.65.65,0,0,1,.34-.1.53.53,0,0,1,.42.2A.82.82,0,0,1,205.59,123.19Zm-1.84-.52a.36.36,0,0,0-.31.13.58.58,0,0,0-.11.39.65.65,0,0,0,.11.39.41.41,0,0,0,.32.13.39.39,0,0,0,.29-.13,1.29,1.29,0,0,0,.24-.45.89.89,0,0,0-.24-.35A.4.4,0,0,0,203.75,122.67Zm1.62.52a.48.48,0,0,0-.1-.33.34.34,0,0,0-.27-.12.42.42,0,0,0-.26.1,1.33,1.33,0,0,0-.22.36,1,1,0,0,0,.22.34.4.4,0,0,0,.26.1.33.33,0,0,0,.27-.12A.5.5,0,0,0,205.37,123.19Z"/>
                <path class="cls-11" d="M203.14,124.63l2.16,1v-1.32h.26v1.61h-.22l-2.2-1Z"/>
                <path class="cls-11" d="M204.62,128a.94.94,0,0,1-.19.6.68.68,0,0,1-.52.22.75.75,0,0,1-.59-.24.92.92,0,0,1-.22-.66,1.35,1.35,0,0,1,.13-.63h.27a1.1,1.1,0,0,0-.12.29,1.37,1.37,0,0,0,0,.34.65.65,0,0,0,.14.45.48.48,0,0,0,.39.17q.51,0,.51-.63a1.93,1.93,0,0,0,0-.42l.09-.14,1.14.09v1.21h-.26v-1l-.72-.06A2.33,2.33,0,0,1,204.62,128Z"/>
                <path class="cls-11" d="M205.34,130.37a.83.83,0,0,0-.26-.63,1.1,1.1,0,0,0-.73-.23,1.16,1.16,0,0,0-.74.22.81.81,0,0,0-.26.64,2.22,2.22,0,0,0,.09.58h-.24a1.65,1.65,0,0,1-.1-.62,1,1,0,0,1,.33-.83,1.33,1.33,0,0,1,.92-.29,1.53,1.53,0,0,1,.66.14,1,1,0,0,1,.43.4,1.28,1.28,0,0,1,.15.63,1.39,1.39,0,0,1-.14.66l-.24-.12A1.2,1.2,0,0,0,205.34,130.37Z"/>
                <path class="cls-11" d="M204.17,131.34a1.76,1.76,0,0,1,1.07.27,1,1,0,0,1,.35.82,1.15,1.15,0,0,1,0,.3h-.24a.88.88,0,0,0,.05-.29.76.76,0,0,0-.25-.6,1.25,1.25,0,0,0-.76-.22v0a.63.63,0,0,1,.29.57.7.7,0,0,1-.2.52.77.77,0,0,1-.54.19.8.8,0,0,1-.59-.21.75.75,0,0,1-.22-.56.7.7,0,0,1,.29-.59A1.21,1.21,0,0,1,204.17,131.34Zm-.83.81a.46.46,0,0,0,.14.36.63.63,0,0,0,.43.14.56.56,0,0,0,.38-.13.46.46,0,0,0,.14-.36.6.6,0,0,0-.06-.27.55.55,0,0,0-.17-.2.39.39,0,0,0-.23-.07.78.78,0,0,0-.31.06.65.65,0,0,0-.24.19A.54.54,0,0,0,203.34,132.15Z"/>
                <rect class="cls-13" x="240.73" y="107.03" width="7.03" height="4.01"/>
                <rect class="cls-13" x="240.73" y="130.12" width="7.03" height="4.01"/>
                <rect class="cls-11" x="200.94" y="82.28" width="7.35" height="4.03"/>
                <rect class="cls-18" x="201.97" y="82.28" width="5.28" height="4.03"/>
                <rect class="cls-11" x="200.94" y="88.43" width="7.35" height="4.03"/>
                <rect class="cls-18" x="201.97" y="88.43" width="5.28" height="4.03"/>
                <rect class="cls-11" x="200.94" y="94.59" width="7.35" height="4.03"/>
                <rect class="cls-18" x="201.97" y="94.59" width="5.28" height="4.03"/>
                <rect class="cls-11" x="200.94" y="62.9" width="7.35" height="4.03"/>
                <rect class="cls-18" x="201.97" y="62.9" width="5.28" height="4.03"/>
                <rect class="cls-11" x="200.94" y="69.06" width="7.35" height="4.03"/>
                <rect class="cls-18" x="201.97" y="69.06" width="5.28" height="4.03"/>
                <rect class="cls-11" x="200.94" y="75.21" width="7.35" height="4.03"/>
                <rect class="cls-18" x="201.97" y="75.21" width="5.28" height="4.03"/>
                <rect class="cls-11" x="200.94" y="100.74" width="7.35" height="4.03"/>
                <rect class="cls-18" x="201.97" y="100.74" width="5.28" height="4.03"/>
                <rect class="cls-15" x="233.65" y="81.66" width="1.68" height="2.54" transform="translate(317.43 -151.56) rotate(90)"/>
                <rect class="cls-15" x="227.23" y="78.93" width="1.68" height="2.54" transform="translate(308.28 -147.88) rotate(90)"/>
                <rect class="cls-15" x="227.23" y="84.4" width="1.68" height="2.54" transform="translate(313.74 -142.41) rotate(90)"/>
                <rect class="cls-19" x="227.71" y="80.99" width="7.15" height="3.88" transform="translate(314.22 -148.35) rotate(90)"/>
                <rect class="cls-15" x="233.65" y="73.38" width="1.68" height="2.54" transform="translate(309.14 -159.85) rotate(90)"/>
                <rect class="cls-15" x="227.23" y="70.64" width="1.68" height="2.54" transform="translate(299.99 -156.16) rotate(90)"/>
                <rect class="cls-15" x="227.23" y="76.11" width="1.68" height="2.54" transform="translate(305.45 -150.7) rotate(90)"/>
                <rect class="cls-19" x="227.71" y="72.71" width="7.15" height="3.88" transform="translate(305.93 -156.64) rotate(90)"/>
                <rect class="cls-15" x="233.65" y="65.09" width="1.68" height="2.54" transform="translate(300.85 -168.14) rotate(90)"/>
                <rect class="cls-15" x="227.23" y="62.36" width="1.68" height="2.54" transform="translate(291.7 -164.45) rotate(90)"/>
                <rect class="cls-15" x="227.23" y="67.82" width="1.68" height="2.54" transform="translate(297.17 -158.99) rotate(90)"/>
                <rect class="cls-19" x="227.71" y="64.42" width="7.15" height="3.88" transform="translate(297.64 -164.93) rotate(90)"/>
                <rect class="cls-15" x="207.65" y="152.33" width="1.68" height="2.54" transform="translate(362.09 -54.89) rotate(90)"/>
                <rect class="cls-15" x="201.23" y="149.6" width="1.68" height="2.54" transform="translate(352.94 -51.21) rotate(90)"/>
                <rect class="cls-15" x="201.23" y="155.06" width="1.68" height="2.54" transform="translate(358.41 -45.74) rotate(90)"/>
                <rect class="cls-19" x="201.71" y="151.66" width="7.15" height="3.88" transform="translate(358.88 -51.68) rotate(90)"/>
                <path class="cls-13" d="M213.57,132.73v-.66h.51a1.13,1.13,0,0,0,1.13-1.13V120.69a1.14,1.14,0,0,0-1.13-1.13h-.51v-.66h.51a1.79,1.79,0,0,1,1.79,1.79v10.25a1.79,1.79,0,0,1-1.79,1.79Z"/>
                <rect class="cls-15" x="214.27" y="120.68" width="2.54" height="10.41" rx="0.87" transform="translate(431.07 251.76) rotate(180)"/>
                <rect class="cls-20" x="214.27" y="122.17" width="2.54" height="7.42" transform="translate(431.07 251.76) rotate(180)"/>
                <path class="cls-15" d="M233.62,142.11a4,4,0,1,1,4-4A4,4,0,0,1,233.62,142.11Z"/>
                <path class="cls-21" d="M233.62,141.11a3,3,0,1,1,3-3A3,3,0,0,1,233.62,141.11Z"/>
                <path class="cls-15" d="M223.08,142.11a4,4,0,1,1,4-4A4,4,0,0,1,223.08,142.11Z"/>
                <path class="cls-20" d="M223.08,141.11a3,3,0,1,1,3-3A3,3,0,0,1,223.08,141.11Z"/>
                <path class="cls-22" d="M231.17,138.65a3,3,0,0,1,4.84-2.38,3,3,0,1,0-4.21,4.21A3,3,0,0,1,231.17,138.65Z"/>
                <path class="cls-23" d="M220.63,138.65a3,3,0,0,1,4.84-2.38,3,3,0,1,0-4.21,4.21A3,3,0,0,1,220.63,138.65Z"/>
                <rect class="cls-11" x="250.48" y="59.96" width="22.73" height="24.76" transform="translate(189.51 334.18) rotate(-90)"/>
                <rect class="cls-24" x="260.55" y="74.58" width="2.4" height="20.63" transform="translate(176.85 346.65) rotate(-90)"/>
                <rect class="cls-24" x="260.55" y="49.46" width="2.4" height="20.63" transform="translate(201.98 321.52) rotate(-90)"/>
                <rect class="cls-15" x="254.27" y="85.45" width="1.5" height="2.78" transform="translate(168.17 341.86) rotate(-90)"/>
                <rect class="cls-15" x="254.27" y="56.43" width="1.5" height="2.78" transform="translate(197.19 312.84) rotate(-90)"/>
                <polygon class="cls-24" points="253.8 75.36 253.8 69.31 265.07 67.82 265.19 68.69 254.68 70.08 254.68 74.59 265.19 75.98 265.07 76.85 253.8 75.36"/>
                <rect class="cls-11" x="250.48" y="93.5" width="22.73" height="24.76" transform="translate(155.96 367.72) rotate(-90)"/>
                <rect class="cls-24" x="260.55" y="108.13" width="2.4" height="20.63" transform="translate(143.31 380.19) rotate(-90)"/>
                <rect class="cls-24" x="260.55" y="83" width="2.4" height="20.63" transform="translate(168.43 355.06) rotate(-90)"/>
                <rect class="cls-15" x="254.27" y="118.99" width="1.5" height="2.78" transform="translate(134.63 375.4) rotate(-90)"/>
                <rect class="cls-15" x="254.27" y="89.98" width="1.5" height="2.78" transform="translate(163.64 346.38) rotate(-90)"/>
                <polygon class="cls-24" points="253.8 108.9 253.8 102.85 265.07 101.36 265.19 102.24 254.68 103.62 254.68 108.13 265.19 109.52 265.07 110.39 253.8 108.9"/>
                <path class="cls-25" d="M233.8,38.17a2.5,2.5,0,1,1-2.5,2.5,2.5,2.5,0,0,1,2.5-2.5Z"/>
                <path class="cls-25" d="M233.79,25.92a15.29,15.29,0,0,1,10.72,4.45,1.23,1.23,0,1,0,1.54-1.92,17.56,17.56,0,0,0-24.52,0,1.23,1.23,0,1,0,1.54,1.92,15.29,15.29,0,0,1,10.72-4.45Z"/>
                <path class="cls-25" d="M233.79,30.84a10.35,10.35,0,0,1,7.1,2.88c1.43,1.35,2.82-.36,1.88-1.61a12.67,12.67,0,0,0-18,0c-.94,1.25.45,3,1.88,1.61a10.35,10.35,0,0,1,7.1-2.88Z"/>
                <path class="cls-25" d="M233.79,35.76a5.47,5.47,0,0,1,3.76,1.57,1.24,1.24,0,1,0,1.54-1.92,7.71,7.71,0,0,0-10.6,0A1.24,1.24,0,1,0,230,37.33a5.47,5.47,0,0,1,3.76-1.57Z"/>
                <path class="cls-26" d="M62.79,253.22H121a6,6,0,0,0,6-6V169.49a6,6,0,0,1,6-6h53.05"/>
                <rect class="cls-8" x="177.74" y="155.57" width="15.84" height="15.84"/>
                <path class="cls-26" d="M62.79,191.78H96a6,6,0,0,0,6-6V140.34a6,6,0,0,1,6-6h78.05"/>
                <rect class="cls-8" x="177.74" y="126.41" width="15.84" height="15.84"/>
                <path class="cls-26" d="M62.79,130.88H74.12a6,6,0,0,0,6-6V108.73a6,6,0,0,1,6-6h99.94"/>
                <rect class="cls-8" x="177.74" y="94.8" width="15.84" height="15.84"/>
                <line class="cls-26" x1="52.93" y1="69.49" x2="186.06" y2="69.49"/>
                <rect class="cls-8" x="177.74" y="61.56" width="15.84" height="15.84"/>
                <path class="cls-9" d="M327.75,331.85H160.26a10,10,0,0,1-10-10V204.6a10,10,0,0,1,10-10h70l0-40.51,29.72,40.51h67.83a10,10,0,0,1,10,10V321.85A10,10,0,0,1,327.75,331.85Z"/>
                <path d="M178.16,217a1.09,1.09,0,0,0-.67.28,1.52,1.52,0,0,0-1.73.16,1.17,1.17,0,0,0-1.29.37,2.05,2.05,0,0,0-1.87.56c-1.37-.16-1.77.79-1.29,1.68a1.16,1.16,0,0,0,.06,1.63l0,0a1.37,1.37,0,0,0,.46,1.52,1.28,1.28,0,0,0,.63,1.37,1.8,1.8,0,0,0,1.05,1.55,1.48,1.48,0,0,0,1.38,1.25,1.45,1.45,0,0,0,1.37,1,6.4,6.4,0,0,0-3.67,6.41l-.26.47a6.2,6.2,0,0,0-1.63,8.6,5,5,0,0,0,.54.68,16.4,16.4,0,0,0,.85,2.74,6.83,6.83,0,0,0,4.24,5.49,14.17,14.17,0,0,0,4.12,2.31,6.73,6.73,0,0,0,5,2.24h.08a6.73,6.73,0,0,0,5-2.24,14,14,0,0,0,4.12-2.31,6.81,6.81,0,0,0,4.24-5.49,17.42,17.42,0,0,0,.86-2.74,6.19,6.19,0,0,0-.42-8.74,5.75,5.75,0,0,0-.68-.54l-.44-.47a6.39,6.39,0,0,0-3.6-6.31,19.1,19.1,0,0,0,2.75-2.29,1.8,1.8,0,0,0,1-1.55,1.3,1.3,0,0,0,.64-1.37,1.38,1.38,0,0,0,.45-1.53,1.15,1.15,0,0,0,.1-1.63h0c.48-.88,0-1.83-1.29-1.68a2.05,2.05,0,0,0-1.94-.66,1.17,1.17,0,0,0-1.27-.37,1.53,1.53,0,0,0-1.73-.16,1.49,1.49,0,0,0-1.76.07,6.81,6.81,0,0,0-3.21,1h-.53a6.09,6.09,0,0,0-2.42,3.48,6.12,6.12,0,0,0-2.42-3.56h-.53a1.56,1.56,0,0,0-1.71-.68,1.52,1.52,0,0,0-1.53-.26,3.31,3.31,0,0,0-1.06-.35Z"/>
                <path class="cls-27" d="M175.29,220.71a25.53,25.53,0,0,1,7.27,4.93c-.6,2.49-3.88,2.62-5.07,2.55a.92.92,0,0,0,.52-.45,13.75,13.75,0,0,1-2.1-.44.68.68,0,0,0,.56-.33,6.14,6.14,0,0,1-1.89-.78,1.05,1.05,0,0,0,.75-.17,7.38,7.38,0,0,1-1.81-1.12,1.37,1.37,0,0,0,.77-.13,6.63,6.63,0,0,1-1.46-1.18,1,1,0,0,0,.76-.07,5.63,5.63,0,0,1-1.25-1.37.9.9,0,0,0,.87,0,7.1,7.1,0,0,1-1.14-1.37,1.84,1.84,0,0,0,.81,0,3.94,3.94,0,0,0-.73-1.37,14.28,14.28,0,0,0,1.85,0l-.45-.55a3.64,3.64,0,0,1,2,.21c.25-.2,0-.44-.31-.69a7.35,7.35,0,0,1,1.72.43c.26-.25-.2-.47-.41-.75a4.47,4.47,0,0,1,1.79.7c.32-.28,0-.52-.17-.76a4.35,4.35,0,0,1,1.5,1,.53.53,0,0,0,.1-.75v0a3.93,3.93,0,0,1,1.21,1.05.7.7,0,0,0,.19-.75,11.91,11.91,0,0,1,1.37,1.38,1.22,1.22,0,0,0,.22-.61c1.29,1.25,3.11,4.41.47,5.66a25,25,0,0,0-8-4.22Zm20.31,0a25.67,25.67,0,0,0-7.27,4.93c.63,2.49,3.88,2.62,5.08,2.55a.9.9,0,0,1-.47-.47,13.72,13.72,0,0,0,2.1-.43.72.72,0,0,1-.55-.33,6.33,6.33,0,0,0,1.9-.79,1,1,0,0,1-.77-.16,7.73,7.73,0,0,0,1.81-1.13,1.37,1.37,0,0,1-.77-.12,6.93,6.93,0,0,0,1.46-1.18,1,1,0,0,1-.76-.07,5.81,5.81,0,0,0,1.25-1.37,1,1,0,0,1-.87,0,7.1,7.1,0,0,0,1.14-1.37,1.84,1.84,0,0,1-.81,0,4,4,0,0,1,.73-1.38,11.43,11.43,0,0,1-1.85,0l.47-.48a3.78,3.78,0,0,0-2,.21c-.25-.19,0-.44.31-.69a7.79,7.79,0,0,0-1.71.43c-.32-.32.12-.52.36-.8a4.46,4.46,0,0,0-1.8.7c-.32-.29,0-.52.18-.77a4.33,4.33,0,0,0-1.51,1,.54.54,0,0,1-.12-.75l0,0a4,4,0,0,0-1.21,1,.66.66,0,0,1-.19-.74,12.66,12.66,0,0,0-1.37,1.37,1.07,1.07,0,0,1-.22-.6c-1.29,1.25-3.12,4.41-.47,5.66a24.7,24.7,0,0,1,7.92-4.22Z"/>
                <path class="cls-28" d="M190.09,246.2a4.6,4.6,0,1,1-4.62-4.22A4.42,4.42,0,0,1,190.09,246.2Zm-7.25-12.08a4.51,4.51,0,0,1,.77,6.3,4.58,4.58,0,0,1-6.13,1.8,4.92,4.92,0,0,1,5.36-8.1Zm5.13-.24a4.92,4.92,0,1,0,6.12,1.8A4.57,4.57,0,0,0,188,233.88Zm-14.63,2.3c2.06-.55.69,8.49-1,7.75a4.88,4.88,0,0,1-.11-6.91A4.62,4.62,0,0,1,173.34,236.18Zm23.72-.14c-2.06-.55-.69,8.49,1,7.75a4.89,4.89,0,0,0,.12-6.91A5,5,0,0,0,197.06,236Zm-7-6.72c3.54-.61,6.49,1.5,6.37,5.35C196.35,236.18,188.83,229.52,190.09,229.32Zm-9.81-.12c-3.54-.6-6.49,1.51-6.37,5.36C174,236,181.59,229.43,180.28,229.2Zm5.1-.89c-2.12,0-4.1,1.57-4.1,2.51s1.67,2.32,4.1,2.35,4.1-.93,4.1-2.11-2.32-2.75-4.19-2.75Zm.13,23.46c1.84-.08,4.31.59,4.33,1.48s-2.24,2.83-4.45,2.74-4.52-1.86-4.49-2.55c0-1,2.75-1.78,4.61-1.73Zm-6.8-5.3c1.37,1.58,1.89,4.36.8,5.17s-3.55.37-5.33-2.19c-1.2-2.17-1.05-4.35-.2-5,1.26-.77,3.23.27,4.74,2Zm13.35-.51c-1.37,1.66-2.21,4.7-1.18,5.67,1,.76,3.65.66,5.62-2.07a5.22,5.22,0,0,0,.13-5.7c-1.2-.93-2.95.26-4.57,2.1Z"/>
                <path d="M212.06,231.84c.32.06.63.13.94.22a4.42,4.42,0,0,1,1.63,7.46l-.12.11a3.45,3.45,0,0,1,1,1.23,4.07,4.07,0,0,1,.4,1.68,9.09,9.09,0,0,0,.07,1.15.3.3,0,0,0,.13.2,1.14,1.14,0,0,1,.65,1.15,1.16,1.16,0,0,1-1.15,1,1.69,1.69,0,0,1-1.63-1.09,4.81,4.81,0,0,1-.35-1.63,5.76,5.76,0,0,0-.06-1,1.87,1.87,0,0,0-1.15-1.39,2.56,2.56,0,0,0-1.27-.3h-2V245a1.12,1.12,0,0,1-2.21.28V232.75a1.33,1.33,0,0,1,.9-.91h4.23Zm-2.95,4.41v1.92c0,.19,0,.24.23.24h2.23a2,2,0,0,0,.55-.06,2.11,2.11,0,0,0,1.67-2.3,2.17,2.17,0,0,0-2.15-1.9h-2.31c-.19,0-.21.07-.21.22v1.88Zm44.49-4.41a1.16,1.16,0,0,1,.87.8,2.33,2.33,0,0,1,.06.53v3.66a4.94,4.94,0,0,1,6.73,1.15,5.3,5.3,0,0,1,0,6.31,5.08,5.08,0,0,1-1.92,1.58,4.69,4.69,0,0,1-2.48.41,5.25,5.25,0,0,1-2.31-.84,1.12,1.12,0,0,1-2.21-.13V233.24a1.26,1.26,0,0,1,.91-1.39h.35Zm6.48,9.24a3.1,3.1,0,0,0-.13-.74,2.77,2.77,0,0,0-3.32-2,2.94,2.94,0,0,0-1.72,4.29,2.73,2.73,0,0,0,2.85,1.4,2.91,2.91,0,0,0,2.33-2.95Zm-19.58,9.11a3.88,3.88,0,0,1-.58-.42,1,1,0,0,1-.25-.72V237.13a1.14,1.14,0,0,1,.87-1.15,1.15,1.15,0,0,1,1.34.74v.06a5,5,0,0,1,4.61-.49,4.85,4.85,0,0,1,2.4,2,5.22,5.22,0,0,1-.42,6.2,4.81,4.81,0,0,1-3.09,1.69,4.88,4.88,0,0,1-3.46-.79V249a1.15,1.15,0,0,1-.83,1.15h-.59Zm6.93-9a3.17,3.17,0,0,0-.48-1.64,2.68,2.68,0,0,0-3.68-.9,2.42,2.42,0,0,0-.36.27,3.13,3.13,0,0,0-.21,4.34,2.67,2.67,0,0,0,2.66.77,2.9,2.9,0,0,0,2.1-2.83Zm61.26-9.32c.31.06.62.13.93.22a4.29,4.29,0,0,1,3.07,3.75,4.38,4.38,0,0,1-3.62,4.81,7.4,7.4,0,0,1-.81.08h-2.53v4.49a1.15,1.15,0,0,1-2.18.46,1.13,1.13,0,0,1-.09-.45V233a1.16,1.16,0,0,1,.83-1.08h4.41Zm-3,4.4v2c0,.11,0,.19.15.18h2.7a2.06,2.06,0,0,0,1.85-2.1,2.15,2.15,0,0,0-2.16-2.12H306c-.17,0-.2,0-.2.2Zm10.77,9a.38.38,0,0,1-.07.27,1.15,1.15,0,0,1-2.18-.3v-8.09a1.17,1.17,0,0,1,1.4-.85,1.19,1.19,0,0,1,.81.73.09.09,0,0,0,0,.07v8.16Zm0-11.81a3.17,3.17,0,0,1-.12.44,1.11,1.11,0,0,1-2.12-.43,4.7,4.7,0,0,1,0-.75,1.15,1.15,0,0,1,.89-.85h.43a1.13,1.13,0,0,1,.79.67,1.3,1.3,0,0,0,.12.4v.52Zm-19,12.44a12.49,12.49,0,0,1-1.37.35,4.11,4.11,0,0,1-3.46-1.15,4.27,4.27,0,0,1-1.38-3.27v-4.77a1.14,1.14,0,0,1,.8-1.06,1,1,0,0,1,1.23.52,1.56,1.56,0,0,1,.13.68v4.74a2.08,2.08,0,0,0,1.45,2,2.17,2.17,0,0,0,2.38-.84,2.06,2.06,0,0,0,.36-1.15v-4.87a1.08,1.08,0,0,1,.76-1.1,1.15,1.15,0,0,1,1.27.51,1.21,1.21,0,0,1,.13.56V245a4.88,4.88,0,0,1-4.95,4.83,4.75,4.75,0,0,1-2.09-.49,1.06,1.06,0,0,1,.39-2,1.18,1.18,0,0,1,.56.12,2.71,2.71,0,0,0,3.62-1.29Zm-72.18-9a3.12,3.12,0,0,1,.31-.49,1,1,0,0,1,1.15-.33,1.17,1.17,0,0,1,.76,1v8.1a1.09,1.09,0,0,1-1,1.15,1.08,1.08,0,0,1-1.09-.56c0-.1-.09-.19-.14-.3a4.8,4.8,0,0,1-6.69-1.16A5.05,5.05,0,0,1,218,243a5.22,5.22,0,0,1,.68-5.11,4.63,4.63,0,0,1,4.44-1.91,4.51,4.51,0,0,1,2,.74Zm-5.46,4.5a5.55,5.55,0,0,0,.13.8,2.66,2.66,0,0,0,4.48,1.1,3.18,3.18,0,0,0,0-4.21,2.6,2.6,0,0,0-3.38-.43,3.06,3.06,0,0,0-1.23,2.74Zm46.66.53a2.7,2.7,0,0,0,1.34,1.86,3.36,3.36,0,0,0,3.14.11,1.73,1.73,0,0,0,.43-.27,1,1,0,0,1,1.48.06,1,1,0,0,1,.26.53.8.8,0,0,1-.27.77,5.21,5.21,0,1,1-5.41-8.69,4.92,4.92,0,0,1,6.63,3.85,3.85,3.85,0,0,1,.08.58,1,1,0,0,1-.29.86,1,1,0,0,1-.86.29h-6.53Zm5.77-1.76a3.3,3.3,0,0,0-3.23-2.23,2.81,2.81,0,0,0-2.62,2.17h5.77ZM233.82,236a4.73,4.73,0,0,1,2.43.7l.67.43a1.11,1.11,0,1,1-1.27,1.81,4.54,4.54,0,0,0-1.41-.7,2.05,2.05,0,0,0-1.73.32,1.29,1.29,0,0,0-.17.16.37.37,0,0,0-.14.35.38.38,0,0,0,.22.3,3.45,3.45,0,0,0,1.29.47,8.78,8.78,0,0,1,2.59.86,2.73,2.73,0,0,1,.67,4.37,4.09,4.09,0,0,1-2.31,1.16,5.58,5.58,0,0,1-4.62-1.39,1.15,1.15,0,0,1-.15-1.43,1.08,1.08,0,0,1,1.48-.35l0,0a1.85,1.85,0,0,1,.27.19,3.75,3.75,0,0,0,2,.85,2.6,2.6,0,0,0,1.5-.34.74.74,0,0,0,.23-.2.51.51,0,0,0,.13-.72.5.5,0,0,0-.24-.19,5.31,5.31,0,0,0-1.81-.61,6.14,6.14,0,0,1-2.23-.83A2.61,2.61,0,0,1,231,237a3.92,3.92,0,0,1,2.31-1Zm44.47,1.18a3.65,3.65,0,0,1,1.91-1,5.64,5.64,0,0,1,1.16-.12,1,1,0,0,1,1,1.07,1.07,1.07,0,0,1-1,1.07,2.58,2.58,0,0,0-2.13,1.15,6.73,6.73,0,0,0-.89,1.59,2.17,2.17,0,0,0-.15.79v3.52a1.15,1.15,0,0,1-2.18.29.91.91,0,0,1,0-.33v-8.1a1.06,1.06,0,0,1,.81-1.09,1.15,1.15,0,0,1,1.24.48,3.32,3.32,0,0,1,.23.67Zm8,0a3.92,3.92,0,0,1,2.18-1.16,3.7,3.7,0,0,1,1.15,0,1,1,0,0,1,.76,1.08,1.07,1.07,0,0,1-1.05,1,2.55,2.55,0,0,0-2.05,1.16,5.75,5.75,0,0,0-.94,1.74,1.62,1.62,0,0,0-.08.49v3.58a1.14,1.14,0,0,1-1,1.21,1.08,1.08,0,0,1-1.22-.91v-8.44a.91.91,0,0,1,.62-.86,1.17,1.17,0,0,1,1.52.6,1.29,1.29,0,0,1,.1.51Z"/>
                <path class="cls-29" d="M225.38,290.38q0-6.61-3.78-6.8a7,7,0,0,0-2.93.48,4.32,4.32,0,0,0-1.54.81v10.54a7.43,7.43,0,0,0,4.29,1.4Q225.38,296.55,225.38,290.38Zm3.11.18a9.35,9.35,0,0,1-1.59,5.59,5.83,5.83,0,0,1-4.9,2.58,8.74,8.74,0,0,1-4.87-1.47v9.57l-2.7-1V284.61a6.12,6.12,0,0,1,1.71-1.4,11.64,11.64,0,0,1,5.86-1.44l0,0a5.38,5.38,0,0,1,4.85,2.59,11,11,0,0,1,1.6,6.17Zm16.5,6.29q0,4.51-.91,6.25a6.33,6.33,0,0,1-3.45,2.77,13.38,13.38,0,0,1-4.48.89l-.44-1.7a21.25,21.25,0,0,0,3.43-.67,4.57,4.57,0,0,0,2.71-2,10.31,10.31,0,0,0,.59-4.25v-.7a14.06,14.06,0,0,1-5.81,1.25,5.37,5.37,0,0,1-3.51-1.25,4.28,4.28,0,0,1-1.7-3.48V282.69l2.7-.92v11.31a3.43,3.43,0,0,0,1.17,2.79,4.39,4.39,0,0,0,3,.94,7.5,7.5,0,0,0,4-1.44v-13.2H245v14.68Zm10.54,1.74c-.3,0-.59,0-.89,0a5.31,5.31,0,0,1-3.57-1.09,3.77,3.77,0,0,1-1.27-3V283.87H248v-1.7h1.85v-4.51l2.7-1v5.47h3v1.7h-3v10.57a2.57,2.57,0,0,0,.81,2.15,4.19,4.19,0,0,0,2.22.59v1.41Zm16.35-.23h-2.7V287.94a4.93,4.93,0,0,0-.74-2.73,2.69,2.69,0,0,0-2.38-1.3,8.69,8.69,0,0,0-4.64,2v12.49h-2.7V273.45l2.7-.85V284a9.37,9.37,0,0,1,5.65-1.89,4.53,4.53,0,0,1,3.48,1.44,5.08,5.08,0,0,1,1.33,3.59v11.27Zm14.35-8.4a8.33,8.33,0,0,0-1-4.21,4,4,0,0,0-3.55-2.13q-4.44.25-4.44,6.35a10.49,10.49,0,0,0,.93,4.68,3.74,3.74,0,0,0,3.56,2.35c3,0,4.46-2.37,4.46-7Zm3,0a9.61,9.61,0,0,1-1.85,6,6.65,6.65,0,0,1-5.62,2.7,6.52,6.52,0,0,1-5.55-2.7,9.71,9.71,0,0,1-1.81-6,8.61,8.61,0,0,1,2-5.73,6.74,6.74,0,0,1,5.44-2.47,6.84,6.84,0,0,1,5.47,2.47,8.61,8.61,0,0,1,2,5.73Zm15.48,8.39H302v-11a3.67,3.67,0,0,0-1.09-2.83,4,4,0,0,0-2.9-1,6.55,6.55,0,0,0-3.66,1.26v13.56h-2.7v-13.9a12.39,12.39,0,0,1,7.54-2.69A8.68,8.68,0,0,1,301,282a5.22,5.22,0,0,1,2.59,1.37,3.63,3.63,0,0,1,1.11,2.66v12.38Z"/>
                <path class="cls-30" d="M187.76,273.55a23.2,23.2,0,0,0-3.88.33c-3.44.61-4.06,1.88-4.06,4.23v3.09h8.12v1H176.77a5.07,5.07,0,0,0-5.08,4.12,15.15,15.15,0,0,0,0,8.26c.58,2.4,2,4.12,4.32,4.12h2.79V295a5.17,5.17,0,0,1,5.08-5H192a4.09,4.09,0,0,0,4.06-4.12v-7.74a4.54,4.54,0,0,0-4.06-4.23,25.32,25.32,0,0,0-4.24-.33ZM183.37,276a1.55,1.55,0,1,1-1.53,1.55,1.54,1.54,0,0,1,1.53-1.55Z"/>
                <path class="cls-31" d="M197.07,282.24v3.6A5.21,5.21,0,0,1,192,291h-8.12a4.14,4.14,0,0,0-4.06,4.13v7.74c0,2.2,1.91,3.49,4.06,4.13a13.68,13.68,0,0,0,8.12,0c2-.6,4.06-1.79,4.06-4.13v-3.1h-8.12v-1h12.18c2.37,0,3.25-1.65,4.07-4.12a14,14,0,0,0,0-8.26c-.59-2.36-1.7-4.12-4.07-4.12Zm-4.56,19.59a1.55,1.55,0,1,1-1.53,1.55A1.53,1.53,0,0,1,192.51,301.83Z"/>
                <path class="cls-29" d="M309.93,279.77h.47v-3h1.13v-.36h-2.72v.36h1.12v3m2,0h.4v-2.72l.88,2.72h.45l.91-2.71v2.71H315v-3.33h-.58l-1,2.85-.85-2.85H312v3.33"/>
            </g>
        </g>
    </g>
</svg>