<svg xmlns="http://www.w3.org/2000/svg" viewBox="0 0 888.38 247.85">
    <defs>
        <style>
        @import url("/css/font.css");
        .cls-1,.cls-6{fill:none;}
        .cls-1,.cls-4,.cls-6{stroke:#444;stroke-miterlimit:10;}
        .cls-1{stroke-dasharray:2 4;}
        .cls-2{font-size:14px;text-shadow: 0 0 1px #cccccc;font-family:NanumSquareR, NanumSquare;}
        .cls-2,.cls-5{fill:#444;}
        .cls-3{font-size:24px;fill:#00bce7;font-family:NanumSquare;font-weight: 700;}
        .cls-4{fill:#fff;}
        .cls-4,.cls-6{stroke-width:2px;}
        .cls-7{letter-spacing:-0.01em;}</style>
    </defs>
    <g id="레이어_2" data-name="레이어 2">
        <g id="Layer_1" data-name="Layer 1">
            <g id="img_water_monitoring">
                <line class="cls-1" x1="213.89" y1="94.92" x2="238.9" y2="147.59"/>
                <line class="cls-1" x1="292.86" y1="94.92" x2="267.86" y2="147.59"/>
                <line class="cls-1" x1="87.31" y1="222.03" x2="194.48" y2="222.03"/>
                <line class="cls-1" x1="87.31" y1="145.86" x2="194.48" y2="195.86"/>
                <line class="cls-1" x1="87.31" y1="69.69" x2="194.48" y2="159.7"/>
                <line class="cls-1" x1="420.48" y1="222.03" x2="313.32" y2="222.03"/>
                <line class="cls-1" x1="420.48" y1="145.86" x2="313.32" y2="195.86"/>
                <line class="cls-1" x1="420.48" y1="69.69" x2="313.32" y2="159.7"/>
                <text class="cls-2" transform="translate(583.58 61.06)">- 다중 수질 측정기에서 분당 1회 데이터 수신<tspan x="0" y="30">- 수질 데이터 저장 및 관리 서비스</tspan>
                    <tspan x="0" y="60">- 웹 인터페이스를 통한 센서 데이터 조회 및 통계 기능</tspan>
                    <tspan x="0" y="90">- 차트 시각화 기능</tspan>
                </text>
                <text class="cls-3" transform="translate(583.58 19.21)">모니터링 서비스</text>
                <text class="cls-2" transform="translate(2.57 11.06)">수질측정기</text>
                <text class="cls-2" transform="translate(435.58 11.06)">웹 브라우저</text>
                <text class="cls-2" transform="translate(184.67 11.06)">웹서버</text>
                <rect class="cls-4" x="443.81" y="37.71" width="50.7" height="38.48"/>
                <line class="cls-4" x1="443.81" y1="46.62" x2="494.51" y2="46.62"/>
                <circle class="cls-5" cx="449.9" cy="42.16" r="1.58"/>
                <circle class="cls-5" cx="456.29" cy="42.16" r="1.58"/>
                <line class="cls-4" x1="450.9" y1="70.95" x2="450.9" y2="64.4"/>
                <line class="cls-4" x1="455.72" y1="70.95" x2="455.72" y2="61.51"/>
                <line class="cls-4" x1="460.53" y1="70.95" x2="460.53" y2="54.58"/>
                <line class="cls-4" x1="465.34" y1="70.95" x2="465.34" y2="63.75"/>
                <circle class="cls-4" cx="479.77" cy="61.56" r="8.69"/>
                <polyline class="cls-4" points="479.77 52.88 479.77 61.56 484.14 69.06"/>
                <rect class="cls-4" x="443.81" y="122.12" width="50.7" height="38.48"/>
                <line class="cls-4" x1="443.81" y1="131.03" x2="494.51" y2="131.03"/>
                <circle class="cls-5" cx="449.9" cy="126.57" r="1.58"/>
                <circle class="cls-5" cx="456.29" cy="126.57" r="1.58"/>
                <line class="cls-4" x1="450.9" y1="155.36" x2="450.9" y2="141.36"/>
                <line class="cls-4" x1="455.72" y1="155.36" x2="455.72" y2="145.92"/>
                <line class="cls-4" x1="460.53" y1="155.36" x2="460.53" y2="148.36"/>
                <line class="cls-4" x1="465.34" y1="155.36" x2="465.34" y2="143.44"/>
                <circle class="cls-4" cx="479.77" cy="145.97" r="8.69"/>
                <polyline class="cls-4" points="479.77 137.29 479.77 145.97 475.39 153.47"/>
                <rect class="cls-4" x="443.81" y="206.52" width="50.7" height="38.48"/>
                <line class="cls-4" x1="443.81" y1="215.43" x2="494.51" y2="215.43"/>
                <circle class="cls-5" cx="449.9" cy="210.98" r="1.58"/>
                <circle class="cls-5" cx="456.29" cy="210.98" r="1.58"/>
                <line class="cls-4" x1="450.9" y1="239.77" x2="450.9" y2="233.22"/>
                <line class="cls-4" x1="455.72" y1="239.77" x2="455.72" y2="220.69"/>
                <line class="cls-4" x1="460.53" y1="239.77" x2="460.53" y2="234.19"/>
                <line class="cls-4" x1="465.34" y1="239.77" x2="465.34" y2="232.57"/>
                <circle class="cls-4" cx="479.77" cy="230.38" r="8.69"/>
                <polyline class="cls-4" points="484.14 222.89 479.77 230.38 484.14 237.88"/>
                <path class="cls-4" d="M36.2,48.79v11.9a4.58,4.58,0,0,0,1,2.9l3.94,4.74V81.91a4.53,4.53,0,0,0,4.53,4.53H55.78a4.53,4.53,0,0,0,4.53-4.53V68.33l3.94-4.74a4.58,4.58,0,0,0,1-2.9V48.79a4.53,4.53,0,0,0-4.53-4.53h-20A4.53,4.53,0,0,0,36.2,48.79Z"/>
                <rect class="cls-4" x="41.18" y="49.77" width="19.13" height="11.85" rx="2.36"/>
                <line class="cls-6" x1="46.28" y1="68.53" x2="46.28" y2="70.96"/>
                <line class="cls-6" x1="50.74" y1="68.53" x2="50.74" y2="70.96"/>
                <line class="cls-6" x1="55.21" y1="68.53" x2="55.21" y2="70.96"/>
                <line class="cls-6" x1="46.28" y1="73.55" x2="46.28" y2="75.99"/>
                <line class="cls-6" x1="50.74" y1="73.55" x2="50.74" y2="75.99"/>
                <line class="cls-6" x1="55.21" y1="73.55" x2="55.21" y2="75.99"/>
                <line class="cls-6" x1="46.28" y1="78.57" x2="46.28" y2="81.01"/>
                <line class="cls-6" x1="50.74" y1="78.57" x2="50.74" y2="81.01"/>
                <line class="cls-6" x1="55.21" y1="78.57" x2="55.21" y2="81.01"/>
                <path class="cls-6" d="M0,75.14c3.62,0,3.62,2.36,7.24,2.36s3.61-2.36,7.23-2.36,3.62,2.36,7.24,2.36,3.62-2.36,7.25-2.36,3.62,2.36,7.24,2.36"/>
                <path class="cls-6" d="M0,67.38c3.62,0,3.62,2.36,7.24,2.36s3.61-2.36,7.23-2.36,3.62,2.36,7.24,2.36,3.62-2.36,7.25-2.36,3.62,2.36,7.24,2.36"/>
                <path class="cls-6" d="M0,82.89c3.62,0,3.62,2.37,7.24,2.37s3.61-2.37,7.23-2.37,3.62,2.37,7.24,2.37,3.62-2.37,7.25-2.37,3.62,2.37,7.24,2.37"/>
                <path class="cls-6" d="M18.1,57V41.16a9.46,9.46,0,0,1,9.45-9.46H41.29a9.46,9.46,0,0,1,9.45,9.46v3.1"/>
                <rect class="cls-4" x="14.04" y="56.95" width="8.13" height="23.16" rx="3.55"/>
                <path class="cls-4" d="M36.2,129V140.9a4.53,4.53,0,0,0,1,2.89l3.94,4.75v13.58a4.53,4.53,0,0,0,4.53,4.53H55.78a4.53,4.53,0,0,0,4.53-4.53V148.54l3.94-4.75a4.53,4.53,0,0,0,1-2.89V129a4.52,4.52,0,0,0-4.53-4.52h-20A4.52,4.52,0,0,0,36.2,129Z"/>
                <rect class="cls-4" x="41.18" y="129.97" width="19.13" height="11.85" rx="2.36"/>
                <line class="cls-6" x1="46.28" y1="148.73" x2="46.28" y2="151.17"/>
                <line class="cls-6" x1="50.74" y1="148.73" x2="50.74" y2="151.17"/>
                <line class="cls-6" x1="55.21" y1="148.73" x2="55.21" y2="151.17"/>
                <line class="cls-6" x1="46.28" y1="153.76" x2="46.28" y2="156.19"/>
                <line class="cls-6" x1="50.74" y1="153.76" x2="50.74" y2="156.19"/>
                <line class="cls-6" x1="55.21" y1="153.76" x2="55.21" y2="156.19"/>
                <line class="cls-6" x1="46.28" y1="158.78" x2="46.28" y2="161.22"/>
                <line class="cls-6" x1="50.74" y1="158.78" x2="50.74" y2="161.22"/>
                <line class="cls-6" x1="55.21" y1="158.78" x2="55.21" y2="161.22"/>
                <path class="cls-6" d="M0,155.34c3.62,0,3.62,2.37,7.24,2.37s3.61-2.37,7.23-2.37,3.62,2.37,7.24,2.37,3.62-2.37,7.25-2.37,3.62,2.37,7.24,2.37"/>
                <path class="cls-6" d="M0,147.59c3.62,0,3.62,2.36,7.24,2.36s3.61-2.36,7.23-2.36S18.09,150,21.71,150s3.62-2.36,7.25-2.36S32.58,150,36.2,150"/>
                <path class="cls-6" d="M0,163.1c3.62,0,3.62,2.36,7.24,2.36s3.61-2.36,7.23-2.36,3.62,2.36,7.24,2.36,3.62-2.36,7.25-2.36,3.62,2.36,7.24,2.36"/>
                <path class="cls-6" d="M18.1,137.16V121.37a9.46,9.46,0,0,1,9.45-9.46H41.29a9.46,9.46,0,0,1,9.45,9.46v3.1"/>
                <rect class="cls-4" x="14.04" y="137.16" width="8.13" height="23.16" rx="3.55"/>
                <path class="cls-4" d="M36.2,209.2v11.91a4.53,4.53,0,0,0,1,2.89l3.94,4.74v13.59a4.52,4.52,0,0,0,4.53,4.52H55.78a4.52,4.52,0,0,0,4.53-4.52V228.74L64.25,224a4.53,4.53,0,0,0,1-2.89V209.2a4.53,4.53,0,0,0-4.53-4.53h-20A4.53,4.53,0,0,0,36.2,209.2Z"/>
                <rect class="cls-4" x="41.18" y="210.18" width="19.13" height="11.85" rx="2.36"/>
                <line class="cls-6" x1="46.28" y1="228.94" x2="46.28" y2="231.38"/>
                <line class="cls-6" x1="50.74" y1="228.94" x2="50.74" y2="231.38"/>
                <line class="cls-6" x1="55.21" y1="228.94" x2="55.21" y2="231.38"/>
                <line class="cls-6" x1="46.28" y1="233.96" x2="46.28" y2="236.4"/>
                <line class="cls-6" x1="50.74" y1="233.96" x2="50.74" y2="236.4"/>
                <line class="cls-6" x1="55.21" y1="233.96" x2="55.21" y2="236.4"/>
                <line class="cls-6" x1="46.28" y1="238.99" x2="46.28" y2="241.42"/>
                <line class="cls-6" x1="50.74" y1="238.99" x2="50.74" y2="241.42"/>
                <line class="cls-6" x1="55.21" y1="238.99" x2="55.21" y2="241.42"/>
                <path class="cls-6" d="M0,235.55c3.62,0,3.62,2.37,7.24,2.37s3.61-2.37,7.23-2.37,3.62,2.37,7.24,2.37,3.62-2.37,7.25-2.37,3.62,2.37,7.24,2.37"/>
                <path class="cls-6" d="M0,227.8c3.62,0,3.62,2.36,7.24,2.36s3.61-2.36,7.23-2.36,3.62,2.36,7.24,2.36,3.62-2.36,7.25-2.36,3.62,2.36,7.24,2.36"/>
                <path class="cls-6" d="M0,243.31c3.62,0,3.62,2.36,7.24,2.36s3.61-2.36,7.23-2.36,3.62,2.36,7.24,2.36,3.62-2.36,7.25-2.36,3.62,2.36,7.24,2.36"/>
                <path class="cls-6" d="M18.1,217.36V201.57a9.45,9.45,0,0,1,9.45-9.45H41.29a9.45,9.45,0,0,1,9.45,9.45v3.1"/>
                <rect class="cls-4" x="14.04" y="217.36" width="8.13" height="23.16" rx="3.55"/>
                <rect class="cls-4" x="197.67" y="31.72" width="24.76" height="40.81"/>
                <line class="cls-4" x1="203.93" y1="38.81" x2="216.09" y2="38.81"/>
                <line class="cls-4" x1="203.93" y1="45.01" x2="216.09" y2="45.01"/>
                <rect class="cls-4" x="185.36" y="38.84" width="24.76" height="40.81"/>
                <circle class="cls-4" cx="197.74" cy="61.87" r="2.62"/>
                <line class="cls-4" x1="191.62" y1="45.93" x2="203.78" y2="45.93"/>
                <line class="cls-4" x1="191.62" y1="52.13" x2="203.78" y2="52.13"/>
                <path class="cls-4" d="M282,189.28l-.46,0a14.58,14.58,0,0,0-16.82-10.75,20.44,20.44,0,0,0-39,8.54c0,.08,0,.17,0,.26h0v1.92a9.12,9.12,0,0,0,0,18.24H282a9.12,9.12,0,1,0,0-18.24Z"/>
                <circle class="cls-4" cx="253.9" cy="221.75" r="4.94"/>
                <line class="cls-4" x1="229.98" y1="221.75" x2="248.96" y2="221.75"/>
                <line class="cls-4" x1="258.83" y1="221.75" x2="277.82" y2="221.75"/>
                <line class="cls-4" x1="253.86" y1="207.52" x2="253.86" y2="216.77"/>
                <line class="cls-4" x1="471.91" y1="226.68" x2="479.77" y2="230.38"/>
                <text class="cls-2" transform="translate(271.31 11.06)">DB Ser<tspan class="cls-7" x="43.05" y="0">v</tspan>
                    <tspan x="49.99" y="0">er</tspan>
                </text>
                <line class="cls-4" x1="282.98" y1="78.31" x2="299.58" y2="78.31"/>
                <line class="cls-4" x1="308.22" y1="78.31" x2="324.82" y2="78.31"/>
                <line class="cls-4" x1="303.86" y1="65.87" x2="303.86" y2="73.95"/>
                <circle class="cls-4" cx="303.9" cy="78.31" r="4.32"/>
                <rect class="cls-4" x="292.08" y="30.62" width="23.64" height="35.25"/>
                <circle class="cls-4" cx="303.9" cy="52.6" r="2.5"/>
                <line class="cls-4" x1="298.06" y1="37.38" x2="309.67" y2="37.38"/>
                <line class="cls-4" x1="298.06" y1="43.3" x2="309.67" y2="43.3"/>
            </g>
        </g>
    </g>
</svg>