<svg xmlns="http://www.w3.org/2000/svg" viewBox="0 0 301.064 509.704">
    <defs>
        <style>
            .cls-22,.cls-23{fill:none}.cls-29{stroke:#444}.cls-22,.cls-23,.cls-29{stroke-miterlimit:10}.cls-3{fill:#d2d2d2}.cls-29,.cls-4{fill:#fff}.cls-21,.cls-5{fill:#444}.cls-5{font-size:14px;font-family:NanumSquareR,NanumSquare}.cls-6{fill:#0e473e}.cls-7{fill:#d4cec2}.cls-8{fill:#d89122}.cls-9{fill:#166d5b}.cls-11{fill:#d5cfd5}.cls-12{fill:#bfbabf}.cls-13{fill:#9c979c}.cls-14{fill:#3f3f3f}.cls-15{fill:#312f30}.cls-16{fill:#a20}.cls-20{fill:#a09e9f}.cls-21{fill-rule:evenodd}.cls-22{stroke:#eee;stroke-width:6.067px}.cls-23{stroke:#d2d2d2;stroke-width:5.2px}.cls-26{fill:#646464}.cls-29{stroke-width:2px}
        </style>
    </defs>
    <g id="그룹_294" transform="translate(-29.5 -688.511)">
        <path id="선_133" fill="none" stroke="#444" stroke-dasharray="2 4" stroke-miterlimit="10" d="M0 0L0 66.147" transform="translate(180.032 983.065)"/>
        <g id="그룹_155" transform="translate(-1282.213)">
            <rect id="사각형_37" width="300.064" height="295.349" fill="none" stroke="#444" stroke-miterlimit="10" rx="18.389" transform="translate(1312.213 689.011)"/>
            <path id="패스_56" d="M1365.891 854.543a17.383 17.383 0 0 1-17.628 17.353 17.755 17.755 0 0 1-17.628-17.663 17.382 17.382 0 0 1 17.628-17.352 17.756 17.756 0 0 1 17.628 17.662z" class="cls-3"/>
            <g id="그룹_87">
                <path id="패스_57" d="M1351.329 851.358a.447.447 0 0 0-.438-.014l-.736.383-4.206-.037a.438.438 0 0 0-.445.438v1.778a3.811 3.811 0 0 1-1.893-.413 2.925 2.925 0 0 0-3.177.283 1.819 1.819 0 0 1-1.253.457 1.855 1.855 0 0 1-1.253-.479 2.71 2.71 0 0 0-1.781-.656.439.439 0 0 0-.444.438.447.447 0 0 0 .444.445 1.856 1.856 0 0 1 1.254.48 2.707 2.707 0 0 0 1.78.655 2.666 2.666 0 0 0 1.781-.624 1.826 1.826 0 0 1 1.253-.457 1.779 1.779 0 0 1 .992.241 4.651 4.651 0 0 0 2.3.513v1.793a.448.448 0 0 0 .445.445l4.206.037.736.4a.458.458 0 0 0 .209.054.443.443 0 0 0 .229-.062.435.435 0 0 0 .216-.376v-5.337a.447.447 0 0 0-.219-.385zm-.673 4.974l-.18-.1a.448.448 0 0 0-.209-.054l-3.873-.034v-3.57l3.873.034a.444.444 0 0 0 .209-.05l.18-.093z" class="cls-4"/>
                <path id="패스_58" d="M1358.669 848.638a.447.447 0 0 0-.626-.061.439.439 0 0 0-.055.623 8.3 8.3 0 0 1 1.946 5.322 8.172 8.172 0 0 1-1.9 5.23.442.442 0 0 0 .06.623.453.453 0 0 0 .283.1.439.439 0 0 0 .343-.158 9.048 9.048 0 0 0 2.1-5.79 9.191 9.191 0 0 0-2.151-5.889z" class="cls-4"/>
                <path id="패스_59" d="M1357.377 849.692a.449.449 0 0 0-.627-.059.438.438 0 0 0-.054.621 6.63 6.63 0 0 1 1.558 4.253 6.526 6.526 0 0 1-1.511 4.17.441.441 0 0 0 .061.622.447.447 0 0 0 .283.1.437.437 0 0 0 .343-.158 7.4 7.4 0 0 0 1.713-4.73 7.514 7.514 0 0 0-1.766-4.819z" class="cls-4"/>
                <path id="패스_60" d="M1356.085 850.748a.448.448 0 0 0-.627-.06.44.44 0 0 0-.053.622 4.954 4.954 0 0 1 1.168 3.182 4.877 4.877 0 0 1-1.124 3.11.44.44 0 0 0 .062.622.447.447 0 0 0 .281.1.439.439 0 0 0 .344-.159 5.748 5.748 0 0 0 1.326-3.668 5.834 5.834 0 0 0-1.377-3.749z" class="cls-4"/>
                <path id="패스_61" d="M1353.5 852.855a.447.447 0 0 0-.628-.053.44.44 0 0 0-.047.622 1.6 1.6 0 0 1 .387 1.038 1.557 1.557 0 0 1-.353.993.442.442 0 0 0 .067.622.456.456 0 0 0 .28.1.441.441 0 0 0 .346-.162 2.453 2.453 0 0 0 .55-1.544 2.484 2.484 0 0 0-.602-1.616z" class="cls-4"/>
                <path id="패스_62" d="M1354.792 851.8a.445.445 0 0 0-.626-.057.439.439 0 0 0-.052.622 3.275 3.275 0 0 1 .778 2.11 3.226 3.226 0 0 1-.738 2.051.44.44 0 0 0 .064.622.458.458 0 0 0 .28.1.444.444 0 0 0 .346-.161 4.1 4.1 0 0 0 .937-2.606 4.158 4.158 0 0 0-.989-2.681z" class="cls-4"/>
            </g>
            <path id="패스_63" d="M1348.418 731.08a17.382 17.382 0 0 1 17.352 17.628 17.755 17.755 0 0 1-17.662 17.627 17.383 17.383 0 0 1-17.353-17.627 17.756 17.756 0 0 1 17.663-17.628z" class="cls-3"/>
            <g id="그룹_88">
                <path id="패스_64" d="M1348.262 762.056a7.4 7.4 0 0 1-7.337-7.352 7.191 7.191 0 0 1 3.082-5.91v-9.276a4.17 4.17 0 0 1 4.224-4.159 4.26 4.26 0 0 1 4.225 4.234v9.234a7.323 7.323 0 0 1 3.144 6.006 7.244 7.244 0 0 1-7.338 7.223zm-.031-25.813a3.291 3.291 0 0 0-3.334 3.283v9.508a.439.439 0 0 1-.2.367 6.318 6.318 0 0 0-2.884 5.311 6.5 6.5 0 0 0 6.447 6.461 6.368 6.368 0 0 0 6.449-6.348 6.444 6.444 0 0 0-2.941-5.4.444.444 0 0 1-.2-.372v-9.47a3.363 3.363 0 0 0-3.337-3.34z" class="cls-4"/>
                <path id="패스_65" d="M1348.262 759.258a4.483 4.483 0 0 1-4.446-4.456 4.353 4.353 0 0 1 2.47-3.934v-9.981a1.951 1.951 0 0 1 1.976-1.945 1.993 1.993 0 0 1 1.977 1.981v9.977a4.448 4.448 0 0 1 2.471 3.979 4.39 4.39 0 0 1-4.448 4.379zm0-19.433a1.073 1.073 0 0 0-1.087 1.07v10.265a.437.437 0 0 1-.273.405 3.485 3.485 0 0 0-2.2 3.245 3.587 3.587 0 0 0 3.557 3.565 3.511 3.511 0 0 0 3.558-3.5 3.563 3.563 0 0 0-2.2-3.284.447.447 0 0 1-.275-.41v-10.267a1.1 1.1 0 0 0-1.08-1.089z" class="cls-4"/>
                <path id="패스_66" d="M1348.507 741.986h-.534a.449.449 0 0 1-.445-.446.439.439 0 0 1 .445-.438l.534.005a.448.448 0 0 1 .445.445.438.438 0 0 1-.445.434z" class="cls-4"/>
                <path id="패스_67" d="M1348.507 743.618l-.534-.005a.448.448 0 0 1-.445-.445.44.44 0 0 1 .445-.438l.534.005a.447.447 0 0 1 .445.445.438.438 0 0 1-.445.438z" class="cls-4"/>
                <path id="패스_68" d="M1348.507 745.249h-.534a.448.448 0 0 1-.445-.446.439.439 0 0 1 .445-.437h.534a.449.449 0 0 1 .445.446.437.437 0 0 1-.445.437z" class="cls-4"/>
                <path id="패스_69" d="M1348.507 746.881h-.534a.449.449 0 0 1-.445-.445.44.44 0 0 1 .445-.439l.534.005a.448.448 0 0 1 .445.446.438.438 0 0 1-.445.433z" class="cls-4"/>
                <path id="패스_70" d="M1348.507 748.513l-.534-.005a.448.448 0 0 1-.445-.445.439.439 0 0 1 .445-.438h.534a.448.448 0 0 1 .445.446.439.439 0 0 1-.445.442z" class="cls-4"/>
                <path id="패스_71" d="M1348.507 750.145l-.534-.005a.448.448 0 0 1-.445-.445.439.439 0 0 1 .445-.438h.534a.448.448 0 0 1 .445.446.439.439 0 0 1-.445.442z" class="cls-4"/>
                <path id="패스_72" d="M1348.507 751.776h-.534a.449.449 0 0 1-.445-.446.44.44 0 0 1 .445-.438l.534.005a.448.448 0 0 1 .445.446.439.439 0 0 1-.445.433z" class="cls-4"/>
                <path id="패스_73" d="M1348.262 757.363a2.559 2.559 0 0 1-2.537-2.544.437.437 0 0 1 .444-.437.447.447 0 0 1 .445.445 1.663 1.663 0 0 0 1.648 1.653.448.448 0 0 1 .445.445.438.438 0 0 1-.445.438z" class="cls-4"/>
            </g>
            <path id="패스_74" d="M1365.89 801.7a17.383 17.383 0 0 1-17.628 17.353 17.756 17.756 0 0 1-17.627-17.663 17.383 17.383 0 0 1 17.627-17.353 17.756 17.756 0 0 1 17.628 17.663z" class="cls-3"/>
            <path id="패스_75" d="M1350.017 812.09H1350a.449.449 0 0 1-.42-.371l-3.1-18.123-3.291 13.045a.438.438 0 0 1-.428.33.446.446 0 0 1-.43-.332l-2.123-7.967-1.774 2.568a.442.442 0 0 1-.368.19l-2.618-.023a.448.448 0 0 1-.445-.446.439.439 0 0 1 .445-.438l2.383.022 2.19-3.17a.441.441 0 0 1 .443-.183.45.45 0 0 1 .355.325l1.929 7.242 3.386-13.422a.438.438 0 0 1 .448-.33.449.449 0 0 1 .422.371l3.1 18.134 3.339-13.106a.439.439 0 0 1 .431-.329h.008a.449.449 0 0 1 .427.353l2.077 9.573 1.661-4.977a.44.44 0 0 1 .422-.3l2.619.023a.449.449 0 0 1 .445.445.44.44 0 0 1-.445.439l-2.3-.021-2.073 6.21a.438.438 0 0 1-.446.3.449.449 0 0 1-.411-.351l-2.02-9.314-3.389 13.3a.44.44 0 0 1-.432.333z" class="cls-4"/>
            <path id="패스_76" d="M1365.891 907.384a17.384 17.384 0 0 1-17.628 17.353 17.756 17.756 0 0 1-17.628-17.663 17.384 17.384 0 0 1 17.628-17.353 17.757 17.757 0 0 1 17.628 17.663z" class="cls-3"/>
            <g id="그룹_89">
                <path id="패스_77" d="M1359.992 906.958l-3.57-.031a8.413 8.413 0 0 0-8.326-7.913 8.234 8.234 0 0 0-8.325 7.766l-3.238-.028a.438.438 0 0 0-.444.437.449.449 0 0 0 .444.447l3.238.028a8.415 8.415 0 0 0 8.325 7.913 8.235 8.235 0 0 0 8.326-7.766l3.57.03a.438.438 0 0 0 .444-.437.448.448 0 0 0-.444-.446zm-11.9-7.06a7.514 7.514 0 0 1 7.434 7.021l-2.78-.024v-4.013a.448.448 0 0 0-.444-.445.439.439 0 0 0-.445.438v3.725l-7.622-4.438a.445.445 0 0 0-.445 0 .435.435 0 0 0-.222.38v4.273l-2.91-.026a7.354 7.354 0 0 1 7.442-6.889zm0 14.795a7.516 7.516 0 0 1-7.434-7.022l2.91.026v4.2a.447.447 0 0 0 .667.388l7.622-4.3v3.8a.449.449 0 0 0 .445.446.439.439 0 0 0 .444-.438v-4.012l2.78.024a7.355 7.355 0 0 1-7.426 6.888z" class="cls-4"/>
                <path id="패스_78" d="M1338.985 900.051l-.474.458 2.136.61-.552-2.138-.474.457-2.4-2.45a.447.447 0 0 0-.629-.011.439.439 0 0 0-.007.624z" class="cls-4"/>
                <path id="패스_79" d="M1340.857 898.339l-.475.458 2.136.61-.553-2.138-.474.457-2.4-2.451a.448.448 0 0 0-.63-.01.439.439 0 0 0-.006.624z" class="cls-4"/>
            </g>
            <text id="Sensors" class="cls-5" transform="translate(1353.807 943.474)">
                <tspan x="-25.774" y="0">Sensors</tspan>
            </text>
            <g id="그룹_149">
                <path id="패스_80" d="M1539.954 836.609V735.688a1.146 1.146 0 0 0-1.146-1.146h-51.893a3.334 3.334 0 0 1-3.333 3.334v98.734a3.334 3.334 0 0 1 3.334 3.334h49.7a3.334 3.334 0 0 1 3.338-3.335zm-30.543-37.485a3.333 3.333 0 1 1 4.714 0 3.333 3.333 0 0 1-4.714 0z" class="cls-6"/>
                <g id="그룹_93">
                    <g id="그룹_90">
                        <path id="패스_81" d="M1505.869 785.164a4.64 4.64 0 1 1 9.28 0h-.762a3.878 3.878 0 1 0-7.756 0z" class="cls-7"/>
                    </g>
                    <g id="그룹_91">
                        <path id="패스_82" d="M1505.869 791a4.64 4.64 0 1 1 9.28 0h-.762a3.878 3.878 0 1 0-7.756 0z" class="cls-7"/>
                    </g>
                    <g id="그룹_92">
                        <path id="사각형_38" d="M0 0H0.762V2.683H0z" class="cls-7" transform="translate(1510.128 786.739)"/>
                    </g>
                </g>
                <path id="패스_83" d="M1485.9 734.542a2.322 2.322 0 0 1-2.322 2.322v1.012a3.334 3.334 0 0 0 3.333-3.334z" class="cls-8"/>
                <path id="패스_84" d="M1483.582 837.621a2.323 2.323 0 0 1 2.322 2.322h1.011a3.334 3.334 0 0 0-3.333-3.334z" class="cls-8"/>
                <path id="패스_85" d="M1537.632 839.943a2.322 2.322 0 0 1 2.322-2.322v-1.012a3.334 3.334 0 0 0-3.334 3.334z" class="cls-8"/>
                <path id="패스_86" d="M1514.125 794.41a3.333 3.333 0 1 0 0 4.714 3.333 3.333 0 0 0 0-4.714zm-4 4a2.321 2.321 0 1 1 3.283 0 2.321 2.321 0 0 1-3.282-.001z" class="cls-8"/>
                <g id="그룹_94">
                    <path id="패스_87" d="M1529.2 839.943V836.5l7.965-7.964v-48.02h.571v48.253l-7.965 7.964v3.21z" class="cls-9"/>
                </g>
                <g id="그룹_95">
                    <path id="사각형_39" d="M0 0H0.571V3.071H0z" class="cls-9" transform="translate(1537.166 734.542)"/>
                </g>
                <g id="그룹_96">
                    <path id="사각형_40" d="M0 0H45.368V0.571H0z" class="cls-9" transform="translate(1492.084 814.491)"/>
                </g>
                <g id="그룹_97">
                    <path id="사각형_41" d="M0 0H41.61V0.571H0z" class="cls-9" transform="translate(1495.842 817.539)"/>
                </g>
                <g id="그룹_98">
                    <path id="사각형_42" d="M0 0H31.423V0.571H0z" class="cls-9" transform="translate(1506.029 820.587)"/>
                </g>
                <g id="그룹_99">
                    <path id="사각형_43" d="M0 0H36.735V0.571H0z" class="cls-9" transform="translate(1500.717 823.634)"/>
                </g>
                <g id="그룹_100">
                    <path id="패스_88" d="M1505.12 820.873a.909.909 0 1 1 .909.909.909.909 0 0 1-.909-.909z" class="cls-6"/>
                    <path id="패스_89" d="M1504.834 820.872a1.2 1.2 0 1 1 1.2 1.2 1.2 1.2 0 0 1-1.2-1.2zm1.819 0a.623.623 0 1 0-.624.624.624.624 0 0 0 .624-.624z" class="cls-9"/>
                </g>
                <g id="그룹_101">
                    <path id="패스_90" d="M1499.807 823.92a.909.909 0 1 1 .91.909.909.909 0 0 1-.91-.909z" class="cls-6"/>
                    <path id="패스_91" d="M1499.522 823.92a1.2 1.2 0 1 1 1.2 1.2 1.2 1.2 0 0 1-1.2-1.2zm1.818 0a.623.623 0 1 0-.623.624.624.624 0 0 0 .623-.624z" class="cls-9"/>
                </g>
                <g id="그룹_102">
                    <path id="패스_92" d="M1494.855 817.825a.909.909 0 1 1 .909.909.909.909 0 0 1-.909-.909z" class="cls-6"/>
                    <path id="패스_93" d="M1494.569 817.825a1.2 1.2 0 1 1 1.2 1.2 1.2 1.2 0 0 1-1.2-1.2zm1.819 0a.623.623 0 1 0-.624.623.625.625 0 0 0 .624-.623z" class="cls-9"/>
                </g>
                <g id="그룹_103">
                    <path id="패스_94" d="M1491.174 814.777a.91.91 0 1 1 .91.909.91.91 0 0 1-.91-.909z" class="cls-6"/>
                    <path id="패스_95" d="M1490.889 814.777a1.2 1.2 0 1 1 1.195 1.2 1.2 1.2 0 0 1-1.195-1.2zm1.819 0a.623.623 0 1 0-.624.624.624.624 0 0 0 .624-.624z" class="cls-9"/>
                </g>
                <g id="그룹_104">
                    <path id="패스_96" d="M1494.819 777.379v-12.73h.572v12.159h27.885v30.266l7.333 7.333-.4.4-7.5-7.5v-29.928z" class="cls-9"/>
                </g>
                <g id="그룹_105">
                    <path id="패스_97" d="M1494.2 764.649a.909.909 0 1 1 .909.909.909.909 0 0 1-.909-.909z" class="cls-6"/>
                    <path id="패스_98" d="M1493.91 764.649a1.2 1.2 0 1 1 1.195 1.2 1.2 1.2 0 0 1-1.195-1.2zm1.818 0a.624.624 0 1 0-.623.624.623.623 0 0 0 .623-.624z" class="cls-9"/>
                </g>
                <g id="그룹_106">
                    <path id="사각형_44" d="M0 0H0.571V41.789H0z" class="cls-9" transform="translate(1518.469 735.304)"/>
                </g>
                <g id="그룹_107">
                    <path id="패스_99" d="M1489.876 782.927v-.571h9.176l5.464-5.464.4.4-5.632 5.632z" class="cls-9"/>
                </g>
                <g id="그룹_108">
                    <path id="패스_100" d="M1488.966 782.642a.91.91 0 1 1 .909.909.909.909 0 0 1-.909-.909z" class="cls-6"/>
                    <path id="패스_101" d="M1488.681 782.642a1.2 1.2 0 1 1 1.195 1.195 1.2 1.2 0 0 1-1.195-1.195zm1.818 0a.624.624 0 1 0-.623.623.625.625 0 0 0 .624-.623z" class="cls-9"/>
                </g>
                <g id="그룹_109">
                    <path id="패스_102" d="M1483.584 827.138v-.571h8.165l6.356 6.357h21.72v.571h-21.957l-6.357-6.357z" class="cls-9"/>
                </g>
                <g id="그룹_110">
                    <path id="패스_103" d="M1518.916 833.209a.909.909 0 1 1 .909.909.909.909 0 0 1-.909-.909z" class="cls-6"/>
                    <path id="패스_104" d="M1518.631 833.209a1.2 1.2 0 1 1 1.2 1.2 1.2 1.2 0 0 1-1.2-1.2zm1.818 0a.623.623 0 1 0-.623.623.625.625 0 0 0 .623-.623z" class="cls-9"/>
                </g>
                <g id="그룹_112">
                    <path id="패스_105" fill="#efe5d6" d="M1503.663 754.748v-12.729h-6.917v1.137l-.8.49v9.476l.8.49v1.137z"/>
                    <g id="그룹_111">
                        <path id="패스_106" d="M1499.714 743.928a.471.471 0 1 1 .472-.472.471.471 0 0 1-.472.472z" class="cls-8"/>
                        <path id="패스_107" d="M1499.714 746.392a.472.472 0 1 1 .472-.472.472.472 0 0 1-.472.472z" class="cls-8"/>
                        <path id="패스_108" d="M1499.714 748.855a.471.471 0 1 1 .472-.471.471.471 0 0 1-.472.471z" class="cls-8"/>
                        <path id="패스_109" d="M1499.714 751.319a.471.471 0 1 1 .472-.471.471.471 0 0 1-.472.471z" class="cls-8"/>
                        <path id="패스_110" d="M1499.714 753.783a.471.471 0 1 1 .472-.472.471.471 0 0 1-.472.472z" class="cls-8"/>
                    </g>
                </g>
                <g id="그룹_116">
                    <g id="그룹_113">
                        <path id="사각형_45" d="M0 0H8.676V3.746H0z" class="cls-7" transform="translate(1499.094 774.604) rotate(-90)"/>
                        <path id="사각형_46" d="M0 0H4.913V3.746H0z" class="cls-8" transform="translate(1499.094 772.723) rotate(-90)"/>
                    </g>
                    <g id="그룹_114">
                        <path id="사각형_47" d="M0 0H8.676V3.746H0z" class="cls-7" transform="translate(1505.515 774.604) rotate(-90)"/>
                        <path id="사각형_48" d="M0 0H4.913V3.746H0z" class="cls-8" transform="translate(1505.515 772.723) rotate(-90)"/>
                    </g>
                    <g id="그룹_115">
                        <path id="사각형_49" d="M0 0H8.676V3.746H0z" class="cls-7" transform="translate(1511.937 774.604) rotate(-90)"/>
                        <path id="사각형_50" d="M0 0H4.913V3.746H0z" class="cls-8" transform="translate(1511.937 772.723) rotate(-90)"/>
                    </g>
                </g>
                <g id="그룹_118">
                    <g id="그룹_117">
                        <path id="패스_111" d="M1526.909 834.669a4.639 4.639 0 1 1 4.639-4.639 4.639 4.639 0 0 1-4.639 4.639z" class="cls-11"/>
                        <path id="패스_112" d="M1526.909 833.511a3.481 3.481 0 1 1 3.482-3.481 3.481 3.481 0 0 1-3.482 3.481z" class="cls-12"/>
                    </g>
                    <path id="패스_113" d="M1523.875 830.477a3.464 3.464 0 0 1 5.7-2.664 3.467 3.467 0 1 0-4.88 4.88 3.446 3.446 0 0 1-.82-2.216z" class="cls-13"/>
                </g>
                <g id="그룹_120">
                    <g id="그룹_119">
                        <circle id="타원_29" cx="2.911" cy="2.911" r="2.911" class="cls-11" transform="translate(1528.692 801.074)"/>
                        <circle id="타원_30" cx="2.185" cy="2.185" r="2.185" class="cls-12" transform="translate(1529.418 801.8)"/>
                    </g>
                    <path id="패스_114" d="M1529.7 804.265a2.185 2.185 0 0 1 2.185-2.185 2.163 2.163 0 0 1 1.391.514 2.175 2.175 0 1 0-3.062 3.062 2.16 2.16 0 0 1-.514-1.391z" class="cls-13"/>
                </g>
                <g id="그룹_122">
                    <g id="그룹_121">
                        <path id="패스_115" d="M1532.393 812.566a2.121 2.121 0 1 1 2.121-2.121 2.122 2.122 0 0 1-2.121 2.121z" class="cls-11"/>
                        <path id="패스_116" d="M1532.393 812.036a1.591 1.591 0 1 1 1.592-1.591 1.591 1.591 0 0 1-1.592 1.591z" class="cls-12"/>
                    </g>
                    <path id="패스_117" d="M1531.006 810.649a1.583 1.583 0 0 1 2.6-1.218 1.585 1.585 0 1 0-2.231 2.232 1.579 1.579 0 0 1-.369-1.014z" class="cls-13"/>
                </g>
                <g id="그룹_123">
                    <circle id="타원_31" cx=".535" cy=".535" r=".535" class="cls-7" transform="translate(1523.036 769.595)"/>
                    <circle id="타원_32" cx=".535" cy=".535" r=".535" class="cls-7" transform="translate(1520.75 769.595)"/>
                    <circle id="타원_33" cx=".535" cy=".535" r=".535" class="cls-7" transform="translate(1523.036 768.071)"/>
                    <circle id="타원_34" cx=".535" cy=".535" r=".535" class="cls-7" transform="translate(1520.75 768.071)"/>
                    <circle id="타원_35" cx=".535" cy=".535" r=".535" class="cls-7" transform="translate(1523.036 766.547)"/>
                    <circle id="타원_36" cx=".535" cy=".535" r=".535" class="cls-7" transform="translate(1520.75 766.547)"/>
                    <circle id="타원_37" cx=".535" cy=".535" r=".535" class="cls-7" transform="translate(1523.036 765.023)"/>
                    <circle id="타원_38" cx=".535" cy=".535" r=".535" class="cls-7" transform="translate(1520.75 765.023)"/>
                    <circle id="타원_39" cx=".535" cy=".535" r=".535" class="cls-7" transform="translate(1523.036 763.499)"/>
                    <circle id="타원_40" cx=".535" cy=".535" r=".535" class="cls-7" transform="translate(1520.75 763.499)"/>
                    <circle id="타원_41" cx=".535" cy=".535" r=".535" class="cls-7" transform="translate(1523.036 761.976)"/>
                    <circle id="타원_42" cx=".535" cy=".535" r=".535" class="cls-7" transform="translate(1520.75 761.976)"/>
                    <circle id="타원_43" cx=".535" cy=".535" r=".535" class="cls-7" transform="translate(1523.036 760.452)"/>
                    <circle id="타원_44" cx=".535" cy=".535" r=".535" class="cls-7" transform="translate(1520.75 760.452)"/>
                </g>
                <g id="그룹_124">
                    <circle id="타원_45" cx=".535" cy=".535" r=".535" class="cls-7" transform="translate(1506.027 829.275)"/>
                    <circle id="타원_46" cx=".535" cy=".535" r=".535" class="cls-7" transform="translate(1506.027 826.989)"/>
                    <circle id="타원_47" cx=".535" cy=".535" r=".535" class="cls-7" transform="translate(1507.55 829.275)"/>
                    <circle id="타원_48" cx=".535" cy=".535" r=".535" class="cls-7" transform="translate(1507.55 826.989)"/>
                    <circle id="타원_49" cx=".535" cy=".535" r=".535" class="cls-7" transform="translate(1509.074 829.275)"/>
                    <circle id="타원_50" cx=".535" cy=".535" r=".535" class="cls-7" transform="translate(1509.074 826.989)"/>
                    <circle id="타원_51" cx=".535" cy=".535" r=".535" class="cls-7" transform="translate(1510.598 829.275)"/>
                    <circle id="타원_52" cx=".535" cy=".535" r=".535" class="cls-7" transform="translate(1510.598 826.989)"/>
                    <circle id="타원_53" cx=".535" cy=".535" r=".535" class="cls-7" transform="translate(1512.122 829.275)"/>
                    <circle id="타원_54" cx=".535" cy=".535" r=".535" class="cls-7" transform="translate(1512.122 826.989)"/>
                    <circle id="타원_55" cx=".535" cy=".535" r=".535" class="cls-7" transform="translate(1513.646 829.275)"/>
                    <circle id="타원_56" cx=".535" cy=".535" r=".535" class="cls-7" transform="translate(1513.646 826.989)"/>
                    <circle id="타원_57" cx=".535" cy=".535" r=".535" class="cls-7" transform="translate(1515.17 829.275)"/>
                    <circle id="타원_58" cx=".535" cy=".535" r=".535" class="cls-7" transform="translate(1515.17 826.989)"/>
                </g>
                <g id="그룹_127">
                    <g id="그룹_125">
                        <path id="패스_118" d="M1486.013 803.834v-13.286a1.558 1.558 0 0 1 1.556-1.555h5.3a1.558 1.558 0 0 1 1.556 1.555v13.286a1.558 1.558 0 0 1-1.556 1.555h-5.3a1.558 1.558 0 0 1-1.556-1.555zm8.224-13.286a1.366 1.366 0 0 0-1.365-1.365h-5.3a1.366 1.366 0 0 0-1.365 1.365v13.286a1.367 1.367 0 0 0 1.365 1.365h5.3a1.367 1.367 0 0 0 1.365-1.365z" class="cls-7"/>
                    </g>
                    <g id="그룹_126">
                        <path id="패스_119" d="M1491.417 792.334v-.311h-.482v-.229h.482v-1.021h.208l1.42 1v.253h-1.411v.311zm.217-.54h.7c.136 0 .291 0 .463.015v-.009a1.975 1.975 0 0 1-.228-.13l-.933-.656z" class="cls-7"/>
                        <path id="패스_120" d="M1492.845 793.58a.684.684 0 0 0-.23-.546.928.928 0 0 0-.631-.2.952.952 0 0 0-.637.193.691.691 0 0 0-.224.551 1.859 1.859 0 0 0 .079.5h-.214a1.538 1.538 0 0 1-.082-.539.911.911 0 0 1 .281-.715 1.16 1.16 0 0 1 .8-.252 1.257 1.257 0 0 1 .568.121.883.883 0 0 1 .377.351 1.058 1.058 0 0 1 .132.539 1.308 1.308 0 0 1-.121.577l-.21-.1a1.1 1.1 0 0 0 .112-.48z" class="cls-7"/>
                        <path id="패스_121" d="M1493.034 795.3v.594a1.123 1.123 0 0 1-.125.6.445.445 0 0 1-.4.186.452.452 0 0 1-.308-.1.5.5 0 0 1-.157-.3h-.015c-.054.319-.222.478-.5.478a.543.543 0 0 1-.44-.189.816.816 0 0 1-.157-.533v-.736zm-.9.244v.4a.658.658 0 0 0 .081.372.311.311 0 0 0 .273.113.277.277 0 0 0 .255-.126.789.789 0 0 0 .079-.4v-.359zm-.207 0h-.785v.438a.631.631 0 0 0 .1.383.365.365 0 0 0 .308.128.327.327 0 0 0 .287-.131.7.7 0 0 0 .092-.4z" class="cls-7"/>
                        <path id="패스_122" d="M1493.064 797.872a.709.709 0 0 1-.134.454.443.443 0 0 1-.369.168.462.462 0 0 1-.283-.1.852.852 0 0 1-.232-.308 1.019 1.019 0 0 1-.257.363.475.475 0 0 1-.31.109.519.519 0 0 1-.417-.183.745.745 0 0 1-.156-.5.8.8 0 0 1 .147-.517.508.508 0 0 1 .417-.18.622.622 0 0 1 .561.439.817.817 0 0 1 .242-.284.513.513 0 0 1 .291-.086.445.445 0 0 1 .364.168.7.7 0 0 1 .136.457zm-1.6-.454a.328.328 0 0 0-.268.119.529.529 0 0 0-.1.338.5.5 0 0 0 .1.332.355.355 0 0 0 .524.007 1.128 1.128 0 0 0 .21-.389.87.87 0 0 0-.2-.311.4.4 0 0 0-.266-.096zm1.406.451a.416.416 0 0 0-.087-.281.284.284 0 0 0-.229-.1.331.331 0 0 0-.227.085.894.894 0 0 0-.189.313.788.788 0 0 0 .185.291.342.342 0 0 0 .231.085.28.28 0 0 0 .23-.1.438.438 0 0 0 .086-.293z" class="cls-7"/>
                        <path id="패스_123" d="M1491.417 800.337v-.311h-.482v-.23h.482v-1.02h.208l1.42 1v.253h-1.411v.311zm.217-.541h.7c.136 0 .291.005.463.015v-.011a2.143 2.143 0 0 1-.228-.129l-.933-.656z" class="cls-7"/>
                        <path id="패스_124" d="M1492.217 801.2a.772.772 0 0 1-.165.523.566.566 0 0 1-.45.19.652.652 0 0 1-.511-.208.832.832 0 0 1-.185-.572 1.05 1.05 0 0 1 .113-.541h.23a.813.813 0 0 0-.1.25 1.207 1.207 0 0 0-.037.294.593.593 0 0 0 .119.393.434.434 0 0 0 .345.14q.44 0 .439-.539a2.121 2.121 0 0 0-.042-.364l.079-.124.983.079v1.043h-.22v-.839l-.631-.054a1.688 1.688 0 0 1 .033.329z" class="cls-7"/>
                        <path id="패스_125" d="M1490.935 802.485l1.879.871v-1.144h.22v1.4h-.191l-1.908-.859z" class="cls-7"/>
                        <path id="패스_126" d="M1487.889 792.334v-.311h-.483v-.229h.483v-1.021h.208l1.42 1v.253h-1.417v.311zm.216-.54h.7c.137 0 .291 0 .464.015v-.009a2 2 0 0 1-.228-.13l-.934-.656z" class="cls-7"/>
                        <path id="패스_127" d="M1488.688 793.193a.769.769 0 0 1-.164.521.561.561 0 0 1-.45.19.646.646 0 0 1-.511-.207.827.827 0 0 1-.186-.573 1.044 1.044 0 0 1 .114-.54h.23a.817.817 0 0 0-.1.249 1.248 1.248 0 0 0-.036.294.587.587 0 0 0 .119.393.424.424 0 0 0 .344.14c.293 0 .44-.178.44-.539a2.129 2.129 0 0 0-.042-.364l.079-.124.982.079v1.045h-.22v-.841l-.63-.052a1.671 1.671 0 0 1 .031.329z" class="cls-7"/>
                        <path id="패스_128" d="M1489.535 794.913a.709.709 0 0 1-.133.454.443.443 0 0 1-.369.168.457.457 0 0 1-.283-.095.855.855 0 0 1-.233-.308 1.007 1.007 0 0 1-.256.363.478.478 0 0 1-.311.109.52.52 0 0 1-.417-.183.748.748 0 0 1-.156-.5.807.807 0 0 1 .147-.516.511.511 0 0 1 .418-.18.622.622 0 0 1 .561.439.8.8 0 0 1 .242-.284.51.51 0 0 1 .291-.086.442.442 0 0 1 .363.168.7.7 0 0 1 .136.451zm-1.6-.454a.329.329 0 0 0-.269.119.529.529 0 0 0-.1.338.5.5 0 0 0 .1.332.339.339 0 0 0 .275.119.334.334 0 0 0 .248-.112 1.134 1.134 0 0 0 .21-.39.876.876 0 0 0-.2-.311.393.393 0 0 0-.263-.095zm1.4.451a.416.416 0 0 0-.086-.281.282.282 0 0 0-.229-.1.325.325 0 0 0-.227.085.891.891 0 0 0-.19.313.8.8 0 0 0 .186.291.338.338 0 0 0 .231.085.281.281 0 0 0 .23-.1.437.437 0 0 0 .091-.293z" class="cls-7"/>
                        <path id="패스_129" d="M1487.406 796.165l1.879.869v-1.145h.22v1.4h-.191l-1.908-.859z" class="cls-7"/>
                        <path id="패스_130" d="M1488.688 799.07a.772.772 0 0 1-.164.523.568.568 0 0 1-.45.19.649.649 0 0 1-.511-.208.827.827 0 0 1-.186-.572 1.051 1.051 0 0 1 .114-.541h.23a.807.807 0 0 0-.1.249 1.256 1.256 0 0 0-.036.295.587.587 0 0 0 .119.393.43.43 0 0 0 .344.14q.439 0 .44-.539a2.1 2.1 0 0 0-.042-.364l.079-.124.982.079v1.043h-.22v-.839l-.63-.054a1.686 1.686 0 0 1 .031.329z" class="cls-7"/>
                        <path id="패스_131" d="M1489.317 801.139a.686.686 0 0 0-.23-.546.928.928 0 0 0-.631-.2.952.952 0 0 0-.637.193.689.689 0 0 0-.225.551 1.859 1.859 0 0 0 .079.5h-.214a1.565 1.565 0 0 1-.082-.539.908.908 0 0 1 .282-.715 1.158 1.158 0 0 1 .8-.252 1.26 1.26 0 0 1 .568.121.875.875 0 0 1 .376.351 1.058 1.058 0 0 1 .132.539 1.308 1.308 0 0 1-.12.577l-.21-.1a1.1 1.1 0 0 0 .112-.48z" class="cls-7"/>
                        <path id="패스_132" d="M1488.3 801.975a1.482 1.482 0 0 1 .925.24.849.849 0 0 1 .306.711.963.963 0 0 1-.027.256h-.205a.821.821 0 0 0 .036-.253.635.635 0 0 0-.211-.515 1.065 1.065 0 0 0-.661-.2v.016a.551.551 0 0 1 .247.5.583.583 0 0 1-.171.445.642.642 0 0 1-.463.164.711.711 0 0 1-.515-.179.634.634 0 0 1-.188-.483.622.622 0 0 1 .245-.517 1.087 1.087 0 0 1 .682-.185zm-.724.7a.4.4 0 0 0 .128.317.544.544 0 0 0 .372.113.48.48 0 0 0 .327-.106.4.4 0 0 0 .119-.312.532.532 0 0 0-.053-.237.444.444 0 0 0-.146-.171.338.338 0 0 0-.194-.064.653.653 0 0 0-.276.057.473.473 0 0 0-.2.163.4.4 0 0 0-.073.244z" class="cls-7"/>
                    </g>
                </g>
                <g id="그룹_128">
                    <path id="사각형_51" d="M0 0H6.09V3.473H0z" class="cls-9" transform="translate(1519.991 780.905)"/>
                    <path id="사각형_52" d="M0 0H6.09V3.473H0z" class="cls-9" transform="translate(1519.991 800.923)"/>
                </g>
                <g id="그룹_129">
                    <path id="사각형_53" d="M0 0H6.371V3.49H0z" class="cls-7" transform="translate(1485.5 759.456)"/>
                    <path id="사각형_54" d="M0 0H4.577V3.49H0z" class="cls-14" transform="translate(1486.397 759.456)"/>
                </g>
                <g id="그룹_130">
                    <path id="사각형_55" d="M0 0H6.371V3.49H0z" class="cls-7" transform="translate(1485.5 764.79)"/>
                    <path id="사각형_56" d="M0 0H4.577V3.49H0z" class="cls-14" transform="translate(1486.397 764.79)"/>
                </g>
                <g id="그룹_131">
                    <path id="사각형_57" d="M0 0H6.371V3.49H0z" class="cls-7" transform="translate(1485.5 770.123)"/>
                    <path id="사각형_58" d="M0 0H4.577V3.49H0z" class="cls-14" transform="translate(1486.397 770.123)"/>
                </g>
                <g id="그룹_132">
                    <path id="사각형_59" d="M0 0H6.371V3.49H0z" class="cls-7" transform="translate(1485.5 742.664)"/>
                    <path id="사각형_60" d="M0 0H4.577V3.49H0z" class="cls-14" transform="translate(1486.397 742.664)"/>
                </g>
                <g id="그룹_133">
                    <path id="사각형_61" d="M0 0H6.371V3.49H0z" class="cls-7" transform="translate(1485.5 747.997)"/>
                    <path id="사각형_62" d="M0 0H4.577V3.49H0z" class="cls-14" transform="translate(1486.397 747.997)"/>
                </g>
                <g id="그룹_134">
                    <path id="사각형_63" d="M0 0H6.371V3.49H0z" class="cls-7" transform="translate(1485.5 753.331)"/>
                    <path id="사각형_64" d="M0 0H4.577V3.49H0z" class="cls-14" transform="translate(1486.397 753.331)"/>
                </g>
                <g id="그룹_135">
                    <path id="사각형_65" d="M0 0H6.371V3.49H0z" class="cls-7" transform="translate(1485.5 775.457)"/>
                    <path id="사각형_66" d="M0 0H4.577V3.49H0z" class="cls-14" transform="translate(1486.397 775.457)"/>
                </g>
                <g id="그룹_136">
                    <path id="사각형_67" d="M0 0H1.459V2.199H0z" class="cls-11" transform="translate(1515.683 759.293) rotate(90)"/>
                    <path id="사각형_68" d="M0 0H1.459V2.199H0z" class="cls-11" transform="translate(1510.121 756.925) rotate(90)"/>
                    <path id="사각형_69" d="M0 0H1.459V2.199H0z" class="cls-11" transform="translate(1510.122 761.662) rotate(90)"/>
                    <path id="사각형_70" d="M0 0H6.196V3.362H0z" class="cls-15" transform="translate(1513.484 756.925) rotate(90)"/>
                </g>
                <g id="그룹_137">
                    <path id="사각형_71" d="M0 0H1.459V2.199H0z" class="cls-11" transform="translate(1515.683 752.11) rotate(90)"/>
                    <path id="사각형_72" d="M0 0H1.459V2.199H0z" class="cls-11" transform="translate(1510.121 749.742) rotate(90)"/>
                    <path id="사각형_73" d="M0 0H1.459V2.199H0z" class="cls-11" transform="translate(1510.122 754.478) rotate(90)"/>
                    <path id="사각형_74" d="M0 0H6.196V3.362H0z" class="cls-15" transform="translate(1513.484 749.742) rotate(90)"/>
                </g>
                <g id="그룹_138">
                    <path id="사각형_75" d="M0 0H1.459V2.199H0z" class="cls-11" transform="translate(1515.683 744.927) rotate(90)"/>
                    <path id="사각형_76" d="M0 0H1.459V2.199H0z" class="cls-11" transform="translate(1510.121 742.559) rotate(90)"/>
                    <path id="사각형_77" d="M0 0H1.459V2.199H0z" class="cls-11" transform="translate(1510.121 747.295) rotate(90)"/>
                    <path id="사각형_78" d="M0 0H6.196V3.362H0z" class="cls-15" transform="translate(1513.484 742.559) rotate(90)"/>
                </g>
                <g id="그룹_139">
                    <path id="사각형_79" d="M0 0H1.459V2.199H0z" class="cls-11" transform="translate(1493.147 820.539) rotate(90)"/>
                    <path id="사각형_80" d="M0 0H1.459V2.199H0z" class="cls-11" transform="translate(1487.586 818.171) rotate(90)"/>
                    <path id="사각형_81" d="M0 0H1.459V2.199H0z" class="cls-11" transform="translate(1487.586 822.908) rotate(90)"/>
                    <path id="사각형_82" d="M0 0H6.196V3.362H0z" class="cls-15" transform="translate(1490.948 818.171) rotate(90)"/>
                </g>
                <g id="그룹_142">
                    <g id="그룹_140">
                        <path id="패스_133" d="M1496.446 803.186v-.571h.442a.982.982 0 0 0 .98-.981v-8.886a.981.981 0 0 0-.98-.98h-.442v-.568h.442a1.553 1.553 0 0 1 1.551 1.552v8.886a1.553 1.553 0 0 1-1.551 1.552z" class="cls-9"/>
                    </g>
                    <g id="그룹_141">
                        <rect id="사각형_83" width="2.199" height="9.018" class="cls-11" rx=".758" transform="translate(1499.253 801.753) rotate(180)"/>
                        <path id="사각형_84" d="M0 0H2.199V6.428H0z" class="cls-16" transform="translate(1499.253 800.458) rotate(180)"/>
                    </g>
                </g>
                <g id="그룹_144">
                    <g id="그룹_143">
                        <path id="패스_134" d="M1513.829 811.314a3.481 3.481 0 1 1 3.481-3.481 3.481 3.481 0 0 1-3.481 3.481z" class="cls-11"/>
                        <path id="패스_135" fill="#006caa" d="M1513.829 810.445a2.613 2.613 0 1 1 2.612-2.612 2.613 2.613 0 0 1-2.612 2.612z"/>
                        <path id="패스_136" d="M1504.694 811.314a3.481 3.481 0 1 1 3.481-3.481 3.481 3.481 0 0 1-3.481 3.481z" class="cls-11"/>
                        <path id="패스_137" d="M1504.694 810.445a2.613 2.613 0 1 1 2.612-2.612 2.612 2.612 0 0 1-2.612 2.612z" class="cls-16"/>
                    </g>
                    <path id="패스_138" fill="#00598c" d="M1511.7 808.315a2.6 2.6 0 0 1 4.2-2.065 2.6 2.6 0 1 0-3.648 3.648 2.589 2.589 0 0 1-.552-1.583z"/>
                    <path id="패스_139" fill="#8c1c00" d="M1502.564 808.315a2.613 2.613 0 0 1 2.613-2.612 2.586 2.586 0 0 1 1.582.547 2.6 2.6 0 1 0-3.648 3.648 2.589 2.589 0 0 1-.547-1.583z"/>
                </g>
                <g id="그룹_146">
                    <path id="사각형_85" d="M0 0H19.701V21.458H0z" class="cls-7" transform="translate(1527.558 760.688) rotate(-90)"/>
                    <path id="사각형_86" d="M0 0H2.076V17.878H0z" class="cls-20" transform="translate(1529.268 762.764) rotate(-90)"/>
                    <path id="사각형_87" d="M0 0H2.076V17.878H0z" class="cls-20" transform="translate(1529.269 740.987) rotate(-90)"/>
                    <path id="사각형_88" d="M0 0H1.297V2.413H0z" class="cls-11" transform="translate(1531.163 764.061) rotate(-90)"/>
                    <path id="사각형_89" d="M0 0H1.297V2.413H0z" class="cls-11" transform="translate(1531.163 738.911) rotate(-90)"/>
                    <g id="그룹_145">
                        <path id="패스_140" d="M1531.314 753.459v-5.244l9.776-1.289.1.755-9.113 1.2v3.908l9.113 1.2-.1.755z" class="cls-20"/>
                    </g>
                </g>
                <g id="그룹_148">
                    <path id="사각형_90" d="M0 0H19.701V21.458H0z" class="cls-7" transform="translate(1527.558 789.76) rotate(-90)"/>
                    <path id="사각형_91" d="M0 0H2.076V17.878H0z" class="cls-20" transform="translate(1529.269 791.836) rotate(-90)"/>
                    <path id="사각형_92" d="M0 0H2.076V17.878H0z" class="cls-20" transform="translate(1529.269 770.059) rotate(-90)"/>
                    <path id="사각형_93" d="M0 0H1.297V2.413H0z" class="cls-11" transform="translate(1531.163 793.133) rotate(-90)"/>
                    <path id="사각형_94" d="M0 0H1.297V2.413H0z" class="cls-11" transform="translate(1531.163 767.983) rotate(-90)"/>
                    <g id="그룹_147">
                        <path id="패스_141" d="M1531.314 782.532v-5.244l9.776-1.289.1.755-9.113 1.2v3.908l9.113 1.2-.1.755z" class="cls-20"/>
                    </g>
                </g>
            </g>
            <g id="그룹_150">
                <path id="패스_142" d="M1513.979 721.23a2.164 2.164 0 1 1-2.164 2.164 2.164 2.164 0 0 1 2.164-2.164z" class="cls-21"/>
                <path id="패스_143" d="M1513.974 710.612a13.239 13.239 0 0 1 9.29 3.858 1.073 1.073 0 1 0 1.34-1.672 15.243 15.243 0 0 0-21.26 0 1.073 1.073 0 1 0 1.34 1.672 13.239 13.239 0 0 1 9.29-3.858z" class="cls-21"/>
                <path id="패스_144" d="M1513.974 714.877a8.982 8.982 0 0 1 6.156 2.493c1.24 1.167 2.439-.317 1.626-1.392a10.98 10.98 0 0 0-15.564 0c-.813 1.075.386 2.559 1.626 1.392a8.982 8.982 0 0 1 6.156-2.493z" class="cls-21"/>
                <path id="패스_145" d="M1513.974 719.141a4.712 4.712 0 0 1 3.26 1.36 1.074 1.074 0 1 0 1.337-1.67 6.71 6.71 0 0 0-9.194 0 1.074 1.074 0 1 0 1.337 1.67 4.712 4.712 0 0 1 3.26-1.36z" class="cls-21"/>
            </g>
            <g id="그룹_151">
                <path id="패스_148" d="M1365.77 907.611h50.457a5.2 5.2 0 0 0 5.2-5.2v-67.366a5.2 5.2 0 0 1 5.2-5.2h52.5" class="cls-23"/>
                <path id="패스_149" d="M1365.77 854.362h28.788a5.2 5.2 0 0 0 5.2-5.2v-39.387a5.2 5.2 0 0 1 5.2-5.2h74.168" class="cls-23"/>
                <path id="패스_150" d="M1365.77 801.576h9.82a5.2 5.2 0 0 0 5.2-5.2v-14a5.2 5.2 0 0 1 5.2-5.2h93.137" class="cls-23"/>
                <path id="선_134" d="M0 0L121.904 0" class="cls-23" transform="translate(1357.223 748.369)"/>
            </g>
            <path id="패스_151" d="M1595.409 975.766h-145.162a8.667 8.667 0 0 1-8.668-8.667v-101.63a8.667 8.667 0 0 1 8.668-8.667h60.643l-.026-35.1 25.756 35.1h58.789a8.667 8.667 0 0 1 8.667 8.667V967.1a8.667 8.667 0 0 1-8.667 8.666z" class="cls-4"/>
            <g id="그룹_153">
                <g id="그룹_152">
                    <path id="패스_152" d="M1465.757 876.187a.974.974 0 0 0-.582.238 1.332 1.332 0 0 0-1.5.142 1.024 1.024 0 0 0-1.119.321 1.763 1.763 0 0 0-1.617.488c-1.189-.142-1.535.678-1.118 1.452a1 1 0 0 0 .055 1.412l.016.015a1.191 1.191 0 0 0 .392 1.321 1.118 1.118 0 0 0 .547 1.189 1.572 1.572 0 0 0 .916 1.344 17.449 17.449 0 0 0 2.379 1.986 5.533 5.533 0 0 0-3.176 5.556l-.225.405a5.367 5.367 0 0 0-.952 8.041 15.082 15.082 0 0 0 .738 2.378 5.948 5.948 0 0 0 3.676 4.759 12.4 12.4 0 0 0 3.57 2 5.825 5.825 0 0 0 4.318 1.938h.071a5.829 5.829 0 0 0 4.319-1.938 12.408 12.408 0 0 0 3.569-2 5.947 5.947 0 0 0 3.676-4.759 14.984 14.984 0 0 0 .739-2.378 5.365 5.365 0 0 0-.364-7.578 5.25 5.25 0 0 0-.588-.463l-.38-.405a5.541 5.541 0 0 0-3.117-5.472 17.562 17.562 0 0 0 2.379-1.987 1.571 1.571 0 0 0 .916-1.344 1.119 1.119 0 0 0 .547-1.189 1.19 1.19 0 0 0 .392-1.32 1 1 0 0 0 .086-1.411l-.015-.017c.417-.761 0-1.581-1.118-1.451a1.761 1.761 0 0 0-1.678-.572 1.021 1.021 0 0 0-1.106-.321 1.332 1.332 0 0 0-1.5-.142 1.3 1.3 0 0 0-1.523.06 5.822 5.822 0 0 0-2.783.891h-.465a2.243 2.243 0 1 1-4.189-.071h-.464a6.819 6.819 0 0 0-2.808-.82 2.882 2.882 0 0 0-.916-.3z"/>
                    <path id="패스_153" fill="#75a928" d="M1463.272 879.434a22.44 22.44 0 0 1 6.305 4.27c-.524 2.166-3.367 2.272-4.4 2.215a.78.78 0 0 0 .453-.392 12 12 0 0 1-1.82-.38.607.607 0 0 0 .488-.286 5.24 5.24 0 0 1-1.642-.678.928.928 0 0 0 .655-.142 6.339 6.339 0 0 1-1.571-.977 1.185 1.185 0 0 0 .666-.106 6.05 6.05 0 0 1-1.26-1.023.925.925 0 0 0 .654-.06 5.041 5.041 0 0 1-1.082-1.189.8.8 0 0 0 .749 0 6.4 6.4 0 0 1-.987-1.19 1.564 1.564 0 0 0 .7 0 3.323 3.323 0 0 0-.63-1.189 11.038 11.038 0 0 0 1.606 0l-.392-.476a3.225 3.225 0 0 1 1.773.179c.215-.166 0-.38-.273-.594a6.413 6.413 0 0 1 1.487.369c.225-.215-.167-.4-.356-.643a3.8 3.8 0 0 1 1.559.607c.273-.25 0-.451-.155-.665a3.817 3.817 0 0 1 1.309.844.463.463 0 0 0 .083-.65l-.012-.015a3.326 3.326 0 0 1 1.047.9.581.581 0 0 0 .167-.642 10.353 10.353 0 0 1 1.189 1.189.991.991 0 0 0 .19-.523c1.118 1.082 2.7 3.818.405 4.9a21.564 21.564 0 0 0-6.912-3.651zm17.6 0a22.456 22.456 0 0 0-6.3 4.27c.547 2.166 3.367 2.272 4.4 2.215a.775.775 0 0 1-.405-.405 11.884 11.884 0 0 0 1.82-.38.607.607 0 0 1-.476-.286 5.183 5.183 0 0 0 1.642-.678.927.927 0 0 1-.666-.142 6.344 6.344 0 0 0 1.571-.976 1.186 1.186 0 0 1-.666-.106 6.083 6.083 0 0 0 1.261-1.023.927.927 0 0 1-.655-.06 5.05 5.05 0 0 0 1.083-1.19.8.8 0 0 1-.749 0 6.428 6.428 0 0 0 .987-1.189 1.57 1.57 0 0 1-.7 0 3.323 3.323 0 0 1 .63-1.189 11.32 11.32 0 0 1-1.606 0l.405-.417a3.206 3.206 0 0 0-1.773.179c-.215-.167 0-.38.273-.6a6.5 6.5 0 0 0-1.487.369c-.274-.273.106-.451.309-.69a3.8 3.8 0 0 0-1.559.607c-.273-.25 0-.451.155-.666a3.819 3.819 0 0 0-1.309.845.464.464 0 0 1-.1-.648l.014-.018a3.332 3.332 0 0 0-1.047.9.583.583 0 0 1-.167-.643 10.356 10.356 0 0 0-1.189 1.19.993.993 0 0 1-.19-.524c-1.118 1.083-2.7 3.818-.405 4.9a21.545 21.545 0 0 1 6.864-3.651z"/>
                    <path id="패스_154" fill="#bc1142" d="M1476.095 901.524a3.986 3.986 0 1 1-4-3.652 3.83 3.83 0 0 1 4 3.652zm-6.282-10.468a4.264 4.264 0 1 1-5.3 1.559 3.914 3.914 0 0 1 5.3-1.559zm4.45-.2a4.264 4.264 0 1 0 5.306 1.558 3.915 3.915 0 0 0-5.306-1.56zm-12.679 1.986c1.784-.475.594 7.363-.845 6.721a4.234 4.234 0 0 1 .845-6.721zm20.555-.119c-1.784-.475-.6 7.363.845 6.721a4.237 4.237 0 0 0-.845-6.721zm-6.043-5.827c3.069-.524 5.627 1.308 5.521 4.639-.096 1.307-6.617-4.462-5.517-4.641zm-8.5-.1c-3.069-.524-5.627 1.308-5.52 4.64.098 1.273 6.652-4.447 5.524-4.636zm4.415-.772c-1.831 0-3.554 1.356-3.554 2.176s1.452 2.009 3.554 2.034 3.555-.809 3.555-1.832-2.01-2.378-3.628-2.378zm.119 20.328c1.594-.071 3.735.511 3.746 1.285s-1.938 2.451-3.855 2.378-3.914-1.617-3.889-2.214c0-.868 2.378-1.545 4-1.5zm-5.9-4.594c1.189 1.367 1.64 3.783.7 4.484s-3.081.322-4.627-1.9c-1.035-1.879-.9-3.77-.167-4.366 1.093-.666 2.795.238 4.1 1.75zm11.576-.437c-1.189 1.439-1.914 4.068-1.023 4.913.858.656 3.165.572 4.867-1.8a4.522 4.522 0 0 0 .119-4.937c-1.047-.809-2.556.226-3.962 1.819z"/>
                </g>
                <path id="패스_155" d="M1495.145 889.085a7.253 7.253 0 0 1 .81.19 3.824 3.824 0 0 1 1.411 6.465l-.1.09a3.091 3.091 0 0 1 .851 1.071 3.471 3.471 0 0 1 .34 1.451 8.582 8.582 0 0 0 .06 1 .26.26 0 0 0 .12.17.958.958 0 0 1-.441 1.831 1.459 1.459 0 0 1-1.41-.941 4.165 4.165 0 0 1-.3-1.411 5.275 5.275 0 0 0-.05-.89 1.621 1.621 0 0 0-1-1.2 2.206 2.206 0 0 0-1.1-.26h-1.721v3.822a.973.973 0 0 1-1.922.241v-10.847a1.145 1.145 0 0 1 .782-.782h3.672zm-2.561 3.823v1.661c0 .161 0 .21.2.21h1.932a2.152 2.152 0 0 0 .48-.051 1.83 1.83 0 0 0 1.441-2 1.869 1.869 0 0 0-1.863-1.641h-2c-.161 0-.181.06-.181.189l-.011 1.641zm38.563-3.823a1 1 0 0 1 .751.69 1.82 1.82 0 0 1 .05.46v3.171a4.272 4.272 0 0 1 5.834 1 4.566 4.566 0 0 1 0 5.464 4.383 4.383 0 0 1-1.661 1.37 4.12 4.12 0 0 1-2.15.36 4.615 4.615 0 0 1-2-.73.973.973 0 0 1-1.915-.118c0-.017 0-.035-.005-.052v-10.407a1.1 1.1 0 0 1 .79-1.2h.37zm5.614 8a2.807 2.807 0 0 0-.111-.64 2.4 2.4 0 0 0-2.881-1.752 2.555 2.555 0 0 0-1.492 3.72 2.37 2.37 0 0 0 2.471 1.211 2.521 2.521 0 0 0 2.022-2.553zm-16.971 7.9a3.839 3.839 0 0 1-.5-.36.85.85 0 0 1-.219-.631v-10.325a.982.982 0 0 1 1.911-.36v.051a4.34 4.34 0 0 1 4-.42 4.261 4.261 0 0 1 2.082 1.752 4.523 4.523 0 0 1-.371 5.373 4.149 4.149 0 0 1-2.671 1.461 4.255 4.255 0 0 1-3-.681v3.081a1 1 0 0 1-.721 1h-.511zm6-7.825a2.759 2.759 0 0 0-.411-1.422 2.324 2.324 0 0 0-3.5-.551 2.714 2.714 0 0 0-.181 3.763 2.3 2.3 0 0 0 2.3.67 2.507 2.507 0 0 0 1.822-2.451zm53.094-8.076a7.265 7.265 0 0 1 .811.19 3.725 3.725 0 0 1 2.662 3.251 3.8 3.8 0 0 1-3.142 4.163 4.692 4.692 0 0 1-.7.07h-2.192v3.893a.986.986 0 1 1-1.972.01v-10.585a1 1 0 0 1 .721-.93h3.822zm-2.562 3.812v1.711c0 .1 0 .17.13.161h2.341a1.783 1.783 0 0 0 1.6-1.822 1.864 1.864 0 0 0-1.871-1.841h-2c-.149 0-.17.051-.17.181zm9.337 7.819a.336.336 0 0 1-.06.23 1 1 0 0 1-1.891-.26v-7.014a1 1 0 0 1 1.911-.1.3.3 0 0 0 0 .059v7.075zm0-10.236a3.081 3.081 0 0 1-.11.379.956.956 0 0 1-1.832-.37 3.086 3.086 0 0 1 0-.651 1 1 0 0 1 .77-.741h.371a1 1 0 0 1 .69.581 1.214 1.214 0 0 0 .1.351v.451zm-16.472 10.782a10.482 10.482 0 0 1-1.181.3 3.54 3.54 0 0 1-3-1 3.713 3.713 0 0 1-1.2-2.832V893.6a1 1 0 0 1 .7-.921.909.909 0 0 1 1.061.451 1.459 1.459 0 0 1 .119.59v4.112a1.8 1.8 0 0 0 1.251 1.77 1.873 1.873 0 0 0 2.062-.73 1.76 1.76 0 0 0 .311-1v-4.223a.942.942 0 0 1 .66-.951 1 1 0 0 1 1.1.441 1.1 1.1 0 0 1 .12.49v6.834a4.242 4.242 0 0 1-6.1 3.762.92.92 0 0 1 .34-1.771 1.067 1.067 0 0 1 .481.111 2.36 2.36 0 0 0 3.141-1.122zm-62.558-7.824a3.2 3.2 0 0 1 .27-.419.9.9 0 0 1 1-.29 1 1 0 0 1 .651.881v7.014a.944.944 0 0 1-.831 1 .93.93 0 0 1-.94-.489c0-.081-.081-.161-.12-.26a4.162 4.162 0 0 1-6.354-2.1 4.531 4.531 0 0 1 .59-4.433 4 4 0 0 1 3.842-1.651 3.87 3.87 0 0 1 1.7.64zm-4.734 3.9a5.05 5.05 0 0 0 .12.69 2.209 2.209 0 0 0 1.681 1.61 2.245 2.245 0 0 0 2.2-.651 2.773 2.773 0 0 0 0-3.652 2.261 2.261 0 0 0-2.933-.37 2.663 2.663 0 0 0-1.069 2.371zm40.446.46a2.3 2.3 0 0 0 1.161 1.611 2.907 2.907 0 0 0 2.721.1 1.674 1.674 0 0 0 .371-.24.909.909 0 0 1 1.511.51.69.69 0 0 1-.241.671 4.515 4.515 0 1 1-4.682-7.534 4.273 4.273 0 0 1 5.744 3.341 3.814 3.814 0 0 1 .07.5.893.893 0 0 1-.253.748.88.88 0 0 1-.748.253h-5.652zm5-1.529a2.873 2.873 0 0 0-2.8-1.931 2.432 2.432 0 0 0-2.271 1.881h5zm-33.349-3.6a4.086 4.086 0 0 1 2.111.61l.581.371a.959.959 0 0 1-1.1 1.57 4 4 0 0 0-1.221-.61 1.81 1.81 0 0 0-1.5.28.847.847 0 0 0-.151.141.32.32 0 0 0-.123.3.33.33 0 0 0 .193.26 3.087 3.087 0 0 0 1.121.41 7.479 7.479 0 0 1 2.241.741 2.367 2.367 0 0 1 1.271 1.791 2.332 2.332 0 0 1-.69 2 3.483 3.483 0 0 1-2 1 4.827 4.827 0 0 1-4-1.2 1 1 0 0 1-.13-1.241.932.932 0 0 1 1.283-.3l.028.019a1.882 1.882 0 0 1 .23.159 3.245 3.245 0 0 0 1.77.741 2.281 2.281 0 0 0 1.3-.3.835.835 0 0 0 .2-.17.449.449 0 0 0-.1-.79 4.47 4.47 0 0 0-1.571-.53 5.237 5.237 0 0 1-1.931-.721 2.261 2.261 0 0 1-.258-3.622 3.376 3.376 0 0 1 2-.871zm38.542 1.021a3.233 3.233 0 0 1 1.661-.881 4.671 4.671 0 0 1 1-.1.9.9 0 0 1 .84.92.932.932 0 0 1-.841.93 2.239 2.239 0 0 0-1.851 1 5.721 5.721 0 0 0-.771 1.38 1.927 1.927 0 0 0-.13.68v3.052a1 1 0 0 1-1.891.251 1.164 1.164 0 0 1 0-.29v-7.014a.919.919 0 0 1 .7-.951 1 1 0 0 1 1.081.419 3.073 3.073 0 0 1 .2.581zm6.934.018a3.428 3.428 0 0 1 1.892-1 3.109 3.109 0 0 1 1 0 .872.872 0 0 1 .66.931.941.941 0 0 1-.91.881 2.206 2.206 0 0 0-1.783 1 4.992 4.992 0 0 0-.81 1.511 1.274 1.274 0 0 0-.069.419v3.1a1 1 0 0 1-.861 1.051.931.931 0 0 1-1.055-.789l-.005-.041v-7.27a.8.8 0 0 1 .541-.741 1 1 0 0 1 1.317.515.986.986 0 0 1 .083.445z"/>
            </g>
            <g id="그룹_154">
                <path id="패스_156" d="M1506.685 939.821q0-5.739-3.272-5.9a6.15 6.15 0 0 0-2.541.417 3.747 3.747 0 0 0-1.334.7v9.132a6.483 6.483 0 0 0 3.716 1.219q3.429-.221 3.431-5.568zm2.691.158a8.114 8.114 0 0 1-1.372 4.84 5.062 5.062 0 0 1-4.248 2.241 7.536 7.536 0 0 1-4.218-1.281v8.3l-2.34-.835v-18.422a5.245 5.245 0 0 1 1.477-1.219 10.144 10.144 0 0 1 5.078-1.249l.033.033a4.659 4.659 0 0 1 4.21 2.241 9.524 9.524 0 0 1 1.38 5.351zm14.3 5.447a12.959 12.959 0 0 1-.783 5.416 5.524 5.524 0 0 1-3 2.4 11.5 11.5 0 0 1-3.877.771l-.387-1.475a18.627 18.627 0 0 0 2.981-.576 3.939 3.939 0 0 0 2.341-1.762 8.845 8.845 0 0 0 .512-3.684v-.61a12.017 12.017 0 0 1-5.032 1.088 4.624 4.624 0 0 1-3.045-1.088 3.7 3.7 0 0 1-1.474-3.011v-9.742l2.34-.8v9.8a2.977 2.977 0 0 0 1.014 2.419 3.83 3.83 0 0 0 2.625.817 6.57 6.57 0 0 0 3.444-1.249v-11.433h2.34v12.719zm9.137 1.506q-.385.033-.771.033a4.607 4.607 0 0 1-3.093-.947 3.275 3.275 0 0 1-1.1-2.62v-9.218h-1.6v-1.473h1.6V928.8l2.338-.832v4.742h2.63v1.473h-2.63v9.154a2.215 2.215 0 0 0 .706 1.864 3.569 3.569 0 0 0 1.923.515v1.219zm14.171-.192h-2.341v-9.034a4.264 4.264 0 0 0-.643-2.371 2.338 2.338 0 0 0-2.061-1.122 7.593 7.593 0 0 0-4.025 1.7v10.827h-2.341v-21.594l2.341-.738v9.836a8.149 8.149 0 0 1 4.9-1.634 3.906 3.906 0 0 1 3.012 1.25 4.4 4.4 0 0 1 1.155 3.108v9.772zm12.439-7.288a7.191 7.191 0 0 0-.835-3.644 3.493 3.493 0 0 0-3.075-1.851q-3.849.222-3.846 5.511a9.062 9.062 0 0 0 .8 4.048 3.231 3.231 0 0 0 3.088 2.038q3.864-.03 3.864-6.1zm2.564.015a8.322 8.322 0 0 1-1.6 5.224 5.763 5.763 0 0 1-4.87 2.338 5.649 5.649 0 0 1-4.809-2.338 8.436 8.436 0 0 1-1.57-5.224 7.456 7.456 0 0 1 1.7-4.967 5.849 5.849 0 0 1 4.712-2.146 5.948 5.948 0 0 1 4.745 2.146 7.456 7.456 0 0 1 1.7 4.967zm13.417 7.273h-2.34v-9.546a3.194 3.194 0 0 0-.945-2.454 3.434 3.434 0 0 0-2.517-.847 5.626 5.626 0 0 0-3.173 1.088v11.759h-2.34v-12.048a11.531 11.531 0 0 1 3.718-1.921 11.347 11.347 0 0 1 2.822-.417 7.357 7.357 0 0 1 1.569.161 4.51 4.51 0 0 1 2.243 1.186 3.135 3.135 0 0 1 .963 2.307v10.732z" class="cls-26"/>
                <path id="패스_157" fill="#3771a2" d="M1474.082 925.232a20.037 20.037 0 0 0-3.366.288c-2.981.526-3.522 1.628-3.522 3.661v2.685h7.044v.895h-9.688a4.4 4.4 0 0 0-4.4 3.571 13.159 13.159 0 0 0 0 7.159c.5 2.085 1.7 3.571 3.743 3.571h2.422v-3.218a4.477 4.477 0 0 1 4.4-4.376h7.035a3.548 3.548 0 0 0 3.522-3.579v-6.708a3.933 3.933 0 0 0-3.522-3.662 21.967 21.967 0 0 0-3.669-.287zm-3.81 2.159a1.343 1.343 0 1 1-1.321 1.346 1.336 1.336 0 0 1 1.321-1.346z"/>
                <path id="패스_158" fill="#ffd13f" d="M1482.152 932.76v3.128a4.518 4.518 0 0 1-4.4 4.466h-7.035a3.593 3.593 0 0 0-3.522 3.58v6.707c0 1.909 1.66 3.032 3.522 3.58a11.789 11.789 0 0 0 7.035 0c1.774-.514 3.522-1.547 3.522-3.58v-2.684h-7.035v-.895h10.561c2.048 0 2.81-1.428 3.522-3.571a12.086 12.086 0 0 0 0-7.159c-.506-2.038-1.472-3.572-3.522-3.572zm-3.957 16.986a1.343 1.343 0 1 1-1.322 1.339 1.329 1.329 0 0 1 1.322-1.339z"/>
                <path id="패스_159" d="M1579.966 930.621h.41v-2.574h.972v-.307h-2.354v.307h.972v2.574m1.746 0h.351v-2.351l.761 2.35h.39l.793-2.342v2.343h.382v-2.881h-.506l-.866 2.468-.739-2.468h-.566v2.881" class="cls-26"/>
            </g>
        </g>
        <text id="Cloud_Internet" class="cls-5" transform="translate(180 1194.215)">
            <tspan x="-49.903" y="0">Cloud / Internet</tspan>
        </text>
        <g id="그룹_161" transform="translate(-1282.213)">
            <path id="패스_160" d="M1529.03 1125.314c-.374 0-.739.037-1.109.056a34.509 34.509 0 0 0-39.9-25.511 48.5 48.5 0 0 0-92.566 20.25c0 .211.014.419.016.63l-.016.011v4.564a21.647 21.647 0 1 0 0 43.293h133.575a21.647 21.647 0 1 0 0-43.293z" class="cls-29"/>
            <g id="그룹_156">
                <path id="사각형_95" d="M0 0H19.086V31.456H0z" class="cls-29" transform="translate(1431.229 1116.152)"/>
                <path id="선_135" d="M0 0L9.375 0" class="cls-29" transform="translate(1436.055 1121.611)"/>
                <path id="선_136" d="M0 0L9.375 0" class="cls-29" transform="translate(1436.055 1126.392)"/>
                <path id="사각형_96" d="M0 0H19.086V31.456H0z" class="cls-29" transform="translate(1421.742 1121.64)"/>
                <circle id="타원_59" cx="2.021" cy="2.021" r="2.021" class="cls-29" transform="translate(1429.264 1137.369)"/>
                <path id="선_137" d="M0 0L9.375 0" class="cls-29" transform="translate(1426.568 1127.099)"/>
                <path id="선_138" d="M0 0L9.375 0" class="cls-29" transform="translate(1426.568 1131.88)"/>
            </g>
            <g id="그룹_160">
                <g id="그룹_157">
                    <path id="패스_161" d="M1494.456 1141.526v5.368c0 1.953-5.639 3.536-12.6 3.536s-12.6-1.583-12.6-3.536v-5.368" class="cls-29"/>
                    <ellipse id="타원_60" cx="12.597" cy="3.536" class="cls-29" rx="12.597" ry="3.536" transform="translate(1469.263 1137.99)"/>
                </g>
                <g id="그룹_158">
                    <path id="패스_162" d="M1494.456 1131.941v5.367c0 1.953-5.639 3.536-12.6 3.536s-12.6-1.583-12.6-3.536v-5.367" class="cls-29"/>
                    <ellipse id="타원_61" cx="12.597" cy="3.536" class="cls-29" rx="12.597" ry="3.536" transform="translate(1469.263 1128.405)"/>
                </g>
                <g id="그룹_159">
                    <path id="패스_163" d="M1494.456 1122.355v5.368c0 1.953-5.639 3.536-12.6 3.536s-12.6-1.583-12.6-3.536v-5.368" class="cls-29"/>
                    <ellipse id="타원_62" cx="12.597" cy="3.536" class="cls-29" rx="12.597" ry="3.536" transform="translate(1469.263 1118.819)"/>
                </g>
            </g>
        </g>
    </g>
</svg>
