<svg xmlns="http://www.w3.org/2000/svg" viewBox="0 0 135.39 103.24"><defs><style>.cls-1,.cls-3{fill:#fff;}.cls-1,.cls-3,.cls-4{stroke:#444;}.cls-1,.cls-4,.cls-5{stroke-miterlimit:10;}.cls-1,.cls-3,.cls-4,.cls-5{stroke-width:2px;}.cls-2{fill:#444;}.cls-4,.cls-5{fill:none;}.cls-5{stroke:#00bce7;}</style></defs><g id="레이어_2" data-name="레이어 2"><g id="Layer_1" data-name="Layer 1"><rect class="cls-1" x="1" y="1" width="133.39" height="101.24" rx="5"/><line class="cls-1" x1="1" y1="14.4" x2="134.39" y2="14.4"/><circle class="cls-2" cx="9.61" cy="7.38" r="2.08"/><circle class="cls-2" cx="18.07" cy="7.38" r="2.08"/><circle class="cls-2" cx="26.52" cy="7.38" r="2.08"/><polyline class="cls-3" points="12.24 82.23 10.62 80.77 10.64 76.16 16.64 73.5 16.84 73.96 17.24 73.66 21.05 79.01 18.73 82.98 16.79 83.38"/><path class="cls-3" d="M19.18,73.22a2.07,2.07,0,0,1-2.54,1.45h0a2.07,2.07,0,0,1-1.45-2.54l1.86-6.79a2.07,2.07,0,0,1,2.54-1.45h0A2.07,2.07,0,0,1,21,66.43Z"/><path class="cls-3" d="M22.13,67.27A3.46,3.46,0,0,1,17.42,66h0a3.46,3.46,0,0,1,1.29-4.71L28.3,55.8A3.44,3.44,0,0,1,33,57.09h0a3.44,3.44,0,0,1-1.29,4.7Z"/><path class="cls-3" d="M41.37,60.63a3.45,3.45,0,0,1,1.25,4.72h0A3.45,3.45,0,0,1,37.9,66.6l-9.54-5.55a3.45,3.45,0,0,1-1.25-4.71h0a3.45,3.45,0,0,1,4.72-1.25Z"/><path class="cls-2" d="M31.12,57a1.45,1.45,0,1,1-2,.53A1.44,1.44,0,0,1,31.12,57Z"/><rect class="cls-3" x="31.08" y="68.9" width="17.8" height="17.52"/><rect class="cls-3" x="26.53" y="84.35" width="26.9" height="5.66"/><path class="cls-3" d="M43.43,74.52A3.44,3.44,0,0,1,40,78h0a3.45,3.45,0,0,1-3.45-3.45v-11A3.45,3.45,0,0,1,40,60h0a3.44,3.44,0,0,1,3.45,3.44Z"/><path class="cls-2" d="M41.43,63.83A1.45,1.45,0,1,1,40,62.39,1.45,1.45,0,0,1,41.43,63.83Z"/><path class="cls-2" d="M41.43,74.17A1.45,1.45,0,1,1,40,72.72,1.45,1.45,0,0,1,41.43,74.17Z"/><line class="cls-4" x1="12.37" y1="28.22" x2="18.12" y2="28.22"/><line class="cls-4" x1="24.81" y1="28.22" x2="48.88" y2="28.22"/><line class="cls-4" x1="12.37" y1="38.6" x2="18.12" y2="38.6"/><line class="cls-4" x1="24.81" y1="38.6" x2="48.88" y2="38.6"/><line class="cls-4" x1="57.45" y1="28.22" x2="63.2" y2="28.22"/><line class="cls-4" x1="69.89" y1="28.22" x2="93.96" y2="28.22"/><line class="cls-4" x1="57.45" y1="38.6" x2="63.2" y2="38.6"/><line class="cls-4" x1="69.89" y1="38.6" x2="93.96" y2="38.6"/><path class="cls-5" d="M114.93,42.4H112.5A.57.57,0,0,1,112,42v0L111.63,40l-1.38-.57-1.6,1.15a.57.57,0,0,1-.72-.06l-1.72-1.72a.56.56,0,0,1,0-.74l1.14-1.58-.57-1.38-1.94-.32h0a.57.57,0,0,1-.46-.55V31.79a.58.58,0,0,1,.46-.56h0l1.94-.32.57-1.37-1.15-1.6a.56.56,0,0,1,.06-.73l1.72-1.72a.57.57,0,0,1,.73,0l1.59,1.14,1.38-.57.32-1.94v0a.57.57,0,0,1,.55-.45h2.43a.56.56,0,0,1,.55.45v0l.32,1.94,1.37.57,1.6-1.15a.59.59,0,0,1,.73.06l1.72,1.72a.58.58,0,0,1,0,.74l-1.14,1.59.57,1.37,1.94.32h0a.58.58,0,0,1,.45.56v2.43a.57.57,0,0,1-.45.55h0l-1.94.32-.57,1.38,1.14,1.59a.55.55,0,0,1-.06.73l-1.71,1.72a.59.59,0,0,1-.4.16h0a.6.6,0,0,1-.34-.11l-1.59-1.14-1.37.57-.32,1.94v0A.56.56,0,0,1,114.93,42.4Z"/><circle class="cls-5" cx="113.72" cy="33" r="2.89"/><line class="cls-4" x1="65.08" y1="90.99" x2="65.08" y2="81.76"/><line class="cls-4" x1="72.23" y1="90.99" x2="72.23" y2="77.3"/><line class="cls-4" x1="79.38" y1="90.99" x2="79.38" y2="67.07"/><line class="cls-4" x1="86.52" y1="90.99" x2="86.52" y2="73.55"/><circle class="cls-4" cx="111.67" cy="76.92" r="13.09"/><polyline class="cls-4" points="111.67 63.83 111.67 76.92 119.79 87.18"/><line class="cls-1" x1="111.67" y1="76.92" x2="101.34" y2="68.9"/></g></g></svg>