<svg xmlns="http://www.w3.org/2000/svg" viewBox="0 0 1099.04 586.42">
    <defs>
        <style>
        @import url("/css/font.css");
        .cls-1,.cls-11,.cls-13,.cls-15{fill:none;}
        .cls-1,.cls-10,.cls-11,.cls-12,.cls-13{stroke:#444;}
        .cls-1,.cls-12,.cls-13,.cls-15{stroke-miterlimit:10;}
        .cls-1{stroke-dasharray:2 4;}
        .cls-2,.cls-3{fill:#444;}
        .cls-3{font-size:14px;text-shadow: 0 0 1px #cccccc;font-family:NanumSquareR, NanumSquare;}
        .cls-4{letter-spacing:-0.02em;}
        .cls-5{letter-spacing:0em;}
        .cls-6{letter-spacing:0em;}
        .cls-7{letter-spacing:-0.01em;}
        .cls-8{font-size:24px;fill:#00bce7;font-family:NanumSquare;font-weight: 700;}
        .cls-9{letter-spacing:0em;}
        .cls-10,.cls-12,.cls-14{fill:#fff;}
        .cls-10,.cls-11,.cls-12,.cls-13,.cls-15{stroke-width:2px;}
        .cls-15{stroke:#00bce7;}</style>
    </defs>
    <g id="레이어_2" data-name="레이어 2">
        <g id="Layer_1" data-name="Layer 1">
            <g id="img_test_data_manage">
                <line class="cls-1" x1="312.88" y1="275.13" x2="265.75" y2="275.13"/>
                <polygon class="cls-2" points="266.77 271.64 260.73 275.13 266.77 278.62 266.77 271.64"/>
                <line class="cls-1" x1="155.56" y1="279.27" x2="121.08" y2="279.27"/>
                <path class="cls-1" d="M87.14,55.86h20.53a11,11,0,0,1,11,11V491.68a11,11,0,0,1-11,11H87.14"/>
                <polygon class="cls-2" points="88.16 59.35 82.12 55.86 88.16 52.37 88.16 59.35"/>
                <polygon class="cls-2" points="88.16 499.19 82.12 502.68 88.16 506.17 88.16 499.19"/>
                <line class="cls-1" x1="118.67" y1="204.65" x2="87.14" y2="204.65"/>
                <polygon class="cls-2" points="88.16 201.16 82.12 204.65 88.16 208.14 88.16 201.16"/>
                <line class="cls-1" x1="118.67" y1="353.67" x2="87.14" y2="353.67"/>
                <polygon class="cls-2" points="88.16 350.18 82.12 353.67 88.16 357.16 88.16 350.18"/>
                <text class="cls-3" transform="translate(549.18 279.27)">-                    <tspan class="cls-4" x="9.27" y="0">T</tspan>
                    <tspan class="cls-5" x="17.04" y="0">CP unicast 기반으로 네트워크를 통해 원격에서 고객이 원하는 장비 설정 값</tspan>
                    <tspan x="0" y="30" xml:space="preserve">  (버전, 장비 운영 상태, 현재 네트워크 상태, 네트워크 서버 정보 등) 들을 조회하고, 변경하는 기능</tspan>
                    <tspan x="0" y="60">- 장비 설정 값들은 JSON 기반의 프로토콜로 변환되어 관리하며, 직접 파일로</tspan>
                    <tspan x="0" y="90" xml:space="preserve">   가져오기/내보내기 기능도 같이 제공한다.</tspan>
                    <tspan x="0" y="120">- 검색된 디바이스 중에 여러 개를 동시에 선택해서 설정할 수 있다.</tspan>
                </text>
                <text class="cls-3" transform="translate(549.18 63.3)">- UDP B<tspan class="cls-6" x="48.51" y="0">r</tspan>
                    <tspan class="cls-7" x="53.93" y="0">o</tspan>
                    <tspan x="61.74" y="0">adcast 기반의 </tspan>
                    <tspan class="cls-4" x="149.27" y="0">T</tspan>
                    <tspan x="157.04" y="0">CP/IP 프로토콜을 지원하여 로컬 네트워크에 동작 중인</tspan>
                    <tspan x="0" y="30" xml:space="preserve">   디바이스를 검색해서 보여주는 기능</tspan>
                    <tspan x="0" y="60">- 원격지에서 네트워크를 통해 설정/관리할 수 있도록 이 단계에서 현재 동작 상태와</tspan>
                    <tspan x="0" y="90" xml:space="preserve">   기본 </tspan>
                    <tspan class="cls-4" x="39.48" y="90">T</tspan>
                    <tspan class="cls-5" x="47.25" y="90">CP/IP 네트워크 정보 수집</tspan>
                </text>
                <text class="cls-8" transform="translate(549.18 237.41)">디바이스 정보 설정 및 관리 기능</text>
                <text class="cls-3" transform="translate(549.18 522.93)">-                    <tspan class="cls-4" x="9.27" y="0">T</tspan>
                    <tspan class="cls-5" x="17.04" y="0">CP unicast 기반으로 네트워크를 통해 원격에서 디바이스의 현재 소프트웨어 버전을 조회, </tspan>
                    <tspan x="0" y="30" xml:space="preserve">   필요시 업데이트를 수행하는 기능</tspan>
                    <tspan x="0" y="60">- 검색된 디바이스 중에 여러 개를 동시에 선택해서 업데이트 할 수 있다.</tspan>
                </text>
                <text class="cls-8" transform="translate(549.18 481.08)">원격 펌웨어 업데이트</text>
                <text class="cls-8" transform="translate(549.18 21.45)">디바이스 검색 기능</text>
                <text class="cls-3" transform="translate(1.4 582.93)">User’s D<tspan class="cls-9" x="52.02" y="0">e</tspan>
                    <tspan x="59.58" y="0">vice</tspan>
                </text>
                <line class="cls-10" x1="36.75" y1="192.65" x2="59.09" y2="192.65"/>
                <path class="cls-10" d="M64.57,192.65A2.53,2.53,0,1,1,62,190.12,2.53,2.53,0,0,1,64.57,192.65Z"/>
                <line class="cls-10" x1="36.75" y1="201.36" x2="59.09" y2="201.36"/>
                <path class="cls-10" d="M64.57,201.36A2.53,2.53,0,1,1,62,198.83,2.54,2.54,0,0,1,64.57,201.36Z"/>
                <polygon class="cls-10" points="42.04 228.06 21.32 228.06 27 196.27 36.36 196.27 42.04 228.06"/>
                <path class="cls-10" d="M58.79,227.47a5,5,0,0,1-5,5H9.54a5,5,0,0,1-5-5h0a5,5,0,0,1,5-5H53.82a5,5,0,0,1,5,5Z"/>
                <circle class="cls-10" cx="12.09" cy="227.47" r="1.85"/>
                <circle class="cls-10" cx="21.89" cy="227.47" r="1.85"/>
                <circle class="cls-10" cx="31.68" cy="227.47" r="1.85"/>
                <circle class="cls-10" cx="41.47" cy="227.47" r="1.85"/>
                <circle class="cls-10" cx="51.27" cy="227.47" r="1.85"/>
                <circle class="cls-10" cx="31.08" cy="192.27" r="9.08"/>
                <path class="cls-10" d="M43.47,195.57l4.31-.58v-4l-4.31-.59a12.13,12.13,0,0,0-1.61-3.89L44.49,183l-2.85-2.86-3.47,2.64a12,12,0,0,0-3.89-1.61l-.58-4.31h-4l-.59,4.31a12.13,12.13,0,0,0-3.89,1.61l-3.46-2.64L18.86,183l2.64,3.46a12.13,12.13,0,0,0-1.61,3.89l-4.31.59v4l4.31.58a12.09,12.09,0,0,0,1.61,3.9l-2.64,3.45,2.86,2.86,3.46-2.63a12.13,12.13,0,0,0,3.89,1.61l.59,4.31h4l.58-4.31a12,12,0,0,0,3.89-1.61l3.47,2.64,2.85-2.87-2.63-3.45A12.09,12.09,0,0,0,43.47,195.57Zm-11.79,2.77A5.37,5.37,0,1,1,37.05,193,5.37,5.37,0,0,1,31.68,198.34Z"/>
                <line class="cls-11" x1="45.12" y1="210.44" x2="45.12" y2="213.09"/>
                <line class="cls-11" x1="49.67" y1="210.44" x2="49.67" y2="213.09"/>
                <line class="cls-11" x1="54.21" y1="210.44" x2="54.21" y2="213.09"/>
                <line class="cls-11" x1="58.75" y1="210.44" x2="58.75" y2="213.09"/>
                <line class="cls-11" x1="63.29" y1="210.44" x2="63.29" y2="213.09"/>
                <line class="cls-11" x1="45.12" y1="216.12" x2="45.12" y2="218.77"/>
                <line class="cls-11" x1="49.67" y1="216.12" x2="49.67" y2="218.77"/>
                <line class="cls-11" x1="54.21" y1="216.12" x2="54.21" y2="218.77"/>
                <line class="cls-11" x1="58.75" y1="216.12" x2="58.75" y2="218.77"/>
                <line class="cls-11" x1="63.29" y1="216.12" x2="63.29" y2="218.77"/>
                <polygon class="cls-10" points="37.98 53.49 41.59 49.91 41.59 37.87 34.57 37.87 27.55 37.87 27.55 49.91 31.15 53.49 37.98 53.49"/>
                <path class="cls-10" d="M12.28,34.72a5.3,5.3,0,0,1,5.3-5.31h34a5.3,5.3,0,0,1,5.3,5.31h0a5.3,5.3,0,0,1-5.3,5.3h-34a5.3,5.3,0,0,1-5.3-5.3Z"/>
                <path class="cls-10" d="M48,34.86A1.86,1.86,0,0,1,49.9,33h0a1.87,1.87,0,0,1,1.87,1.86h0a1.87,1.87,0,0,1-1.87,1.86h0A1.86,1.86,0,0,1,48,34.86Z"/>
                <path class="cls-10" d="M40.37,34.86A1.86,1.86,0,0,1,42.23,33h0a1.87,1.87,0,0,1,1.87,1.86h0a1.87,1.87,0,0,1-1.87,1.86h0a1.86,1.86,0,0,1-1.86-1.86Z"/>
                <path class="cls-10" d="M32.7,34.86A1.87,1.87,0,0,1,34.57,33h0a1.86,1.86,0,0,1,1.86,1.86h0a1.86,1.86,0,0,1-1.86,1.86h0a1.87,1.87,0,0,1-1.87-1.86Z"/>
                <path class="cls-10" d="M25,34.86A1.86,1.86,0,0,1,26.9,33h0a1.86,1.86,0,0,1,1.86,1.86h0a1.86,1.86,0,0,1-1.86,1.86h0A1.86,1.86,0,0,1,25,34.86Z"/>
                <path class="cls-10" d="M17.37,34.86A1.86,1.86,0,0,1,19.23,33h0a1.86,1.86,0,0,1,1.86,1.86h0a1.86,1.86,0,0,1-1.86,1.86h0a1.86,1.86,0,0,1-1.86-1.86Z"/>
                <line class="cls-11" x1="36.86" y1="48.19" x2="32.27" y2="48.19"/>
                <line class="cls-11" x1="36.86" y1="44.89" x2="32.27" y2="44.89"/>
                <line class="cls-11" x1="34.57" y1="69.26" x2="34.57" y2="78.14"/>
                <polygon class="cls-10" points="38.51 62.81 38.51 58.65 38.51 54.49 36.54 54.49 34.57 54.49 32.6 54.49 30.63 54.49 30.63 58.65 30.63 62.81 30.63 66.82 38.51 66.82 38.51 62.81"/>
                <polygon class="cls-10" points="30.63 66.82 30.63 66.97 32.6 71.12 34.57 71.12 36.54 71.12 38.51 66.97 38.51 66.82 30.63 66.82"/>
                <rect class="cls-10" x="29.26" y="52.63" width="10.61" height="5.16"/>
                <line class="cls-11" x1="4.69" y1="78.14" x2="64.45" y2="78.14"/>
                <line class="cls-11" x1="39.93" y1="74.38" x2="41.4" y2="73.07"/>
                <line class="cls-11" x1="43.61" y1="71.09" x2="45.08" y2="69.77"/>
                <line class="cls-11" x1="47.28" y1="67.8" x2="48.75" y2="66.48"/>
                <line class="cls-11" x1="50.96" y1="64.5" x2="52.43" y2="63.19"/>
                <line class="cls-11" x1="29.2" y1="74.38" x2="27.73" y2="73.07"/>
                <line class="cls-11" x1="25.53" y1="71.09" x2="24.06" y2="69.77"/>
                <line class="cls-11" x1="21.85" y1="67.8" x2="20.38" y2="66.48"/>
                <line class="cls-11" x1="18.18" y1="64.5" x2="16.71" y2="63.19"/>
                <polygon class="cls-10" points="11.74 354.35 11.11 354.8 10.8 354.09 1.54 358.2 1.51 365.32 5.32 368.75 6 367.73 3.55 364.09 3.91 359.65 10.33 357.67 14.85 362.64 12.89 366.64 8.94 368.53 9 369.76 14.04 368.74 17.62 362.6 11.74 354.35"/>
                <path class="cls-10" d="M14.74,353.66a3.2,3.2,0,0,1-3.93,2.24h0A3.19,3.19,0,0,1,8.57,352l2.86-10.48a3.21,3.21,0,0,1,3.93-2.24h0a3.2,3.2,0,0,1,2.24,3.93Z"/>
                <path class="cls-10" d="M19.28,344.47a5.32,5.32,0,0,1-7.26-2h0a5.32,5.32,0,0,1,2-7.26l14.81-8.46a5.32,5.32,0,0,1,7.26,2h0a5.33,5.33,0,0,1-2,7.27Z"/>
                <path class="cls-10" d="M49,334.23a5.33,5.33,0,0,1,1.93,7.28h0a5.34,5.34,0,0,1-7.29,1.93l-14.73-8.57A5.32,5.32,0,0,1,27,327.59h0a5.32,5.32,0,0,1,7.28-1.93Z"/>
                <path class="cls-10" d="M33.18,328.6a2.24,2.24,0,1,1-3.06.81A2.25,2.25,0,0,1,33.18,328.6Z"/>
                <rect class="cls-10" x="33.11" y="346.99" width="27.49" height="27.06"/>
                <rect class="cls-10" x="26.08" y="370.85" width="41.55" height="8.74"/>
                <path class="cls-10" d="M52.18,355.67A5.32,5.32,0,0,1,46.86,361h0a5.32,5.32,0,0,1-5.33-5.33v-17a5.33,5.33,0,0,1,5.33-5.33h0a5.33,5.33,0,0,1,5.32,5.33Z"/>
                <path class="cls-10" d="M49.09,339.17a2.24,2.24,0,1,1-2.23-2.24A2.23,2.23,0,0,1,49.09,339.17Z"/>
                <path class="cls-10" d="M49.09,355.13a2.24,2.24,0,1,1-2.23-2.23A2.23,2.23,0,0,1,49.09,355.13Z"/>
                <line class="cls-11" x1="29.81" y1="374.26" x2="29.81" y2="375.96"/>
                <line class="cls-11" x1="33.22" y1="374.26" x2="33.22" y2="375.96"/>
                <line class="cls-11" x1="36.63" y1="374.26" x2="36.63" y2="375.96"/>
                <line class="cls-11" x1="40.04" y1="374.26" x2="40.04" y2="375.96"/>
                <line class="cls-11" x1="43.45" y1="374.26" x2="43.45" y2="375.96"/>
                <line class="cls-11" x1="46.86" y1="374.26" x2="46.86" y2="375.96"/>
                <line class="cls-11" x1="50.27" y1="374.26" x2="50.27" y2="375.96"/>
                <line class="cls-11" x1="53.67" y1="374.26" x2="53.67" y2="375.96"/>
                <line class="cls-11" x1="57.08" y1="374.26" x2="57.08" y2="375.96"/>
                <line class="cls-11" x1="60.49" y1="374.26" x2="60.49" y2="375.96"/>
                <line class="cls-11" x1="63.9" y1="374.26" x2="63.9" y2="375.96"/>
                <rect class="cls-10" x="27.95" y="498.65" width="14.76" height="14.39"/>
                <line class="cls-11" x1="32.43" y1="501.83" x2="32.43" y2="503.88"/>
                <line class="cls-11" x1="35.33" y1="501.83" x2="35.33" y2="503.88"/>
                <line class="cls-11" x1="38.22" y1="501.83" x2="38.22" y2="503.88"/>
                <rect class="cls-10" x="8.57" y="506.29" width="14.76" height="14.39"/>
                <line class="cls-11" x1="13.06" y1="509.46" x2="13.06" y2="511.52"/>
                <line class="cls-11" x1="15.95" y1="509.46" x2="15.95" y2="511.52"/>
                <line class="cls-11" x1="18.85" y1="509.46" x2="18.85" y2="511.52"/>
                <rect class="cls-10" x="47.33" y="506.29" width="14.76" height="14.39"/>
                <line class="cls-11" x1="51.81" y1="509.46" x2="51.81" y2="511.52"/>
                <line class="cls-11" x1="54.71" y1="509.46" x2="54.71" y2="511.52"/>
                <line class="cls-11" x1="57.6" y1="509.46" x2="57.6" y2="511.52"/>
                <line class="cls-11" x1="21.72" y1="489.23" x2="21.72" y2="498.62"/>
                <rect class="cls-10" x="19.65" y="482.03" width="4.15" height="9.38"/>
                <rect class="cls-10" x="18.41" y="490.63" width="6.63" height="2.44"/>
                <line class="cls-11" x1="35.33" y1="489.23" x2="35.33" y2="498.62"/>
                <rect class="cls-10" x="33.26" y="482.03" width="4.15" height="9.38"/>
                <rect class="cls-10" x="32.01" y="490.63" width="6.63" height="2.44"/>
                <line class="cls-11" x1="48.93" y1="489.23" x2="48.93" y2="498.62"/>
                <rect class="cls-10" x="46.86" y="482.03" width="4.15" height="9.38"/>
                <rect class="cls-10" x="45.62" y="490.63" width="6.63" height="2.44"/>
                <rect class="cls-10" x="13.87" y="479.46" width="42.91" height="5.58"/>
                <line class="cls-11" y1="520.68" x2="69.13" y2="520.68"/>
                <rect class="cls-12" x="173.06" y="266.03" width="69.96" height="24.15" rx="3"/>
                <line class="cls-13" x1="235.67" y1="278.11" x2="227.54" y2="278.11"/>
                <line class="cls-13" x1="222.41" y1="278.11" x2="214.29" y2="278.11"/>
                <path class="cls-12" d="M185.74,229.44h0a2.68,2.68,0,0,1,2.68,2.68V266a0,0,0,0,1,0,0h-5.37a0,0,0,0,1,0,0V232.13a2.68,2.68,0,0,1,2.68-2.68Z"/>
                <path class="cls-12" d="M230.33,229.44h0a2.68,2.68,0,0,1,2.68,2.68V266a0,0,0,0,1,0,0h-5.37a0,0,0,0,1,0,0V232.13a2.68,2.68,0,0,1,2.68-2.68Z"/>
                <circle class="cls-12" cx="185.18" cy="278.11" r="5.35"/>
                <rect class="cls-14" x="313.73" width="201.8" height="550.25" rx="14.86"/>
                <text class="cls-3" transform="translate(396.29 582.94)">Users</text>
                <rect class="cls-12" x="347.94" y="30.2" width="133.39" height="101.24" rx="5"/>
                <line class="cls-12" x1="347.94" y1="43.6" x2="481.32" y2="43.6"/>
                <circle class="cls-2" cx="356.55" cy="36.58" r="2.08"/>
                <circle class="cls-2" cx="365" cy="36.58" r="2.08"/>
                <circle class="cls-2" cx="373.46" cy="36.58" r="2.08"/>
                <rect class="cls-12" x="358.62" y="50.49" width="86.97" height="18.31"/>
                <circle class="cls-15" cx="460.6" cy="57.41" r="7.04"/>
                <line class="cls-15" x1="465.53" y1="62.44" x2="471.31" y2="68.22"/>
                <line class="cls-13" x1="358.62" y1="83.29" x2="365.91" y2="83.29"/>
                <line class="cls-13" x1="374.39" y1="83.29" x2="469.27" y2="83.29"/>
                <line class="cls-15" x1="358.62" y1="93.86" x2="365.91" y2="93.86"/>
                <line class="cls-15" x1="374.39" y1="93.86" x2="469.27" y2="93.86"/>
                <line class="cls-13" x1="358.62" y1="104.42" x2="365.91" y2="104.42"/>
                <line class="cls-13" x1="374.39" y1="104.42" x2="469.27" y2="104.42"/>
                <line class="cls-13" x1="358.62" y1="114.98" x2="365.91" y2="114.98"/>
                <line class="cls-13" x1="374.39" y1="114.98" x2="469.27" y2="114.98"/>
                <rect class="cls-12" x="347.94" y="224.51" width="133.39" height="101.24" rx="5"/>
                <line class="cls-12" x1="347.94" y1="237.91" x2="481.32" y2="237.91"/>
                <circle class="cls-2" cx="356.55" cy="230.89" r="2.08"/>
                <circle class="cls-2" cx="365" cy="230.89" r="2.08"/>
                <circle class="cls-2" cx="373.46" cy="230.89" r="2.08"/>
                <polyline class="cls-10" points="359.18 305.74 357.55 304.28 357.57 299.67 363.57 297.01 363.77 297.46 364.18 297.17 367.99 302.52 365.67 306.49 363.73 306.88"/>
                <path class="cls-10" d="M366.12,296.73a2.07,2.07,0,0,1-2.54,1.45h0a2.07,2.07,0,0,1-1.45-2.54l1.85-6.79a2.07,2.07,0,0,1,2.54-1.45h0a2.07,2.07,0,0,1,1.46,2.54Z"/>
                <path class="cls-10" d="M369.07,290.77a3.45,3.45,0,0,1-4.71-1.28h0a3.45,3.45,0,0,1,1.29-4.71l9.58-5.47a3.45,3.45,0,0,1,4.71,1.29h0a3.44,3.44,0,0,1-1.29,4.7Z"/>
                <path class="cls-10" d="M388.31,284.14a3.47,3.47,0,0,1,1.25,4.72h0a3.46,3.46,0,0,1-4.72,1.25l-9.54-5.55a3.45,3.45,0,0,1-1.25-4.72h0a3.45,3.45,0,0,1,4.71-1.24Z"/>
                <path class="cls-2" d="M378.06,280.5A1.45,1.45,0,0,1,376.6,283a1.45,1.45,0,0,1,1.46-2.51Z"/>
                <rect class="cls-10" x="378.02" y="292.41" width="17.8" height="17.52"/>
                <rect class="cls-10" x="373.47" y="307.86" width="26.9" height="5.66"/>
                <path class="cls-10" d="M390.37,298a3.45,3.45,0,0,1-3.45,3.45h0a3.44,3.44,0,0,1-3.45-3.45V287a3.45,3.45,0,0,1,3.45-3.45h0a3.46,3.46,0,0,1,3.45,3.45Z"/>
                <path class="cls-2" d="M388.37,287.34a1.45,1.45,0,1,1-1.45-1.45A1.45,1.45,0,0,1,388.37,287.34Z"/>
                <path class="cls-2" d="M388.37,297.68a1.45,1.45,0,1,1-1.45-1.45A1.45,1.45,0,0,1,388.37,297.68Z"/>
                <line class="cls-13" x1="359.31" y1="251.73" x2="365.06" y2="251.73"/>
                <line class="cls-13" x1="371.75" y1="251.73" x2="395.82" y2="251.73"/>
                <line class="cls-13" x1="359.31" y1="262.11" x2="365.06" y2="262.11"/>
                <line class="cls-13" x1="371.75" y1="262.11" x2="395.82" y2="262.11"/>
                <line class="cls-13" x1="404.38" y1="251.73" x2="410.13" y2="251.73"/>
                <line class="cls-13" x1="416.83" y1="251.73" x2="440.89" y2="251.73"/>
                <line class="cls-13" x1="404.38" y1="262.11" x2="410.13" y2="262.11"/>
                <line class="cls-13" x1="416.83" y1="262.11" x2="440.89" y2="262.11"/>
                <path class="cls-15" d="M461.87,265.91h-2.43a.56.56,0,0,1-.55-.45v0l-.31-1.94-1.38-.57-1.6,1.15a.59.59,0,0,1-.73-.06l-1.71-1.72a.58.58,0,0,1-.06-.74l1.14-1.59-.57-1.37-1.94-.32h0a.58.58,0,0,1-.45-.56v-2.43a.57.57,0,0,1,.45-.55h0l1.94-.32.57-1.38-1.14-1.59a.56.56,0,0,1,.06-.73l1.71-1.72a.59.59,0,0,1,.74-.05l1.59,1.14,1.38-.57.31-1.94v0a.56.56,0,0,1,.55-.45h2.43a.56.56,0,0,1,.55.45v0l.32,1.94,1.38.57,1.6-1.15a.59.59,0,0,1,.73.06l1.71,1.72a.55.55,0,0,1,0,.73L467.07,253l.57,1.38,1.94.32h0a.57.57,0,0,1,.46.55v2.43a.58.58,0,0,1-.46.56h0l-1.94.32-.57,1.37,1.15,1.6a.56.56,0,0,1-.06.73L466.44,264a.57.57,0,0,1-.39.16h0a.55.55,0,0,1-.34-.11l-1.59-1.14-1.38.57-.32,1.94v0A.56.56,0,0,1,461.87,265.91Z"/>
                <circle class="cls-15" cx="460.65" cy="256.51" r="2.89"/>
                <line class="cls-13" x1="412.02" y1="314.5" x2="412.02" y2="305.26"/>
                <line class="cls-13" x1="419.17" y1="314.5" x2="419.17" y2="300.81"/>
                <line class="cls-13" x1="426.31" y1="314.5" x2="426.31" y2="290.57"/>
                <line class="cls-13" x1="433.46" y1="314.5" x2="433.46" y2="297.06"/>
                <circle class="cls-13" cx="458.61" cy="300.43" r="13.09"/>
                <polyline class="cls-13" points="458.61 287.34 458.61 300.43 466.73 310.69"/>
                <line class="cls-12" x1="458.61" y1="300.43" x2="448.27" y2="292.41"/>
                <rect class="cls-12" x="347.94" y="418.82" width="133.39" height="101.24" rx="5"/>
                <line class="cls-12" x1="347.94" y1="432.22" x2="481.32" y2="432.22"/>
                <circle class="cls-2" cx="356.55" cy="425.2" r="2.08"/>
                <circle class="cls-2" cx="365" cy="425.2" r="2.08"/>
                <circle class="cls-2" cx="373.46" cy="425.2" r="2.08"/>
                <polyline class="cls-10" points="432.87 485.2 431.25 483.74 431.27 479.13 437.27 476.47 437.47 476.93 437.88 476.63 441.69 481.98 439.37 485.95 437.43 486.35"/>
                <path class="cls-10" d="M439.82,476.19a2.07,2.07,0,0,1-2.54,1.45h0a2.06,2.06,0,0,1-1.45-2.54l1.85-6.79a2.07,2.07,0,0,1,2.54-1.45h0a2.06,2.06,0,0,1,1.45,2.54Z"/>
                <path class="cls-10" d="M442.76,470.24a3.45,3.45,0,0,1-4.7-1.29h0a3.45,3.45,0,0,1,1.28-4.71l9.59-5.47a3.46,3.46,0,0,1,4.71,1.29h0a3.45,3.45,0,0,1-1.29,4.7Z"/>
                <path class="cls-10" d="M462,463.6a3.46,3.46,0,0,1,1.24,4.72h0a3.44,3.44,0,0,1-4.71,1.25L449,464a3.45,3.45,0,0,1-1.25-4.72h0a3.45,3.45,0,0,1,4.71-1.24Z"/>
                <path class="cls-2" d="M451.76,460a1.45,1.45,0,1,1-2,.53A1.44,1.44,0,0,1,451.76,460Z"/>
                <rect class="cls-10" x="451.72" y="471.87" width="17.8" height="17.52"/>
                <rect class="cls-10" x="447.17" y="487.32" width="26.9" height="5.66"/>
                <path class="cls-10" d="M464.07,477.49a3.45,3.45,0,0,1-3.45,3.45h0a3.44,3.44,0,0,1-3.45-3.45v-11a3.45,3.45,0,0,1,3.45-3.45h0a3.46,3.46,0,0,1,3.45,3.45Z"/>
                <path class="cls-2" d="M462.07,466.8a1.45,1.45,0,1,1-1.45-1.45A1.45,1.45,0,0,1,462.07,466.8Z"/>
                <path class="cls-2" d="M462.07,477.14a1.45,1.45,0,1,1-1.45-1.45A1.45,1.45,0,0,1,462.07,477.14Z"/>
                <polyline class="cls-15" points="387.02 476.39 387.02 465.92 383.4 462.31 366.56 462.31 362.94 465.92 362.94 482.77 366.56 486.38 377.18 486.38"/>
                <polyline class="cls-15" points="370.32 469.98 366.27 474.35 370.32 478.71"/>
                <polyline class="cls-15" points="379.64 478.71 383.69 474.35 379.64 469.98"/>
                <line class="cls-15" x1="376.5" y1="469.98" x2="373.46" y2="478.71"/>
                <line class="cls-15" x1="389.07" y1="466.1" x2="392.47" y2="466.1"/>
                <line class="cls-15" x1="357.13" y1="466.1" x2="360.52" y2="466.1"/>
                <line class="cls-15" x1="357.13" y1="470.22" x2="360.52" y2="470.22"/>
                <line class="cls-15" x1="357.13" y1="474.35" x2="360.52" y2="474.35"/>
                <line class="cls-15" x1="357.13" y1="478.47" x2="360.52" y2="478.47"/>
                <line class="cls-15" x1="357.13" y1="482.59" x2="360.52" y2="482.59"/>
                <line class="cls-15" x1="366.55" y1="460.07" x2="366.55" y2="456.67"/>
                <line class="cls-15" x1="370.68" y1="460.07" x2="370.68" y2="456.67"/>
                <line class="cls-15" x1="374.8" y1="460.07" x2="374.8" y2="456.67"/>
                <line class="cls-15" x1="378.92" y1="460.07" x2="378.92" y2="456.67"/>
                <line class="cls-15" x1="383.04" y1="460.07" x2="383.04" y2="456.67"/>
                <line class="cls-15" x1="366.55" y1="492.02" x2="366.55" y2="488.62"/>
                <line class="cls-15" x1="370.68" y1="492.02" x2="370.68" y2="488.62"/>
                <polygon class="cls-15" points="392.7 470.62 398.39 476.31 381.8 492.89 376.12 492.89 376.12 487.2 392.7 470.62"/>
                <line class="cls-15" x1="395.7" y1="479" x2="390.01" y2="473.31"/>
                <polygon class="cls-10" points="423.23 474.51 411.92 463.2 411.92 467.72 406.41 467.72 406.41 481.3 411.92 481.3 411.92 485.82 423.23 474.51"/>
            </g>
        </g>
    </g>
</svg>