<svg xmlns="http://www.w3.org/2000/svg" viewBox="0 0 135.39 103.24"><defs><style>.cls-1,.cls-3{fill:#fff;stroke:#444;}.cls-1,.cls-4{stroke-miterlimit:10;}.cls-1,.cls-3,.cls-4{stroke-width:2px;}.cls-2{fill:#444;}.cls-4{fill:none;stroke:#00bce7;}</style></defs><g id="레이어_2" data-name="레이어 2"><g id="Layer_1" data-name="Layer 1"><rect class="cls-1" x="1" y="1" width="133.39" height="101.24" rx="5"/><line class="cls-1" x1="1" y1="14.4" x2="134.39" y2="14.4"/><circle class="cls-2" cx="9.61" cy="7.38" r="2.08"/><circle class="cls-2" cx="18.07" cy="7.38" r="2.08"/><circle class="cls-2" cx="26.52" cy="7.38" r="2.08"/><polyline class="cls-3" points="85.94 67.38 84.32 65.92 84.34 61.31 90.34 58.65 90.54 59.1 90.94 58.81 94.75 64.16 92.43 68.13 90.49 68.52"/><path class="cls-3" d="M92.88,58.37a2.07,2.07,0,0,1-2.54,1.45h0a2.07,2.07,0,0,1-1.45-2.54l1.85-6.79A2.08,2.08,0,0,1,93.29,49h0a2.07,2.07,0,0,1,1.45,2.54Z"/><path class="cls-3" d="M95.83,52.41a3.45,3.45,0,0,1-4.71-1.28h0a3.45,3.45,0,0,1,1.29-4.71L102,41a3.45,3.45,0,0,1,4.71,1.29h0a3.44,3.44,0,0,1-1.29,4.7Z"/><path class="cls-3" d="M115.07,45.78a3.45,3.45,0,0,1,1.25,4.72h0a3.46,3.46,0,0,1-4.72,1.25l-9.54-5.55a3.45,3.45,0,0,1-1.25-4.72h0a3.46,3.46,0,0,1,4.72-1.24Z"/><path class="cls-2" d="M104.82,42.14a1.45,1.45,0,1,1-2,.53A1.45,1.45,0,0,1,104.82,42.14Z"/><rect class="cls-3" x="104.78" y="54.05" width="17.8" height="17.52"/><rect class="cls-3" x="100.23" y="69.5" width="26.9" height="5.66"/><path class="cls-3" d="M117.13,59.67a3.44,3.44,0,0,1-3.45,3.45h0a3.45,3.45,0,0,1-3.45-3.45v-11a3.46,3.46,0,0,1,3.45-3.45h0a3.45,3.45,0,0,1,3.45,3.45Z"/><path class="cls-2" d="M115.13,49a1.45,1.45,0,1,1-1.45-1.45A1.45,1.45,0,0,1,115.13,49Z"/><path class="cls-2" d="M115.13,59.32a1.45,1.45,0,1,1-1.45-1.45A1.45,1.45,0,0,1,115.13,59.32Z"/><polyline class="cls-4" points="40.08 58.57 40.08 48.1 36.47 44.49 19.62 44.49 16.01 48.1 16.01 64.95 19.62 68.56 30.24 68.56"/><polyline class="cls-4" points="23.38 52.16 19.33 56.52 23.38 60.89"/><polyline class="cls-4" points="32.7 60.89 36.76 56.52 32.7 52.16"/><line class="cls-4" x1="29.56" y1="52.16" x2="26.52" y2="60.89"/><line class="cls-4" x1="42.14" y1="48.28" x2="45.53" y2="48.28"/><line class="cls-4" x1="10.19" y1="48.28" x2="13.59" y2="48.28"/><line class="cls-4" x1="10.19" y1="52.4" x2="13.59" y2="52.4"/><line class="cls-4" x1="10.19" y1="56.53" x2="13.59" y2="56.53"/><line class="cls-4" x1="10.19" y1="60.65" x2="13.59" y2="60.65"/><line class="cls-4" x1="10.19" y1="64.77" x2="13.59" y2="64.77"/><line class="cls-4" x1="19.62" y1="42.25" x2="19.62" y2="38.85"/><line class="cls-4" x1="23.74" y1="42.25" x2="23.74" y2="38.85"/><line class="cls-4" x1="27.86" y1="42.25" x2="27.86" y2="38.85"/><line class="cls-4" x1="31.98" y1="42.25" x2="31.98" y2="38.85"/><line class="cls-4" x1="36.1" y1="42.25" x2="36.1" y2="38.85"/><line class="cls-4" x1="19.62" y1="74.2" x2="19.62" y2="70.8"/><line class="cls-4" x1="23.74" y1="74.2" x2="23.74" y2="70.8"/><polygon class="cls-4" points="45.77 52.8 51.45 58.48 34.87 75.07 29.18 75.07 29.18 69.38 45.77 52.8"/><line class="cls-4" x1="48.76" y1="61.18" x2="43.08" y2="55.49"/><polygon class="cls-3" points="76.3 56.69 64.99 45.38 64.99 49.9 59.48 49.9 59.48 63.48 64.99 63.48 64.99 68 76.3 56.69"/></g></g></svg>