<svg xmlns="http://www.w3.org/2000/svg" viewBox="0 0 258.3 477.39">
    <defs>
        <style>
        @import url("/css/font.css");
        .cls-1{font-size:14px;font-family:NanumSquareR, NanumSquare;}
        .cls-1,.cls-5{fill:#444;}
        .cls-2{letter-spacing:0em;}
        .cls-3,.cls-6{fill:none;}
        .cls-3,.cls-4,.cls-6{stroke:#444;stroke-miterlimit:10;}
        .cls-3{stroke-width:1.09px;stroke-dasharray:2.18 4.37;}
        .cls-4{fill:#fff;}
        .cls-4,.cls-6{stroke-width:2.18px;}</style>
    </defs>
    <g id="레이어_2" data-name="레이어 2">
        <g id="Layer_1" data-name="Layer 1">
            <text class="cls-1" transform="translate(94.84 11.06)">수질측정기</text>
            <text class="cls-1" transform="translate(93.09 473.9)">웹 브라우저</text>
            <text class="cls-1" transform="translate(207.64 144.27)">웹서버</text>
            <text class="cls-1" transform="translate(195.2 253.5)">DB Ser<tspan class="cls-2" x="43.05" y="0">v</tspan>
                <tspan x="49.99" y="0">er</tspan>
            </text>
            <line class="cls-3" x1="175.24" y1="200.12" x2="117.7" y2="227.43"/>
            <line class="cls-3" x1="175.24" y1="286.38" x2="117.7" y2="259.07"/>
            <line class="cls-3" x1="36.38" y1="91.84" x2="36.38" y2="178.91"/>
            <line class="cls-3" x1="119.59" y1="91.84" x2="64.97" y2="178.91"/>
            <line class="cls-3" x1="202.8" y1="91.84" x2="104.47" y2="178.91"/>
            <line class="cls-3" x1="36.38" y1="395.79" x2="36.38" y2="308.73"/>
            <line class="cls-3" x1="119.59" y1="395.79" x2="64.97" y2="308.73"/>
            <line class="cls-3" x1="202.8" y1="395.79" x2="104.47" y2="308.73"/>
            <rect class="cls-4" x="203.79" y="411.54" width="45.93" height="34.86"/>
            <line class="cls-4" x1="203.79" y1="419.61" x2="249.71" y2="419.61"/>
            <circle class="cls-5" cx="209.31" cy="415.57" r="1.43"/>
            <circle class="cls-5" cx="215.1" cy="415.57" r="1.43"/>
            <line class="cls-4" x1="210.21" y1="441.66" x2="210.21" y2="435.72"/>
            <line class="cls-4" x1="214.57" y1="441.66" x2="214.57" y2="433.1"/>
            <line class="cls-4" x1="218.93" y1="441.66" x2="218.93" y2="426.82"/>
            <line class="cls-4" x1="223.29" y1="441.66" x2="223.29" y2="435.13"/>
            <circle class="cls-4" cx="236.36" cy="433.15" r="7.87"/>
            <polyline class="cls-4" points="236.36 425.28 236.36 433.15 240.33 439.94"/>
            <rect class="cls-4" x="103.73" y="411.54" width="45.93" height="34.86"/>
            <line class="cls-4" x1="103.73" y1="419.61" x2="149.66" y2="419.61"/>
            <circle class="cls-5" cx="109.25" cy="415.57" r="1.43"/>
            <circle class="cls-5" cx="115.04" cy="415.57" r="1.43"/>
            <line class="cls-4" x1="110.15" y1="441.66" x2="110.15" y2="435.72"/>
            <line class="cls-4" x1="114.51" y1="441.66" x2="114.51" y2="433.1"/>
            <line class="cls-4" x1="118.87" y1="441.66" x2="118.87" y2="426.82"/>
            <line class="cls-4" x1="123.23" y1="441.66" x2="123.23" y2="435.13"/>
            <circle class="cls-4" cx="136.3" cy="433.15" r="7.87"/>
            <polyline class="cls-4" points="136.3 425.28 136.3 433.15 140.27 439.94"/>
            <rect class="cls-4" x="1.09" y="411.54" width="45.93" height="34.86"/>
            <line class="cls-4" x1="1.09" y1="419.61" x2="47.02" y2="419.61"/>
            <circle class="cls-5" cx="6.61" cy="415.57" r="1.43"/>
            <circle class="cls-5" cx="12.4" cy="415.57" r="1.43"/>
            <line class="cls-4" x1="7.52" y1="441.66" x2="7.52" y2="435.72"/>
            <line class="cls-4" x1="11.88" y1="441.66" x2="11.88" y2="433.1"/>
            <line class="cls-4" x1="16.24" y1="441.66" x2="16.24" y2="426.82"/>
            <line class="cls-4" x1="20.6" y1="441.66" x2="20.6" y2="435.13"/>
            <circle class="cls-4" cx="33.67" cy="433.15" r="7.87"/>
            <polyline class="cls-4" points="33.67 425.28 33.67 433.15 37.63 439.94"/>
            <path class="cls-4" d="M30.84,43.36V53.51A3.87,3.87,0,0,0,31.73,56l3.36,4V71.58A3.86,3.86,0,0,0,39,75.44h8.58a3.86,3.86,0,0,0,3.86-3.86V60l3.35-4a3.81,3.81,0,0,0,.89-2.46V43.36a3.86,3.86,0,0,0-3.86-3.86H34.7A3.86,3.86,0,0,0,30.84,43.36Z"/>
            <rect class="cls-4" x="35.09" y="44.19" width="16.3" height="10.09" rx="2.01"/>
            <line class="cls-6" x1="39.43" y1="60.18" x2="39.43" y2="62.26"/>
            <line class="cls-6" x1="43.24" y1="60.18" x2="43.24" y2="62.26"/>
            <line class="cls-6" x1="47.05" y1="60.18" x2="47.05" y2="62.26"/>
            <line class="cls-6" x1="39.43" y1="64.46" x2="39.43" y2="66.54"/>
            <line class="cls-6" x1="43.24" y1="64.46" x2="43.24" y2="66.54"/>
            <line class="cls-6" x1="47.05" y1="64.46" x2="47.05" y2="66.54"/>
            <line class="cls-6" x1="39.43" y1="68.74" x2="39.43" y2="70.82"/>
            <line class="cls-6" x1="43.24" y1="68.74" x2="43.24" y2="70.82"/>
            <line class="cls-6" x1="47.05" y1="68.74" x2="47.05" y2="70.82"/>
            <path class="cls-6" d="M0,65.81c3.08,0,3.08,2,6.17,2s3.08-2,6.16-2,3.08,2,6.17,2,3.09-2,6.17-2,3.09,2,6.17,2"/>
            <path class="cls-6" d="M0,59.2c3.08,0,3.08,2,6.17,2s3.08-2,6.16-2,3.08,2,6.17,2,3.09-2,6.17-2,3.09,2,6.17,2"/>
            <path class="cls-6" d="M0,72.42c3.08,0,3.08,2,6.17,2s3.08-2,6.16-2,3.08,2,6.17,2,3.09-2,6.17-2,3.09,2,6.17,2"/>
            <path class="cls-6" d="M15.42,50.31V36.86a8.05,8.05,0,0,1,8.06-8h11.7a8.05,8.05,0,0,1,8.06,8.05V39.5"/>
            <rect class="cls-4" x="11.96" y="50.31" width="6.92" height="19.73" rx="3.02"/>
            <path class="cls-4" d="M129.17,43.36V53.51a3.87,3.87,0,0,0,.89,2.46l3.36,4V71.58a3.86,3.86,0,0,0,3.86,3.86h8.58a3.86,3.86,0,0,0,3.86-3.86V60l3.35-4a3.81,3.81,0,0,0,.89-2.46V43.36a3.86,3.86,0,0,0-3.86-3.86H133A3.86,3.86,0,0,0,129.17,43.36Z"/>
            <rect class="cls-4" x="133.42" y="44.19" width="16.3" height="10.09" rx="2.01"/>
            <line class="cls-6" x1="137.76" y1="60.18" x2="137.76" y2="62.26"/>
            <line class="cls-6" x1="141.57" y1="60.18" x2="141.57" y2="62.26"/>
            <line class="cls-6" x1="145.38" y1="60.18" x2="145.38" y2="62.26"/>
            <line class="cls-6" x1="137.76" y1="64.46" x2="137.76" y2="66.54"/>
            <line class="cls-6" x1="141.57" y1="64.46" x2="141.57" y2="66.54"/>
            <line class="cls-6" x1="145.38" y1="64.46" x2="145.38" y2="66.54"/>
            <line class="cls-6" x1="137.76" y1="68.74" x2="137.76" y2="70.82"/>
            <line class="cls-6" x1="141.57" y1="68.74" x2="141.57" y2="70.82"/>
            <line class="cls-6" x1="145.38" y1="68.74" x2="145.38" y2="70.82"/>
            <path class="cls-6" d="M98.33,65.81c3.08,0,3.08,2,6.17,2s3.08-2,6.16-2,3.08,2,6.17,2,3.08-2,6.17-2,3.09,2,6.17,2"/>
            <path class="cls-6" d="M98.33,59.2c3.08,0,3.08,2,6.17,2s3.08-2,6.16-2,3.08,2,6.17,2,3.08-2,6.17-2,3.09,2,6.17,2"/>
            <path class="cls-6" d="M98.33,72.42c3.08,0,3.08,2,6.17,2s3.08-2,6.16-2,3.08,2,6.17,2,3.08-2,6.17-2,3.09,2,6.17,2"/>
            <path class="cls-6" d="M113.75,50.31V36.86a8.05,8.05,0,0,1,8.06-8h11.7a8.05,8.05,0,0,1,8.06,8.05V39.5"/>
            <rect class="cls-4" x="110.29" y="50.31" width="6.92" height="19.73" rx="3.02"/>
            <path class="cls-4" d="M229.23,43.36V53.51a3.87,3.87,0,0,0,.89,2.46l3.36,4V71.58a3.85,3.85,0,0,0,3.85,3.86h8.59a3.86,3.86,0,0,0,3.86-3.86V60l3.35-4a3.87,3.87,0,0,0,.89-2.46V43.36a3.86,3.86,0,0,0-3.86-3.86H233.09A3.86,3.86,0,0,0,229.23,43.36Z"/>
            <rect class="cls-4" x="233.48" y="44.19" width="16.3" height="10.09" rx="2.01"/>
            <line class="cls-6" x1="237.82" y1="60.18" x2="237.82" y2="62.26"/>
            <line class="cls-6" x1="241.63" y1="60.18" x2="241.63" y2="62.26"/>
            <line class="cls-6" x1="245.43" y1="60.18" x2="245.43" y2="62.26"/>
            <line class="cls-6" x1="237.82" y1="64.46" x2="237.82" y2="66.54"/>
            <line class="cls-6" x1="241.63" y1="64.46" x2="241.63" y2="66.54"/>
            <line class="cls-6" x1="245.43" y1="64.46" x2="245.43" y2="66.54"/>
            <line class="cls-6" x1="237.82" y1="68.74" x2="237.82" y2="70.82"/>
            <line class="cls-6" x1="241.63" y1="68.74" x2="241.63" y2="70.82"/>
            <line class="cls-6" x1="245.43" y1="68.74" x2="245.43" y2="70.82"/>
            <path class="cls-6" d="M198.39,65.81c3.08,0,3.08,2,6.17,2s3.08-2,6.16-2,3.08,2,6.17,2,3.08-2,6.17-2,3.09,2,6.17,2"/>
            <path class="cls-6" d="M198.39,59.2c3.08,0,3.08,2,6.17,2s3.08-2,6.16-2,3.08,2,6.17,2,3.08-2,6.17-2,3.09,2,6.17,2"/>
            <path class="cls-6" d="M198.39,72.42c3.08,0,3.08,2,6.17,2s3.08-2,6.16-2,3.08,2,6.17,2,3.08-2,6.17-2,3.09,2,6.17,2"/>
            <path class="cls-6" d="M213.81,50.31V36.86a8.05,8.05,0,0,1,8.06-8h11.7a8.05,8.05,0,0,1,8.06,8.05V39.5"/>
            <rect class="cls-4" x="210.35" y="50.31" width="6.92" height="19.73" rx="3.02"/>
            <rect class="cls-4" x="219.95" y="163.01" width="27.05" height="44.58"/>
            <line class="cls-4" x1="226.79" y1="170.75" x2="240.07" y2="170.75"/>
            <line class="cls-4" x1="226.79" y1="177.53" x2="240.07" y2="177.53"/>
            <rect class="cls-4" x="206.5" y="170.79" width="27.05" height="44.58"/>
            <circle class="cls-4" cx="220.03" cy="195.95" r="2.86"/>
            <line class="cls-4" x1="213.34" y1="178.53" x2="226.63" y2="178.53"/>
            <line class="cls-4" x1="213.34" y1="185.31" x2="226.63" y2="185.31"/>
            <path class="cls-4" d="M74.84,235.75l-.51,0a16,16,0,0,0-15.46-12A16.49,16.49,0,0,0,56,224a22.33,22.33,0,0,0-42.61,9.32v.29h0v2.1a10,10,0,1,0,0,19.93H74.84a10,10,0,0,0,0-19.93Z"/>
            <circle class="cls-4" cx="44.09" cy="271.22" r="5.39"/>
            <line class="cls-4" x1="17.96" y1="271.22" x2="38.7" y2="271.22"/>
            <line class="cls-4" x1="49.48" y1="271.22" x2="70.22" y2="271.22"/>
            <line class="cls-4" x1="44.05" y1="255.68" x2="44.05" y2="265.78"/>
            <line class="cls-4" x1="203.9" y1="322.13" x2="222.03" y2="322.13"/>
            <line class="cls-4" x1="231.47" y1="322.13" x2="249.6" y2="322.13"/>
            <line class="cls-4" x1="226.71" y1="308.54" x2="226.71" y2="317.37"/>
            <circle class="cls-4" cx="226.75" cy="322.13" r="4.72"/>
            <rect class="cls-4" x="213.84" y="270.04" width="25.83" height="38.51"/>
            <circle class="cls-4" cx="226.75" cy="294.05" r="2.74"/>
            <line class="cls-4" x1="220.37" y1="277.42" x2="233.05" y2="277.42"/>
            <line class="cls-4" x1="220.37" y1="283.89" x2="233.05" y2="283.89"/>
        </g>
    </g>
</svg>