<svg xmlns="http://www.w3.org/2000/svg" viewBox="0 0 300.73 315.12">
    <defs>
        <style>
        @import url("/css/font.css");
        .cls-1,.cls-5,.cls-7{fill:none;}
        .cls-1,.cls-4,.cls-5,.cls-6,.cls-7{stroke:#444;}
        .cls-1,.cls-6,.cls-7{stroke-miterlimit:10;}
        .cls-1{stroke-dasharray:2 4;}
        .cls-2,.cls-3{fill:#444;}
        .cls-3{font-size:18px;font-family:NanumSquareB, NanumSquare;font-weight: 700;}
        .cls-4,.cls-6{fill:#fff;}
        .cls-4,.cls-5,.cls-6,.cls-7{stroke-width:2px;}</style>
    </defs>
    <g id="레이어_2" data-name="레이어 2">
        <g id="Layer_1" data-name="Layer 1">
            <line class="cls-1" x1="150.36" y1="28.02" x2="150.36" y2="43"/>
            <polygon class="cls-2" points="145.38 41.54 150.36 50.18 155.35 41.54 145.38 41.54"/>
            <text class="cls-3" transform="translate(95.3 195.23)">User’s Device</text>
            <line class="cls-1" x1="150.36" y1="155.34" x2="150.36" y2="169.82"/>
            <path class="cls-1" d="M32,231.61v-8.38a11,11,0,0,1,11-11H257.77a11,11,0,0,1,11,11v8.38"/>
            <polygon class="cls-2" points="36.95 230.15 31.96 238.78 26.97 230.15 36.95 230.15"/>
            <polygon class="cls-2" points="263.78 230.15 268.77 238.78 273.75 230.15 263.78 230.15"/>
            <line class="cls-1" x1="110.75" y1="212.23" x2="110.75" y2="231.61"/>
            <polygon class="cls-2" points="105.77 230.15 110.75 238.78 115.74 230.15 105.77 230.15"/>
            <line class="cls-1" x1="189.76" y1="212.23" x2="189.76" y2="231.61"/>
            <polygon class="cls-2" points="184.77 230.15 189.76 238.78 194.75 230.15 184.77 230.15"/>
            <line class="cls-4" x1="112.93" y1="274.33" x2="135.27" y2="274.33"/>
            <path class="cls-4" d="M140.75,274.33a2.53,2.53,0,1,1-2.53-2.53A2.53,2.53,0,0,1,140.75,274.33Z"/>
            <line class="cls-4" x1="112.93" y1="283.04" x2="135.27" y2="283.04"/>
            <path class="cls-4" d="M140.75,283a2.53,2.53,0,1,1-2.53-2.53A2.53,2.53,0,0,1,140.75,283Z"/>
            <polygon class="cls-4" points="118.22 309.75 97.5 309.75 103.18 277.95 112.55 277.95 118.22 309.75"/>
            <path class="cls-4" d="M135,309.16a5,5,0,0,1-5,5H85.72a5,5,0,0,1-5-5h0a5,5,0,0,1,5-5H130a5,5,0,0,1,5,5Z"/>
            <circle class="cls-4" cx="88.28" cy="309.16" r="1.85"/>
            <circle class="cls-4" cx="98.07" cy="309.16" r="1.85"/>
            <circle class="cls-4" cx="107.86" cy="309.16" r="1.85"/>
            <circle class="cls-4" cx="117.66" cy="309.16" r="1.85"/>
            <circle class="cls-4" cx="127.45" cy="309.16" r="1.85"/>
            <circle class="cls-4" cx="107.26" cy="273.95" r="9.08"/>
            <path class="cls-4" d="M119.65,277.25l4.32-.58v-4l-4.32-.58a11.87,11.87,0,0,0-1.61-3.9l2.64-3.46-2.86-2.86-3.46,2.64a12.13,12.13,0,0,0-3.89-1.61l-.58-4.31h-4l-.58,4.31a12,12,0,0,0-3.89,1.61l-3.46-2.64-2.86,2.86,2.64,3.46a11.89,11.89,0,0,0-1.62,3.9l-4.31.58v4l4.31.58a12.09,12.09,0,0,0,1.61,3.9l-2.63,3.45,2.86,2.86,3.46-2.63a12,12,0,0,0,3.89,1.61l.58,4.31h4l.58-4.31a12.13,12.13,0,0,0,3.89-1.61l3.46,2.64,2.86-2.87L118,281.15A11.87,11.87,0,0,0,119.65,277.25ZM107.86,280a5.37,5.37,0,1,1,5.37-5.37A5.37,5.37,0,0,1,107.86,280Z"/>
            <line class="cls-5" x1="121.31" y1="292.12" x2="121.31" y2="294.77"/>
            <line class="cls-5" x1="125.85" y1="292.12" x2="125.85" y2="294.77"/>
            <line class="cls-5" x1="130.39" y1="292.12" x2="130.39" y2="294.77"/>
            <line class="cls-5" x1="134.94" y1="292.12" x2="134.94" y2="294.77"/>
            <line class="cls-5" x1="139.48" y1="292.12" x2="139.48" y2="294.77"/>
            <line class="cls-5" x1="121.31" y1="297.8" x2="121.31" y2="300.45"/>
            <line class="cls-5" x1="125.85" y1="297.8" x2="125.85" y2="300.45"/>
            <line class="cls-5" x1="130.39" y1="297.8" x2="130.39" y2="300.45"/>
            <line class="cls-5" x1="134.94" y1="297.8" x2="134.94" y2="300.45"/>
            <line class="cls-5" x1="139.48" y1="297.8" x2="139.48" y2="300.45"/>
            <polygon class="cls-4" points="33.3 286.05 36.9 282.46 36.9 270.43 29.88 270.43 22.86 270.43 22.86 282.46 26.47 286.05 33.3 286.05"/>
            <path class="cls-4" d="M7.59,267.27A5.3,5.3,0,0,1,12.9,262h34a5.3,5.3,0,0,1,5.31,5.3h0a5.31,5.31,0,0,1-5.31,5.31h-34a5.31,5.31,0,0,1-5.31-5.31Z"/>
            <path class="cls-4" d="M43.35,267.42a1.87,1.87,0,0,1,1.87-1.87h0a1.87,1.87,0,0,1,1.86,1.87h0a1.86,1.86,0,0,1-1.86,1.86h0a1.87,1.87,0,0,1-1.87-1.86Z"/>
            <path class="cls-4" d="M35.69,267.42a1.87,1.87,0,0,1,1.86-1.87h0a1.87,1.87,0,0,1,1.86,1.87h0a1.86,1.86,0,0,1-1.86,1.86h0a1.86,1.86,0,0,1-1.86-1.86Z"/>
            <path class="cls-4" d="M28,267.42a1.87,1.87,0,0,1,1.86-1.87h0a1.87,1.87,0,0,1,1.86,1.87h0a1.86,1.86,0,0,1-1.86,1.86h0A1.86,1.86,0,0,1,28,267.42Z"/>
            <path class="cls-4" d="M20.35,267.42a1.87,1.87,0,0,1,1.86-1.87h0a1.87,1.87,0,0,1,1.87,1.87h0a1.87,1.87,0,0,1-1.87,1.86h0a1.86,1.86,0,0,1-1.86-1.86Z"/>
            <path class="cls-4" d="M12.68,267.42a1.87,1.87,0,0,1,1.87-1.87h0a1.87,1.87,0,0,1,1.86,1.87h0a1.86,1.86,0,0,1-1.86,1.86h0a1.87,1.87,0,0,1-1.87-1.86Z"/>
            <line class="cls-5" x1="32.17" y1="280.75" x2="27.59" y2="280.75"/>
            <line class="cls-5" x1="32.17" y1="277.45" x2="27.59" y2="277.45"/>
            <line class="cls-5" x1="29.88" y1="301.81" x2="29.88" y2="310.7"/>
            <polygon class="cls-4" points="33.82 295.36 33.82 291.21 33.82 287.05 31.85 287.05 29.88 287.05 27.91 287.05 25.94 287.05 25.94 291.21 25.94 295.36 25.94 299.38 33.82 299.38 33.82 295.36"/>
            <polygon class="cls-4" points="25.94 299.38 25.94 299.52 27.91 303.68 29.88 303.68 31.85 303.68 33.82 299.52 33.82 299.38 25.94 299.38"/>
            <rect class="cls-4" x="24.58" y="285.19" width="10.61" height="5.16"/>
            <line class="cls-5" y1="310.7" x2="59.76" y2="310.7"/>
            <line class="cls-5" x1="35.25" y1="306.94" x2="36.72" y2="305.62"/>
            <line class="cls-5" x1="38.92" y1="303.65" x2="40.39" y2="302.33"/>
            <line class="cls-5" x1="42.6" y1="300.35" x2="44.07" y2="299.03"/>
            <line class="cls-5" x1="46.27" y1="297.06" x2="47.74" y2="295.74"/>
            <line class="cls-5" x1="24.51" y1="306.94" x2="23.04" y2="305.62"/>
            <line class="cls-5" x1="20.84" y1="303.65" x2="19.37" y2="302.33"/>
            <line class="cls-5" x1="17.17" y1="300.35" x2="15.7" y2="299.03"/>
            <line class="cls-5" x1="13.49" y1="297.06" x2="12.02" y2="295.74"/>
            <rect class="cls-4" x="259.54" y="284.92" width="14.76" height="14.39"/>
            <line class="cls-5" x1="264.02" y1="288.09" x2="264.02" y2="290.15"/>
            <line class="cls-5" x1="266.92" y1="288.09" x2="266.92" y2="290.15"/>
            <line class="cls-5" x1="269.82" y1="288.09" x2="269.82" y2="290.15"/>
            <rect class="cls-4" x="240.16" y="292.55" width="14.76" height="14.39"/>
            <line class="cls-5" x1="244.65" y1="295.73" x2="244.65" y2="297.78"/>
            <line class="cls-5" x1="247.54" y1="295.73" x2="247.54" y2="297.78"/>
            <line class="cls-5" x1="250.44" y1="295.73" x2="250.44" y2="297.78"/>
            <rect class="cls-4" x="278.92" y="292.55" width="14.76" height="14.39"/>
            <line class="cls-5" x1="283.4" y1="295.73" x2="283.4" y2="297.78"/>
            <line class="cls-5" x1="286.3" y1="295.73" x2="286.3" y2="297.78"/>
            <line class="cls-5" x1="289.19" y1="295.73" x2="289.19" y2="297.78"/>
            <line class="cls-5" x1="253.32" y1="275.5" x2="253.32" y2="284.88"/>
            <rect class="cls-4" x="251.24" y="268.3" width="4.15" height="9.38"/>
            <rect class="cls-4" x="250" y="276.89" width="6.63" height="2.44"/>
            <line class="cls-5" x1="266.92" y1="275.5" x2="266.92" y2="284.88"/>
            <rect class="cls-4" x="264.85" y="268.3" width="4.15" height="9.38"/>
            <rect class="cls-4" x="263.61" y="276.89" width="6.63" height="2.44"/>
            <line class="cls-5" x1="280.52" y1="275.5" x2="280.52" y2="284.88"/>
            <rect class="cls-4" x="278.45" y="268.3" width="4.15" height="9.38"/>
            <rect class="cls-4" x="277.21" y="276.89" width="6.63" height="2.44"/>
            <rect class="cls-4" x="245.47" y="265.73" width="42.91" height="5.58"/>
            <line class="cls-5" x1="231.59" y1="306.94" x2="300.73" y2="306.94"/>
            <polygon class="cls-4" points="165.53 288.42 164.9 288.87 164.59 288.16 155.33 292.28 155.29 299.39 159.11 302.82 159.79 301.8 157.34 298.16 157.69 293.73 164.12 291.74 168.63 296.71 166.68 300.71 162.73 302.6 162.79 303.83 167.82 302.81 171.41 296.67 165.53 288.42"/>
            <path class="cls-4" d="M168.52,287.73A3.19,3.19,0,0,1,164.6,290h0a3.19,3.19,0,0,1-2.24-3.92l2.86-10.49a3.21,3.21,0,0,1,3.93-2.24h0a3.21,3.21,0,0,1,2.24,3.93Z"/>
            <path class="cls-4" d="M173.07,278.54a5.31,5.31,0,0,1-7.26-2h0a5.32,5.32,0,0,1,2-7.26l14.8-8.45a5.32,5.32,0,0,1,7.27,2h0a5.33,5.33,0,0,1-2,7.27Z"/>
            <path class="cls-4" d="M202.79,268.3a5.34,5.34,0,0,1,1.93,7.28h0a5.34,5.34,0,0,1-7.29,1.93l-14.73-8.57a5.32,5.32,0,0,1-1.93-7.28h0a5.33,5.33,0,0,1,7.28-1.93Z"/>
            <path class="cls-4" d="M187,262.67a2.24,2.24,0,1,1-3.06.81A2.24,2.24,0,0,1,187,262.67Z"/>
            <rect class="cls-4" x="186.9" y="281.06" width="27.49" height="27.06"/>
            <rect class="cls-4" x="179.87" y="304.92" width="41.55" height="8.74"/>
            <path class="cls-4" d="M206,289.75a5.32,5.32,0,0,1-5.33,5.32h0a5.32,5.32,0,0,1-5.32-5.32V272.7a5.33,5.33,0,0,1,5.32-5.33h0A5.33,5.33,0,0,1,206,272.7Z"/>
            <path class="cls-4" d="M202.88,273.24a2.24,2.24,0,1,1-2.24-2.24A2.24,2.24,0,0,1,202.88,273.24Z"/>
            <path class="cls-4" d="M202.88,289.21a2.24,2.24,0,1,1-2.24-2.24A2.23,2.23,0,0,1,202.88,289.21Z"/>
            <line class="cls-5" x1="183.6" y1="308.33" x2="183.6" y2="310.03"/>
            <line class="cls-5" x1="187.01" y1="308.33" x2="187.01" y2="310.03"/>
            <line class="cls-5" x1="190.42" y1="308.33" x2="190.42" y2="310.03"/>
            <line class="cls-5" x1="193.83" y1="308.33" x2="193.83" y2="310.03"/>
            <line class="cls-5" x1="197.23" y1="308.33" x2="197.23" y2="310.03"/>
            <line class="cls-5" x1="200.64" y1="308.33" x2="200.64" y2="310.03"/>
            <line class="cls-5" x1="204.05" y1="308.33" x2="204.05" y2="310.03"/>
            <line class="cls-5" x1="207.46" y1="308.33" x2="207.46" y2="310.03"/>
            <line class="cls-5" x1="210.87" y1="308.33" x2="210.87" y2="310.03"/>
            <line class="cls-5" x1="214.28" y1="308.33" x2="214.28" y2="310.03"/>
            <line class="cls-5" x1="217.69" y1="308.33" x2="217.69" y2="310.03"/>
            <rect class="cls-6" x="115.38" y="109.08" width="69.96" height="24.15" rx="3"/>
            <line class="cls-7" x1="177.99" y1="121.16" x2="169.87" y2="121.16"/>
            <line class="cls-7" x1="164.74" y1="121.16" x2="156.61" y2="121.16"/>
            <path class="cls-6" d="M128.07,72.49h0a2.68,2.68,0,0,1,2.68,2.68v33.91a0,0,0,0,1,0,0h-5.37a0,0,0,0,1,0,0V75.18a2.68,2.68,0,0,1,2.68-2.68Z"/>
            <path class="cls-6" d="M172.66,72.49h0a2.68,2.68,0,0,1,2.68,2.68v33.91a0,0,0,0,1,0,0H170a0,0,0,0,1,0,0V75.18A2.68,2.68,0,0,1,172.66,72.49Z"/>
            <circle class="cls-6" cx="127.51" cy="121.16" r="5.35"/>
            <text class="cls-3" transform="translate(123.82 12.51)">Users</text>
        </g>
    </g>
</svg>