<?xml version="1.0" encoding="UTF-8"?>
<svg id="_레이어_2" data-name="레이어 2" xmlns="http://www.w3.org/2000/svg" viewBox="0 0 66.04 62.98">
  <defs>
    <style>
      .cls-1 {
        fill: #00bce7;
      }
    </style>
  </defs>
  <g id="Layer_1" data-name="Layer 1">
    <g>
      <path class="cls-1" d="M49.08,31.65c-1.24,0-2.72,.03-4.43,.03-1.34,5.44-2.82,11.22-3.69,14.58-1.34,.17-4,.17-5.27,0-1.24-4.87-2.35-9.4-3.49-14.54h-1.41c-1.14,5.14-2.25,9.67-3.49,14.54-1.28,.17-3.93,.17-5.27,0-.87-3.36-2.35-9.13-3.69-14.58-1.71,0-3.19-.03-4.43-.03-.1-1.51-.07-3.19,0-4.87l3.19-.07c-.71-2.85-1.31-5.31-1.65-6.82,1.48-.61,3.19-1.07,5.07-1.38,.4,1.61,1.11,4.74,1.85,8.16,1.64,0,3.39,0,5.2-.03,.54-2.38,1.04-4.63,1.44-6.28,1.38-.1,3.93-.13,4.97,0,.41,1.65,.91,3.9,1.44,6.28,1.81,.03,3.56,.03,5.21,.03,.74-3.43,1.44-6.55,1.85-8.16,1.88,.3,3.59,.77,5.07,1.38-.33,1.51-.94,3.96-1.64,6.82l3.19,.07c.1,1.71,.1,3.39,0,4.87Zm-22.7,.07h-2.95c.57,2.69,1.07,5.17,1.38,6.75l1.58-6.75Zm13.17,0h-2.96l1.58,6.75c.3-1.58,.81-4.06,1.38-6.75Z"/>
      <path class="cls-1" d="M31.49,62.98C14.13,62.98,0,48.85,0,31.49S14.13,0,31.49,0s31.11,13.75,31.48,30.79h-3.31c-.37-15.22-12.87-27.48-28.17-27.48S3.31,15.95,3.31,31.49s12.64,28.18,28.18,28.18c5.58,0,10.96-1.63,15.6-4.73l1.92,2.69c-5.21,3.5-11.25,5.35-17.52,5.35Z"/>
      <polygon class="cls-1" points="48.31 50.48 51.35 50.48 51.35 36.3 63 36.3 63 50.48 66.04 50.48 57.18 62.91 48.31 50.48"/>
    </g>
  </g>
</svg>