<?xml version="1.0" encoding="UTF-8"?>
<svg id="_레이어_2" data-name="레이어 2" xmlns="http://www.w3.org/2000/svg" viewBox="0 0 61.02 63.17">
  <defs>
    <style>
      .cls-1 {
        fill: #00bce7;
      }
    </style>
  </defs>
  <g id="Layer_1" data-name="Layer 1">
    <g>
      <path class="cls-1" d="M12.23,41l5.91,8.29,4.19-5.88c-4.27-2.71-7.11-7.47-7.11-12.9,0-8.44,6.85-15.29,15.29-15.29s15.28,6.84,15.29,15.28l2.6-3.64c.6-.84,1.85-.84,2.45,0l6.55,9.19c1.54-.49,2.73-.86,2.88-.9,.48-.11,.74-.55,.74-1.14v-6.98c0-.67-.25-1.02-.74-1.15-.28-.08-3.69-1.17-6.66-2.12-.49-1.69-1.17-3.31-2-4.82,1.43-2.77,3.08-5.97,3.22-6.2,.26-.42,.13-.91-.28-1.33-1.51-1.51-4.56-4.56-4.93-4.93-.47-.47-.89-.54-1.34-.29-.25,.14-3.44,1.79-6.21,3.21-1.52-.83-3.13-1.51-4.82-2-.95-2.97-2.04-6.39-2.11-6.66-.11-.48-.55-.74-1.14-.74h-6.98c-.67,0-1.02,.25-1.15,.74-.08,.28-1.17,3.69-2.12,6.66-1.69,.49-3.31,1.17-4.82,2-2.77-1.43-5.97-3.08-6.2-3.22-.42-.26-.91-.13-1.33,.28-1.51,1.51-4.56,4.56-4.93,4.93-.47,.47-.54,.89-.29,1.34,.14,.25,1.79,3.44,3.21,6.21-.83,1.52-1.51,3.13-2,4.82-2.97,.95-6.39,2.04-6.66,2.11-.48,.11-.74,.55-.74,1.14v6.98c0,.67,.25,1.02,.74,1.15,.28,.08,3.69,1.17,6.66,2.12,.46,1.57,1.09,3.07,1.84,4.5l.53-.75c.6-.84,1.85-.84,2.45,0Z"/>
      <path class="cls-1" d="M11.41,43.31c-.2-.28-.62-.28-.82,0L2.46,54.73h3.09v8.44h10.91v-8.44h3.09l-8.14-11.42Z"/>
      <path class="cls-1" d="M30.72,36.24c-.2-.28-.62-.28-.82,0l-8.14,11.42h3.09v15.52h10.91v-15.52h3.09l-8.14-11.42Z"/>
      <path class="cls-1" d="M58.17,40.58l-8.14-11.42c-.2-.28-.62-.28-.82,0l-8.14,11.42h3.09v22.59h10.91v-22.59h3.09Z"/>
    </g>
  </g>
</svg>