<?xml version="1.0" encoding="UTF-8"?>
<svg id="_레이어_2" data-name="레이어 2" xmlns="http://www.w3.org/2000/svg" viewBox="0 0 40 40">
  <defs>
    <style>
      .cls-1 {
        fill: #1989a3;
      }

      .cls-2 {
        fill: #fff;
      }
    </style>
  </defs>
  <g id="Layer_1" data-name="Layer 1">
    <rect class="cls-1" width="40" height="40" rx="8.57" ry="8.57"/>
    <g>
      <path class="cls-2" d="M30.18,26.25H15.32c-.54,0-1-.38-1.12-.9l-3.22-15.02h-3.45c-.63,0-1.14-.51-1.14-1.14s.51-1.14,1.14-1.14h4.37c.54,0,1,.38,1.12,.9l3.22,15.02h13.02l1.78-8h-11.61c-.63,0-1.14-.51-1.14-1.14s.51-1.14,1.14-1.14h13.04c.35,0,.67,.16,.89,.43,.22,.27,.3,.62,.22,.96l-2.29,10.28c-.12,.52-.58,.89-1.12,.89Z"/>
      <circle class="cls-2" cx="15.35" cy="29.1" r="1.71"/>
      <circle class="cls-2" cx="30.23" cy="29.1" r="1.71"/>
    </g>
  </g>
</svg>