<?xml version="1.0" encoding="UTF-8"?>
<svg id="_레이어_2" data-name="레이어 2" xmlns="http://www.w3.org/2000/svg" viewBox="0 0 40 40">
  <defs>
    <style>
      .cls-1 {
        fill: #fff;
      }

      .cls-2 {
        fill: #00bce7;
      }
    </style>
  </defs>
  <g id="Layer_1" data-name="Layer 1">
    <rect class="cls-2" width="40" height="40" rx="8.57" ry="8.57"/>
    <path class="cls-1" d="M30.44,30.25H9.56c-.63,0-1.14-.51-1.14-1.14v-5.1c0-.63,.51-1.14,1.14-1.14s1.14,.51,1.14,1.14v3.96H29.29v-3.96c0-.63,.51-1.14,1.14-1.14s1.14,.51,1.14,1.14v5.1c0,.63-.51,1.14-1.14,1.14Z"/>
    <path class="cls-1" d="M20,25.14c-.63,0-1.14-.51-1.14-1.14V9.18c0-.63,.51-1.14,1.14-1.14s1.14,.51,1.14,1.14v14.82c0,.63-.51,1.14-1.14,1.14Z"/>
    <path class="cls-1" d="M20,25.14c-.29,0-.58-.11-.81-.33l-4.47-4.47c-.45-.45-.45-1.17,0-1.62,.45-.45,1.17-.45,1.62,0l3.66,3.66,3.66-3.66c.45-.45,1.17-.45,1.62,0,.45,.45,.45,1.17,0,1.62l-4.47,4.47c-.22,.22-.52,.33-.81,.33Z"/>
  </g>
</svg>