<svg xmlns="http://www.w3.org/2000/svg" viewBox="0 0 72.75 72.75" width="72.75" height="72.75"><defs><style>.cls-1{fill:#00bce7;}.cls-2{fill:none;stroke:#fff;stroke-miterlimit:10;stroke-width:2px;}</style></defs><g id="레이어_2" data-name="레이어 2"><g id="Layer_1" data-name="Layer 1"><circle class="cls-1" cx="36.38" cy="36.38" r="36.38"/><polyline class="cls-2" points="37.3 48.04 43.41 48.04 43.41 43.2 49.07 43.2 49.07 38.99 53.52 38.99 53.52 18.89 19.35 18.89 19.35 35.9"/><line class="cls-2" x1="24.83" y1="23.13" x2="24.83" y2="29.02"/><line class="cls-2" x1="29.47" y1="23.13" x2="29.47" y2="29.02"/><line class="cls-2" x1="34.11" y1="23.13" x2="34.11" y2="29.02"/><line class="cls-2" x1="38.76" y1="23.13" x2="38.76" y2="29.02"/><line class="cls-2" x1="43.4" y1="23.13" x2="43.4" y2="29.02"/><line class="cls-2" x1="48.04" y1="23.13" x2="48.04" y2="29.02"/><circle class="cls-2" cx="26.31" cy="45.13" r="11.45"/><line class="cls-2" x1="34.41" y1="53.23" x2="42.03" y2="60.85"/><polyline class="cls-2" points="31.81 48.04 29.47 48.04 29.47 43.21 23.83 43.21 23.83 38.71"/></g></g></svg>