<svg xmlns="http://www.w3.org/2000/svg" viewBox="0 0 64 54.74" width="64" height="54.74"><defs><style>.cls-1{fill:none;stroke:#00bce7;stroke-miterlimit:10;stroke-width:3px;}</style></defs><g id="레이어_2" data-name="레이어 2"><g id="Layer_1" data-name="Layer 1"><rect class="cls-1" x="1.5" y="1.5" width="61" height="42.39"/><line class="cls-1" x1="15.27" y1="53.24" x2="48.73" y2="53.24"/><line class="cls-1" x1="23.72" y1="43.89" x2="23.72" y2="53.24"/><line class="cls-1" x1="40.28" y1="43.89" x2="40.28" y2="53.24"/><line class="cls-1" x1="7.8" y1="9.79" x2="27.74" y2="9.79"/><line class="cls-1" x1="7.8" y1="15.57" x2="16.41" y2="15.57"/><line class="cls-1" x1="7.8" y1="21.36" x2="22.01" y2="21.36"/><path class="cls-1" d="M53.39,15.46a5.63,5.63,0,1,1-5.62-5.67"/><path class="cls-1" d="M49.77,7.79a5.65,5.65,0,0,1,5.62,5.67"/><polyline class="cls-1" points="8.46 37.5 13.67 32.93 16.47 35.21 23.72 27.75 27.49 32.63 30.96 29.88 33.83 33.54"/><line class="cls-1" x1="41.72" y1="37.99" x2="41.72" y2="32.63"/><line class="cls-1" x1="46.28" y1="37.99" x2="46.28" y2="31.24"/><line class="cls-1" x1="50.84" y1="37.99" x2="50.84" y2="29.36"/><line class="cls-1" x1="55.39" y1="37.99" x2="55.39" y2="32.63"/></g></g></svg>