<svg xmlns="http://www.w3.org/2000/svg" viewBox="0 0 72.75 72.75" width="72.75" height="72.75"><defs><style>.cls-1{fill:#00bce7;}.cls-2{fill:none;stroke:#fff;stroke-miterlimit:10;stroke-width:2px;}</style></defs><g id="레이어_2" data-name="레이어 2"><g id="Layer_1" data-name="Layer 1"><circle class="cls-1" cx="36.38" cy="36.38" r="36.38"/><line class="cls-2" x1="33.28" y1="29.67" x2="28.77" y2="34.53"/><polyline class="cls-2" points="44.47 40.16 49.34 34.92 44.47 29.67"/><line class="cls-2" x1="40.7" y1="29.67" x2="37.05" y2="40.16"/><polyline class="cls-2" points="34.71 49.37 48.99 49.37 53.33 45.03 53.33 24.8 48.99 20.46 28.76 20.46 24.42 24.8 24.42 33.69"/><line class="cls-2" x1="55.8" y1="25.02" x2="59.88" y2="25.02"/><line class="cls-2" x1="55.8" y1="29.97" x2="59.88" y2="29.97"/><line class="cls-2" x1="55.8" y1="34.92" x2="59.88" y2="34.92"/><line class="cls-2" x1="55.8" y1="39.87" x2="59.88" y2="39.87"/><line class="cls-2" x1="55.8" y1="44.82" x2="59.88" y2="44.82"/><line class="cls-2" x1="17.43" y1="25.02" x2="21.51" y2="25.02"/><line class="cls-2" x1="17.43" y1="29.97" x2="21.51" y2="29.97"/><line class="cls-2" x1="28.76" y1="17.77" x2="28.76" y2="13.7"/><line class="cls-2" x1="33.71" y1="17.77" x2="33.71" y2="13.7"/><line class="cls-2" x1="38.65" y1="17.77" x2="38.65" y2="13.7"/><line class="cls-2" x1="43.6" y1="17.77" x2="43.6" y2="13.7"/><line class="cls-2" x1="48.55" y1="17.77" x2="48.55" y2="13.7"/><line class="cls-2" x1="38.65" y1="56.14" x2="38.65" y2="52.06"/><line class="cls-2" x1="43.6" y1="56.14" x2="43.6" y2="52.06"/><line class="cls-2" x1="48.55" y1="56.14" x2="48.55" y2="52.06"/><polyline class="cls-2" points="24.42 39.87 24.42 44.81 28.77 49.37"/><circle class="cls-2" cx="23.93" cy="45.13" r="11.45"/><line class="cls-2" x1="32.03" y1="53.23" x2="39.65" y2="60.85"/></g></g></svg>