<svg xmlns="http://www.w3.org/2000/svg" viewBox="0 0 72.75 72.75" width="72.75" height="72.75"><defs><style>.cls-1{fill:#00bce7;}.cls-2{fill:none;stroke:#fff;stroke-miterlimit:10;stroke-width:2px;}.cls-3{fill:#fff;}</style></defs><g id="레이어_2" data-name="레이어 2"><g id="Layer_1" data-name="Layer 1"><circle class="cls-1" cx="36.38" cy="36.38" r="36.38"/><path class="cls-2" d="M57.06,42.07a21.45,21.45,0,0,1-41.21.55"/><polygon class="cls-3" points="52.82 42.59 57.83 36.38 60.7 43.81 52.82 42.59"/><path class="cls-2" d="M15.69,30.68A21.45,21.45,0,0,1,56.86,30"/><polygon class="cls-3" points="19.93 30.16 14.93 36.38 12.05 28.93 19.93 30.16"/><path class="cls-3" d="M43.31,44.28H41l-1.66-4.65h-6l-1.67,4.65H29.44l5.87-15.81h2.11ZM34,37.77h4.74l-1.32-3.71q-.16-.48-.3-.84c-.09-.24-.17-.48-.24-.7s-.15-.47-.23-.72-.18-.55-.28-.92c-.12.37-.21.68-.28.94l-.22.71c-.08.22-.15.45-.23.69s-.18.52-.3.84Z"/></g></g></svg>