<svg xmlns="http://www.w3.org/2000/svg" viewBox="0 0 72.75 72.75" width="72.75" height="72.75"><defs><style>.cls-1{fill:#00bce7;}.cls-2{fill:none;stroke:#fff;stroke-miterlimit:10;stroke-width:2px;}</style></defs><g id="레이어_2" data-name="레이어 2"><g id="Layer_1" data-name="Layer 1"><circle class="cls-1" cx="36.38" cy="36.38" r="36.38"/><polyline class="cls-2" points="27.99 30.6 23.13 35.85 27.99 41.1"/><polyline class="cls-2" points="39.19 41.1 44.05 35.85 39.19 30.6"/><line class="cls-2" x1="35.41" y1="30.6" x2="31.76" y2="41.1"/><polyline class="cls-2" points="48.04 38.31 48.04 25.73 43.71 21.39 23.47 21.39 19.13 25.73 19.13 45.97 23.47 50.3 36.23 50.3"/><line class="cls-2" x1="50.51" y1="25.95" x2="54.59" y2="25.95"/><line class="cls-2" x1="12.15" y1="25.95" x2="16.23" y2="25.95"/><line class="cls-2" x1="12.15" y1="30.9" x2="16.23" y2="30.9"/><line class="cls-2" x1="12.15" y1="35.85" x2="16.23" y2="35.85"/><line class="cls-2" x1="12.15" y1="40.8" x2="16.23" y2="40.8"/><line class="cls-2" x1="12.15" y1="45.75" x2="16.23" y2="45.75"/><line class="cls-2" x1="23.47" y1="18.71" x2="23.47" y2="14.63"/><line class="cls-2" x1="28.42" y1="18.71" x2="28.42" y2="14.63"/><line class="cls-2" x1="33.37" y1="18.71" x2="33.37" y2="14.63"/><line class="cls-2" x1="38.32" y1="18.71" x2="38.32" y2="14.63"/><line class="cls-2" x1="43.27" y1="18.71" x2="43.27" y2="14.63"/><line class="cls-2" x1="23.47" y1="57.07" x2="23.47" y2="52.99"/><line class="cls-2" x1="28.42" y1="57.07" x2="28.42" y2="52.99"/><polygon class="cls-2" points="54.87 31.37 61.7 38.2 41.78 58.12 34.95 58.12 34.95 51.29 54.87 31.37"/><line class="cls-2" x1="58.47" y1="41.44" x2="51.64" y2="34.61"/></g></g></svg>