<svg xmlns="http://www.w3.org/2000/svg" viewBox="0 0 61 64.9" width="61" height="64.9"><defs><style>.cls-1,.cls-3{fill:none;stroke:#00bce7;stroke-miterlimit:10;stroke-width:3px;}.cls-2{fill:#00bce7;}.cls-3{stroke-dasharray:2.05 3.07;}</style></defs><g id="레이어_2" data-name="레이어 2"><g id="Layer_1" data-name="Layer 1"><path class="cls-1" d="M40.05,6A29.52,29.52,0,0,1,59.5,33.85c0,16.32-13,29.55-29,29.55s-29-13.23-29-29.55"/><polygon class="cls-2" points="40.61 13.2 30.5 4.31 43.25 0 40.61 13.2"/><path class="cls-1" d="M1.5,33.85c0-.33,0-.66,0-1"/><path class="cls-3" d="M1.77,29.8A29.26,29.26,0,0,1,28,4.42"/><path class="cls-1" d="M29.5,4.33l1,0"/><polyline class="cls-1" points="31.08 17.49 31.08 33.83 46.26 48.87"/><line class="cls-1" x1="2.39" y1="34.13" x2="8.2" y2="34.13"/><line class="cls-1" x1="53.69" y1="34.13" x2="59.5" y2="34.13"/><line class="cls-1" x1="31.08" y1="58.42" x2="31.08" y2="64.34"/></g></g></svg>