<svg xmlns="http://www.w3.org/2000/svg" viewBox="0 0 286.73 96.7" width="286.73" height="96.7"><defs><style>.cls-1,.cls-3{fill:none;stroke:#444;stroke-width:2px;}.cls-2,.cls-4{fill:#444;}.cls-2{fill-rule:evenodd;}.cls-3{stroke-linejoin:round;}</style></defs><g id="레이어_2" data-name="레이어 2"><g id="Layer_1" data-name="Layer 1"><polygon class="cls-1" points="175.6 77.61 175.6 84.12 179.4 84.12 179.4 77.61 184.14 77.61 184.14 90.96 170.85 90.96 170.85 77.61 175.6 77.61"/><rect class="cls-1" x="175.6" y="77.61" width="3.8" height="6.51"/><line class="cls-1" x1="203.13" y1="53.35" x2="186.3" y2="47.3"/><line class="cls-1" x1="184.56" y1="52.15" x2="201.29" y2="58.17"/><line class="cls-1" x1="175.74" y1="59.96" x2="173.81" y2="65.32"/><path class="cls-1" d="M176,52.31,174.35,57a2.3,2.3,0,0,0,1.39,3h0a2.3,2.3,0,0,0,2.95-1.39l1.69-4.69"/><path class="cls-1" d="M174.38,45.71A6.1,6.1,0,1,0,182.19,42,6.1,6.1,0,0,0,174.38,45.71Z"/><line class="cls-1" x1="180.54" y1="46.62" x2="179.71" y2="48.92"/><polyline class="cls-1" points="206.01 67.88 201.74 90.96 221.55 90.96 217.19 67.88"/><path class="cls-1" d="M201.29,59.22A10.31,10.31,0,1,0,211.6,48.91,10.32,10.32,0,0,0,201.29,59.22Z"/><path class="cls-1" d="M207.8,59.22a3.8,3.8,0,1,0,3.8-3.8A3.8,3.8,0,0,0,207.8,59.22Z"/><rect class="cls-1" x="167.72" y="90.96" width="56.43" height="4.61"/><path class="cls-2" d="M211.6,41.61a1.34,1.34,0,1,0,1.33,1.33,1.34,1.34,0,0,0-1.33-1.33Z"/><path class="cls-2" d="M211.6,35.06a8.23,8.23,0,0,0-5.73,2.38.66.66,0,1,1-.82-1,9.39,9.39,0,0,1,13.1,0,.66.66,0,1,1-.82,1,8.2,8.2,0,0,0-5.73-2.38Z"/><path class="cls-2" d="M211.6,37.69a5.53,5.53,0,0,0-3.79,1.54c-.77.72-1.51-.2-1-.86a6.78,6.78,0,0,1,9.6,0c.5.66-.24,1.58-1,.86a5.57,5.57,0,0,0-3.8-1.54Z"/><path class="cls-2" d="M211.6,40.32a2.93,2.93,0,0,0-2,.84.66.66,0,1,1-.82-1A4.2,4.2,0,0,1,211.6,39a4.24,4.24,0,0,1,2.84,1.12.66.66,0,1,1-.83,1,2.91,2.91,0,0,0-2-.84Z"/><polyline class="cls-3" points="265.6 73.37 265.6 86.11 236.04 86.11 236.04 46.07 243.2 46.07"/><polyline class="cls-3" points="258.44 46.07 265.6 46.07 265.6 64.13"/><path class="cls-3" d="M252.63,44.43a2.95,2.95,0,1,0-3.61,0H243.2v3.28h15.25V44.43Z"/><circle class="cls-4" cx="250.83" cy="42.13" r="1.09"/><line class="cls-3" x1="243.78" y1="55.96" x2="261.05" y2="55.96"/><line class="cls-3" x1="243.78" y1="80.94" x2="251.63" y2="80.94"/><polygon class="cls-3" points="269.05 60.69 273.6 65.24 256.19 82.65 251.63 82.65 251.63 78.1 269.05 60.69"/><line class="cls-3" x1="271.44" y1="67.4" x2="266.89" y2="62.84"/><polygon class="cls-4" points="238.84 52.69 240.41 55.96 244.47 52.37 240.59 54.26 238.84 52.69"/><line class="cls-3" x1="243.78" y1="63.87" x2="261.05" y2="63.87"/><polygon class="cls-4" points="238.84 60.61 240.41 63.87 244.47 60.29 240.59 62.17 238.84 60.61"/><line class="cls-3" x1="243.78" y1="71.79" x2="257.94" y2="71.79"/><polygon class="cls-4" points="238.84 68.53 240.41 71.79 244.47 68.21 240.59 70.09 238.84 68.53"/><rect class="cls-1" x="152.73" y="1" width="133" height="94.69"/><line class="cls-1" x1="88.04" y1="66.09" x2="139.25" y2="66.09"/><polygon class="cls-4" points="132.62 74.27 131.26 72.81 138.48 66.09 131.26 59.38 132.62 57.91 141.42 66.09 132.62 74.27"/><polygon class="cls-1" points="74.72 95.7 1 95.7 1 59.19 25.57 45.69 25.57 59.19 50.15 45.69 50.15 59.19 74.72 45.69 74.72 95.7"/><rect class="cls-1" x="10.56" y="71.92" width="12.8" height="9.93"/><rect class="cls-1" x="31.46" y="71.92" width="12.8" height="9.93"/><rect class="cls-1" x="52.35" y="71.92" width="12.8" height="9.93"/></g></g></svg>