<svg xmlns="http://www.w3.org/2000/svg" viewBox="0 0 267.54 97.66" width="267.54" height="97.66"><defs><style>.cls-1,.cls-3{fill:none;stroke:#444;stroke-width:2px;}.cls-2,.cls-4{fill:#444;}.cls-2{fill-rule:evenodd;}.cls-3{stroke-linejoin:round;}</style></defs><g id="레이어_2" data-name="레이어 2"><g id="Layer_1" data-name="Layer 1"><polygon class="cls-1" points="28.61 78.56 28.61 85.08 32.4 85.08 32.4 78.56 37.15 78.56 37.15 91.91 23.86 91.91 23.86 78.56 28.61 78.56"/><rect class="cls-1" x="28.6" y="78.57" width="3.8" height="6.51"/><line class="cls-1" x1="56.13" y1="54.31" x2="39.31" y2="48.25"/><line class="cls-1" x1="37.56" y1="53.1" x2="54.3" y2="59.12"/><line class="cls-1" x1="28.74" y1="60.92" x2="26.82" y2="66.28"/><path class="cls-1" d="M29.05,53.27,27.36,58a2.3,2.3,0,0,0,1.38,3h0a2.3,2.3,0,0,0,3-1.39l1.69-4.7"/><path class="cls-1" d="M27.39,46.66A6.1,6.1,0,1,0,35.2,43,6.1,6.1,0,0,0,27.39,46.66Z"/><line class="cls-1" x1="33.54" y1="47.58" x2="32.72" y2="49.88"/><polyline class="cls-1" points="59.02 68.84 54.75 91.91 74.55 91.91 70.19 68.84"/><path class="cls-1" d="M54.3,60.17a10.31,10.31,0,1,0,10.31-10.3A10.31,10.31,0,0,0,54.3,60.17Z"/><path class="cls-1" d="M60.81,60.17a3.8,3.8,0,1,0,3.8-3.79A3.8,3.8,0,0,0,60.81,60.17Z"/><rect class="cls-1" x="20.73" y="91.91" width="56.43" height="4.61"/><polygon class="cls-1" points="140.98 96.66 1 96.66 1 27.32 47.66 1.69 47.65 27.32 94.31 1.69 94.31 27.32 140.98 1.69 140.98 96.66"/><path class="cls-2" d="M64.61,42.57a1.33,1.33,0,1,0,1.33,1.33,1.33,1.33,0,0,0-1.33-1.33Z"/><path class="cls-2" d="M64.61,36a8.16,8.16,0,0,0-5.73,2.38.66.66,0,1,1-.82-1,9.39,9.39,0,0,1,13.1,0,.66.66,0,1,1-.82,1A8.19,8.19,0,0,0,64.61,36Z"/><path class="cls-2" d="M64.61,38.65a5.53,5.53,0,0,0-3.8,1.54c-.76.72-1.5-.2-1-.86a6.76,6.76,0,0,1,9.6,0c.5.66-.24,1.58-1,.86a5.48,5.48,0,0,0-3.79-1.54Z"/><path class="cls-2" d="M64.61,41.28a2.86,2.86,0,0,0-2,.84.66.66,0,1,1-.83-1A4.25,4.25,0,0,1,64.61,40a4.21,4.21,0,0,1,2.83,1.13.66.66,0,1,1-.82,1,2.88,2.88,0,0,0-2-.84Z"/><polyline class="cls-3" points="126.28 74.33 126.28 87.07 96.72 87.07 96.72 47.03 103.88 47.03"/><polyline class="cls-3" points="119.12 47.03 126.28 47.03 126.28 65.08"/><path class="cls-3" d="M113.3,45.38a2.94,2.94,0,1,0-4.75-2.31,3,3,0,0,0,1.14,2.31h-5.81v3.29h15.24V45.38Z"/><circle class="cls-4" cx="111.5" cy="43.08" r="1.09"/><line class="cls-3" x1="104.45" y1="56.91" x2="121.73" y2="56.91"/><line class="cls-3" x1="104.45" y1="81.9" x2="112.31" y2="81.9"/><polygon class="cls-3" points="129.72 61.64 134.27 66.2 116.86 83.61 112.31 83.61 112.31 79.05 129.72 61.64"/><line class="cls-3" x1="132.12" y1="68.36" x2="127.56" y2="63.8"/><polygon class="cls-4" points="99.52 53.64 101.08 56.91 105.14 53.33 101.26 55.21 99.52 53.64"/><line class="cls-3" x1="104.45" y1="64.83" x2="121.73" y2="64.83"/><polygon class="cls-4" points="99.52 61.56 101.08 64.83 105.14 61.25 101.26 63.13 99.52 61.56"/><line class="cls-3" x1="104.45" y1="72.75" x2="118.61" y2="72.75"/><polygon class="cls-4" points="99.52 69.48 101.08 72.75 105.14 69.17 101.26 71.05 99.52 69.48"/><rect class="cls-1" x="218.03" y="25.48" width="48.51" height="71.17"/><rect class="cls-1" x="225.61" y="32.44" width="12.8" height="9.93"/><rect class="cls-1" x="246.16" y="32.44" width="12.8" height="9.93"/><rect class="cls-1" x="225.61" y="50.76" width="12.8" height="9.93"/><rect class="cls-1" x="246.16" y="50.76" width="12.8" height="9.93"/><rect class="cls-1" x="225.61" y="69.08" width="12.8" height="9.93"/><rect class="cls-1" x="246.16" y="69.08" width="12.8" height="9.93"/><line class="cls-1" x1="206.45" y1="67.05" x2="155.25" y2="67.05"/><polygon class="cls-4" points="161.88 58.87 163.24 60.33 156.02 67.04 163.24 73.76 161.88 75.22 153.08 67.04 161.88 58.87"/></g></g></svg>