<svg xmlns="http://www.w3.org/2000/svg" viewBox="0 0 1092.5 86.6" width="1092.5" height="86.6">
    <defs>
        <style>
            @import url("/css/font.css");
            .cls-1{fill:#fff;}
            .cls-2{font-size:22px;fill:#444;font-family:NanumSquareR, NanumSquare;}
        </style>
    </defs>
    <g id="레이어_2" data-name="레이어 2">
        <g id="Layer_1" data-name="Layer 1">
            <polygon class="cls-1" points="282.5 43.3 235.5 0 235.5 10.39 0 10.39 32 43.3 0 76.21 235.5 76.21 235.5 86.6 282.5 43.3"/>
            <polygon class="cls-1" points="552.5 43.3 505.5 0 505.5 10.39 270 10.39 302 43.3 270 76.21 505.5 76.21 505.5 86.6 552.5 43.3"/>
            <polygon class="cls-1" points="822.5 43.3 775.5 0 775.5 10.39 540 10.39 572 43.3 540 76.21 775.5 76.21 775.5 86.6 822.5 43.3"/>
            <polygon class="cls-1" points="1092.5 43.3 1045.5 0 1045.5 10.39 810 10.39 842 43.3 810 76.21 1045.5 76.21 1045.5 86.6 1092.5 43.3"/>
            <text class="cls-2" transform="translate(50.63 51.19)">테스트 항목/방식 협의</text>
            <text class="cls-2" transform="translate(317 51.19)">테스트용 SW/JIG 개발</text>
            <text class="cls-2" transform="translate(629.37 51.19)">시험 테스트</text>
            <text class="cls-2" transform="translate(902.7 51.19)">양산 테스트</text>
        </g>
    </g>
</svg>