<svg xmlns="http://www.w3.org/2000/svg" viewBox="0 0 1092.5 86.6" width="1092.5" height="86.6">
    <defs>
        <style>
        @import url("/css/font.css");
        .cls-1{fill:#444;}
        .cls-2{font-size:22px;fill:#fff;font-family:NanumSquare;}
        </style>
    </defs>
    <g id="레이어_2" data-name="레이어 2">
        <g id="Layer_1" data-name="Layer 1">
            <polygon class="cls-1" points="282.5 43.3 235.5 0 235.5 10.39 0 10.39 32 43.3 0 76.21 235.5 76.21 235.5 86.6 282.5 43.3"/>
            <polygon class="cls-1" points="552.5 43.3 505.5 0 505.5 10.39 270 10.39 302 43.3 270 76.21 505.5 76.21 505.5 86.6 552.5 43.3"/>
            <polygon class="cls-1" points="822.5 43.3 775.5 0 775.5 10.39 540 10.39 572 43.3 540 76.21 775.5 76.21 775.5 86.6 822.5 43.3"/>
            <polygon class="cls-1" points="1092.5 43.3 1045.5 0 1045.5 10.39 810 10.39 842 43.3 810 76.21 1045.5 76.21 1045.5 86.6 1092.5 43.3"/>
            <text class="cls-2" transform="translate(114.98 50.36)">발주</text>
            <text class="cls-2" transform="translate(366.04 50.36)">제품 입고</text>
            <text class="cls-2" transform="translate(629.37 50.36)">테스트 수행</text>
            <text class="cls-2" transform="translate(857.88 50.36)">테스트 완료 / 제품출하</text>
        </g>
    </g>
</svg>