<svg xmlns="http://www.w3.org/2000/svg" viewBox="0 0 213.33 341.72">
    <defs>
        <style>
        @import url("/css/font.css");
        .cls-1{fill:#444;}
        .cls-2{fill:#eee;}
        .cls-3{font-size:14px;fill:#fff;font-family:NanumSquareR, NanumSquare;}</style>
    </defs>
    <g id="레이어_2" data-name="레이어 2">
        <g id="Layer_1" data-name="Layer 1">
            <polygon class="cls-1" points="106.67 341.72 190.82 279.9 170.62 279.9 170.62 222.68 42.72 222.68 42.72 279.9 22.51 279.9 106.67 341.72"/>
            <polygon class="cls-1" points="11.26 180.64 39.02 180.64 39.02 145.18 174.31 145.18 174.31 180.64 202.08 180.64 106.67 250.73 11.26 180.64"/>
            <path class="cls-2" d="M170.62,148.87v35.46h20.2l-84.15,61.82L22.51,184.33h20.2V148.87H170.62m7.38-7.38H35.33V177H0l18.14,13.33L102.3,252.1l4.37,3.2,4.37-3.2,84.15-61.82L213.33,177H178V141.49Z"/>
            <polygon class="cls-1" points="11.26 104.89 39.02 104.89 39.02 69.44 174.31 69.44 174.31 104.89 202.08 104.89 106.67 174.98 11.26 104.89"/>
            <path class="cls-2" d="M170.62,73.13v35.45h20.2L106.67,170.4,22.51,108.58h20.2V73.13H170.62M178,65.75H35.33V101.2H0l18.14,13.33,84.16,61.82,4.37,3.21,4.37-3.21,84.15-61.82,18.14-13.33H178V65.75Z"/>
            <polygon class="cls-1" points="11.26 29.15 39.02 29.15 39.02 3.69 174.31 3.69 174.31 29.15 202.08 29.15 106.67 99.23 11.26 29.15"/>
            <path class="cls-2" d="M170.62,7.38V32.84h20.2L106.67,94.66,22.51,32.84h20.2V7.38H170.62M178,0H35.33V25.46H0L18.14,38.78,102.3,100.6l4.37,3.21L111,100.6l84.15-61.82,18.14-13.32H178V0Z"/>
            <text class="cls-3" transform="translate(93.93 44.78)">발주</text>
            <text class="cls-3" transform="translate(79.44 124.95)">제품 입고</text>
            <text class="cls-3" transform="translate(73.07 200.12)">테스트 수행</text>
            <text class="cls-3" transform="translate(73.07 277.2)">테스트 완료                <tspan x="8.12" y="18">제품출하</tspan>
            </text>
        </g>
    </g>
</svg>