<svg xmlns="http://www.w3.org/2000/svg" viewBox="0 0 28.85 28.85" width="28.85" height="28.85">
    <defs>
        <style>.cls-1{fill:#888;}</style>
    </defs>
    <g id="레이어_2" data-name="레이어 2">
        <g id="Layer_1" data-name="Layer 1">
            <path class="cls-1" d="M23.85,0H5A5,5,0,0,0,0,5V23.85a5,5,0,0,0,5,5H23.85a5,5,0,0,0,5-5V5A5,5,0,0,0,23.85,0ZM22.07,10.5c0,.17,0,.34,0,.51A11.22,11.22,0,0,1,4.81,20.47c.31,0,.62.05.94.05a7.9,7.9,0,0,0,4.9-1.69A3.94,3.94,0,0,1,7,16.09a3.57,3.57,0,0,0,.74.07,4,4,0,0,0,1-.13,4,4,0,0,1-3.17-3.87v-.05a4,4,0,0,0,1.79.49A4,4,0,0,1,6.15,7.33a11.22,11.22,0,0,0,8.13,4.13,3.82,3.82,0,0,1-.1-.9A3.94,3.94,0,0,1,21,7.86a8,8,0,0,0,2.51-1,4,4,0,0,1-1.74,2.18A7.56,7.56,0,0,0,24,8.46,8,8,0,0,1,22.07,10.5Z"/>
        </g>
    </g>
</svg>