<svg xmlns="http://www.w3.org/2000/svg" viewBox="0 0 28.85 28.85" width="28.85" height="28.85">
    <defs>
        <style>.cls-1{fill:#888;}</style>
    </defs>
    <g id="레이어_2" data-name="레이어 2">
        <g id="Layer_1" data-name="Layer 1">
            <path class="cls-1" d="M23.85,0H5A5,5,0,0,0,0,5V23.85a5,5,0,0,0,5,5h7.23V18.75H8.54V14.51h3.69V11.88A9.23,9.23,0,0,1,13,8a5.33,5.33,0,0,1,4.35-2.33,28,28,0,0,1,3.61.3V9.65a8.35,8.35,0,0,0-1.8-.09,2.13,2.13,0,0,0-2.33,2v3h3.91l-.66,4.24H16.8V28.82h0l0,0h7.05a5,5,0,0,0,5-5V5A5,5,0,0,0,23.85,0Z"/>
        </g>
    </g>
</svg>