<svg xmlns="http://www.w3.org/2000/svg" viewBox="0 0 149 25.16" width="149" height="25.16">
    <defs>
        <style>.cls-1{fill:#888;}</style>
    </defs>
    <g id="레이어_2" data-name="레이어 2">
        <g id="Layer_1" data-name="Layer 1">
            <polygon class="cls-1" points="25.59 20.09 17.18 20.09 17.18 20.07 17.18 6.72 12.14 6.72 12.14 20.09 3.73 20.09 3.73 20.07 3.73 6.72 0 6.72 0 25.16 28.95 25.16 28.95 6.72 25.59 6.72 25.59 20.09"/>
            <polygon class="cls-1" points="5.41 18.41 10.46 18.41 10.46 5.01 18.86 5.01 18.86 18.41 23.91 18.41 23.91 5.01 28.95 5.01 28.95 0 0 0 0 5.04 5.41 5.04 5.41 18.41"/>
            <polygon class="cls-1" points="62.29 7.24 59.3 17.94 56.12 7.24 55.69 7.24 54.5 7.24 53.81 7.24 50.63 17.94 47.64 7.24 43.99 7.24 48.34 22.88 49.15 22.88 52 22.88 54.97 12.92 57.93 22.88 60.77 22.88 60.77 22.88 61.59 22.88 65.94 7.24 62.29 7.24"/>
            <path class="cls-1" d="M72.24,7.24H68l-1,3.65h5.28a1.67,1.67,0,0,1,1.61,1.28h-3.2a5.36,5.36,0,0,0,0,10.71h6.91V17.71h0V12.59A5.35,5.35,0,0,0,72.24,7.24Zm1.66,12H70.65a1.7,1.7,0,0,1,0-3.39H73.9Z"/>
            <path class="cls-1" d="M102.21,22.88h-5.3c-3.93,0-7.12-3.51-7.12-7.81S93,7.26,96.91,7.26s7.13,3.5,7.13,7.81h0a1.83,1.83,0,0,1-1.83,1.83H93.8a3.49,3.49,0,0,0,3.11,2.32h5.3ZM93.8,13.24H100a3.24,3.24,0,0,0-6.22,0Z"/>
            <path class="cls-1" d="M83.26,22.88H79.6V12.65A5.42,5.42,0,0,1,85,7.24h3.59v3.65H85a1.76,1.76,0,0,0-1.76,1.76Z"/>
            <path class="cls-1" d="M46.3,22.88l-1-3.66H41a3.35,3.35,0,0,1-3.35-3.35h0V10.92H43L42.71,10h0L42,7.24h-4.3V2.4L34,3.22V15.87a7,7,0,0,0,7,7Z"/>
            <polygon class="cls-1" points="109.51 2.28 107.68 2.28 107.68 22.82 109.51 22.82 109.51 22.82 117.95 22.82 117.95 21 109.51 21 109.51 2.28"/>
            <path class="cls-1" d="M125.46,2.28l-6.08,20.54h1.91l1.81-6.13h6.69l1.82,6.13h1.9L127.43,2.28Zm-1.81,12.58,2.8-9.46,2.8,9.46Z"/>
            <path class="cls-1" d="M145.66,11.38a5.07,5.07,0,0,0,1.9-4,5.13,5.13,0,0,0-5.16-5.1h-7.54V22.88h8a6.08,6.08,0,0,0,2.83-11.5Zm-9-7.22h5.71a3.31,3.31,0,0,1,3.34,3.27,3.31,3.31,0,0,1-3.34,3.27h-5.71Zm6.14,16.89h-6.14V12.53h6.14a4.26,4.26,0,1,1,0,8.52Z"/>
        </g>
    </g>
</svg>