<svg xmlns="http://www.w3.org/2000/svg" viewBox="0 0 149 25.21" width="149" height="25.21">
    <defs>
        <style>.cls-1{fill:#00bce7;}</style>
    </defs>
    <g id="레이어_2" data-name="레이어 2">
        <g id="Layer_1" data-name="Layer 1">
            <polygon class="cls-1" points="25.64 20.14 17.22 20.14 17.22 20.12 17.22 6.74 12.16 6.74 12.16 20.14 3.74 20.14 3.74 20.12 3.74 6.74 0 6.74 0 25.21 29.01 25.21 29.01 6.74 25.64 6.74 25.64 20.14"/>
            <polygon class="cls-1" points="5.42 18.45 10.48 18.45 10.48 5.02 18.9 5.02 18.9 18.45 23.96 18.45 23.96 5.02 29.01 5.02 29.01 0 0 0 0 5.05 5.42 5.05 5.42 18.45"/>
            <polygon class="cls-1" points="62.42 7.25 59.43 17.98 56.24 7.25 55.81 7.25 54.62 7.25 53.93 7.25 50.73 17.98 47.75 7.25 44.08 7.25 48.45 22.92 49.26 22.92 52.11 22.92 55.08 12.95 58.05 22.92 60.91 22.92 60.91 22.92 61.72 22.92 66.09 7.25 62.42 7.25"/>
            <path class="cls-1" d="M72.4,7.25H68.12l-1,3.67h5.3A1.66,1.66,0,0,1,74,12.19H70.8a5.37,5.37,0,0,0,0,10.73h6.93V17.75h0V12.62A5.36,5.36,0,0,0,72.4,7.25Zm1.66,12H70.8a1.7,1.7,0,0,1,0-3.4h3.26Z"/>
            <path class="cls-1" d="M102.11,22.92H96.8c-3.94,0-7.14-3.51-7.14-7.82s3.2-7.83,7.14-7.83,7.14,3.52,7.14,7.83h0a1.83,1.83,0,0,1-1.83,1.83H93.68a3.48,3.48,0,0,0,3.12,2.33h5.31Zm-8.43-9.65h6.24a3.25,3.25,0,0,0-6.24,0Z"/>
            <path class="cls-1" d="M88.23,10.92h0a4.71,4.71,0,0,1,.27-.57,10,10,0,0,1,2.4-3.1H85.21a5.44,5.44,0,0,0-5.44,5.43V22.92h3.67V12.68a1.76,1.76,0,0,1,1.77-1.76Z"/>
            <path class="cls-1" d="M46.4,22.92l-1-3.66H41.09a3.37,3.37,0,0,1-3.36-3.36h0v-5h5.33L42.8,10h0L42,7.25H37.73V2.4l-3.66.83V15.9a7,7,0,0,0,7,7Z"/>
            <polygon class="cls-1" points="109.43 2.29 107.59 2.29 107.59 22.87 109.43 22.87 109.43 22.87 117.89 22.87 117.89 21.04 109.43 21.04 109.43 2.29"/>
            <path class="cls-1" d="M125.41,2.29l-6.09,20.58h1.91l1.82-6.14h6.7l1.82,6.14h1.91l-6.1-20.58Zm-1.82,12.6,2.81-9.47,2.81,9.47Z"/>
            <path class="cls-1" d="M145.66,11.4a5.06,5.06,0,0,0,1.9-3.95,5.15,5.15,0,0,0-5.17-5.11h-7.56V22.92h8a6.09,6.09,0,0,0,2.84-11.52Zm-9-7.23h5.72a3.31,3.31,0,0,1,3.34,3.28,3.31,3.31,0,0,1-3.34,3.27h-5.72Zm6.15,16.92h-6.15V12.56h6.15a4.27,4.27,0,1,1,0,8.53Z"/>
        </g>
    </g>
</svg>